<svg viewBox="-16 -32 880 192" width="880" height="192" xmlns="http://www.w3.org/2000/svg"><desc>Generated with https://github.com/Platane/snk</desc><style>@keyframes c0{.26%{fill:var(--c1)}.28%,to{fill:var(--ce)}}@keyframes c1{53.36%{fill:var(--c2)}53.38%,to{fill:var(--ce)}}@keyframes c2{6.19%{fill:var(--c1)}6.21%,to{fill:var(--ce)}}@keyframes c3{51.47%{fill:var(--c2)}51.49%,to{fill:var(--ce)}}@keyframes c4{.8%{fill:var(--c1)}.82%,to{fill:var(--ce)}}@keyframes c5{1.07%{fill:var(--c1)}1.09%,to{fill:var(--ce)}}@keyframes c6{52.55%{fill:var(--c2)}52.57%,to{fill:var(--ce)}}@keyframes c7{52.28%{fill:var(--c2)}52.3%,to{fill:var(--ce)}}@keyframes c8{4.57%{fill:var(--c1)}4.59%,to{fill:var(--ce)}}@keyframes c9{1.61%{fill:var(--c1)}1.63%,to{fill:var(--ce)}}@keyframes ca{2.15%{fill:var(--c1)}2.17%,to{fill:var(--ce)}}@keyframes cb{2.95%{fill:var(--c1)}2.97%,to{fill:var(--ce)}}@keyframes cc{10.23%{fill:var(--c1)}10.25%,to{fill:var(--ce)}}@keyframes cd{75.73%{fill:var(--c4)}75.75%,to{fill:var(--ce)}}@keyframes ce{11.85%{fill:var(--c1)}11.87%,to{fill:var(--ce)}}@keyframes cf{15.35%{fill:var(--c1)}15.37%,to{fill:var(--ce)}}@keyframes cg{71.69%{fill:var(--c4)}71.71%,to{fill:var(--ce)}}@keyframes ch{71.96%{fill:var(--c4)}71.98%,to{fill:var(--ce)}}@keyframes ci{44.46%{fill:var(--c2)}44.48%,to{fill:var(--ce)}}@keyframes cj{70.88%{fill:var(--c4)}70.9%,to{fill:var(--ce)}}@keyframes ck{18.05%{fill:var(--c1)}18.07%,to{fill:var(--ce)}}@keyframes cl{70.07%{fill:var(--c4)}70.09%,to{fill:var(--ce)}}@keyframes cm{36.38%{fill:var(--c2)}36.4%,to{fill:var(--ce)}}@keyframes cn{36.65%{fill:var(--c2)}36.67%,to{fill:var(--ce)}}@keyframes co{36.92%{fill:var(--c2)}36.94%,to{fill:var(--ce)}}@keyframes cp{63.06%{fill:var(--c3)}63.08%,to{fill:var(--ce)}}@keyframes cq{68.18%{fill:var(--c4)}68.2%,to{fill:var(--ce)}}@keyframes cr{35.57%{fill:var(--c2)}35.59%,to{fill:var(--ce)}}@keyframes cs{38%{fill:var(--c2)}38.02%,to{fill:var(--ce)}}@keyframes ct{67.91%{fill:var(--c4)}67.93%,to{fill:var(--ce)}}@keyframes cu{41.5%{fill:var(--c2)}41.52%,to{fill:var(--ce)}}@keyframes cv{20.74%{fill:var(--c1)}20.76%,to{fill:var(--ce)}}@keyframes cw{38.8%{fill:var(--c2)}38.82%,to{fill:var(--ce)}}@keyframes cx{34.76%{fill:var(--c2)}34.78%,to{fill:var(--ce)}}@keyframes cy{65.22%{fill:var(--c3)}65.24%,to{fill:var(--ce)}}@keyframes cz{66.84%{fill:var(--c4)}66.86%,to{fill:var(--ce)}}@keyframes c10{67.11%{fill:var(--c4)}67.13%,to{fill:var(--ce)}}@keyframes c11{39.88%{fill:var(--c2)}39.9%,to{fill:var(--ce)}}@keyframes c12{23.17%{fill:var(--c1)}23.19%,to{fill:var(--ce)}}@keyframes c13{28.29%{fill:var(--c1)}28.31%,to{fill:var(--ce)}}@keyframes c14{25.33%{fill:var(--c1)}25.35%,to{fill:var(--ce)}}@keyframes c15{27.48%{fill:var(--c1)}27.5%,to{fill:var(--ce)}}@keyframes c16{85.7%{fill:var(--c4)}85.72%,to{fill:var(--ce)}}@keyframes c17{27.21%{fill:var(--c1)}27.23%,to{fill:var(--ce)}}@keyframes c18{26.94%{fill:var(--c1)}26.96%,to{fill:var(--ce)}}@keyframes c19{26.67%{fill:var(--c1)}26.69%,to{fill:var(--ce)}}@keyframes c1a{26.41%{fill:var(--c1)}26.43%,to{fill:var(--ce)}}@keyframes c1b{26.14%{fill:var(--c1)}26.16%,to{fill:var(--ce)}}@keyframes c1c{25.87%{fill:var(--c1)}25.89%,to{fill:var(--ce)}}@keyframes c1d{29.91%{fill:var(--c1)}29.93%,to{fill:var(--ce)}}@keyframes u0{.26%{transform:scale(0,1)}.28%,.8%{transform:scale(.04,1)}.82%,1.07%{transform:scale(.08,1)}1.09%,1.61%{transform:scale(.13,1)}1.63%,2.15%{transform:scale(.17,1)}2.17%,2.95%{transform:scale(.21,1)}2.97%,4.57%{transform:scale(.25,1)}4.59%,6.19%{transform:scale(.29,1)}10.23%,6.21%{transform:scale(.33,1)}10.25%,11.85%{transform:scale(.38,1)}11.87%,15.35%{transform:scale(.42,1)}15.37%,18.05%{transform:scale(.46,1)}18.07%,20.74%{transform:scale(.5,1)}20.76%,23.17%{transform:scale(.54,1)}23.19%,25.33%{transform:scale(.58,1)}25.35%,25.87%{transform:scale(.63,1)}25.89%,26.14%{transform:scale(.67,1)}26.16%,26.41%{transform:scale(.71,1)}26.43%,26.67%{transform:scale(.75,1)}26.69%,26.94%{transform:scale(.79,1)}26.96%,27.21%{transform:scale(.83,1)}27.23%,27.48%{transform:scale(.88,1)}27.5%,28.29%{transform:scale(.92,1)}28.31%,29.91%{transform:scale(.96,1)}29.93%,to{transform:scale(1,1)}}@keyframes u1{34.76%{transform:scale(0,1)}34.78%,35.57%{transform:scale(.07,1)}35.59%,36.38%{transform:scale(.14,1)}36.4%,36.65%{transform:scale(.21,1)}36.67%,36.92%{transform:scale(.29,1)}36.94%,38%{transform:scale(.36,1)}38.02%,38.8%{transform:scale(.43,1)}38.82%,39.88%{transform:scale(.5,1)}39.9%,41.5%{transform:scale(.57,1)}41.52%,44.46%{transform:scale(.64,1)}44.48%,51.47%{transform:scale(.71,1)}51.49%,52.28%{transform:scale(.79,1)}52.3%,52.55%{transform:scale(.86,1)}52.57%,53.36%{transform:scale(.93,1)}53.38%,to{transform:scale(1,1)}}@keyframes u2{63.06%{transform:scale(0,1)}63.08%,65.22%{transform:scale(.5,1)}65.24%,to{transform:scale(1,1)}}@keyframes u3{66.84%{transform:scale(0,1)}66.86%,67.11%{transform:scale(.1,1)}67.13%,67.91%{transform:scale(.2,1)}67.93%,68.18%{transform:scale(.3,1)}68.2%,70.07%{transform:scale(.4,1)}70.09%,70.88%{transform:scale(.5,1)}70.9%,71.69%{transform:scale(.6,1)}71.71%,71.96%{transform:scale(.7,1)}71.98%,75.73%{transform:scale(.8,1)}75.75%,85.7%{transform:scale(.9,1)}85.72%,to{transform:scale(1,1)}}@keyframes s0{0%,99.73%{transform:translate(0,-16px)}.27%{transform:translate(0,0)}.81%{transform:translate(32px,0)}1.08%,52.83%{transform:translate(32px,16px)}1.35%{transform:translate(48px,16px)}1.62%{transform:translate(48px,32px)}1.89%{transform:translate(64px,32px)}2.16%{transform:translate(64px,48px)}2.7%{transform:translate(96px,48px)}2.96%{transform:translate(96px,64px)}4.04%,52.02%{transform:translate(32px,64px)}4.58%{transform:translate(32px,96px)}5.12%{transform:translate(0,96px)}53.64%,6.2%{transform:translate(0,32px)}6.47%{transform:translate(16px,32px)}6.74%{transform:translate(16px,16px)}9.7%{transform:translate(192px,16px)}10.24%{transform:translate(192px,48px)}11.32%{transform:translate(256px,48px)}11.86%{transform:translate(256px,16px)}14.29%{transform:translate(400px,16px)}15.36%{transform:translate(400px,80px)}15.63%{transform:translate(416px,80px)}15.9%,61.19%{transform:translate(416px,64px)}16.98%{transform:translate(480px,64px)}18.33%{transform:translate(480px,-16px)}19.41%{transform:translate(544px,-16px)}20.49%{transform:translate(544px,48px)}22.64%{transform:translate(672px,48px)}23.18%{transform:translate(672px,80px)}25.07%{transform:translate(784px,80px)}25.34%{transform:translate(784px,96px)}25.88%{transform:translate(816px,96px)}27.22%{transform:translate(816px,16px)}28.03%{transform:translate(768px,16px)}28.3%{transform:translate(768px,32px)}29.38%{transform:translate(832px,32px)}30.19%{transform:translate(832px,-16px)}34.5%{transform:translate(576px,-16px)}34.77%{transform:translate(576px,0)}35.85%,69.81%{transform:translate(512px,0)}36.12%{transform:translate(512px,16px)}36.39%{transform:translate(496px,16px)}36.93%{transform:translate(496px,48px)}37.47%{transform:translate(528px,48px)}38.01%{transform:translate(528px,80px)}38.54%,63.88%{transform:translate(560px,80px)}39.08%{transform:translate(560px,112px)}39.62%{transform:translate(592px,112px)}40.97%,65.77%{transform:translate(592px,32px)}43.4%{transform:translate(448px,32px)}43.94%{transform:translate(448px,64px)}44.2%{transform:translate(432px,64px)}44.47%{transform:translate(432px,80px)}51.48%{transform:translate(16px,80px)}51.75%{transform:translate(16px,64px)}53.37%{transform:translate(0,16px)}60.65%{transform:translate(416px,32px)}62.8%{transform:translate(512px,64px)}63.07%{transform:translate(512px,80px)}64.15%{transform:translate(560px,64px)}64.42%{transform:translate(576px,64px)}65.23%{transform:translate(576px,16px)}65.5%{transform:translate(592px,16px)}66.04%{transform:translate(576px,32px)}67.12%{transform:translate(576px,96px)}68.19%{transform:translate(512px,96px)}71.16%{transform:translate(432px,0)}71.97%{transform:translate(432px,48px)}72.24%{transform:translate(416px,48px)}73.05%{transform:translate(416px,0)}75.74%{transform:translate(256px,0)}76.01%{transform:translate(256px,-16px)}85.44%{transform:translate(816px,-16px)}85.71%{transform:translate(816px,0)}97.84%{transform:translate(96px,0)}98.11%{transform:translate(96px,-16px)}}@keyframes s1{0%,99.73%{transform:translate(16px,-16px)}.27%{transform:translate(0,-16px)}.54%{transform:translate(0,0)}1.08%{transform:translate(32px,0)}1.35%,53.1%{transform:translate(32px,16px)}1.62%{transform:translate(48px,16px)}1.89%{transform:translate(48px,32px)}2.16%{transform:translate(64px,32px)}2.43%{transform:translate(64px,48px)}2.96%{transform:translate(96px,48px)}3.23%{transform:translate(96px,64px)}4.31%,52.29%{transform:translate(32px,64px)}4.85%{transform:translate(32px,96px)}5.39%{transform:translate(0,96px)}53.91%,6.47%{transform:translate(0,32px)}6.74%{transform:translate(16px,32px)}7.01%{transform:translate(16px,16px)}9.97%{transform:translate(192px,16px)}10.51%{transform:translate(192px,48px)}11.59%{transform:translate(256px,48px)}12.13%{transform:translate(256px,16px)}14.56%{transform:translate(400px,16px)}15.63%{transform:translate(400px,80px)}15.9%{transform:translate(416px,80px)}16.17%,61.46%{transform:translate(416px,64px)}17.25%{transform:translate(480px,64px)}18.6%{transform:translate(480px,-16px)}19.68%{transform:translate(544px,-16px)}20.75%{transform:translate(544px,48px)}22.91%{transform:translate(672px,48px)}23.45%{transform:translate(672px,80px)}25.34%{transform:translate(784px,80px)}25.61%{transform:translate(784px,96px)}26.15%{transform:translate(816px,96px)}27.49%{transform:translate(816px,16px)}28.3%{transform:translate(768px,16px)}28.57%{transform:translate(768px,32px)}29.65%{transform:translate(832px,32px)}30.46%{transform:translate(832px,-16px)}34.77%{transform:translate(576px,-16px)}35.04%{transform:translate(576px,0)}36.12%,70.08%{transform:translate(512px,0)}36.39%{transform:translate(512px,16px)}36.66%{transform:translate(496px,16px)}37.2%{transform:translate(496px,48px)}37.74%{transform:translate(528px,48px)}38.27%{transform:translate(528px,80px)}38.81%,64.15%{transform:translate(560px,80px)}39.35%{transform:translate(560px,112px)}39.89%{transform:translate(592px,112px)}41.24%,66.04%{transform:translate(592px,32px)}43.67%{transform:translate(448px,32px)}44.2%{transform:translate(448px,64px)}44.47%{transform:translate(432px,64px)}44.74%{transform:translate(432px,80px)}51.75%{transform:translate(16px,80px)}52.02%{transform:translate(16px,64px)}53.64%{transform:translate(0,16px)}60.92%{transform:translate(416px,32px)}63.07%{transform:translate(512px,64px)}63.34%{transform:translate(512px,80px)}64.42%{transform:translate(560px,64px)}64.69%{transform:translate(576px,64px)}65.5%{transform:translate(576px,16px)}65.77%{transform:translate(592px,16px)}66.31%{transform:translate(576px,32px)}67.39%{transform:translate(576px,96px)}68.46%{transform:translate(512px,96px)}71.43%{transform:translate(432px,0)}72.24%{transform:translate(432px,48px)}72.51%{transform:translate(416px,48px)}73.32%{transform:translate(416px,0)}76.01%{transform:translate(256px,0)}76.28%{transform:translate(256px,-16px)}85.71%{transform:translate(816px,-16px)}85.98%{transform:translate(816px,0)}98.11%{transform:translate(96px,0)}98.38%{transform:translate(96px,-16px)}}@keyframes s2{0%,99.73%{transform:translate(32px,-16px)}.54%{transform:translate(0,-16px)}.81%{transform:translate(0,0)}1.35%{transform:translate(32px,0)}1.62%,53.37%{transform:translate(32px,16px)}1.89%{transform:translate(48px,16px)}2.16%{transform:translate(48px,32px)}2.43%{transform:translate(64px,32px)}2.7%{transform:translate(64px,48px)}3.23%{transform:translate(96px,48px)}3.5%{transform:translate(96px,64px)}4.58%,52.56%{transform:translate(32px,64px)}5.12%{transform:translate(32px,96px)}5.66%{transform:translate(0,96px)}54.18%,6.74%{transform:translate(0,32px)}7.01%{transform:translate(16px,32px)}7.28%{transform:translate(16px,16px)}10.24%{transform:translate(192px,16px)}10.78%{transform:translate(192px,48px)}11.86%{transform:translate(256px,48px)}12.4%{transform:translate(256px,16px)}14.82%{transform:translate(400px,16px)}15.9%{transform:translate(400px,80px)}16.17%{transform:translate(416px,80px)}16.44%,61.73%{transform:translate(416px,64px)}17.52%{transform:translate(480px,64px)}18.87%{transform:translate(480px,-16px)}19.95%{transform:translate(544px,-16px)}21.02%{transform:translate(544px,48px)}23.18%{transform:translate(672px,48px)}23.72%{transform:translate(672px,80px)}25.61%{transform:translate(784px,80px)}25.88%{transform:translate(784px,96px)}26.42%{transform:translate(816px,96px)}27.76%{transform:translate(816px,16px)}28.57%{transform:translate(768px,16px)}28.84%{transform:translate(768px,32px)}29.92%{transform:translate(832px,32px)}30.73%{transform:translate(832px,-16px)}35.04%{transform:translate(576px,-16px)}35.31%{transform:translate(576px,0)}36.39%,70.35%{transform:translate(512px,0)}36.66%{transform:translate(512px,16px)}36.93%{transform:translate(496px,16px)}37.47%{transform:translate(496px,48px)}38.01%{transform:translate(528px,48px)}38.54%{transform:translate(528px,80px)}39.08%,64.42%{transform:translate(560px,80px)}39.62%{transform:translate(560px,112px)}40.16%{transform:translate(592px,112px)}41.51%,66.31%{transform:translate(592px,32px)}43.94%{transform:translate(448px,32px)}44.47%{transform:translate(448px,64px)}44.74%{transform:translate(432px,64px)}45.01%{transform:translate(432px,80px)}52.02%{transform:translate(16px,80px)}52.29%{transform:translate(16px,64px)}53.91%{transform:translate(0,16px)}61.19%{transform:translate(416px,32px)}63.34%{transform:translate(512px,64px)}63.61%{transform:translate(512px,80px)}64.69%{transform:translate(560px,64px)}64.96%{transform:translate(576px,64px)}65.77%{transform:translate(576px,16px)}66.04%{transform:translate(592px,16px)}66.58%{transform:translate(576px,32px)}67.65%{transform:translate(576px,96px)}68.73%{transform:translate(512px,96px)}71.7%{transform:translate(432px,0)}72.51%{transform:translate(432px,48px)}72.78%{transform:translate(416px,48px)}73.58%{transform:translate(416px,0)}76.28%{transform:translate(256px,0)}76.55%{transform:translate(256px,-16px)}85.98%{transform:translate(816px,-16px)}86.25%{transform:translate(816px,0)}98.38%{transform:translate(96px,0)}98.65%{transform:translate(96px,-16px)}}@keyframes s3{0%,99.73%{transform:translate(48px,-16px)}.81%{transform:translate(0,-16px)}1.08%{transform:translate(0,0)}1.62%{transform:translate(32px,0)}1.89%,53.64%{transform:translate(32px,16px)}2.16%{transform:translate(48px,16px)}2.43%{transform:translate(48px,32px)}2.7%{transform:translate(64px,32px)}2.96%{transform:translate(64px,48px)}3.5%{transform:translate(96px,48px)}3.77%{transform:translate(96px,64px)}4.85%,52.83%{transform:translate(32px,64px)}5.39%{transform:translate(32px,96px)}5.93%{transform:translate(0,96px)}54.45%,7.01%{transform:translate(0,32px)}7.28%{transform:translate(16px,32px)}7.55%{transform:translate(16px,16px)}10.51%{transform:translate(192px,16px)}11.05%{transform:translate(192px,48px)}12.13%{transform:translate(256px,48px)}12.67%{transform:translate(256px,16px)}15.09%{transform:translate(400px,16px)}16.17%{transform:translate(400px,80px)}16.44%{transform:translate(416px,80px)}16.71%,61.99%{transform:translate(416px,64px)}17.79%{transform:translate(480px,64px)}19.14%{transform:translate(480px,-16px)}20.22%{transform:translate(544px,-16px)}21.29%{transform:translate(544px,48px)}23.45%{transform:translate(672px,48px)}23.99%{transform:translate(672px,80px)}25.88%{transform:translate(784px,80px)}26.15%{transform:translate(784px,96px)}26.68%{transform:translate(816px,96px)}28.03%{transform:translate(816px,16px)}28.84%{transform:translate(768px,16px)}29.11%{transform:translate(768px,32px)}30.19%{transform:translate(832px,32px)}31%{transform:translate(832px,-16px)}35.31%{transform:translate(576px,-16px)}35.58%{transform:translate(576px,0)}36.66%,70.62%{transform:translate(512px,0)}36.93%{transform:translate(512px,16px)}37.2%{transform:translate(496px,16px)}37.74%{transform:translate(496px,48px)}38.27%{transform:translate(528px,48px)}38.81%{transform:translate(528px,80px)}39.35%,64.69%{transform:translate(560px,80px)}39.89%{transform:translate(560px,112px)}40.43%{transform:translate(592px,112px)}41.78%,66.58%{transform:translate(592px,32px)}44.2%{transform:translate(448px,32px)}44.74%{transform:translate(448px,64px)}45.01%{transform:translate(432px,64px)}45.28%{transform:translate(432px,80px)}52.29%{transform:translate(16px,80px)}52.56%{transform:translate(16px,64px)}54.18%{transform:translate(0,16px)}61.46%{transform:translate(416px,32px)}63.61%{transform:translate(512px,64px)}63.88%{transform:translate(512px,80px)}64.96%{transform:translate(560px,64px)}65.23%{transform:translate(576px,64px)}66.04%{transform:translate(576px,16px)}66.31%{transform:translate(592px,16px)}66.85%{transform:translate(576px,32px)}67.92%{transform:translate(576px,96px)}69%{transform:translate(512px,96px)}71.97%{transform:translate(432px,0)}72.78%{transform:translate(432px,48px)}73.05%{transform:translate(416px,48px)}73.85%{transform:translate(416px,0)}76.55%{transform:translate(256px,0)}76.82%{transform:translate(256px,-16px)}86.25%{transform:translate(816px,-16px)}86.52%{transform:translate(816px,0)}98.65%{transform:translate(96px,0)}98.92%{transform:translate(96px,-16px)}}:root{--cb:#1b1f230a;--cs:orange;--ce:#bfd6f6;--c0:#bfd6f6;--c1:#8dbdff;--c2:#64a1f4;--c3:#4b91f1;--c4:#3c7dd9}.c{shape-rendering:geometricPrecision;fill:var(--ce);stroke-width:1px;stroke:var(--cb);animation:none 37100ms linear infinite}.c.c0{fill:var(--c1);animation-name:c0}.c.c1{fill:var(--c2);animation-name:c1}.c.c2{fill:var(--c1);animation-name:c2}.c.c3{fill:var(--c2);animation-name:c3}.c.c4,.c.c5{fill:var(--c1);animation-name:c4}.c.c5{animation-name:c5}.c.c6,.c.c7{fill:var(--c2);animation-name:c6}.c.c7{animation-name:c7}.c.c8,.c.c9{fill:var(--c1);animation-name:c8}.c.c9{animation-name:c9}.c.ca,.c.cb,.c.cc{fill:var(--c1);animation-name:ca}.c.cb,.c.cc{animation-name:cb}.c.cc{animation-name:cc}.c.cd{fill:var(--c4);animation-name:cd}.c.ce,.c.cf{fill:var(--c1);animation-name:ce}.c.cf{animation-name:cf}.c.cg,.c.ch{fill:var(--c4);animation-name:cg}.c.ch{animation-name:ch}.c.ci{fill:var(--c2);animation-name:ci}.c.cj{fill:var(--c4);animation-name:cj}.c.ck{fill:var(--c1);animation-name:ck}.c.cl{fill:var(--c4);animation-name:cl}.c.cm,.c.cn,.c.co{fill:var(--c2);animation-name:cm}.c.cn,.c.co{animation-name:cn}.c.co{animation-name:co}.c.cp{fill:var(--c3);animation-name:cp}.c.cq{fill:var(--c4);animation-name:cq}.c.cr,.c.cs{fill:var(--c2);animation-name:cr}.c.cs{animation-name:cs}.c.ct{fill:var(--c4);animation-name:ct}.c.cu{fill:var(--c2);animation-name:cu}.c.cv{fill:var(--c1);animation-name:cv}.c.cw,.c.cx{fill:var(--c2);animation-name:cw}.c.cx{animation-name:cx}.c.cy{fill:var(--c3);animation-name:cy}.c.c10,.c.cz{fill:var(--c4);animation-name:cz}.c.c10{animation-name:c10}.c.c11{fill:var(--c2);animation-name:c11}.c.c12{fill:var(--c1);animation-name:c12}.c.c13,.c.c14,.c.c15{fill:var(--c1);animation-name:c13}.c.c14,.c.c15{animation-name:c14}.c.c15{animation-name:c15}.c.c16{fill:var(--c4);animation-name:c16}.c.c17{fill:var(--c1);animation-name:c17}.c.c18,.c.c19,.c.c1a{fill:var(--c1);animation-name:c18}.c.c19,.c.c1a{animation-name:c19}.c.c1a{animation-name:c1a}.c.c1b,.c.c1c,.c.c1d{fill:var(--c1);animation-name:c1b}.c.c1c,.c.c1d{animation-name:c1c}.c.c1d{animation-name:c1d}.s,.u{animation:none linear 37100ms infinite}.u,.u.u0{transform-origin:0 0}.u{transform:scale(0,1)}.u.u0{fill:var(--c1);animation-name:u0}.u.u1{fill:var(--c2);animation-name:u1;transform-origin:407px 0}.u.u2{fill:var(--c3);animation-name:u2;transform-origin:644.5px 0}.u.u3{fill:var(--c4);animation-name:u3;transform-origin:678.4px 0}.s{shape-rendering:geometricPrecision;fill:var(--cs)}.s.s0{transform:translate(0,-16px);animation-name:s0}.s.s1{transform:translate(16px,-16px);animation-name:s1}.s.s2{transform:translate(32px,-16px);animation-name:s2}.s.s3{transform:translate(48px,-16px);animation-name:s3}</style><rect class="c c0" x="2" y="2" rx="2" ry="2" width="12" height="12"/><rect class="c c1" x="2" y="18" rx="2" ry="2" width="12" height="12"/><rect class="c c2" x="2" y="34" rx="2" ry="2" width="12" height="12"/><rect class="c" x="2" y="50" rx="2" ry="2" width="12" height="12"/><rect class="c" x="2" y="66" rx="2" ry="2" width="12" height="12"/><rect class="c" x="2" y="82" rx="2" ry="2" width="12" height="12"/><rect class="c" x="2" y="98" rx="2" ry="2" width="12" height="12"/><rect class="c" x="18" y="2" rx="2" ry="2" width="12" height="12"/><rect class="c" x="18" y="18" rx="2" ry="2" width="12" height="12"/><rect class="c" x="18" y="34" rx="2" ry="2" width="12" height="12"/><rect class="c" x="18" y="50" rx="2" ry="2" width="12" height="12"/><rect class="c" x="18" y="66" rx="2" ry="2" width="12" height="12"/><rect class="c c3" x="18" y="82" rx="2" ry="2" width="12" height="12"/><rect class="c" x="18" y="98" rx="2" ry="2" width="12" height="12"/><rect class="c c4" x="34" y="2" rx="2" ry="2" width="12" height="12"/><rect class="c c5" x="34" y="18" rx="2" ry="2" width="12" height="12"/><rect class="c c6" x="34" y="34" rx="2" ry="2" width="12" height="12"/><rect class="c c7" x="34" y="50" rx="2" ry="2" width="12" height="12"/><rect class="c" x="34" y="66" rx="2" ry="2" width="12" height="12"/><rect class="c" x="34" y="82" rx="2" ry="2" width="12" height="12"/><rect class="c c8" x="34" y="98" rx="2" ry="2" width="12" height="12"/><rect class="c" x="50" y="2" rx="2" ry="2" width="12" height="12"/><rect class="c" x="50" y="18" rx="2" ry="2" width="12" height="12"/><rect class="c c9" x="50" y="34" rx="2" ry="2" width="12" height="12"/><rect class="c" x="50" y="50" rx="2" ry="2" width="12" height="12"/><rect class="c" x="50" y="66" rx="2" ry="2" width="12" height="12"/><rect class="c" x="50" y="82" rx="2" ry="2" width="12" height="12"/><rect class="c" x="50" y="98" rx="2" ry="2" width="12" height="12"/><rect class="c" x="66" y="2" rx="2" ry="2" width="12" height="12"/><rect class="c" x="66" y="18" rx="2" ry="2" width="12" height="12"/><rect class="c" x="66" y="34" rx="2" ry="2" width="12" height="12"/><rect class="c ca" x="66" y="50" rx="2" ry="2" width="12" height="12"/><rect class="c" x="66" y="66" rx="2" ry="2" width="12" height="12"/><rect class="c" x="66" y="82" rx="2" ry="2" width="12" height="12"/><rect class="c" x="66" y="98" rx="2" ry="2" width="12" height="12"/><rect class="c" x="82" y="2" rx="2" ry="2" width="12" height="12"/><rect class="c" x="82" y="18" rx="2" ry="2" width="12" height="12"/><rect class="c" x="82" y="34" rx="2" ry="2" width="12" height="12"/><rect class="c" x="82" y="50" rx="2" ry="2" width="12" height="12"/><rect class="c" x="82" y="66" rx="2" ry="2" width="12" height="12"/><rect class="c" x="82" y="82" rx="2" ry="2" width="12" height="12"/><rect class="c" x="82" y="98" rx="2" ry="2" width="12" height="12"/><rect class="c" x="98" y="2" rx="2" ry="2" width="12" height="12"/><rect class="c" x="98" y="18" rx="2" ry="2" width="12" height="12"/><rect class="c" x="98" y="34" rx="2" ry="2" width="12" height="12"/><rect class="c" x="98" y="50" rx="2" ry="2" width="12" height="12"/><rect class="c cb" x="98" y="66" rx="2" ry="2" width="12" height="12"/><rect class="c" x="98" y="82" rx="2" ry="2" width="12" height="12"/><rect class="c" x="98" y="98" rx="2" ry="2" width="12" height="12"/><rect class="c" x="114" y="2" rx="2" ry="2" width="12" height="12"/><rect class="c" x="114" y="18" rx="2" ry="2" width="12" height="12"/><rect class="c" x="114" y="34" rx="2" ry="2" width="12" height="12"/><rect class="c" x="114" y="50" rx="2" ry="2" width="12" height="12"/><rect class="c" x="114" y="66" rx="2" ry="2" width="12" height="12"/><rect class="c" x="114" y="82" rx="2" ry="2" width="12" height="12"/><rect class="c" x="114" y="98" rx="2" ry="2" width="12" height="12"/><rect class="c" x="130" y="2" rx="2" ry="2" width="12" height="12"/><rect class="c" x="130" y="18" rx="2" ry="2" width="12" height="12"/><rect class="c" x="130" y="34" rx="2" ry="2" width="12" height="12"/><rect class="c" x="130" y="50" rx="2" ry="2" width="12" height="12"/><rect class="c" x="130" y="66" rx="2" ry="2" width="12" height="12"/><rect class="c" x="130" y="82" rx="2" ry="2" width="12" height="12"/><rect class="c" x="130" y="98" rx="2" ry="2" width="12" height="12"/><rect class="c" x="146" y="2" rx="2" ry="2" width="12" height="12"/><rect class="c" x="146" y="18" rx="2" ry="2" width="12" height="12"/><rect class="c" x="146" y="34" rx="2" ry="2" width="12" height="12"/><rect class="c" x="146" y="50" rx="2" ry="2" width="12" height="12"/><rect class="c" x="146" y="66" rx="2" ry="2" width="12" height="12"/><rect class="c" x="146" y="82" rx="2" ry="2" width="12" height="12"/><rect class="c" x="146" y="98" rx="2" ry="2" width="12" height="12"/><rect class="c" x="162" y="2" rx="2" ry="2" width="12" height="12"/><rect class="c" x="162" y="18" rx="2" ry="2" width="12" height="12"/><rect class="c" x="162" y="34" rx="2" ry="2" width="12" height="12"/><rect class="c" x="162" y="50" rx="2" ry="2" width="12" height="12"/><rect class="c" x="162" y="66" rx="2" ry="2" width="12" height="12"/><rect class="c" x="162" y="82" rx="2" ry="2" width="12" height="12"/><rect class="c" x="162" y="98" rx="2" ry="2" width="12" height="12"/><rect class="c" x="178" y="2" rx="2" ry="2" width="12" height="12"/><rect class="c" x="178" y="18" rx="2" ry="2" width="12" height="12"/><rect class="c" x="178" y="34" rx="2" ry="2" width="12" height="12"/><rect class="c" x="178" y="50" rx="2" ry="2" width="12" height="12"/><rect class="c" x="178" y="66" rx="2" ry="2" width="12" height="12"/><rect class="c" x="178" y="82" rx="2" ry="2" width="12" height="12"/><rect class="c" x="178" y="98" rx="2" ry="2" width="12" height="12"/><rect class="c" x="194" y="2" rx="2" ry="2" width="12" height="12"/><rect class="c" x="194" y="18" rx="2" ry="2" width="12" height="12"/><rect class="c" x="194" y="34" rx="2" ry="2" width="12" height="12"/><rect class="c cc" x="194" y="50" rx="2" ry="2" width="12" height="12"/><rect class="c" x="194" y="66" rx="2" ry="2" width="12" height="12"/><rect class="c" x="194" y="82" rx="2" ry="2" width="12" height="12"/><rect class="c" x="194" y="98" rx="2" ry="2" width="12" height="12"/><rect class="c" x="210" y="2" rx="2" ry="2" width="12" height="12"/><rect class="c" x="210" y="18" rx="2" ry="2" width="12" height="12"/><rect class="c" x="210" y="34" rx="2" ry="2" width="12" height="12"/><rect class="c" x="210" y="50" rx="2" ry="2" width="12" height="12"/><rect class="c" x="210" y="66" rx="2" ry="2" width="12" height="12"/><rect class="c" x="210" y="82" rx="2" ry="2" width="12" height="12"/><rect class="c" x="210" y="98" rx="2" ry="2" width="12" height="12"/><rect class="c" x="226" y="2" rx="2" ry="2" width="12" height="12"/><rect class="c" x="226" y="18" rx="2" ry="2" width="12" height="12"/><rect class="c" x="226" y="34" rx="2" ry="2" width="12" height="12"/><rect class="c" x="226" y="50" rx="2" ry="2" width="12" height="12"/><rect class="c" x="226" y="66" rx="2" ry="2" width="12" height="12"/><rect class="c" x="226" y="82" rx="2" ry="2" width="12" height="12"/><rect class="c" x="226" y="98" rx="2" ry="2" width="12" height="12"/><rect class="c" x="242" y="2" rx="2" ry="2" width="12" height="12"/><rect class="c" x="242" y="18" rx="2" ry="2" width="12" height="12"/><rect class="c" x="242" y="34" rx="2" ry="2" width="12" height="12"/><rect class="c" x="242" y="50" rx="2" ry="2" width="12" height="12"/><rect class="c" x="242" y="66" rx="2" ry="2" width="12" height="12"/><rect class="c" x="242" y="82" rx="2" ry="2" width="12" height="12"/><rect class="c" x="242" y="98" rx="2" ry="2" width="12" height="12"/><rect class="c cd" x="258" y="2" rx="2" ry="2" width="12" height="12"/><rect class="c ce" x="258" y="18" rx="2" ry="2" width="12" height="12"/><rect class="c" x="258" y="34" rx="2" ry="2" width="12" height="12"/><rect class="c" x="258" y="50" rx="2" ry="2" width="12" height="12"/><rect class="c" x="258" y="66" rx="2" ry="2" width="12" height="12"/><rect class="c" x="258" y="82" rx="2" ry="2" width="12" height="12"/><rect class="c" x="258" y="98" rx="2" ry="2" width="12" height="12"/><rect class="c" x="274" y="2" rx="2" ry="2" width="12" height="12"/><rect class="c" x="274" y="18" rx="2" ry="2" width="12" height="12"/><rect class="c" x="274" y="34" rx="2" ry="2" width="12" height="12"/><rect class="c" x="274" y="50" rx="2" ry="2" width="12" height="12"/><rect class="c" x="274" y="66" rx="2" ry="2" width="12" height="12"/><rect class="c" x="274" y="82" rx="2" ry="2" width="12" height="12"/><rect class="c" x="274" y="98" rx="2" ry="2" width="12" height="12"/><rect class="c" x="290" y="2" rx="2" ry="2" width="12" height="12"/><rect class="c" x="290" y="18" rx="2" ry="2" width="12" height="12"/><rect class="c" x="290" y="34" rx="2" ry="2" width="12" height="12"/><rect class="c" x="290" y="50" rx="2" ry="2" width="12" height="12"/><rect class="c" x="290" y="66" rx="2" ry="2" width="12" height="12"/><rect class="c" x="290" y="82" rx="2" ry="2" width="12" height="12"/><rect class="c" x="290" y="98" rx="2" ry="2" width="12" height="12"/><rect class="c" x="306" y="2" rx="2" ry="2" width="12" height="12"/><rect class="c" x="306" y="18" rx="2" ry="2" width="12" height="12"/><rect class="c" x="306" y="34" rx="2" ry="2" width="12" height="12"/><rect class="c" x="306" y="50" rx="2" ry="2" width="12" height="12"/><rect class="c" x="306" y="66" rx="2" ry="2" width="12" height="12"/><rect class="c" x="306" y="82" rx="2" ry="2" width="12" height="12"/><rect class="c" x="306" y="98" rx="2" ry="2" width="12" height="12"/><rect class="c" x="322" y="2" rx="2" ry="2" width="12" height="12"/><rect class="c" x="322" y="18" rx="2" ry="2" width="12" height="12"/><rect class="c" x="322" y="34" rx="2" ry="2" width="12" height="12"/><rect class="c" x="322" y="50" rx="2" ry="2" width="12" height="12"/><rect class="c" x="322" y="66" rx="2" ry="2" width="12" height="12"/><rect class="c" x="322" y="82" rx="2" ry="2" width="12" height="12"/><rect class="c" x="322" y="98" rx="2" ry="2" width="12" height="12"/><rect class="c" x="338" y="2" rx="2" ry="2" width="12" height="12"/><rect class="c" x="338" y="18" rx="2" ry="2" width="12" height="12"/><rect class="c" x="338" y="34" rx="2" ry="2" width="12" height="12"/><rect class="c" x="338" y="50" rx="2" ry="2" width="12" height="12"/><rect class="c" x="338" y="66" rx="2" ry="2" width="12" height="12"/><rect class="c" x="338" y="82" rx="2" ry="2" width="12" height="12"/><rect class="c" x="338" y="98" rx="2" ry="2" width="12" height="12"/><rect class="c" x="354" y="2" rx="2" ry="2" width="12" height="12"/><rect class="c" x="354" y="18" rx="2" ry="2" width="12" height="12"/><rect class="c" x="354" y="34" rx="2" ry="2" width="12" height="12"/><rect class="c" x="354" y="50" rx="2" ry="2" width="12" height="12"/><rect class="c" x="354" y="66" rx="2" ry="2" width="12" height="12"/><rect class="c" x="354" y="82" rx="2" ry="2" width="12" height="12"/><rect class="c" x="354" y="98" rx="2" ry="2" width="12" height="12"/><rect class="c" x="370" y="2" rx="2" ry="2" width="12" height="12"/><rect class="c" x="370" y="18" rx="2" ry="2" width="12" height="12"/><rect class="c" x="370" y="34" rx="2" ry="2" width="12" height="12"/><rect class="c" x="370" y="50" rx="2" ry="2" width="12" height="12"/><rect class="c" x="370" y="66" rx="2" ry="2" width="12" height="12"/><rect class="c" x="370" y="82" rx="2" ry="2" width="12" height="12"/><rect class="c" x="370" y="98" rx="2" ry="2" width="12" height="12"/><rect class="c" x="386" y="2" rx="2" ry="2" width="12" height="12"/><rect class="c" x="386" y="18" rx="2" ry="2" width="12" height="12"/><rect class="c" x="386" y="34" rx="2" ry="2" width="12" height="12"/><rect class="c" x="386" y="50" rx="2" ry="2" width="12" height="12"/><rect class="c" x="386" y="66" rx="2" ry="2" width="12" height="12"/><rect class="c" x="386" y="82" rx="2" ry="2" width="12" height="12"/><rect class="c" x="386" y="98" rx="2" ry="2" width="12" height="12"/><rect class="c" x="402" y="2" rx="2" ry="2" width="12" height="12"/><rect class="c" x="402" y="18" rx="2" ry="2" width="12" height="12"/><rect class="c" x="402" y="34" rx="2" ry="2" width="12" height="12"/><rect class="c" x="402" y="50" rx="2" ry="2" width="12" height="12"/><rect class="c" x="402" y="66" rx="2" ry="2" width="12" height="12"/><rect class="c cf" x="402" y="82" rx="2" ry="2" width="12" height="12"/><rect class="c" x="402" y="98" rx="2" ry="2" width="12" height="12"/><rect class="c" x="418" y="2" rx="2" ry="2" width="12" height="12"/><rect class="c" x="418" y="18" rx="2" ry="2" width="12" height="12"/><rect class="c" x="418" y="34" rx="2" ry="2" width="12" height="12"/><rect class="c" x="418" y="50" rx="2" ry="2" width="12" height="12"/><rect class="c" x="418" y="66" rx="2" ry="2" width="12" height="12"/><rect class="c" x="418" y="82" rx="2" ry="2" width="12" height="12"/><rect class="c" x="418" y="98" rx="2" ry="2" width="12" height="12"/><rect class="c" x="434" y="2" rx="2" ry="2" width="12" height="12"/><rect class="c" x="434" y="18" rx="2" ry="2" width="12" height="12"/><rect class="c cg" x="434" y="34" rx="2" ry="2" width="12" height="12"/><rect class="c ch" x="434" y="50" rx="2" ry="2" width="12" height="12"/><rect class="c" x="434" y="66" rx="2" ry="2" width="12" height="12"/><rect class="c ci" x="434" y="82" rx="2" ry="2" width="12" height="12"/><rect class="c" x="434" y="98" rx="2" ry="2" width="12" height="12"/><rect class="c cj" x="450" y="2" rx="2" ry="2" width="12" height="12"/><rect class="c" x="450" y="18" rx="2" ry="2" width="12" height="12"/><rect class="c" x="450" y="34" rx="2" ry="2" width="12" height="12"/><rect class="c" x="450" y="50" rx="2" ry="2" width="12" height="12"/><rect class="c" x="450" y="66" rx="2" ry="2" width="12" height="12"/><rect class="c" x="450" y="82" rx="2" ry="2" width="12" height="12"/><rect class="c" x="450" y="98" rx="2" ry="2" width="12" height="12"/><rect class="c" x="466" y="2" rx="2" ry="2" width="12" height="12"/><rect class="c" x="466" y="18" rx="2" ry="2" width="12" height="12"/><rect class="c" x="466" y="34" rx="2" ry="2" width="12" height="12"/><rect class="c" x="466" y="50" rx="2" ry="2" width="12" height="12"/><rect class="c" x="466" y="66" rx="2" ry="2" width="12" height="12"/><rect class="c" x="466" y="82" rx="2" ry="2" width="12" height="12"/><rect class="c" x="466" y="98" rx="2" ry="2" width="12" height="12"/><rect class="c ck" x="482" y="2" rx="2" ry="2" width="12" height="12"/><rect class="c" x="482" y="18" rx="2" ry="2" width="12" height="12"/><rect class="c" x="482" y="34" rx="2" ry="2" width="12" height="12"/><rect class="c" x="482" y="50" rx="2" ry="2" width="12" height="12"/><rect class="c" x="482" y="66" rx="2" ry="2" width="12" height="12"/><rect class="c" x="482" y="82" rx="2" ry="2" width="12" height="12"/><rect class="c" x="482" y="98" rx="2" ry="2" width="12" height="12"/><rect class="c cl" x="498" y="2" rx="2" ry="2" width="12" height="12"/><rect class="c cm" x="498" y="18" rx="2" ry="2" width="12" height="12"/><rect class="c cn" x="498" y="34" rx="2" ry="2" width="12" height="12"/><rect class="c co" x="498" y="50" rx="2" ry="2" width="12" height="12"/><rect class="c" x="498" y="66" rx="2" ry="2" width="12" height="12"/><rect class="c" x="498" y="82" rx="2" ry="2" width="12" height="12"/><rect class="c" x="498" y="98" rx="2" ry="2" width="12" height="12"/><rect class="c" x="514" y="2" rx="2" ry="2" width="12" height="12"/><rect class="c" x="514" y="18" rx="2" ry="2" width="12" height="12"/><rect class="c" x="514" y="34" rx="2" ry="2" width="12" height="12"/><rect class="c" x="514" y="50" rx="2" ry="2" width="12" height="12"/><rect class="c" x="514" y="66" rx="2" ry="2" width="12" height="12"/><rect class="c cp" x="514" y="82" rx="2" ry="2" width="12" height="12"/><rect class="c cq" x="514" y="98" rx="2" ry="2" width="12" height="12"/><rect class="c cr" x="530" y="2" rx="2" ry="2" width="12" height="12"/><rect class="c" x="530" y="18" rx="2" ry="2" width="12" height="12"/><rect class="c" x="530" y="34" rx="2" ry="2" width="12" height="12"/><rect class="c" x="530" y="50" rx="2" ry="2" width="12" height="12"/><rect class="c" x="530" y="66" rx="2" ry="2" width="12" height="12"/><rect class="c cs" x="530" y="82" rx="2" ry="2" width="12" height="12"/><rect class="c ct" x="530" y="98" rx="2" ry="2" width="12" height="12"/><rect class="c" x="546" y="2" rx="2" ry="2" width="12" height="12"/><rect class="c" x="546" y="18" rx="2" ry="2" width="12" height="12"/><rect class="c" x="546" y="34" rx="2" ry="2" width="12" height="12"/><rect class="c" x="546" y="50" rx="2" ry="2" width="12" height="12"/><rect class="c" x="546" y="66" rx="2" ry="2" width="12" height="12"/><rect class="c" x="546" y="82" rx="2" ry="2" width="12" height="12"/><rect class="c" x="546" y="98" rx="2" ry="2" width="12" height="12"/><rect class="c" x="562" y="2" rx="2" ry="2" width="12" height="12"/><rect class="c" x="562" y="18" rx="2" ry="2" width="12" height="12"/><rect class="c cu" x="562" y="34" rx="2" ry="2" width="12" height="12"/><rect class="c cv" x="562" y="50" rx="2" ry="2" width="12" height="12"/><rect class="c" x="562" y="66" rx="2" ry="2" width="12" height="12"/><rect class="c" x="562" y="82" rx="2" ry="2" width="12" height="12"/><rect class="c cw" x="562" y="98" rx="2" ry="2" width="12" height="12"/><rect class="c cx" x="578" y="2" rx="2" ry="2" width="12" height="12"/><rect class="c cy" x="578" y="18" rx="2" ry="2" width="12" height="12"/><rect class="c" x="578" y="34" rx="2" ry="2" width="12" height="12"/><rect class="c" x="578" y="50" rx="2" ry="2" width="12" height="12"/><rect class="c" x="578" y="66" rx="2" ry="2" width="12" height="12"/><rect class="c cz" x="578" y="82" rx="2" ry="2" width="12" height="12"/><rect class="c c10" x="578" y="98" rx="2" ry="2" width="12" height="12"/><rect class="c" x="594" y="2" rx="2" ry="2" width="12" height="12"/><rect class="c" x="594" y="18" rx="2" ry="2" width="12" height="12"/><rect class="c" x="594" y="34" rx="2" ry="2" width="12" height="12"/><rect class="c" x="594" y="50" rx="2" ry="2" width="12" height="12"/><rect class="c" x="594" y="66" rx="2" ry="2" width="12" height="12"/><rect class="c" x="594" y="82" rx="2" ry="2" width="12" height="12"/><rect class="c c11" x="594" y="98" rx="2" ry="2" width="12" height="12"/><rect class="c" x="610" y="2" rx="2" ry="2" width="12" height="12"/><rect class="c" x="610" y="18" rx="2" ry="2" width="12" height="12"/><rect class="c" x="610" y="34" rx="2" ry="2" width="12" height="12"/><rect class="c" x="610" y="50" rx="2" ry="2" width="12" height="12"/><rect class="c" x="610" y="66" rx="2" ry="2" width="12" height="12"/><rect class="c" x="610" y="82" rx="2" ry="2" width="12" height="12"/><rect class="c" x="610" y="98" rx="2" ry="2" width="12" height="12"/><rect class="c" x="626" y="2" rx="2" ry="2" width="12" height="12"/><rect class="c" x="626" y="18" rx="2" ry="2" width="12" height="12"/><rect class="c" x="626" y="34" rx="2" ry="2" width="12" height="12"/><rect class="c" x="626" y="50" rx="2" ry="2" width="12" height="12"/><rect class="c" x="626" y="66" rx="2" ry="2" width="12" height="12"/><rect class="c" x="626" y="82" rx="2" ry="2" width="12" height="12"/><rect class="c" x="626" y="98" rx="2" ry="2" width="12" height="12"/><rect class="c" x="642" y="2" rx="2" ry="2" width="12" height="12"/><rect class="c" x="642" y="18" rx="2" ry="2" width="12" height="12"/><rect class="c" x="642" y="34" rx="2" ry="2" width="12" height="12"/><rect class="c" x="642" y="50" rx="2" ry="2" width="12" height="12"/><rect class="c" x="642" y="66" rx="2" ry="2" width="12" height="12"/><rect class="c" x="642" y="82" rx="2" ry="2" width="12" height="12"/><rect class="c" x="642" y="98" rx="2" ry="2" width="12" height="12"/><rect class="c" x="658" y="2" rx="2" ry="2" width="12" height="12"/><rect class="c" x="658" y="18" rx="2" ry="2" width="12" height="12"/><rect class="c" x="658" y="34" rx="2" ry="2" width="12" height="12"/><rect class="c" x="658" y="50" rx="2" ry="2" width="12" height="12"/><rect class="c" x="658" y="66" rx="2" ry="2" width="12" height="12"/><rect class="c" x="658" y="82" rx="2" ry="2" width="12" height="12"/><rect class="c" x="658" y="98" rx="2" ry="2" width="12" height="12"/><rect class="c" x="674" y="2" rx="2" ry="2" width="12" height="12"/><rect class="c" x="674" y="18" rx="2" ry="2" width="12" height="12"/><rect class="c" x="674" y="34" rx="2" ry="2" width="12" height="12"/><rect class="c" x="674" y="50" rx="2" ry="2" width="12" height="12"/><rect class="c" x="674" y="66" rx="2" ry="2" width="12" height="12"/><rect class="c c12" x="674" y="82" rx="2" ry="2" width="12" height="12"/><rect class="c" x="674" y="98" rx="2" ry="2" width="12" height="12"/><rect class="c" x="690" y="2" rx="2" ry="2" width="12" height="12"/><rect class="c" x="690" y="18" rx="2" ry="2" width="12" height="12"/><rect class="c" x="690" y="34" rx="2" ry="2" width="12" height="12"/><rect class="c" x="690" y="50" rx="2" ry="2" width="12" height="12"/><rect class="c" x="690" y="66" rx="2" ry="2" width="12" height="12"/><rect class="c" x="690" y="82" rx="2" ry="2" width="12" height="12"/><rect class="c" x="690" y="98" rx="2" ry="2" width="12" height="12"/><rect class="c" x="706" y="2" rx="2" ry="2" width="12" height="12"/><rect class="c" x="706" y="18" rx="2" ry="2" width="12" height="12"/><rect class="c" x="706" y="34" rx="2" ry="2" width="12" height="12"/><rect class="c" x="706" y="50" rx="2" ry="2" width="12" height="12"/><rect class="c" x="706" y="66" rx="2" ry="2" width="12" height="12"/><rect class="c" x="706" y="82" rx="2" ry="2" width="12" height="12"/><rect class="c" x="706" y="98" rx="2" ry="2" width="12" height="12"/><rect class="c" x="722" y="2" rx="2" ry="2" width="12" height="12"/><rect class="c" x="722" y="18" rx="2" ry="2" width="12" height="12"/><rect class="c" x="722" y="34" rx="2" ry="2" width="12" height="12"/><rect class="c" x="722" y="50" rx="2" ry="2" width="12" height="12"/><rect class="c" x="722" y="66" rx="2" ry="2" width="12" height="12"/><rect class="c" x="722" y="82" rx="2" ry="2" width="12" height="12"/><rect class="c" x="722" y="98" rx="2" ry="2" width="12" height="12"/><rect class="c" x="738" y="2" rx="2" ry="2" width="12" height="12"/><rect class="c" x="738" y="18" rx="2" ry="2" width="12" height="12"/><rect class="c" x="738" y="34" rx="2" ry="2" width="12" height="12"/><rect class="c" x="738" y="50" rx="2" ry="2" width="12" height="12"/><rect class="c" x="738" y="66" rx="2" ry="2" width="12" height="12"/><rect class="c" x="738" y="82" rx="2" ry="2" width="12" height="12"/><rect class="c" x="738" y="98" rx="2" ry="2" width="12" height="12"/><rect class="c" x="754" y="2" rx="2" ry="2" width="12" height="12"/><rect class="c" x="754" y="18" rx="2" ry="2" width="12" height="12"/><rect class="c" x="754" y="34" rx="2" ry="2" width="12" height="12"/><rect class="c" x="754" y="50" rx="2" ry="2" width="12" height="12"/><rect class="c" x="754" y="66" rx="2" ry="2" width="12" height="12"/><rect class="c" x="754" y="82" rx="2" ry="2" width="12" height="12"/><rect class="c" x="754" y="98" rx="2" ry="2" width="12" height="12"/><rect class="c" x="770" y="2" rx="2" ry="2" width="12" height="12"/><rect class="c" x="770" y="18" rx="2" ry="2" width="12" height="12"/><rect class="c c13" x="770" y="34" rx="2" ry="2" width="12" height="12"/><rect class="c" x="770" y="50" rx="2" ry="2" width="12" height="12"/><rect class="c" x="770" y="66" rx="2" ry="2" width="12" height="12"/><rect class="c" x="770" y="82" rx="2" ry="2" width="12" height="12"/><rect class="c" x="770" y="98" rx="2" ry="2" width="12" height="12"/><rect class="c" x="786" y="2" rx="2" ry="2" width="12" height="12"/><rect class="c" x="786" y="18" rx="2" ry="2" width="12" height="12"/><rect class="c" x="786" y="34" rx="2" ry="2" width="12" height="12"/><rect class="c" x="786" y="50" rx="2" ry="2" width="12" height="12"/><rect class="c" x="786" y="66" rx="2" ry="2" width="12" height="12"/><rect class="c" x="786" y="82" rx="2" ry="2" width="12" height="12"/><rect class="c c14" x="786" y="98" rx="2" ry="2" width="12" height="12"/><rect class="c" x="802" y="2" rx="2" ry="2" width="12" height="12"/><rect class="c c15" x="802" y="18" rx="2" ry="2" width="12" height="12"/><rect class="c" x="802" y="34" rx="2" ry="2" width="12" height="12"/><rect class="c" x="802" y="50" rx="2" ry="2" width="12" height="12"/><rect class="c" x="802" y="66" rx="2" ry="2" width="12" height="12"/><rect class="c" x="802" y="82" rx="2" ry="2" width="12" height="12"/><rect class="c" x="802" y="98" rx="2" ry="2" width="12" height="12"/><rect class="c c16" x="818" y="2" rx="2" ry="2" width="12" height="12"/><rect class="c c17" x="818" y="18" rx="2" ry="2" width="12" height="12"/><rect class="c c18" x="818" y="34" rx="2" ry="2" width="12" height="12"/><rect class="c c19" x="818" y="50" rx="2" ry="2" width="12" height="12"/><rect class="c c1a" x="818" y="66" rx="2" ry="2" width="12" height="12"/><rect class="c c1b" x="818" y="82" rx="2" ry="2" width="12" height="12"/><rect class="c c1c" x="818" y="98" rx="2" ry="2" width="12" height="12"/><rect class="c c1d" x="834" y="2" rx="2" ry="2" width="12" height="12"/><rect class="c" x="834" y="18" rx="2" ry="2" width="12" height="12"/><rect class="u u0" height="12" width="407.6" x="0.0" y="144"/><rect class="u u1" height="12" width="238.0" x="407.0" y="144"/><rect class="u u2" height="12" width="34.5" x="644.5" y="144"/><rect class="u u3" height="12" width="170.2" x="678.4" y="144"/><rect class="s s0" x="0.8" y="0.8" width="14.4" height="14.4" rx="4.5" ry="4.5"/><rect class="s s1" x="1.8" y="1.8" width="12.3" height="12.3" rx="4.1" ry="4.1"/><rect class="s s2" x="2.6" y="2.6" width="10.8" height="10.8" rx="3.6" ry="3.6"/><rect class="s s3" x="3.0" y="3.0" width="9.9" height="9.9" rx="3.3" ry="3.3"/></svg>