<svg viewBox="-16 -32 880 192" width="880" height="192" xmlns="http://www.w3.org/2000/svg"><desc>Generated with https://github.com/Platane/snk</desc><style>:root{--cb:#1b1f230a;--cs:orange;--ce:#bfd6f6;--c0:#bfd6f6;--c1:#8dbdff;--c2:#64a1f4;--c3:#4b91f1;--c4:#3c7dd9}.c{shape-rendering:geometricPrecision;fill:var(--ce);stroke-width:1px;stroke:var(--cb);animation:none 16300ms linear infinite;width:12px;height:12px}@keyframes c0{0.6%{fill:var(--c2)}0.62%,100%{fill:var(--ce)}}.c.c0{fill:var(--c2);animation-name:c0}@keyframes c1{1.22%{fill:var(--c2)}1.24%,100%{fill:var(--ce)}}.c.c1{fill:var(--c2);animation-name:c1}@keyframes c2{1.83%{fill:var(--c2)}1.85%,100%{fill:var(--ce)}}.c.c2{fill:var(--c2);animation-name:c2}@keyframes c3{2.44%{fill:var(--c2)}2.46%,100%{fill:var(--ce)}}.c.c3{fill:var(--c2);animation-name:c3}@keyframes c4{3.06%{fill:var(--c2)}3.08%,100%{fill:var(--ce)}}.c.c4{fill:var(--c2);animation-name:c4}@keyframes c5{3.67%{fill:var(--c2)}3.69%,100%{fill:var(--ce)}}.c.c5{fill:var(--c2);animation-name:c5}@keyframes c6{4.28%{fill:var(--c2)}4.3%,100%{fill:var(--ce)}}.c.c6{fill:var(--c2);animation-name:c6}@keyframes c7{4.9%{fill:var(--c2)}4.92%,100%{fill:var(--ce)}}.c.c7{fill:var(--c2);animation-name:c7}@keyframes c8{5.51%{fill:var(--c2)}5.53%,100%{fill:var(--ce)}}.c.c8{fill:var(--c2);animation-name:c8}@keyframes c9{6.12%{fill:var(--c2)}6.14%,100%{fill:var(--ce)}}.c.c9{fill:var(--c2);animation-name:c9}@keyframes ca{6.74%{fill:var(--c2)}6.76%,100%{fill:var(--ce)}}.c.ca{fill:var(--c2);animation-name:ca}@keyframes cb{7.35%{fill:var(--c2)}7.37%,100%{fill:var(--ce)}}.c.cb{fill:var(--c2);animation-name:cb}@keyframes cc{7.97%{fill:var(--c2)}7.99%,100%{fill:var(--ce)}}.c.cc{fill:var(--c2);animation-name:cc}@keyframes cd{8.58%{fill:var(--c2)}8.6%,100%{fill:var(--ce)}}.c.cd{fill:var(--c2);animation-name:cd}@keyframes ce{9.19%{fill:var(--c2)}9.21%,100%{fill:var(--ce)}}.c.ce{fill:var(--c2);animation-name:ce}@keyframes cf{9.81%{fill:var(--c2)}9.83%,100%{fill:var(--ce)}}.c.cf{fill:var(--c2);animation-name:cf}@keyframes cg{10.42%{fill:var(--c2)}10.44%,100%{fill:var(--ce)}}.c.cg{fill:var(--c2);animation-name:cg}@keyframes ch{11.03%{fill:var(--c2)}11.05%,100%{fill:var(--ce)}}.c.ch{fill:var(--c2);animation-name:ch}@keyframes ci{11.65%{fill:var(--c2)}11.67%,100%{fill:var(--ce)}}.c.ci{fill:var(--c2);animation-name:ci}@keyframes cj{12.26%{fill:var(--c2)}12.28%,100%{fill:var(--ce)}}.c.cj{fill:var(--c2);animation-name:cj}@keyframes ck{12.87%{fill:var(--c2)}12.89%,100%{fill:var(--ce)}}.c.ck{fill:var(--c2);animation-name:ck}@keyframes cl{13.49%{fill:var(--c2)}13.51%,100%{fill:var(--ce)}}.c.cl{fill:var(--c2);animation-name:cl}@keyframes cm{85.27%{fill:var(--c4)}85.29%,100%{fill:var(--ce)}}.c.cm{fill:var(--c4);animation-name:cm}@keyframes cn{15.94%{fill:var(--c2)}15.96%,100%{fill:var(--ce)}}.c.cn{fill:var(--c2);animation-name:cn}@keyframes co{84.04%{fill:var(--c4)}84.06%,100%{fill:var(--ce)}}.c.co{fill:var(--c4);animation-name:co}@keyframes cp{58.89%{fill:var(--c3)}58.91%,100%{fill:var(--ce)}}.c.cp{fill:var(--c3);animation-name:cp}@keyframes cq{16.55%{fill:var(--c2)}16.57%,100%{fill:var(--ce)}}.c.cq{fill:var(--c2);animation-name:cq}@keyframes cr{17.17%{fill:var(--c2)}17.19%,100%{fill:var(--ce)}}.c.cr{fill:var(--c2);animation-name:cr}@keyframes cs{17.78%{fill:var(--c2)}17.8%,100%{fill:var(--ce)}}.c.cs{fill:var(--c2);animation-name:cs}@keyframes ct{54.59%{fill:var(--c2)}54.61%,100%{fill:var(--ce)}}.c.ct{fill:var(--c2);animation-name:ct}@keyframes cu{18.39%{fill:var(--c2)}18.41%,100%{fill:var(--ce)}}.c.cu{fill:var(--c2);animation-name:cu}@keyframes cv{52.14%{fill:var(--c2)}52.16%,100%{fill:var(--ce)}}.c.cv{fill:var(--c2);animation-name:cv}@keyframes cw{19.01%{fill:var(--c2)}19.03%,100%{fill:var(--ce)}}.c.cw{fill:var(--c2);animation-name:cw}@keyframes cx{19.62%{fill:var(--c2)}19.64%,100%{fill:var(--ce)}}.c.cx{fill:var(--c2);animation-name:cx}@keyframes cy{20.24%{fill:var(--c2)}20.26%,100%{fill:var(--ce)}}.c.cy{fill:var(--c2);animation-name:cy}@keyframes cz{20.85%{fill:var(--c2)}20.87%,100%{fill:var(--ce)}}.c.cz{fill:var(--c2);animation-name:cz}@keyframes c10{21.46%{fill:var(--c2)}21.48%,100%{fill:var(--ce)}}.c.c10{fill:var(--c2);animation-name:c10}@keyframes c11{22.08%{fill:var(--c2)}22.1%,100%{fill:var(--ce)}}.c.c11{fill:var(--c2);animation-name:c11}@keyframes c12{22.69%{fill:var(--c2)}22.71%,100%{fill:var(--ce)}}.c.c12{fill:var(--c2);animation-name:c12}@keyframes c13{23.3%{fill:var(--c2)}23.32%,100%{fill:var(--ce)}}.c.c13{fill:var(--c2);animation-name:c13}@keyframes c14{23.92%{fill:var(--c2)}23.94%,100%{fill:var(--ce)}}.c.c14{fill:var(--c2);animation-name:c14}@keyframes c15{24.53%{fill:var(--c2)}24.55%,100%{fill:var(--ce)}}.c.c15{fill:var(--c2);animation-name:c15}@keyframes c16{25.14%{fill:var(--c2)}25.16%,100%{fill:var(--ce)}}.c.c16{fill:var(--c2);animation-name:c16}@keyframes c17{25.76%{fill:var(--c2)}25.78%,100%{fill:var(--ce)}}.c.c17{fill:var(--c2);animation-name:c17}@keyframes c18{26.37%{fill:var(--c2)}26.39%,100%{fill:var(--ce)}}.c.c18{fill:var(--c2);animation-name:c18}@keyframes c19{43.55%{fill:var(--c2)}43.57%,100%{fill:var(--ce)}}.c.c19{fill:var(--c2);animation-name:c19}@keyframes c1a{71.16%{fill:var(--c3)}71.18%,100%{fill:var(--ce)}}.c.c1a{fill:var(--c3);animation-name:c1a}@keyframes c1b{26.98%{fill:var(--c2)}27%,100%{fill:var(--ce)}}.c.c1b{fill:var(--c2);animation-name:c1b}@keyframes c1c{27.6%{fill:var(--c2)}27.62%,100%{fill:var(--ce)}}.c.c1c{fill:var(--c2);animation-name:c1c}@keyframes c1d{41.71%{fill:var(--c2)}41.73%,100%{fill:var(--ce)}}.c.c1d{fill:var(--c2);animation-name:c1d}@keyframes c1e{28.21%{fill:var(--c2)}28.23%,100%{fill:var(--ce)}}.c.c1e{fill:var(--c2);animation-name:c1e}@keyframes c1f{28.82%{fill:var(--c2)}28.84%,100%{fill:var(--ce)}}.c.c1f{fill:var(--c2);animation-name:c1f}@keyframes c1g{29.44%{fill:var(--c2)}29.46%,100%{fill:var(--ce)}}.c.c1g{fill:var(--c2);animation-name:c1g}@keyframes c1h{30.05%{fill:var(--c2)}30.07%,100%{fill:var(--ce)}}.c.c1h{fill:var(--c2);animation-name:c1h}@keyframes c1i{30.66%{fill:var(--c2)}30.68%,100%{fill:var(--ce)}}.c.c1i{fill:var(--c2);animation-name:c1i}@keyframes c1j{31.28%{fill:var(--c2)}31.3%,100%{fill:var(--ce)}}.c.c1j{fill:var(--c2);animation-name:c1j}@keyframes c1k{37.41%{fill:var(--c2)}37.43%,100%{fill:var(--ce)}}.c.c1k{fill:var(--c2);animation-name:c1k}@keyframes c1l{31.89%{fill:var(--c2)}31.91%,100%{fill:var(--ce)}}.c.c1l{fill:var(--c2);animation-name:c1l}@keyframes c1m{32.51%{fill:var(--c2)}32.53%,100%{fill:var(--ce)}}.c.c1m{fill:var(--c2);animation-name:c1m}@keyframes c1n{33.12%{fill:var(--c2)}33.14%,100%{fill:var(--ce)}}.c.c1n{fill:var(--c2);animation-name:c1n}@keyframes c1o{34.96%{fill:var(--c2)}34.98%,100%{fill:var(--ce)}}.c.c1o{fill:var(--c2);animation-name:c1o}.u{transform-origin:0 0;transform:scale(0,1);animation:none linear 16300ms infinite}@keyframes u0{0.6%{transform:scale(0.000,1)}0.62%,1.22%{transform:scale(0.018,1)}1.24%,1.83%{transform:scale(0.035,1)}1.85%,2.44%{transform:scale(0.053,1)}2.46%,3.06%{transform:scale(0.070,1)}3.08%,3.67%{transform:scale(0.088,1)}3.69%,4.28%{transform:scale(0.105,1)}4.3%,4.9%{transform:scale(0.123,1)}4.92%,5.51%{transform:scale(0.140,1)}5.53%,6.12%{transform:scale(0.158,1)}6.14%,6.74%{transform:scale(0.175,1)}6.76%,7.35%{transform:scale(0.193,1)}7.37%,7.97%{transform:scale(0.211,1)}7.99%,8.58%{transform:scale(0.228,1)}8.6%,9.19%{transform:scale(0.246,1)}9.21%,9.81%{transform:scale(0.263,1)}9.83%,10.42%{transform:scale(0.281,1)}10.44%,11.03%{transform:scale(0.298,1)}11.05%,11.65%{transform:scale(0.316,1)}11.67%,12.26%{transform:scale(0.333,1)}12.28%,12.87%{transform:scale(0.351,1)}12.89%,13.49%{transform:scale(0.368,1)}13.51%,15.94%{transform:scale(0.386,1)}15.96%,16.55%{transform:scale(0.404,1)}16.57%,17.17%{transform:scale(0.421,1)}17.19%,17.78%{transform:scale(0.439,1)}17.8%,18.39%{transform:scale(0.456,1)}18.41%,19.01%{transform:scale(0.474,1)}19.03%,19.62%{transform:scale(0.491,1)}19.64%,20.24%{transform:scale(0.509,1)}20.26%,20.85%{transform:scale(0.526,1)}20.87%,21.46%{transform:scale(0.544,1)}21.48%,22.08%{transform:scale(0.561,1)}22.1%,22.69%{transform:scale(0.579,1)}22.71%,23.3%{transform:scale(0.596,1)}23.32%,23.92%{transform:scale(0.614,1)}23.94%,24.53%{transform:scale(0.632,1)}24.55%,25.14%{transform:scale(0.649,1)}25.16%,25.76%{transform:scale(0.667,1)}25.78%,26.37%{transform:scale(0.684,1)}26.39%,26.98%{transform:scale(0.702,1)}27%,27.6%{transform:scale(0.719,1)}27.62%,28.21%{transform:scale(0.737,1)}28.23%,28.82%{transform:scale(0.754,1)}28.84%,29.44%{transform:scale(0.772,1)}29.46%,30.05%{transform:scale(0.789,1)}30.07%,30.66%{transform:scale(0.807,1)}30.68%,31.28%{transform:scale(0.825,1)}31.3%,31.89%{transform:scale(0.842,1)}31.91%,32.51%{transform:scale(0.860,1)}32.53%,33.12%{transform:scale(0.877,1)}33.14%,34.96%{transform:scale(0.895,1)}34.98%,37.41%{transform:scale(0.912,1)}37.43%,41.71%{transform:scale(0.930,1)}41.73%,43.55%{transform:scale(0.947,1)}43.57%,52.14%{transform:scale(0.965,1)}52.16%,54.59%{transform:scale(0.982,1)}54.61%,100%{transform:scale(1.000,1)}}.u.u0{fill:var(--c2);animation-name:u0;transform-origin:0.0px 0}@keyframes u1{58.89%{transform:scale(0.000,1)}58.91%,71.16%{transform:scale(0.500,1)}71.18%,100%{transform:scale(1.000,1)}}.u.u1{fill:var(--c3);animation-name:u1;transform-origin:792.4px 0}@keyframes u2{84.04%{transform:scale(0.000,1)}84.06%,85.27%{transform:scale(0.500,1)}85.29%,100%{transform:scale(1.000,1)}}.u.u2{fill:var(--c4);animation-name:u2;transform-origin:820.2px 0}.s{shape-rendering:geometricPrecision;fill:var(--cs);animation:none linear 16300ms infinite}@keyframes s0{0%,99.39%{transform:translate(0px,-16px)}0.61%{transform:translate(0px,0px)}13.5%{transform:translate(336px,0px)}14.11%{transform:translate(336px,-16px)}15.34%{transform:translate(368px,-16px)}15.95%,84.66%{transform:translate(368px,0px)}33.13%{transform:translate(816px,0px)}34.97%{transform:translate(816px,48px)}35.58%{transform:translate(800px,48px)}36.2%{transform:translate(800px,32px)}41.1%{transform:translate(672px,32px)}41.72%{transform:translate(672px,48px)}42.33%{transform:translate(656px,48px)}42.94%{transform:translate(656px,32px)}51.53%{transform:translate(432px,32px)}52.15%{transform:translate(432px,48px)}52.76%{transform:translate(416px,48px)}54.6%{transform:translate(416px,96px)}55.21%{transform:translate(400px,96px)}57.67%{transform:translate(400px,32px)}58.9%{transform:translate(368px,32px)}59.51%{transform:translate(368px,48px)}69.94%{transform:translate(640px,48px)}71.17%{transform:translate(640px,80px)}71.78%{transform:translate(624px,80px)}74.23%{transform:translate(624px,16px)}84.05%{transform:translate(368px,16px)}96.32%{transform:translate(64px,0px)}96.93%{transform:translate(64px,-16px)}}.s.s0{transform:translate(0px,-16px);animation-name:s0}@keyframes s1{0%,99.39%{transform:translate(16px,-16px)}0.61%{transform:translate(0px,-16px)}1.23%{transform:translate(0px,0px)}14.11%{transform:translate(336px,0px)}14.72%{transform:translate(336px,-16px)}15.95%{transform:translate(368px,-16px)}16.56%,85.28%{transform:translate(368px,0px)}33.74%{transform:translate(816px,0px)}35.58%{transform:translate(816px,48px)}36.2%{transform:translate(800px,48px)}36.81%{transform:translate(800px,32px)}41.72%{transform:translate(672px,32px)}42.33%{transform:translate(672px,48px)}42.94%{transform:translate(656px,48px)}43.56%{transform:translate(656px,32px)}52.15%{transform:translate(432px,32px)}52.76%{transform:translate(432px,48px)}53.37%{transform:translate(416px,48px)}55.21%{transform:translate(416px,96px)}55.83%{transform:translate(400px,96px)}58.28%{transform:translate(400px,32px)}59.51%{transform:translate(368px,32px)}60.12%{transform:translate(368px,48px)}70.55%{transform:translate(640px,48px)}71.78%{transform:translate(640px,80px)}72.39%{transform:translate(624px,80px)}74.85%{transform:translate(624px,16px)}84.66%{transform:translate(368px,16px)}96.93%{transform:translate(64px,0px)}97.55%{transform:translate(64px,-16px)}}.s.s1{transform:translate(16px,-16px);animation-name:s1}@keyframes s2{0%,99.39%{transform:translate(32px,-16px)}1.23%{transform:translate(0px,-16px)}1.84%{transform:translate(0px,0px)}14.72%{transform:translate(336px,0px)}15.34%{transform:translate(336px,-16px)}16.56%{transform:translate(368px,-16px)}17.18%,85.89%{transform:translate(368px,0px)}34.36%{transform:translate(816px,0px)}36.2%{transform:translate(816px,48px)}36.81%{transform:translate(800px,48px)}37.42%{transform:translate(800px,32px)}42.33%{transform:translate(672px,32px)}42.94%{transform:translate(672px,48px)}43.56%{transform:translate(656px,48px)}44.17%{transform:translate(656px,32px)}52.76%{transform:translate(432px,32px)}53.37%{transform:translate(432px,48px)}53.99%{transform:translate(416px,48px)}55.83%{transform:translate(416px,96px)}56.44%{transform:translate(400px,96px)}58.9%{transform:translate(400px,32px)}60.12%{transform:translate(368px,32px)}60.74%{transform:translate(368px,48px)}71.17%{transform:translate(640px,48px)}72.39%{transform:translate(640px,80px)}73.01%{transform:translate(624px,80px)}75.46%{transform:translate(624px,16px)}85.28%{transform:translate(368px,16px)}97.55%{transform:translate(64px,0px)}98.16%{transform:translate(64px,-16px)}}.s.s2{transform:translate(32px,-16px);animation-name:s2}@keyframes s3{0%,99.39%{transform:translate(48px,-16px)}1.84%{transform:translate(0px,-16px)}2.45%{transform:translate(0px,0px)}15.34%{transform:translate(336px,0px)}15.95%{transform:translate(336px,-16px)}17.18%{transform:translate(368px,-16px)}17.79%,86.5%{transform:translate(368px,0px)}34.97%{transform:translate(816px,0px)}36.81%{transform:translate(816px,48px)}37.42%{transform:translate(800px,48px)}38.04%{transform:translate(800px,32px)}42.94%{transform:translate(672px,32px)}43.56%{transform:translate(672px,48px)}44.17%{transform:translate(656px,48px)}44.79%{transform:translate(656px,32px)}53.37%{transform:translate(432px,32px)}53.99%{transform:translate(432px,48px)}54.6%{transform:translate(416px,48px)}56.44%{transform:translate(416px,96px)}57.06%{transform:translate(400px,96px)}59.51%{transform:translate(400px,32px)}60.74%{transform:translate(368px,32px)}61.35%{transform:translate(368px,48px)}71.78%{transform:translate(640px,48px)}73.01%{transform:translate(640px,80px)}73.62%{transform:translate(624px,80px)}76.07%{transform:translate(624px,16px)}85.89%{transform:translate(368px,16px)}98.16%{transform:translate(64px,0px)}98.77%{transform:translate(64px,-16px)}}.s.s3{transform:translate(48px,-16px);animation-name:s3}</style><rect class="c c0" x="2" y="2" rx="2" ry="2"/><rect class="c" x="2" y="18" rx="2" ry="2"/><rect class="c" x="2" y="34" rx="2" ry="2"/><rect class="c" x="2" y="50" rx="2" ry="2"/><rect class="c" x="2" y="66" rx="2" ry="2"/><rect class="c" x="2" y="82" rx="2" ry="2"/><rect class="c" x="2" y="98" rx="2" ry="2"/><rect class="c c1" x="18" y="2" rx="2" ry="2"/><rect class="c" x="18" y="18" rx="2" ry="2"/><rect class="c" x="18" y="34" rx="2" ry="2"/><rect class="c" x="18" y="50" rx="2" ry="2"/><rect class="c" x="18" y="66" rx="2" ry="2"/><rect class="c" x="18" y="82" rx="2" ry="2"/><rect class="c" x="18" y="98" rx="2" ry="2"/><rect class="c c2" x="34" y="2" rx="2" ry="2"/><rect class="c" x="34" y="18" rx="2" ry="2"/><rect class="c" x="34" y="34" rx="2" ry="2"/><rect class="c" x="34" y="50" rx="2" ry="2"/><rect class="c" x="34" y="66" rx="2" ry="2"/><rect class="c" x="34" y="82" rx="2" ry="2"/><rect class="c" x="34" y="98" rx="2" ry="2"/><rect class="c c3" x="50" y="2" rx="2" ry="2"/><rect class="c" x="50" y="18" rx="2" ry="2"/><rect class="c" x="50" y="34" rx="2" ry="2"/><rect class="c" x="50" y="50" rx="2" ry="2"/><rect class="c" x="50" y="66" rx="2" ry="2"/><rect class="c" x="50" y="82" rx="2" ry="2"/><rect class="c" x="50" y="98" rx="2" ry="2"/><rect class="c c4" x="66" y="2" rx="2" ry="2"/><rect class="c" x="66" y="18" rx="2" ry="2"/><rect class="c" x="66" y="34" rx="2" ry="2"/><rect class="c" x="66" y="50" rx="2" ry="2"/><rect class="c" x="66" y="66" rx="2" ry="2"/><rect class="c" x="66" y="82" rx="2" ry="2"/><rect class="c" x="66" y="98" rx="2" ry="2"/><rect class="c c5" x="82" y="2" rx="2" ry="2"/><rect class="c" x="82" y="18" rx="2" ry="2"/><rect class="c" x="82" y="34" rx="2" ry="2"/><rect class="c" x="82" y="50" rx="2" ry="2"/><rect class="c" x="82" y="66" rx="2" ry="2"/><rect class="c" x="82" y="82" rx="2" ry="2"/><rect class="c" x="82" y="98" rx="2" ry="2"/><rect class="c c6" x="98" y="2" rx="2" ry="2"/><rect class="c" x="98" y="18" rx="2" ry="2"/><rect class="c" x="98" y="34" rx="2" ry="2"/><rect class="c" x="98" y="50" rx="2" ry="2"/><rect class="c" x="98" y="66" rx="2" ry="2"/><rect class="c" x="98" y="82" rx="2" ry="2"/><rect class="c" x="98" y="98" rx="2" ry="2"/><rect class="c c7" x="114" y="2" rx="2" ry="2"/><rect class="c" x="114" y="18" rx="2" ry="2"/><rect class="c" x="114" y="34" rx="2" ry="2"/><rect class="c" x="114" y="50" rx="2" ry="2"/><rect class="c" x="114" y="66" rx="2" ry="2"/><rect class="c" x="114" y="82" rx="2" ry="2"/><rect class="c" x="114" y="98" rx="2" ry="2"/><rect class="c c8" x="130" y="2" rx="2" ry="2"/><rect class="c" x="130" y="18" rx="2" ry="2"/><rect class="c" x="130" y="34" rx="2" ry="2"/><rect class="c" x="130" y="50" rx="2" ry="2"/><rect class="c" x="130" y="66" rx="2" ry="2"/><rect class="c" x="130" y="82" rx="2" ry="2"/><rect class="c" x="130" y="98" rx="2" ry="2"/><rect class="c c9" x="146" y="2" rx="2" ry="2"/><rect class="c" x="146" y="18" rx="2" ry="2"/><rect class="c" x="146" y="34" rx="2" ry="2"/><rect class="c" x="146" y="50" rx="2" ry="2"/><rect class="c" x="146" y="66" rx="2" ry="2"/><rect class="c" x="146" y="82" rx="2" ry="2"/><rect class="c" x="146" y="98" rx="2" ry="2"/><rect class="c ca" x="162" y="2" rx="2" ry="2"/><rect class="c" x="162" y="18" rx="2" ry="2"/><rect class="c" x="162" y="34" rx="2" ry="2"/><rect class="c" x="162" y="50" rx="2" ry="2"/><rect class="c" x="162" y="66" rx="2" ry="2"/><rect class="c" x="162" y="82" rx="2" ry="2"/><rect class="c" x="162" y="98" rx="2" ry="2"/><rect class="c cb" x="178" y="2" rx="2" ry="2"/><rect class="c" x="178" y="18" rx="2" ry="2"/><rect class="c" x="178" y="34" rx="2" ry="2"/><rect class="c" x="178" y="50" rx="2" ry="2"/><rect class="c" x="178" y="66" rx="2" ry="2"/><rect class="c" x="178" y="82" rx="2" ry="2"/><rect class="c" x="178" y="98" rx="2" ry="2"/><rect class="c cc" x="194" y="2" rx="2" ry="2"/><rect class="c" x="194" y="18" rx="2" ry="2"/><rect class="c" x="194" y="34" rx="2" ry="2"/><rect class="c" x="194" y="50" rx="2" ry="2"/><rect class="c" x="194" y="66" rx="2" ry="2"/><rect class="c" x="194" y="82" rx="2" ry="2"/><rect class="c" x="194" y="98" rx="2" ry="2"/><rect class="c cd" x="210" y="2" rx="2" ry="2"/><rect class="c" x="210" y="18" rx="2" ry="2"/><rect class="c" x="210" y="34" rx="2" ry="2"/><rect class="c" x="210" y="50" rx="2" ry="2"/><rect class="c" x="210" y="66" rx="2" ry="2"/><rect class="c" x="210" y="82" rx="2" ry="2"/><rect class="c" x="210" y="98" rx="2" ry="2"/><rect class="c ce" x="226" y="2" rx="2" ry="2"/><rect class="c" x="226" y="18" rx="2" ry="2"/><rect class="c" x="226" y="34" rx="2" ry="2"/><rect class="c" x="226" y="50" rx="2" ry="2"/><rect class="c" x="226" y="66" rx="2" ry="2"/><rect class="c" x="226" y="82" rx="2" ry="2"/><rect class="c" x="226" y="98" rx="2" ry="2"/><rect class="c cf" x="242" y="2" rx="2" ry="2"/><rect class="c" x="242" y="18" rx="2" ry="2"/><rect class="c" x="242" y="34" rx="2" ry="2"/><rect class="c" x="242" y="50" rx="2" ry="2"/><rect class="c" x="242" y="66" rx="2" ry="2"/><rect class="c" x="242" y="82" rx="2" ry="2"/><rect class="c" x="242" y="98" rx="2" ry="2"/><rect class="c cg" x="258" y="2" rx="2" ry="2"/><rect class="c" x="258" y="18" rx="2" ry="2"/><rect class="c" x="258" y="34" rx="2" ry="2"/><rect class="c" x="258" y="50" rx="2" ry="2"/><rect class="c" x="258" y="66" rx="2" ry="2"/><rect class="c" x="258" y="82" rx="2" ry="2"/><rect class="c" x="258" y="98" rx="2" ry="2"/><rect class="c ch" x="274" y="2" rx="2" ry="2"/><rect class="c" x="274" y="18" rx="2" ry="2"/><rect class="c" x="274" y="34" rx="2" ry="2"/><rect class="c" x="274" y="50" rx="2" ry="2"/><rect class="c" x="274" y="66" rx="2" ry="2"/><rect class="c" x="274" y="82" rx="2" ry="2"/><rect class="c" x="274" y="98" rx="2" ry="2"/><rect class="c ci" x="290" y="2" rx="2" ry="2"/><rect class="c" x="290" y="18" rx="2" ry="2"/><rect class="c" x="290" y="34" rx="2" ry="2"/><rect class="c" x="290" y="50" rx="2" ry="2"/><rect class="c" x="290" y="66" rx="2" ry="2"/><rect class="c" x="290" y="82" rx="2" ry="2"/><rect class="c" x="290" y="98" rx="2" ry="2"/><rect class="c cj" x="306" y="2" rx="2" ry="2"/><rect class="c" x="306" y="18" rx="2" ry="2"/><rect class="c" x="306" y="34" rx="2" ry="2"/><rect class="c" x="306" y="50" rx="2" ry="2"/><rect class="c" x="306" y="66" rx="2" ry="2"/><rect class="c" x="306" y="82" rx="2" ry="2"/><rect class="c" x="306" y="98" rx="2" ry="2"/><rect class="c ck" x="322" y="2" rx="2" ry="2"/><rect class="c" x="322" y="18" rx="2" ry="2"/><rect class="c" x="322" y="34" rx="2" ry="2"/><rect class="c" x="322" y="50" rx="2" ry="2"/><rect class="c" x="322" y="66" rx="2" ry="2"/><rect class="c" x="322" y="82" rx="2" ry="2"/><rect class="c" x="322" y="98" rx="2" ry="2"/><rect class="c cl" x="338" y="2" rx="2" ry="2"/><rect class="c" x="338" y="18" rx="2" ry="2"/><rect class="c" x="338" y="34" rx="2" ry="2"/><rect class="c" x="338" y="50" rx="2" ry="2"/><rect class="c" x="338" y="66" rx="2" ry="2"/><rect class="c" x="338" y="82" rx="2" ry="2"/><rect class="c" x="338" y="98" rx="2" ry="2"/><rect class="c cm" x="354" y="2" rx="2" ry="2"/><rect class="c" x="354" y="18" rx="2" ry="2"/><rect class="c" x="354" y="34" rx="2" ry="2"/><rect class="c" x="354" y="50" rx="2" ry="2"/><rect class="c" x="354" y="66" rx="2" ry="2"/><rect class="c" x="354" y="82" rx="2" ry="2"/><rect class="c" x="354" y="98" rx="2" ry="2"/><rect class="c cn" x="370" y="2" rx="2" ry="2"/><rect class="c co" x="370" y="18" rx="2" ry="2"/><rect class="c cp" x="370" y="34" rx="2" ry="2"/><rect class="c" x="370" y="50" rx="2" ry="2"/><rect class="c" x="370" y="66" rx="2" ry="2"/><rect class="c" x="370" y="82" rx="2" ry="2"/><rect class="c" x="370" y="98" rx="2" ry="2"/><rect class="c cq" x="386" y="2" rx="2" ry="2"/><rect class="c" x="386" y="18" rx="2" ry="2"/><rect class="c" x="386" y="34" rx="2" ry="2"/><rect class="c" x="386" y="50" rx="2" ry="2"/><rect class="c" x="386" y="66" rx="2" ry="2"/><rect class="c" x="386" y="82" rx="2" ry="2"/><rect class="c" x="386" y="98" rx="2" ry="2"/><rect class="c cr" x="402" y="2" rx="2" ry="2"/><rect class="c" x="402" y="18" rx="2" ry="2"/><rect class="c" x="402" y="34" rx="2" ry="2"/><rect class="c" x="402" y="50" rx="2" ry="2"/><rect class="c" x="402" y="66" rx="2" ry="2"/><rect class="c" x="402" y="82" rx="2" ry="2"/><rect class="c" x="402" y="98" rx="2" ry="2"/><rect class="c cs" x="418" y="2" rx="2" ry="2"/><rect class="c" x="418" y="18" rx="2" ry="2"/><rect class="c" x="418" y="34" rx="2" ry="2"/><rect class="c" x="418" y="50" rx="2" ry="2"/><rect class="c" x="418" y="66" rx="2" ry="2"/><rect class="c" x="418" y="82" rx="2" ry="2"/><rect class="c ct" x="418" y="98" rx="2" ry="2"/><rect class="c cu" x="434" y="2" rx="2" ry="2"/><rect class="c" x="434" y="18" rx="2" ry="2"/><rect class="c" x="434" y="34" rx="2" ry="2"/><rect class="c cv" x="434" y="50" rx="2" ry="2"/><rect class="c" x="434" y="66" rx="2" ry="2"/><rect class="c" x="434" y="82" rx="2" ry="2"/><rect class="c" x="434" y="98" rx="2" ry="2"/><rect class="c cw" x="450" y="2" rx="2" ry="2"/><rect class="c" x="450" y="18" rx="2" ry="2"/><rect class="c" x="450" y="34" rx="2" ry="2"/><rect class="c" x="450" y="50" rx="2" ry="2"/><rect class="c" x="450" y="66" rx="2" ry="2"/><rect class="c" x="450" y="82" rx="2" ry="2"/><rect class="c" x="450" y="98" rx="2" ry="2"/><rect class="c cx" x="466" y="2" rx="2" ry="2"/><rect class="c" x="466" y="18" rx="2" ry="2"/><rect class="c" x="466" y="34" rx="2" ry="2"/><rect class="c" x="466" y="50" rx="2" ry="2"/><rect class="c" x="466" y="66" rx="2" ry="2"/><rect class="c" x="466" y="82" rx="2" ry="2"/><rect class="c" x="466" y="98" rx="2" ry="2"/><rect class="c cy" x="482" y="2" rx="2" ry="2"/><rect class="c" x="482" y="18" rx="2" ry="2"/><rect class="c" x="482" y="34" rx="2" ry="2"/><rect class="c" x="482" y="50" rx="2" ry="2"/><rect class="c" x="482" y="66" rx="2" ry="2"/><rect class="c" x="482" y="82" rx="2" ry="2"/><rect class="c" x="482" y="98" rx="2" ry="2"/><rect class="c cz" x="498" y="2" rx="2" ry="2"/><rect class="c" x="498" y="18" rx="2" ry="2"/><rect class="c" x="498" y="34" rx="2" ry="2"/><rect class="c" x="498" y="50" rx="2" ry="2"/><rect class="c" x="498" y="66" rx="2" ry="2"/><rect class="c" x="498" y="82" rx="2" ry="2"/><rect class="c" x="498" y="98" rx="2" ry="2"/><rect class="c c10" x="514" y="2" rx="2" ry="2"/><rect class="c" x="514" y="18" rx="2" ry="2"/><rect class="c" x="514" y="34" rx="2" ry="2"/><rect class="c" x="514" y="50" rx="2" ry="2"/><rect class="c" x="514" y="66" rx="2" ry="2"/><rect class="c" x="514" y="82" rx="2" ry="2"/><rect class="c" x="514" y="98" rx="2" ry="2"/><rect class="c c11" x="530" y="2" rx="2" ry="2"/><rect class="c" x="530" y="18" rx="2" ry="2"/><rect class="c" x="530" y="34" rx="2" ry="2"/><rect class="c" x="530" y="50" rx="2" ry="2"/><rect class="c" x="530" y="66" rx="2" ry="2"/><rect class="c" x="530" y="82" rx="2" ry="2"/><rect class="c" x="530" y="98" rx="2" ry="2"/><rect class="c c12" x="546" y="2" rx="2" ry="2"/><rect class="c" x="546" y="18" rx="2" ry="2"/><rect class="c" x="546" y="34" rx="2" ry="2"/><rect class="c" x="546" y="50" rx="2" ry="2"/><rect class="c" x="546" y="66" rx="2" ry="2"/><rect class="c" x="546" y="82" rx="2" ry="2"/><rect class="c" x="546" y="98" rx="2" ry="2"/><rect class="c c13" x="562" y="2" rx="2" ry="2"/><rect class="c" x="562" y="18" rx="2" ry="2"/><rect class="c" x="562" y="34" rx="2" ry="2"/><rect class="c" x="562" y="50" rx="2" ry="2"/><rect class="c" x="562" y="66" rx="2" ry="2"/><rect class="c" x="562" y="82" rx="2" ry="2"/><rect class="c" x="562" y="98" rx="2" ry="2"/><rect class="c c14" x="578" y="2" rx="2" ry="2"/><rect class="c" x="578" y="18" rx="2" ry="2"/><rect class="c" x="578" y="34" rx="2" ry="2"/><rect class="c" x="578" y="50" rx="2" ry="2"/><rect class="c" x="578" y="66" rx="2" ry="2"/><rect class="c" x="578" y="82" rx="2" ry="2"/><rect class="c" x="578" y="98" rx="2" ry="2"/><rect class="c c15" x="594" y="2" rx="2" ry="2"/><rect class="c" x="594" y="18" rx="2" ry="2"/><rect class="c" x="594" y="34" rx="2" ry="2"/><rect class="c" x="594" y="50" rx="2" ry="2"/><rect class="c" x="594" y="66" rx="2" ry="2"/><rect class="c" x="594" y="82" rx="2" ry="2"/><rect class="c" x="594" y="98" rx="2" ry="2"/><rect class="c c16" x="610" y="2" rx="2" ry="2"/><rect class="c" x="610" y="18" rx="2" ry="2"/><rect class="c" x="610" y="34" rx="2" ry="2"/><rect class="c" x="610" y="50" rx="2" ry="2"/><rect class="c" x="610" y="66" rx="2" ry="2"/><rect class="c" x="610" y="82" rx="2" ry="2"/><rect class="c" x="610" y="98" rx="2" ry="2"/><rect class="c c17" x="626" y="2" rx="2" ry="2"/><rect class="c" x="626" y="18" rx="2" ry="2"/><rect class="c" x="626" y="34" rx="2" ry="2"/><rect class="c" x="626" y="50" rx="2" ry="2"/><rect class="c" x="626" y="66" rx="2" ry="2"/><rect class="c" x="626" y="82" rx="2" ry="2"/><rect class="c" x="626" y="98" rx="2" ry="2"/><rect class="c c18" x="642" y="2" rx="2" ry="2"/><rect class="c" x="642" y="18" rx="2" ry="2"/><rect class="c c19" x="642" y="34" rx="2" ry="2"/><rect class="c" x="642" y="50" rx="2" ry="2"/><rect class="c" x="642" y="66" rx="2" ry="2"/><rect class="c c1a" x="642" y="82" rx="2" ry="2"/><rect class="c" x="642" y="98" rx="2" ry="2"/><rect class="c c1b" x="658" y="2" rx="2" ry="2"/><rect class="c" x="658" y="18" rx="2" ry="2"/><rect class="c" x="658" y="34" rx="2" ry="2"/><rect class="c" x="658" y="50" rx="2" ry="2"/><rect class="c" x="658" y="66" rx="2" ry="2"/><rect class="c" x="658" y="82" rx="2" ry="2"/><rect class="c" x="658" y="98" rx="2" ry="2"/><rect class="c c1c" x="674" y="2" rx="2" ry="2"/><rect class="c" x="674" y="18" rx="2" ry="2"/><rect class="c" x="674" y="34" rx="2" ry="2"/><rect class="c c1d" x="674" y="50" rx="2" ry="2"/><rect class="c" x="674" y="66" rx="2" ry="2"/><rect class="c" x="674" y="82" rx="2" ry="2"/><rect class="c" x="674" y="98" rx="2" ry="2"/><rect class="c c1e" x="690" y="2" rx="2" ry="2"/><rect class="c" x="690" y="18" rx="2" ry="2"/><rect class="c" x="690" y="34" rx="2" ry="2"/><rect class="c" x="690" y="50" rx="2" ry="2"/><rect class="c" x="690" y="66" rx="2" ry="2"/><rect class="c" x="690" y="82" rx="2" ry="2"/><rect class="c" x="690" y="98" rx="2" ry="2"/><rect class="c c1f" x="706" y="2" rx="2" ry="2"/><rect class="c" x="706" y="18" rx="2" ry="2"/><rect class="c" x="706" y="34" rx="2" ry="2"/><rect class="c" x="706" y="50" rx="2" ry="2"/><rect class="c" x="706" y="66" rx="2" ry="2"/><rect class="c" x="706" y="82" rx="2" ry="2"/><rect class="c" x="706" y="98" rx="2" ry="2"/><rect class="c c1g" x="722" y="2" rx="2" ry="2"/><rect class="c" x="722" y="18" rx="2" ry="2"/><rect class="c" x="722" y="34" rx="2" ry="2"/><rect class="c" x="722" y="50" rx="2" ry="2"/><rect class="c" x="722" y="66" rx="2" ry="2"/><rect class="c" x="722" y="82" rx="2" ry="2"/><rect class="c" x="722" y="98" rx="2" ry="2"/><rect class="c c1h" x="738" y="2" rx="2" ry="2"/><rect class="c" x="738" y="18" rx="2" ry="2"/><rect class="c" x="738" y="34" rx="2" ry="2"/><rect class="c" x="738" y="50" rx="2" ry="2"/><rect class="c" x="738" y="66" rx="2" ry="2"/><rect class="c" x="738" y="82" rx="2" ry="2"/><rect class="c" x="738" y="98" rx="2" ry="2"/><rect class="c c1i" x="754" y="2" rx="2" ry="2"/><rect class="c" x="754" y="18" rx="2" ry="2"/><rect class="c" x="754" y="34" rx="2" ry="2"/><rect class="c" x="754" y="50" rx="2" ry="2"/><rect class="c" x="754" y="66" rx="2" ry="2"/><rect class="c" x="754" y="82" rx="2" ry="2"/><rect class="c" x="754" y="98" rx="2" ry="2"/><rect class="c c1j" x="770" y="2" rx="2" ry="2"/><rect class="c" x="770" y="18" rx="2" ry="2"/><rect class="c c1k" x="770" y="34" rx="2" ry="2"/><rect class="c" x="770" y="50" rx="2" ry="2"/><rect class="c" x="770" y="66" rx="2" ry="2"/><rect class="c" x="770" y="82" rx="2" ry="2"/><rect class="c" x="770" y="98" rx="2" ry="2"/><rect class="c c1l" x="786" y="2" rx="2" ry="2"/><rect class="c" x="786" y="18" rx="2" ry="2"/><rect class="c" x="786" y="34" rx="2" ry="2"/><rect class="c" x="786" y="50" rx="2" ry="2"/><rect class="c" x="786" y="66" rx="2" ry="2"/><rect class="c" x="786" y="82" rx="2" ry="2"/><rect class="c" x="786" y="98" rx="2" ry="2"/><rect class="c c1m" x="802" y="2" rx="2" ry="2"/><rect class="c" x="802" y="18" rx="2" ry="2"/><rect class="c" x="802" y="34" rx="2" ry="2"/><rect class="c" x="802" y="50" rx="2" ry="2"/><rect class="c" x="802" y="66" rx="2" ry="2"/><rect class="c" x="802" y="82" rx="2" ry="2"/><rect class="c" x="802" y="98" rx="2" ry="2"/><rect class="c c1n" x="818" y="2" rx="2" ry="2"/><rect class="c" x="818" y="18" rx="2" ry="2"/><rect class="c" x="818" y="34" rx="2" ry="2"/><rect class="c c1o" x="818" y="50" rx="2" ry="2"/><rect class="c" x="818" y="66" rx="2" ry="2"/><rect class="c" x="818" y="82" rx="2" ry="2"/><rect class="c" x="818" y="98" rx="2" ry="2"/><rect class="c" x="834" y="2" rx="2" ry="2"/><rect class="u u0" height="12" width="793.0" x="0.0" y="144"/><rect class="u u1" height="12" width="28.4" x="792.4" y="144"/><rect class="u u2" height="12" width="28.4" x="820.2" y="144"/><rect class="s s0" x="0.8" y="0.8" width="14.4" height="14.4" rx="4.5" ry="4.5"/><rect class="s s1" x="1.8" y="1.8" width="12.3" height="12.3" rx="4.1" ry="4.1"/><rect class="s s2" x="2.6" y="2.6" width="10.8" height="10.8" rx="3.6" ry="3.6"/><rect class="s s3" x="3.0" y="3.0" width="9.9" height="9.9" rx="3.3" ry="3.3"/></svg>