<svg viewBox="-16 -32 880 192" width="880" height="192" xmlns="http://www.w3.org/2000/svg"><desc>Generated with https://github.com/Platane/snk</desc><style>:root{--cb:#1b1f230a;--cs:orange;--ce:#bfd6f6;--c0:#bfd6f6;--c1:#8dbdff;--c2:#64a1f4;--c3:#4b91f1;--c4:#3c7dd9}.c{shape-rendering:geometricPrecision;fill:var(--ce);stroke-width:1px;stroke:var(--cb);animation:none 34300ms linear infinite;width:12px;height:12px}@keyframes c0{1.16%{fill:var(--c1)}1.18%,100%{fill:var(--ce)}}.c.c0{fill:var(--c1);animation-name:c0}@keyframes c1{71.71%{fill:var(--c3)}71.73%,100%{fill:var(--ce)}}.c.c1{fill:var(--c3);animation-name:c1}@keyframes c2{41.68%{fill:var(--c2)}41.7%,100%{fill:var(--ce)}}.c.c2{fill:var(--c2);animation-name:c2}@keyframes c3{2.91%{fill:var(--c1)}2.93%,100%{fill:var(--ce)}}.c.c3{fill:var(--c1);animation-name:c3}@keyframes c4{2.61%{fill:var(--c1)}2.63%,100%{fill:var(--ce)}}.c.c4{fill:var(--c1);animation-name:c4}@keyframes c5{3.2%{fill:var(--c1)}3.22%,100%{fill:var(--ce)}}.c.c5{fill:var(--c1);animation-name:c5}@keyframes c6{38.47%{fill:var(--c2)}38.49%,100%{fill:var(--ce)}}.c.c6{fill:var(--c2);animation-name:c6}@keyframes c7{3.49%{fill:var(--c1)}3.51%,100%{fill:var(--ce)}}.c.c7{fill:var(--c1);animation-name:c7}@keyframes c8{39.35%{fill:var(--c2)}39.37%,100%{fill:var(--ce)}}.c.c8{fill:var(--c2);animation-name:c8}@keyframes c9{37.02%{fill:var(--c2)}37.04%,100%{fill:var(--ce)}}.c.c9{fill:var(--c2);animation-name:c9}@keyframes ca{36.43%{fill:var(--c2)}36.45%,100%{fill:var(--ce)}}.c.ca{fill:var(--c2);animation-name:ca}@keyframes cb{36.14%{fill:var(--c1)}36.16%,100%{fill:var(--ce)}}.c.cb{fill:var(--c1);animation-name:cb}@keyframes cc{4.65%{fill:var(--c1)}4.67%,100%{fill:var(--ce)}}.c.cc{fill:var(--c1);animation-name:cc}@keyframes cd{4.95%{fill:var(--c1)}4.97%,100%{fill:var(--ce)}}.c.cd{fill:var(--c1);animation-name:cd}@keyframes ce{5.24%{fill:var(--c1)}5.26%,100%{fill:var(--ce)}}.c.ce{fill:var(--c1);animation-name:ce}@keyframes cf{5.53%{fill:var(--c1)}5.55%,100%{fill:var(--ce)}}.c.cf{fill:var(--c1);animation-name:cf}@keyframes cg{74.92%{fill:var(--c4)}74.94%,100%{fill:var(--ce)}}.c.cg{fill:var(--c4);animation-name:cg}@keyframes ch{67.63%{fill:var(--c3)}67.65%,100%{fill:var(--ce)}}.c.ch{fill:var(--c3);animation-name:ch}@keyframes ci{6.11%{fill:var(--c1)}6.13%,100%{fill:var(--ce)}}.c.ci{fill:var(--c1);animation-name:ci}@keyframes cj{6.4%{fill:var(--c1)}6.42%,100%{fill:var(--ce)}}.c.cj{fill:var(--c1);animation-name:cj}@keyframes ck{6.7%{fill:var(--c1)}6.72%,100%{fill:var(--ce)}}.c.ck{fill:var(--c1);animation-name:ck}@keyframes cl{6.99%{fill:var(--c1)}7.01%,100%{fill:var(--ce)}}.c.cl{fill:var(--c1);animation-name:cl}@keyframes cm{8.44%{fill:var(--c1)}8.46%,100%{fill:var(--ce)}}.c.cm{fill:var(--c1);animation-name:cm}@keyframes cn{76.37%{fill:var(--c4)}76.39%,100%{fill:var(--ce)}}.c.cn{fill:var(--c4);animation-name:cn}@keyframes co{47.22%{fill:var(--c2)}47.24%,100%{fill:var(--ce)}}.c.co{fill:var(--c2);animation-name:co}@keyframes cp{76.67%{fill:var(--c4)}76.69%,100%{fill:var(--ce)}}.c.cp{fill:var(--c4);animation-name:cp}@keyframes cq{46.05%{fill:var(--c2)}46.07%,100%{fill:var(--ce)}}.c.cq{fill:var(--c2);animation-name:cq}@keyframes cr{9.9%{fill:var(--c1)}9.92%,100%{fill:var(--ce)}}.c.cr{fill:var(--c1);animation-name:cr}@keyframes cs{32.64%{fill:var(--c1)}32.66%,100%{fill:var(--ce)}}.c.cs{fill:var(--c1);animation-name:cs}@keyframes ct{10.19%{fill:var(--c1)}10.21%,100%{fill:var(--ce)}}.c.ct{fill:var(--c1);animation-name:ct}@keyframes cu{29.73%{fill:var(--c1)}29.75%,100%{fill:var(--ce)}}.c.cu{fill:var(--c1);animation-name:cu}@keyframes cv{48.09%{fill:var(--c2)}48.11%,100%{fill:var(--ce)}}.c.cv{fill:var(--c2);animation-name:cv}@keyframes cw{10.49%{fill:var(--c1)}10.51%,100%{fill:var(--ce)}}.c.cw{fill:var(--c1);animation-name:cw}@keyframes cx{30.89%{fill:var(--c1)}30.91%,100%{fill:var(--ce)}}.c.cx{fill:var(--c1);animation-name:cx}@keyframes cy{10.78%{fill:var(--c1)}10.8%,100%{fill:var(--ce)}}.c.cy{fill:var(--c1);animation-name:cy}@keyframes cz{31.48%{fill:var(--c1)}31.5%,100%{fill:var(--ce)}}.c.cz{fill:var(--c1);animation-name:cz}@keyframes c10{11.07%{fill:var(--c1)}11.09%,100%{fill:var(--ce)}}.c.c10{fill:var(--c1);animation-name:c10}@keyframes c11{11.36%{fill:var(--c1)}11.38%,100%{fill:var(--ce)}}.c.c11{fill:var(--c1);animation-name:c11}@keyframes c12{11.65%{fill:var(--c1)}11.67%,100%{fill:var(--ce)}}.c.c12{fill:var(--c1);animation-name:c12}@keyframes c13{11.94%{fill:var(--c1)}11.96%,100%{fill:var(--ce)}}.c.c13{fill:var(--c1);animation-name:c13}@keyframes c14{12.23%{fill:var(--c1)}12.25%,100%{fill:var(--ce)}}.c.c14{fill:var(--c1);animation-name:c14}@keyframes c15{12.53%{fill:var(--c1)}12.55%,100%{fill:var(--ce)}}.c.c15{fill:var(--c1);animation-name:c15}@keyframes c16{12.82%{fill:var(--c1)}12.84%,100%{fill:var(--ce)}}.c.c16{fill:var(--c1);animation-name:c16}@keyframes c17{13.11%{fill:var(--c1)}13.13%,100%{fill:var(--ce)}}.c.c17{fill:var(--c1);animation-name:c17}@keyframes c18{13.4%{fill:var(--c1)}13.42%,100%{fill:var(--ce)}}.c.c18{fill:var(--c1);animation-name:c18}@keyframes c19{13.69%{fill:var(--c1)}13.71%,100%{fill:var(--ce)}}.c.c19{fill:var(--c1);animation-name:c19}@keyframes c1a{13.98%{fill:var(--c1)}14%,100%{fill:var(--ce)}}.c.c1a{fill:var(--c1);animation-name:c1a}@keyframes c1b{14.28%{fill:var(--c1)}14.3%,100%{fill:var(--ce)}}.c.c1b{fill:var(--c1);animation-name:c1b}@keyframes c1c{14.57%{fill:var(--c1)}14.59%,100%{fill:var(--ce)}}.c.c1c{fill:var(--c1);animation-name:c1c}@keyframes c1d{14.86%{fill:var(--c1)}14.88%,100%{fill:var(--ce)}}.c.c1d{fill:var(--c1);animation-name:c1d}@keyframes c1e{15.15%{fill:var(--c1)}15.17%,100%{fill:var(--ce)}}.c.c1e{fill:var(--c1);animation-name:c1e}@keyframes c1f{15.44%{fill:var(--c1)}15.46%,100%{fill:var(--ce)}}.c.c1f{fill:var(--c1);animation-name:c1f}@keyframes c1g{15.73%{fill:var(--c1)}15.75%,100%{fill:var(--ce)}}.c.c1g{fill:var(--c1);animation-name:c1g}@keyframes c1h{16.02%{fill:var(--c1)}16.04%,100%{fill:var(--ce)}}.c.c1h{fill:var(--c1);animation-name:c1h}@keyframes c1i{16.32%{fill:var(--c1)}16.34%,100%{fill:var(--ce)}}.c.c1i{fill:var(--c1);animation-name:c1i}@keyframes c1j{16.61%{fill:var(--c1)}16.63%,100%{fill:var(--ce)}}.c.c1j{fill:var(--c1);animation-name:c1j}@keyframes c1k{16.9%{fill:var(--c1)}16.92%,100%{fill:var(--ce)}}.c.c1k{fill:var(--c1);animation-name:c1k}@keyframes c1l{17.19%{fill:var(--c1)}17.21%,100%{fill:var(--ce)}}.c.c1l{fill:var(--c1);animation-name:c1l}@keyframes c1m{17.48%{fill:var(--c1)}17.5%,100%{fill:var(--ce)}}.c.c1m{fill:var(--c1);animation-name:c1m}@keyframes c1n{17.77%{fill:var(--c1)}17.79%,100%{fill:var(--ce)}}.c.c1n{fill:var(--c1);animation-name:c1n}@keyframes c1o{18.07%{fill:var(--c1)}18.09%,100%{fill:var(--ce)}}.c.c1o{fill:var(--c1);animation-name:c1o}@keyframes c1p{85.41%{fill:var(--c4)}85.43%,100%{fill:var(--ce)}}.c.c1p{fill:var(--c4);animation-name:c1p}@keyframes c1q{19.23%{fill:var(--c1)}19.25%,100%{fill:var(--ce)}}.c.c1q{fill:var(--c1);animation-name:c1q}@keyframes c1r{57.42%{fill:var(--c2)}57.44%,100%{fill:var(--ce)}}.c.c1r{fill:var(--c2);animation-name:c1r}@keyframes c1s{57.13%{fill:var(--c2)}57.15%,100%{fill:var(--ce)}}.c.c1s{fill:var(--c2);animation-name:c1s}@keyframes c1t{19.52%{fill:var(--c1)}19.54%,100%{fill:var(--ce)}}.c.c1t{fill:var(--c1);animation-name:c1t}@keyframes c1u{19.82%{fill:var(--c1)}19.84%,100%{fill:var(--ce)}}.c.c1u{fill:var(--c1);animation-name:c1u}.u{transform-origin:0 0;transform:scale(0,1);animation:none linear 34300ms infinite}@keyframes u0{1.16%{transform:scale(0.000,1)}1.18%,2.61%{transform:scale(0.020,1)}2.63%,2.91%{transform:scale(0.039,1)}2.93%,3.2%{transform:scale(0.059,1)}3.22%,3.49%{transform:scale(0.078,1)}3.51%,4.65%{transform:scale(0.098,1)}4.67%,4.95%{transform:scale(0.118,1)}4.97%,5.24%{transform:scale(0.137,1)}5.26%,5.53%{transform:scale(0.157,1)}5.55%,6.11%{transform:scale(0.176,1)}6.13%,6.4%{transform:scale(0.196,1)}6.42%,6.7%{transform:scale(0.216,1)}6.72%,6.99%{transform:scale(0.235,1)}7.01%,8.44%{transform:scale(0.255,1)}8.46%,9.9%{transform:scale(0.275,1)}9.92%,10.19%{transform:scale(0.294,1)}10.21%,10.49%{transform:scale(0.314,1)}10.51%,10.78%{transform:scale(0.333,1)}10.8%,11.07%{transform:scale(0.353,1)}11.09%,11.36%{transform:scale(0.373,1)}11.38%,11.65%{transform:scale(0.392,1)}11.67%,11.94%{transform:scale(0.412,1)}11.96%,12.23%{transform:scale(0.431,1)}12.25%,12.53%{transform:scale(0.451,1)}12.55%,12.82%{transform:scale(0.471,1)}12.84%,13.11%{transform:scale(0.490,1)}13.13%,13.4%{transform:scale(0.510,1)}13.42%,13.69%{transform:scale(0.529,1)}13.71%,13.98%{transform:scale(0.549,1)}14%,14.28%{transform:scale(0.569,1)}14.3%,14.57%{transform:scale(0.588,1)}14.59%,14.86%{transform:scale(0.608,1)}14.88%,15.15%{transform:scale(0.627,1)}15.17%,15.44%{transform:scale(0.647,1)}15.46%,15.73%{transform:scale(0.667,1)}15.75%,16.02%{transform:scale(0.686,1)}16.04%,16.32%{transform:scale(0.706,1)}16.34%,16.61%{transform:scale(0.725,1)}16.63%,16.9%{transform:scale(0.745,1)}16.92%,17.19%{transform:scale(0.765,1)}17.21%,17.48%{transform:scale(0.784,1)}17.5%,17.77%{transform:scale(0.804,1)}17.79%,18.07%{transform:scale(0.824,1)}18.09%,19.23%{transform:scale(0.843,1)}19.25%,19.52%{transform:scale(0.863,1)}19.54%,19.82%{transform:scale(0.882,1)}19.84%,29.73%{transform:scale(0.902,1)}29.75%,30.89%{transform:scale(0.922,1)}30.91%,31.48%{transform:scale(0.941,1)}31.5%,32.64%{transform:scale(0.961,1)}32.66%,36.14%{transform:scale(0.980,1)}36.16%,100%{transform:scale(1.000,1)}}.u.u0{fill:var(--c1);animation-name:u0;transform-origin:0.0px 0}@keyframes u1{36.43%{transform:scale(0.000,1)}36.45%,37.02%{transform:scale(0.100,1)}37.04%,38.47%{transform:scale(0.200,1)}38.49%,39.35%{transform:scale(0.300,1)}39.37%,41.68%{transform:scale(0.400,1)}41.7%,46.05%{transform:scale(0.500,1)}46.07%,47.22%{transform:scale(0.600,1)}47.24%,48.09%{transform:scale(0.700,1)}48.11%,57.13%{transform:scale(0.800,1)}57.15%,57.42%{transform:scale(0.900,1)}57.44%,100%{transform:scale(1.000,1)}}.u.u1{fill:var(--c2);animation-name:u1;transform-origin:645.5px 0}@keyframes u2{67.63%{transform:scale(0.000,1)}67.65%,71.71%{transform:scale(0.500,1)}71.73%,100%{transform:scale(1.000,1)}}.u.u2{fill:var(--c3);animation-name:u2;transform-origin:772.1px 0}@keyframes u3{74.92%{transform:scale(0.000,1)}74.94%,76.37%{transform:scale(0.250,1)}76.39%,76.67%{transform:scale(0.500,1)}76.69%,85.41%{transform:scale(0.750,1)}85.43%,100%{transform:scale(1.000,1)}}.u.u3{fill:var(--c4);animation-name:u3;transform-origin:797.4px 0}.s{shape-rendering:geometricPrecision;fill:var(--cs);animation:none linear 34300ms infinite}@keyframes s0{0%,99.71%{transform:translate(0px,-16px)}0.29%{transform:translate(0px,0px)}0.87%{transform:translate(32px,0px)}1.17%{transform:translate(32px,16px)}2.62%{transform:translate(112px,16px)}2.92%{transform:translate(112px,0px)}3.5%{transform:translate(144px,0px)}3.79%{transform:translate(144px,-16px)}4.37%{transform:translate(176px,-16px)}4.66%{transform:translate(176px,0px)}5.54%{transform:translate(224px,0px)}5.83%{transform:translate(224px,16px)}6.12%{transform:translate(240px,16px)}7%{transform:translate(240px,64px)}7.29%{transform:translate(256px,64px)}8.75%{transform:translate(256px,-16px)}9.62%{transform:translate(304px,-16px)}9.91%{transform:translate(304px,0px)}18.08%{transform:translate(752px,0px)}18.37%{transform:translate(752px,-16px)}18.95%{transform:translate(784px,-16px)}19.24%{transform:translate(784px,0px)}19.83%{transform:translate(816px,0px)}20.12%{transform:translate(816px,16px)}20.41%{transform:translate(800px,16px)}20.99%{transform:translate(800px,48px)}29.74%{transform:translate(320px,48px)}30.03%{transform:translate(320px,32px)}30.32%{transform:translate(336px,32px)}30.9%{transform:translate(336px,64px)}31.2%{transform:translate(352px,64px)}31.49%{transform:translate(352px,80px)}32.36%{transform:translate(304px,80px)}32.65%{transform:translate(304px,96px)}32.94%{transform:translate(288px,96px)}33.82%{transform:translate(288px,48px)}36.15%{transform:translate(160px,48px)}37.03%{transform:translate(160px,0px)}37.61%{transform:translate(128px,0px)}38.48%{transform:translate(128px,48px)}38.78%{transform:translate(144px,48px)}39.36%{transform:translate(144px,80px)}39.65%{transform:translate(128px,80px)}40.52%{transform:translate(128px,32px)}41.69%{transform:translate(64px,32px)}41.98%{transform:translate(64px,16px)}46.06%{transform:translate(288px,16px)}46.36%{transform:translate(288px,32px)}46.65%,75.8%{transform:translate(272px,32px)}47.23%{transform:translate(272px,64px)}56.56%{transform:translate(784px,64px)}57.43%{transform:translate(784px,16px)}67.06%{transform:translate(256px,16px)}67.35%{transform:translate(256px,0px)}71.14%{transform:translate(48px,0px)}71.72%{transform:translate(48px,32px)}76.38%{transform:translate(272px,0px)}85.42%{transform:translate(768px,0px)}85.71%{transform:translate(768px,-16px)}}.s.s0{transform:translate(0px,-16px);animation-name:s0}@keyframes s1{0%,99.71%{transform:translate(16px,-16px)}0.29%{transform:translate(0px,-16px)}0.58%{transform:translate(0px,0px)}1.17%{transform:translate(32px,0px)}1.46%{transform:translate(32px,16px)}2.92%{transform:translate(112px,16px)}3.21%{transform:translate(112px,0px)}3.79%{transform:translate(144px,0px)}4.08%{transform:translate(144px,-16px)}4.66%{transform:translate(176px,-16px)}4.96%{transform:translate(176px,0px)}5.83%{transform:translate(224px,0px)}6.12%{transform:translate(224px,16px)}6.41%{transform:translate(240px,16px)}7.29%{transform:translate(240px,64px)}7.58%{transform:translate(256px,64px)}9.04%{transform:translate(256px,-16px)}9.91%{transform:translate(304px,-16px)}10.2%{transform:translate(304px,0px)}18.37%{transform:translate(752px,0px)}18.66%{transform:translate(752px,-16px)}19.24%{transform:translate(784px,-16px)}19.53%{transform:translate(784px,0px)}20.12%{transform:translate(816px,0px)}20.41%{transform:translate(816px,16px)}20.7%{transform:translate(800px,16px)}21.28%{transform:translate(800px,48px)}30.03%{transform:translate(320px,48px)}30.32%{transform:translate(320px,32px)}30.61%{transform:translate(336px,32px)}31.2%{transform:translate(336px,64px)}31.49%{transform:translate(352px,64px)}31.78%{transform:translate(352px,80px)}32.65%{transform:translate(304px,80px)}32.94%{transform:translate(304px,96px)}33.24%{transform:translate(288px,96px)}34.11%{transform:translate(288px,48px)}36.44%{transform:translate(160px,48px)}37.32%{transform:translate(160px,0px)}37.9%{transform:translate(128px,0px)}38.78%{transform:translate(128px,48px)}39.07%{transform:translate(144px,48px)}39.65%{transform:translate(144px,80px)}39.94%{transform:translate(128px,80px)}40.82%{transform:translate(128px,32px)}41.98%{transform:translate(64px,32px)}42.27%{transform:translate(64px,16px)}46.36%{transform:translate(288px,16px)}46.65%{transform:translate(288px,32px)}46.94%,76.09%{transform:translate(272px,32px)}47.52%{transform:translate(272px,64px)}56.85%{transform:translate(784px,64px)}57.73%{transform:translate(784px,16px)}67.35%{transform:translate(256px,16px)}67.64%{transform:translate(256px,0px)}71.43%{transform:translate(48px,0px)}72.01%{transform:translate(48px,32px)}76.68%{transform:translate(272px,0px)}85.71%{transform:translate(768px,0px)}86.01%{transform:translate(768px,-16px)}}.s.s1{transform:translate(16px,-16px);animation-name:s1}@keyframes s2{0%,99.71%{transform:translate(32px,-16px)}0.58%{transform:translate(0px,-16px)}0.87%{transform:translate(0px,0px)}1.46%{transform:translate(32px,0px)}1.75%{transform:translate(32px,16px)}3.21%{transform:translate(112px,16px)}3.5%{transform:translate(112px,0px)}4.08%{transform:translate(144px,0px)}4.37%{transform:translate(144px,-16px)}4.96%{transform:translate(176px,-16px)}5.25%{transform:translate(176px,0px)}6.12%{transform:translate(224px,0px)}6.41%{transform:translate(224px,16px)}6.71%{transform:translate(240px,16px)}7.58%{transform:translate(240px,64px)}7.87%{transform:translate(256px,64px)}9.33%{transform:translate(256px,-16px)}10.2%{transform:translate(304px,-16px)}10.5%{transform:translate(304px,0px)}18.66%{transform:translate(752px,0px)}18.95%{transform:translate(752px,-16px)}19.53%{transform:translate(784px,-16px)}19.83%{transform:translate(784px,0px)}20.41%{transform:translate(816px,0px)}20.7%{transform:translate(816px,16px)}20.99%{transform:translate(800px,16px)}21.57%{transform:translate(800px,48px)}30.32%{transform:translate(320px,48px)}30.61%{transform:translate(320px,32px)}30.9%{transform:translate(336px,32px)}31.49%{transform:translate(336px,64px)}31.78%{transform:translate(352px,64px)}32.07%{transform:translate(352px,80px)}32.94%{transform:translate(304px,80px)}33.24%{transform:translate(304px,96px)}33.53%{transform:translate(288px,96px)}34.4%{transform:translate(288px,48px)}36.73%{transform:translate(160px,48px)}37.61%{transform:translate(160px,0px)}38.19%{transform:translate(128px,0px)}39.07%{transform:translate(128px,48px)}39.36%{transform:translate(144px,48px)}39.94%{transform:translate(144px,80px)}40.23%{transform:translate(128px,80px)}41.11%{transform:translate(128px,32px)}42.27%{transform:translate(64px,32px)}42.57%{transform:translate(64px,16px)}46.65%{transform:translate(288px,16px)}46.94%{transform:translate(288px,32px)}47.23%,76.38%{transform:translate(272px,32px)}47.81%{transform:translate(272px,64px)}57.14%{transform:translate(784px,64px)}58.02%{transform:translate(784px,16px)}67.64%{transform:translate(256px,16px)}67.93%{transform:translate(256px,0px)}71.72%{transform:translate(48px,0px)}72.3%{transform:translate(48px,32px)}76.97%{transform:translate(272px,0px)}86.01%{transform:translate(768px,0px)}86.3%{transform:translate(768px,-16px)}}.s.s2{transform:translate(32px,-16px);animation-name:s2}@keyframes s3{0%,99.71%{transform:translate(48px,-16px)}0.87%{transform:translate(0px,-16px)}1.17%{transform:translate(0px,0px)}1.75%{transform:translate(32px,0px)}2.04%{transform:translate(32px,16px)}3.5%{transform:translate(112px,16px)}3.79%{transform:translate(112px,0px)}4.37%{transform:translate(144px,0px)}4.66%{transform:translate(144px,-16px)}5.25%{transform:translate(176px,-16px)}5.54%{transform:translate(176px,0px)}6.41%{transform:translate(224px,0px)}6.71%{transform:translate(224px,16px)}7%{transform:translate(240px,16px)}7.87%{transform:translate(240px,64px)}8.16%{transform:translate(256px,64px)}9.62%{transform:translate(256px,-16px)}10.5%{transform:translate(304px,-16px)}10.79%{transform:translate(304px,0px)}18.95%{transform:translate(752px,0px)}19.24%{transform:translate(752px,-16px)}19.83%{transform:translate(784px,-16px)}20.12%{transform:translate(784px,0px)}20.7%{transform:translate(816px,0px)}20.99%{transform:translate(816px,16px)}21.28%{transform:translate(800px,16px)}21.87%{transform:translate(800px,48px)}30.61%{transform:translate(320px,48px)}30.9%{transform:translate(320px,32px)}31.2%{transform:translate(336px,32px)}31.78%{transform:translate(336px,64px)}32.07%{transform:translate(352px,64px)}32.36%{transform:translate(352px,80px)}33.24%{transform:translate(304px,80px)}33.53%{transform:translate(304px,96px)}33.82%{transform:translate(288px,96px)}34.69%{transform:translate(288px,48px)}37.03%{transform:translate(160px,48px)}37.9%{transform:translate(160px,0px)}38.48%{transform:translate(128px,0px)}39.36%{transform:translate(128px,48px)}39.65%{transform:translate(144px,48px)}40.23%{transform:translate(144px,80px)}40.52%{transform:translate(128px,80px)}41.4%{transform:translate(128px,32px)}42.57%{transform:translate(64px,32px)}42.86%{transform:translate(64px,16px)}46.94%{transform:translate(288px,16px)}47.23%{transform:translate(288px,32px)}47.52%,76.68%{transform:translate(272px,32px)}48.1%{transform:translate(272px,64px)}57.43%{transform:translate(784px,64px)}58.31%{transform:translate(784px,16px)}67.93%{transform:translate(256px,16px)}68.22%{transform:translate(256px,0px)}72.01%{transform:translate(48px,0px)}72.59%{transform:translate(48px,32px)}77.26%{transform:translate(272px,0px)}86.3%{transform:translate(768px,0px)}86.59%{transform:translate(768px,-16px)}}.s.s3{transform:translate(48px,-16px);animation-name:s3}</style><rect class="c" x="2" y="2" rx="2" ry="2"/><rect class="c" x="2" y="18" rx="2" ry="2"/><rect class="c" x="2" y="34" rx="2" ry="2"/><rect class="c" x="2" y="50" rx="2" ry="2"/><rect class="c" x="2" y="66" rx="2" ry="2"/><rect class="c" x="2" y="82" rx="2" ry="2"/><rect class="c" x="2" y="98" rx="2" ry="2"/><rect class="c" x="18" y="2" rx="2" ry="2"/><rect class="c" x="18" y="18" rx="2" ry="2"/><rect class="c" x="18" y="34" rx="2" ry="2"/><rect class="c" x="18" y="50" rx="2" ry="2"/><rect class="c" x="18" y="66" rx="2" ry="2"/><rect class="c" x="18" y="82" rx="2" ry="2"/><rect class="c" x="18" y="98" rx="2" ry="2"/><rect class="c" x="34" y="2" rx="2" ry="2"/><rect class="c c0" x="34" y="18" rx="2" ry="2"/><rect class="c" x="34" y="34" rx="2" ry="2"/><rect class="c" x="34" y="50" rx="2" ry="2"/><rect class="c" x="34" y="66" rx="2" ry="2"/><rect class="c" x="34" y="82" rx="2" ry="2"/><rect class="c" x="34" y="98" rx="2" ry="2"/><rect class="c" x="50" y="2" rx="2" ry="2"/><rect class="c" x="50" y="18" rx="2" ry="2"/><rect class="c c1" x="50" y="34" rx="2" ry="2"/><rect class="c" x="50" y="50" rx="2" ry="2"/><rect class="c" x="50" y="66" rx="2" ry="2"/><rect class="c" x="50" y="82" rx="2" ry="2"/><rect class="c" x="50" y="98" rx="2" ry="2"/><rect class="c" x="66" y="2" rx="2" ry="2"/><rect class="c" x="66" y="18" rx="2" ry="2"/><rect class="c c2" x="66" y="34" rx="2" ry="2"/><rect class="c" x="66" y="50" rx="2" ry="2"/><rect class="c" x="66" y="66" rx="2" ry="2"/><rect class="c" x="66" y="82" rx="2" ry="2"/><rect class="c" x="66" y="98" rx="2" ry="2"/><rect class="c" x="82" y="2" rx="2" ry="2"/><rect class="c" x="82" y="18" rx="2" ry="2"/><rect class="c" x="82" y="34" rx="2" ry="2"/><rect class="c" x="82" y="50" rx="2" ry="2"/><rect class="c" x="82" y="66" rx="2" ry="2"/><rect class="c" x="82" y="82" rx="2" ry="2"/><rect class="c" x="82" y="98" rx="2" ry="2"/><rect class="c" x="98" y="2" rx="2" ry="2"/><rect class="c" x="98" y="18" rx="2" ry="2"/><rect class="c" x="98" y="34" rx="2" ry="2"/><rect class="c" x="98" y="50" rx="2" ry="2"/><rect class="c" x="98" y="66" rx="2" ry="2"/><rect class="c" x="98" y="82" rx="2" ry="2"/><rect class="c" x="98" y="98" rx="2" ry="2"/><rect class="c c3" x="114" y="2" rx="2" ry="2"/><rect class="c c4" x="114" y="18" rx="2" ry="2"/><rect class="c" x="114" y="34" rx="2" ry="2"/><rect class="c" x="114" y="50" rx="2" ry="2"/><rect class="c" x="114" y="66" rx="2" ry="2"/><rect class="c" x="114" y="82" rx="2" ry="2"/><rect class="c" x="114" y="98" rx="2" ry="2"/><rect class="c c5" x="130" y="2" rx="2" ry="2"/><rect class="c" x="130" y="18" rx="2" ry="2"/><rect class="c" x="130" y="34" rx="2" ry="2"/><rect class="c c6" x="130" y="50" rx="2" ry="2"/><rect class="c" x="130" y="66" rx="2" ry="2"/><rect class="c" x="130" y="82" rx="2" ry="2"/><rect class="c" x="130" y="98" rx="2" ry="2"/><rect class="c c7" x="146" y="2" rx="2" ry="2"/><rect class="c" x="146" y="18" rx="2" ry="2"/><rect class="c" x="146" y="34" rx="2" ry="2"/><rect class="c" x="146" y="50" rx="2" ry="2"/><rect class="c" x="146" y="66" rx="2" ry="2"/><rect class="c c8" x="146" y="82" rx="2" ry="2"/><rect class="c" x="146" y="98" rx="2" ry="2"/><rect class="c c9" x="162" y="2" rx="2" ry="2"/><rect class="c" x="162" y="18" rx="2" ry="2"/><rect class="c ca" x="162" y="34" rx="2" ry="2"/><rect class="c cb" x="162" y="50" rx="2" ry="2"/><rect class="c" x="162" y="66" rx="2" ry="2"/><rect class="c" x="162" y="82" rx="2" ry="2"/><rect class="c" x="162" y="98" rx="2" ry="2"/><rect class="c cc" x="178" y="2" rx="2" ry="2"/><rect class="c" x="178" y="18" rx="2" ry="2"/><rect class="c" x="178" y="34" rx="2" ry="2"/><rect class="c" x="178" y="50" rx="2" ry="2"/><rect class="c" x="178" y="66" rx="2" ry="2"/><rect class="c" x="178" y="82" rx="2" ry="2"/><rect class="c" x="178" y="98" rx="2" ry="2"/><rect class="c cd" x="194" y="2" rx="2" ry="2"/><rect class="c" x="194" y="18" rx="2" ry="2"/><rect class="c" x="194" y="34" rx="2" ry="2"/><rect class="c" x="194" y="50" rx="2" ry="2"/><rect class="c" x="194" y="66" rx="2" ry="2"/><rect class="c" x="194" y="82" rx="2" ry="2"/><rect class="c" x="194" y="98" rx="2" ry="2"/><rect class="c ce" x="210" y="2" rx="2" ry="2"/><rect class="c" x="210" y="18" rx="2" ry="2"/><rect class="c" x="210" y="34" rx="2" ry="2"/><rect class="c" x="210" y="50" rx="2" ry="2"/><rect class="c" x="210" y="66" rx="2" ry="2"/><rect class="c" x="210" y="82" rx="2" ry="2"/><rect class="c" x="210" y="98" rx="2" ry="2"/><rect class="c cf" x="226" y="2" rx="2" ry="2"/><rect class="c" x="226" y="18" rx="2" ry="2"/><rect class="c cg" x="226" y="34" rx="2" ry="2"/><rect class="c" x="226" y="50" rx="2" ry="2"/><rect class="c" x="226" y="66" rx="2" ry="2"/><rect class="c" x="226" y="82" rx="2" ry="2"/><rect class="c" x="226" y="98" rx="2" ry="2"/><rect class="c ch" x="242" y="2" rx="2" ry="2"/><rect class="c ci" x="242" y="18" rx="2" ry="2"/><rect class="c cj" x="242" y="34" rx="2" ry="2"/><rect class="c ck" x="242" y="50" rx="2" ry="2"/><rect class="c cl" x="242" y="66" rx="2" ry="2"/><rect class="c" x="242" y="82" rx="2" ry="2"/><rect class="c" x="242" y="98" rx="2" ry="2"/><rect class="c cm" x="258" y="2" rx="2" ry="2"/><rect class="c" x="258" y="18" rx="2" ry="2"/><rect class="c" x="258" y="34" rx="2" ry="2"/><rect class="c" x="258" y="50" rx="2" ry="2"/><rect class="c" x="258" y="66" rx="2" ry="2"/><rect class="c" x="258" y="82" rx="2" ry="2"/><rect class="c" x="258" y="98" rx="2" ry="2"/><rect class="c cn" x="274" y="2" rx="2" ry="2"/><rect class="c" x="274" y="18" rx="2" ry="2"/><rect class="c" x="274" y="34" rx="2" ry="2"/><rect class="c" x="274" y="50" rx="2" ry="2"/><rect class="c co" x="274" y="66" rx="2" ry="2"/><rect class="c" x="274" y="82" rx="2" ry="2"/><rect class="c" x="274" y="98" rx="2" ry="2"/><rect class="c cp" x="290" y="2" rx="2" ry="2"/><rect class="c cq" x="290" y="18" rx="2" ry="2"/><rect class="c" x="290" y="34" rx="2" ry="2"/><rect class="c" x="290" y="50" rx="2" ry="2"/><rect class="c" x="290" y="66" rx="2" ry="2"/><rect class="c" x="290" y="82" rx="2" ry="2"/><rect class="c" x="290" y="98" rx="2" ry="2"/><rect class="c cr" x="306" y="2" rx="2" ry="2"/><rect class="c" x="306" y="18" rx="2" ry="2"/><rect class="c" x="306" y="34" rx="2" ry="2"/><rect class="c" x="306" y="50" rx="2" ry="2"/><rect class="c" x="306" y="66" rx="2" ry="2"/><rect class="c" x="306" y="82" rx="2" ry="2"/><rect class="c cs" x="306" y="98" rx="2" ry="2"/><rect class="c ct" x="322" y="2" rx="2" ry="2"/><rect class="c" x="322" y="18" rx="2" ry="2"/><rect class="c" x="322" y="34" rx="2" ry="2"/><rect class="c cu" x="322" y="50" rx="2" ry="2"/><rect class="c cv" x="322" y="66" rx="2" ry="2"/><rect class="c" x="322" y="82" rx="2" ry="2"/><rect class="c" x="322" y="98" rx="2" ry="2"/><rect class="c cw" x="338" y="2" rx="2" ry="2"/><rect class="c" x="338" y="18" rx="2" ry="2"/><rect class="c" x="338" y="34" rx="2" ry="2"/><rect class="c" x="338" y="50" rx="2" ry="2"/><rect class="c cx" x="338" y="66" rx="2" ry="2"/><rect class="c" x="338" y="82" rx="2" ry="2"/><rect class="c" x="338" y="98" rx="2" ry="2"/><rect class="c cy" x="354" y="2" rx="2" ry="2"/><rect class="c" x="354" y="18" rx="2" ry="2"/><rect class="c" x="354" y="34" rx="2" ry="2"/><rect class="c" x="354" y="50" rx="2" ry="2"/><rect class="c" x="354" y="66" rx="2" ry="2"/><rect class="c cz" x="354" y="82" rx="2" ry="2"/><rect class="c" x="354" y="98" rx="2" ry="2"/><rect class="c c10" x="370" y="2" rx="2" ry="2"/><rect class="c" x="370" y="18" rx="2" ry="2"/><rect class="c" x="370" y="34" rx="2" ry="2"/><rect class="c" x="370" y="50" rx="2" ry="2"/><rect class="c" x="370" y="66" rx="2" ry="2"/><rect class="c" x="370" y="82" rx="2" ry="2"/><rect class="c" x="370" y="98" rx="2" ry="2"/><rect class="c c11" x="386" y="2" rx="2" ry="2"/><rect class="c" x="386" y="18" rx="2" ry="2"/><rect class="c" x="386" y="34" rx="2" ry="2"/><rect class="c" x="386" y="50" rx="2" ry="2"/><rect class="c" x="386" y="66" rx="2" ry="2"/><rect class="c" x="386" y="82" rx="2" ry="2"/><rect class="c" x="386" y="98" rx="2" ry="2"/><rect class="c c12" x="402" y="2" rx="2" ry="2"/><rect class="c" x="402" y="18" rx="2" ry="2"/><rect class="c" x="402" y="34" rx="2" ry="2"/><rect class="c" x="402" y="50" rx="2" ry="2"/><rect class="c" x="402" y="66" rx="2" ry="2"/><rect class="c" x="402" y="82" rx="2" ry="2"/><rect class="c" x="402" y="98" rx="2" ry="2"/><rect class="c c13" x="418" y="2" rx="2" ry="2"/><rect class="c" x="418" y="18" rx="2" ry="2"/><rect class="c" x="418" y="34" rx="2" ry="2"/><rect class="c" x="418" y="50" rx="2" ry="2"/><rect class="c" x="418" y="66" rx="2" ry="2"/><rect class="c" x="418" y="82" rx="2" ry="2"/><rect class="c" x="418" y="98" rx="2" ry="2"/><rect class="c c14" x="434" y="2" rx="2" ry="2"/><rect class="c" x="434" y="18" rx="2" ry="2"/><rect class="c" x="434" y="34" rx="2" ry="2"/><rect class="c" x="434" y="50" rx="2" ry="2"/><rect class="c" x="434" y="66" rx="2" ry="2"/><rect class="c" x="434" y="82" rx="2" ry="2"/><rect class="c" x="434" y="98" rx="2" ry="2"/><rect class="c c15" x="450" y="2" rx="2" ry="2"/><rect class="c" x="450" y="18" rx="2" ry="2"/><rect class="c" x="450" y="34" rx="2" ry="2"/><rect class="c" x="450" y="50" rx="2" ry="2"/><rect class="c" x="450" y="66" rx="2" ry="2"/><rect class="c" x="450" y="82" rx="2" ry="2"/><rect class="c" x="450" y="98" rx="2" ry="2"/><rect class="c c16" x="466" y="2" rx="2" ry="2"/><rect class="c" x="466" y="18" rx="2" ry="2"/><rect class="c" x="466" y="34" rx="2" ry="2"/><rect class="c" x="466" y="50" rx="2" ry="2"/><rect class="c" x="466" y="66" rx="2" ry="2"/><rect class="c" x="466" y="82" rx="2" ry="2"/><rect class="c" x="466" y="98" rx="2" ry="2"/><rect class="c c17" x="482" y="2" rx="2" ry="2"/><rect class="c" x="482" y="18" rx="2" ry="2"/><rect class="c" x="482" y="34" rx="2" ry="2"/><rect class="c" x="482" y="50" rx="2" ry="2"/><rect class="c" x="482" y="66" rx="2" ry="2"/><rect class="c" x="482" y="82" rx="2" ry="2"/><rect class="c" x="482" y="98" rx="2" ry="2"/><rect class="c c18" x="498" y="2" rx="2" ry="2"/><rect class="c" x="498" y="18" rx="2" ry="2"/><rect class="c" x="498" y="34" rx="2" ry="2"/><rect class="c" x="498" y="50" rx="2" ry="2"/><rect class="c" x="498" y="66" rx="2" ry="2"/><rect class="c" x="498" y="82" rx="2" ry="2"/><rect class="c" x="498" y="98" rx="2" ry="2"/><rect class="c c19" x="514" y="2" rx="2" ry="2"/><rect class="c" x="514" y="18" rx="2" ry="2"/><rect class="c" x="514" y="34" rx="2" ry="2"/><rect class="c" x="514" y="50" rx="2" ry="2"/><rect class="c" x="514" y="66" rx="2" ry="2"/><rect class="c" x="514" y="82" rx="2" ry="2"/><rect class="c" x="514" y="98" rx="2" ry="2"/><rect class="c c1a" x="530" y="2" rx="2" ry="2"/><rect class="c" x="530" y="18" rx="2" ry="2"/><rect class="c" x="530" y="34" rx="2" ry="2"/><rect class="c" x="530" y="50" rx="2" ry="2"/><rect class="c" x="530" y="66" rx="2" ry="2"/><rect class="c" x="530" y="82" rx="2" ry="2"/><rect class="c" x="530" y="98" rx="2" ry="2"/><rect class="c c1b" x="546" y="2" rx="2" ry="2"/><rect class="c" x="546" y="18" rx="2" ry="2"/><rect class="c" x="546" y="34" rx="2" ry="2"/><rect class="c" x="546" y="50" rx="2" ry="2"/><rect class="c" x="546" y="66" rx="2" ry="2"/><rect class="c" x="546" y="82" rx="2" ry="2"/><rect class="c" x="546" y="98" rx="2" ry="2"/><rect class="c c1c" x="562" y="2" rx="2" ry="2"/><rect class="c" x="562" y="18" rx="2" ry="2"/><rect class="c" x="562" y="34" rx="2" ry="2"/><rect class="c" x="562" y="50" rx="2" ry="2"/><rect class="c" x="562" y="66" rx="2" ry="2"/><rect class="c" x="562" y="82" rx="2" ry="2"/><rect class="c" x="562" y="98" rx="2" ry="2"/><rect class="c c1d" x="578" y="2" rx="2" ry="2"/><rect class="c" x="578" y="18" rx="2" ry="2"/><rect class="c" x="578" y="34" rx="2" ry="2"/><rect class="c" x="578" y="50" rx="2" ry="2"/><rect class="c" x="578" y="66" rx="2" ry="2"/><rect class="c" x="578" y="82" rx="2" ry="2"/><rect class="c" x="578" y="98" rx="2" ry="2"/><rect class="c c1e" x="594" y="2" rx="2" ry="2"/><rect class="c" x="594" y="18" rx="2" ry="2"/><rect class="c" x="594" y="34" rx="2" ry="2"/><rect class="c" x="594" y="50" rx="2" ry="2"/><rect class="c" x="594" y="66" rx="2" ry="2"/><rect class="c" x="594" y="82" rx="2" ry="2"/><rect class="c" x="594" y="98" rx="2" ry="2"/><rect class="c c1f" x="610" y="2" rx="2" ry="2"/><rect class="c" x="610" y="18" rx="2" ry="2"/><rect class="c" x="610" y="34" rx="2" ry="2"/><rect class="c" x="610" y="50" rx="2" ry="2"/><rect class="c" x="610" y="66" rx="2" ry="2"/><rect class="c" x="610" y="82" rx="2" ry="2"/><rect class="c" x="610" y="98" rx="2" ry="2"/><rect class="c c1g" x="626" y="2" rx="2" ry="2"/><rect class="c" x="626" y="18" rx="2" ry="2"/><rect class="c" x="626" y="34" rx="2" ry="2"/><rect class="c" x="626" y="50" rx="2" ry="2"/><rect class="c" x="626" y="66" rx="2" ry="2"/><rect class="c" x="626" y="82" rx="2" ry="2"/><rect class="c" x="626" y="98" rx="2" ry="2"/><rect class="c c1h" x="642" y="2" rx="2" ry="2"/><rect class="c" x="642" y="18" rx="2" ry="2"/><rect class="c" x="642" y="34" rx="2" ry="2"/><rect class="c" x="642" y="50" rx="2" ry="2"/><rect class="c" x="642" y="66" rx="2" ry="2"/><rect class="c" x="642" y="82" rx="2" ry="2"/><rect class="c" x="642" y="98" rx="2" ry="2"/><rect class="c c1i" x="658" y="2" rx="2" ry="2"/><rect class="c" x="658" y="18" rx="2" ry="2"/><rect class="c" x="658" y="34" rx="2" ry="2"/><rect class="c" x="658" y="50" rx="2" ry="2"/><rect class="c" x="658" y="66" rx="2" ry="2"/><rect class="c" x="658" y="82" rx="2" ry="2"/><rect class="c" x="658" y="98" rx="2" ry="2"/><rect class="c c1j" x="674" y="2" rx="2" ry="2"/><rect class="c" x="674" y="18" rx="2" ry="2"/><rect class="c" x="674" y="34" rx="2" ry="2"/><rect class="c" x="674" y="50" rx="2" ry="2"/><rect class="c" x="674" y="66" rx="2" ry="2"/><rect class="c" x="674" y="82" rx="2" ry="2"/><rect class="c" x="674" y="98" rx="2" ry="2"/><rect class="c c1k" x="690" y="2" rx="2" ry="2"/><rect class="c" x="690" y="18" rx="2" ry="2"/><rect class="c" x="690" y="34" rx="2" ry="2"/><rect class="c" x="690" y="50" rx="2" ry="2"/><rect class="c" x="690" y="66" rx="2" ry="2"/><rect class="c" x="690" y="82" rx="2" ry="2"/><rect class="c" x="690" y="98" rx="2" ry="2"/><rect class="c c1l" x="706" y="2" rx="2" ry="2"/><rect class="c" x="706" y="18" rx="2" ry="2"/><rect class="c" x="706" y="34" rx="2" ry="2"/><rect class="c" x="706" y="50" rx="2" ry="2"/><rect class="c" x="706" y="66" rx="2" ry="2"/><rect class="c" x="706" y="82" rx="2" ry="2"/><rect class="c" x="706" y="98" rx="2" ry="2"/><rect class="c c1m" x="722" y="2" rx="2" ry="2"/><rect class="c" x="722" y="18" rx="2" ry="2"/><rect class="c" x="722" y="34" rx="2" ry="2"/><rect class="c" x="722" y="50" rx="2" ry="2"/><rect class="c" x="722" y="66" rx="2" ry="2"/><rect class="c" x="722" y="82" rx="2" ry="2"/><rect class="c" x="722" y="98" rx="2" ry="2"/><rect class="c c1n" x="738" y="2" rx="2" ry="2"/><rect class="c" x="738" y="18" rx="2" ry="2"/><rect class="c" x="738" y="34" rx="2" ry="2"/><rect class="c" x="738" y="50" rx="2" ry="2"/><rect class="c" x="738" y="66" rx="2" ry="2"/><rect class="c" x="738" y="82" rx="2" ry="2"/><rect class="c" x="738" y="98" rx="2" ry="2"/><rect class="c c1o" x="754" y="2" rx="2" ry="2"/><rect class="c" x="754" y="18" rx="2" ry="2"/><rect class="c" x="754" y="34" rx="2" ry="2"/><rect class="c" x="754" y="50" rx="2" ry="2"/><rect class="c" x="754" y="66" rx="2" ry="2"/><rect class="c" x="754" y="82" rx="2" ry="2"/><rect class="c" x="754" y="98" rx="2" ry="2"/><rect class="c c1p" x="770" y="2" rx="2" ry="2"/><rect class="c" x="770" y="18" rx="2" ry="2"/><rect class="c" x="770" y="34" rx="2" ry="2"/><rect class="c" x="770" y="50" rx="2" ry="2"/><rect class="c" x="770" y="66" rx="2" ry="2"/><rect class="c" x="770" y="82" rx="2" ry="2"/><rect class="c" x="770" y="98" rx="2" ry="2"/><rect class="c c1q" x="786" y="2" rx="2" ry="2"/><rect class="c c1r" x="786" y="18" rx="2" ry="2"/><rect class="c c1s" x="786" y="34" rx="2" ry="2"/><rect class="c" x="786" y="50" rx="2" ry="2"/><rect class="c" x="786" y="66" rx="2" ry="2"/><rect class="c" x="786" y="82" rx="2" ry="2"/><rect class="c" x="786" y="98" rx="2" ry="2"/><rect class="c c1t" x="802" y="2" rx="2" ry="2"/><rect class="c" x="802" y="18" rx="2" ry="2"/><rect class="c" x="802" y="34" rx="2" ry="2"/><rect class="c" x="802" y="50" rx="2" ry="2"/><rect class="c" x="802" y="66" rx="2" ry="2"/><rect class="c" x="802" y="82" rx="2" ry="2"/><rect class="c" x="802" y="98" rx="2" ry="2"/><rect class="c c1u" x="818" y="2" rx="2" ry="2"/><rect class="c" x="818" y="18" rx="2" ry="2"/><rect class="c" x="818" y="34" rx="2" ry="2"/><rect class="c" x="818" y="50" rx="2" ry="2"/><rect class="c" x="818" y="66" rx="2" ry="2"/><rect class="c" x="818" y="82" rx="2" ry="2"/><rect class="c" x="818" y="98" rx="2" ry="2"/><rect class="c" x="834" y="2" rx="2" ry="2"/><rect class="u u0" height="12" width="646.1" x="0.0" y="144"/><rect class="u u1" height="12" width="127.2" x="645.5" y="144"/><rect class="u u2" height="12" width="25.9" x="772.1" y="144"/><rect class="u u3" height="12" width="51.2" x="797.4" y="144"/><rect class="s s0" x="0.8" y="0.8" width="14.4" height="14.4" rx="4.5" ry="4.5"/><rect class="s s1" x="1.8" y="1.8" width="12.3" height="12.3" rx="4.1" ry="4.1"/><rect class="s s2" x="2.6" y="2.6" width="10.8" height="10.8" rx="3.6" ry="3.6"/><rect class="s s3" x="3.0" y="3.0" width="9.9" height="9.9" rx="3.3" ry="3.3"/></svg>