<svg viewBox="-16 -32 880 192" width="880" height="192" xmlns="http://www.w3.org/2000/svg"><desc>Generated with https://github.com/Platane/snk</desc><style>:root{--cb:#1b1f230a;--cs:orange;--ce:#bfd6f6;--c0:#bfd6f6;--c1:#8dbdff;--c2:#64a1f4;--c3:#4b91f1;--c4:#3c7dd9}.c{shape-rendering:geometricPrecision;fill:var(--ce);stroke-width:1px;stroke:var(--cb);animation:none 12500ms linear infinite;width:12px;height:12px}@keyframes c0{0.79%{fill:var(--c4)}0.81%,100%{fill:var(--ce)}}.c.c0{fill:var(--c4);animation-name:c0}@keyframes c1{1.59%{fill:var(--c4)}1.61%,100%{fill:var(--ce)}}.c.c1{fill:var(--c4);animation-name:c1}@keyframes c2{2.39%{fill:var(--c4)}2.41%,100%{fill:var(--ce)}}.c.c2{fill:var(--c4);animation-name:c2}@keyframes c3{3.19%{fill:var(--c4)}3.21%,100%{fill:var(--ce)}}.c.c3{fill:var(--c4);animation-name:c3}@keyframes c4{3.99%{fill:var(--c4)}4.01%,100%{fill:var(--ce)}}.c.c4{fill:var(--c4);animation-name:c4}@keyframes c5{4.79%{fill:var(--c4)}4.81%,100%{fill:var(--ce)}}.c.c5{fill:var(--c4);animation-name:c5}@keyframes c6{5.59%{fill:var(--c4)}5.61%,100%{fill:var(--ce)}}.c.c6{fill:var(--c4);animation-name:c6}@keyframes c7{6.39%{fill:var(--c4)}6.41%,100%{fill:var(--ce)}}.c.c7{fill:var(--c4);animation-name:c7}@keyframes c8{7.19%{fill:var(--c4)}7.21%,100%{fill:var(--ce)}}.c.c8{fill:var(--c4);animation-name:c8}@keyframes c9{7.99%{fill:var(--c4)}8.01%,100%{fill:var(--ce)}}.c.c9{fill:var(--c4);animation-name:c9}@keyframes ca{8.79%{fill:var(--c4)}8.81%,100%{fill:var(--ce)}}.c.ca{fill:var(--c4);animation-name:ca}@keyframes cb{9.59%{fill:var(--c4)}9.61%,100%{fill:var(--ce)}}.c.cb{fill:var(--c4);animation-name:cb}@keyframes cc{10.39%{fill:var(--c4)}10.41%,100%{fill:var(--ce)}}.c.cc{fill:var(--c4);animation-name:cc}@keyframes cd{11.19%{fill:var(--c4)}11.21%,100%{fill:var(--ce)}}.c.cd{fill:var(--c4);animation-name:cd}@keyframes ce{11.99%{fill:var(--c4)}12.01%,100%{fill:var(--ce)}}.c.ce{fill:var(--c4);animation-name:ce}@keyframes cf{12.79%{fill:var(--c4)}12.81%,100%{fill:var(--ce)}}.c.cf{fill:var(--c4);animation-name:cf}@keyframes cg{13.59%{fill:var(--c4)}13.61%,100%{fill:var(--ce)}}.c.cg{fill:var(--c4);animation-name:cg}@keyframes ch{14.39%{fill:var(--c4)}14.41%,100%{fill:var(--ce)}}.c.ch{fill:var(--c4);animation-name:ch}@keyframes ci{15.19%{fill:var(--c4)}15.21%,100%{fill:var(--ce)}}.c.ci{fill:var(--c4);animation-name:ci}@keyframes cj{15.99%{fill:var(--c4)}16.01%,100%{fill:var(--ce)}}.c.cj{fill:var(--c4);animation-name:cj}@keyframes ck{16.79%{fill:var(--c4)}16.81%,100%{fill:var(--ce)}}.c.ck{fill:var(--c4);animation-name:ck}@keyframes cl{17.59%{fill:var(--c4)}17.61%,100%{fill:var(--ce)}}.c.cl{fill:var(--c4);animation-name:cl}@keyframes cm{18.39%{fill:var(--c4)}18.41%,100%{fill:var(--ce)}}.c.cm{fill:var(--c4);animation-name:cm}@keyframes cn{19.19%{fill:var(--c4)}19.21%,100%{fill:var(--ce)}}.c.cn{fill:var(--c4);animation-name:cn}@keyframes co{19.99%{fill:var(--c4)}20.01%,100%{fill:var(--ce)}}.c.co{fill:var(--c4);animation-name:co}@keyframes cp{20.79%{fill:var(--c4)}20.81%,100%{fill:var(--ce)}}.c.cp{fill:var(--c4);animation-name:cp}@keyframes cq{73.59%{fill:var(--c4)}73.61%,100%{fill:var(--ce)}}.c.cq{fill:var(--c4);animation-name:cq}@keyframes cr{21.59%{fill:var(--c4)}21.61%,100%{fill:var(--ce)}}.c.cr{fill:var(--c4);animation-name:cr}@keyframes cs{22.39%{fill:var(--c4)}22.41%,100%{fill:var(--ce)}}.c.cs{fill:var(--c4);animation-name:cs}@keyframes ct{23.19%{fill:var(--c4)}23.21%,100%{fill:var(--ce)}}.c.ct{fill:var(--c4);animation-name:ct}@keyframes cu{23.99%{fill:var(--c4)}24.01%,100%{fill:var(--ce)}}.c.cu{fill:var(--c4);animation-name:cu}@keyframes cv{24.79%{fill:var(--c4)}24.81%,100%{fill:var(--ce)}}.c.cv{fill:var(--c4);animation-name:cv}@keyframes cw{25.59%{fill:var(--c4)}25.61%,100%{fill:var(--ce)}}.c.cw{fill:var(--c4);animation-name:cw}@keyframes cx{26.39%{fill:var(--c4)}26.41%,100%{fill:var(--ce)}}.c.cx{fill:var(--c4);animation-name:cx}@keyframes cy{27.19%{fill:var(--c4)}27.21%,100%{fill:var(--ce)}}.c.cy{fill:var(--c4);animation-name:cy}@keyframes cz{27.99%{fill:var(--c4)}28.01%,100%{fill:var(--ce)}}.c.cz{fill:var(--c4);animation-name:cz}@keyframes c10{28.79%{fill:var(--c4)}28.81%,100%{fill:var(--ce)}}.c.c10{fill:var(--c4);animation-name:c10}@keyframes c11{29.59%{fill:var(--c4)}29.61%,100%{fill:var(--ce)}}.c.c11{fill:var(--c4);animation-name:c11}@keyframes c12{30.39%{fill:var(--c4)}30.41%,100%{fill:var(--ce)}}.c.c12{fill:var(--c4);animation-name:c12}@keyframes c13{31.19%{fill:var(--c4)}31.21%,100%{fill:var(--ce)}}.c.c13{fill:var(--c4);animation-name:c13}@keyframes c14{31.99%{fill:var(--c4)}32.01%,100%{fill:var(--ce)}}.c.c14{fill:var(--c4);animation-name:c14}@keyframes c15{59.19%{fill:var(--c4)}59.21%,100%{fill:var(--ce)}}.c.c15{fill:var(--c4);animation-name:c15}@keyframes c16{61.59%{fill:var(--c4)}61.61%,100%{fill:var(--ce)}}.c.c16{fill:var(--c4);animation-name:c16}@keyframes c17{32.79%{fill:var(--c4)}32.81%,100%{fill:var(--ce)}}.c.c17{fill:var(--c4);animation-name:c17}@keyframes c18{33.59%{fill:var(--c4)}33.61%,100%{fill:var(--ce)}}.c.c18{fill:var(--c4);animation-name:c18}@keyframes c19{56.79%{fill:var(--c4)}56.81%,100%{fill:var(--ce)}}.c.c19{fill:var(--c4);animation-name:c19}@keyframes c1a{34.39%{fill:var(--c4)}34.41%,100%{fill:var(--ce)}}.c.c1a{fill:var(--c4);animation-name:c1a}@keyframes c1b{35.19%{fill:var(--c4)}35.21%,100%{fill:var(--ce)}}.c.c1b{fill:var(--c4);animation-name:c1b}@keyframes c1c{35.99%{fill:var(--c4)}36.01%,100%{fill:var(--ce)}}.c.c1c{fill:var(--c4);animation-name:c1c}@keyframes c1d{36.79%{fill:var(--c4)}36.81%,100%{fill:var(--ce)}}.c.c1d{fill:var(--c4);animation-name:c1d}@keyframes c1e{37.59%{fill:var(--c4)}37.61%,100%{fill:var(--ce)}}.c.c1e{fill:var(--c4);animation-name:c1e}@keyframes c1f{38.39%{fill:var(--c4)}38.41%,100%{fill:var(--ce)}}.c.c1f{fill:var(--c4);animation-name:c1f}@keyframes c1g{51.19%{fill:var(--c4)}51.21%,100%{fill:var(--ce)}}.c.c1g{fill:var(--c4);animation-name:c1g}@keyframes c1h{39.19%{fill:var(--c4)}39.21%,100%{fill:var(--ce)}}.c.c1h{fill:var(--c4);animation-name:c1h}@keyframes c1i{39.99%{fill:var(--c4)}40.01%,100%{fill:var(--ce)}}.c.c1i{fill:var(--c4);animation-name:c1i}@keyframes c1j{40.79%{fill:var(--c4)}40.81%,100%{fill:var(--ce)}}.c.c1j{fill:var(--c4);animation-name:c1j}@keyframes c1k{44.79%{fill:var(--c4)}44.81%,100%{fill:var(--ce)}}.c.c1k{fill:var(--c4);animation-name:c1k}@keyframes c1l{41.59%{fill:var(--c4)}41.61%,100%{fill:var(--ce)}}.c.c1l{fill:var(--c4);animation-name:c1l}@keyframes c1m{46.39%{fill:var(--c4)}46.41%,100%{fill:var(--ce)}}.c.c1m{fill:var(--c4);animation-name:c1m}.u{transform-origin:0 0;transform:scale(0,1);animation:none linear 12500ms infinite}@keyframes u0{0.79%{transform:scale(0.000,1)}0.81%,1.59%{transform:scale(0.017,1)}1.61%,2.39%{transform:scale(0.034,1)}2.41%,3.19%{transform:scale(0.051,1)}3.21%,3.99%{transform:scale(0.068,1)}4.01%,4.79%{transform:scale(0.085,1)}4.81%,5.59%{transform:scale(0.102,1)}5.61%,6.39%{transform:scale(0.119,1)}6.41%,7.19%{transform:scale(0.136,1)}7.21%,7.99%{transform:scale(0.153,1)}8.01%,8.79%{transform:scale(0.169,1)}8.81%,9.59%{transform:scale(0.186,1)}9.61%,10.39%{transform:scale(0.203,1)}10.41%,11.19%{transform:scale(0.220,1)}11.21%,11.99%{transform:scale(0.237,1)}12.01%,12.79%{transform:scale(0.254,1)}12.81%,13.59%{transform:scale(0.271,1)}13.61%,14.39%{transform:scale(0.288,1)}14.41%,15.19%{transform:scale(0.305,1)}15.21%,15.99%{transform:scale(0.322,1)}16.01%,16.79%{transform:scale(0.339,1)}16.81%,17.59%{transform:scale(0.356,1)}17.61%,18.39%{transform:scale(0.373,1)}18.41%,19.19%{transform:scale(0.390,1)}19.21%,19.99%{transform:scale(0.407,1)}20.01%,20.79%{transform:scale(0.424,1)}20.81%,21.59%{transform:scale(0.441,1)}21.61%,22.39%{transform:scale(0.458,1)}22.41%,23.19%{transform:scale(0.475,1)}23.21%,23.99%{transform:scale(0.492,1)}24.01%,24.79%{transform:scale(0.508,1)}24.81%,25.59%{transform:scale(0.525,1)}25.61%,26.39%{transform:scale(0.542,1)}26.41%,27.19%{transform:scale(0.559,1)}27.21%,27.99%{transform:scale(0.576,1)}28.01%,28.79%{transform:scale(0.593,1)}28.81%,29.59%{transform:scale(0.610,1)}29.61%,30.39%{transform:scale(0.627,1)}30.41%,31.19%{transform:scale(0.644,1)}31.21%,31.99%{transform:scale(0.661,1)}32.01%,32.79%{transform:scale(0.678,1)}32.81%,33.59%{transform:scale(0.695,1)}33.61%,34.39%{transform:scale(0.712,1)}34.41%,35.19%{transform:scale(0.729,1)}35.21%,35.99%{transform:scale(0.746,1)}36.01%,36.79%{transform:scale(0.763,1)}36.81%,37.59%{transform:scale(0.780,1)}37.61%,38.39%{transform:scale(0.797,1)}38.41%,39.19%{transform:scale(0.814,1)}39.21%,39.99%{transform:scale(0.831,1)}40.01%,40.79%{transform:scale(0.847,1)}40.81%,41.59%{transform:scale(0.864,1)}41.61%,44.79%{transform:scale(0.881,1)}44.81%,46.39%{transform:scale(0.898,1)}46.41%,51.19%{transform:scale(0.915,1)}51.21%,56.79%{transform:scale(0.932,1)}56.81%,59.19%{transform:scale(0.949,1)}59.21%,61.59%{transform:scale(0.966,1)}61.61%,73.59%{transform:scale(0.983,1)}73.61%,100%{transform:scale(1.000,1)}}.u.u0{fill:var(--c4);animation-name:u0;transform-origin:0.0px 0}.s{shape-rendering:geometricPrecision;fill:var(--cs);animation:none linear 12500ms infinite}@keyframes s0{0%,99.2%{transform:translate(0px,-16px)}0.8%{transform:translate(0px,0px)}41.6%{transform:translate(816px,0px)}42.4%{transform:translate(816px,16px)}43.2%{transform:translate(800px,16px)}44.8%{transform:translate(800px,48px)}45.6%{transform:translate(816px,48px)}46.4%{transform:translate(816px,64px)}47.2%{transform:translate(800px,64px)}48.8%{transform:translate(800px,32px)}56%{transform:translate(656px,32px)}56.8%{transform:translate(656px,48px)}57.6%{transform:translate(640px,48px)}58.4%{transform:translate(640px,32px)}59.2%{transform:translate(624px,32px)}61.6%{transform:translate(624px,80px)}72.8%{transform:translate(400px,80px)}73.6%{transform:translate(400px,96px)}86.4%{transform:translate(144px,96px)}88%{transform:translate(144px,64px)}88.8%{transform:translate(128px,64px)}89.6%{transform:translate(128px,48px)}90.4%{transform:translate(112px,48px)}92.8%{transform:translate(112px,0px)}94.4%{transform:translate(80px,0px)}95.2%{transform:translate(80px,-16px)}}.s.s0{transform:translate(0px,-16px);animation-name:s0}@keyframes s1{0%,99.2%{transform:translate(16px,-16px)}0.8%{transform:translate(0px,-16px)}1.6%{transform:translate(0px,0px)}42.4%{transform:translate(816px,0px)}43.2%{transform:translate(816px,16px)}44%{transform:translate(800px,16px)}45.6%{transform:translate(800px,48px)}46.4%{transform:translate(816px,48px)}47.2%{transform:translate(816px,64px)}48%{transform:translate(800px,64px)}49.6%{transform:translate(800px,32px)}56.8%{transform:translate(656px,32px)}57.6%{transform:translate(656px,48px)}58.4%{transform:translate(640px,48px)}59.2%{transform:translate(640px,32px)}60%{transform:translate(624px,32px)}62.4%{transform:translate(624px,80px)}73.6%{transform:translate(400px,80px)}74.4%{transform:translate(400px,96px)}87.2%{transform:translate(144px,96px)}88.8%{transform:translate(144px,64px)}89.6%{transform:translate(128px,64px)}90.4%{transform:translate(128px,48px)}91.2%{transform:translate(112px,48px)}93.6%{transform:translate(112px,0px)}95.2%{transform:translate(80px,0px)}96%{transform:translate(80px,-16px)}}.s.s1{transform:translate(16px,-16px);animation-name:s1}@keyframes s2{0%,99.2%{transform:translate(32px,-16px)}1.6%{transform:translate(0px,-16px)}2.4%{transform:translate(0px,0px)}43.2%{transform:translate(816px,0px)}44%{transform:translate(816px,16px)}44.8%{transform:translate(800px,16px)}46.4%{transform:translate(800px,48px)}47.2%{transform:translate(816px,48px)}48%{transform:translate(816px,64px)}48.8%{transform:translate(800px,64px)}50.4%{transform:translate(800px,32px)}57.6%{transform:translate(656px,32px)}58.4%{transform:translate(656px,48px)}59.2%{transform:translate(640px,48px)}60%{transform:translate(640px,32px)}60.8%{transform:translate(624px,32px)}63.2%{transform:translate(624px,80px)}74.4%{transform:translate(400px,80px)}75.2%{transform:translate(400px,96px)}88%{transform:translate(144px,96px)}89.6%{transform:translate(144px,64px)}90.4%{transform:translate(128px,64px)}91.2%{transform:translate(128px,48px)}92%{transform:translate(112px,48px)}94.4%{transform:translate(112px,0px)}96%{transform:translate(80px,0px)}96.8%{transform:translate(80px,-16px)}}.s.s2{transform:translate(32px,-16px);animation-name:s2}@keyframes s3{0%,99.2%{transform:translate(48px,-16px)}2.4%{transform:translate(0px,-16px)}3.2%{transform:translate(0px,0px)}44%{transform:translate(816px,0px)}44.8%{transform:translate(816px,16px)}45.6%{transform:translate(800px,16px)}47.2%{transform:translate(800px,48px)}48%{transform:translate(816px,48px)}48.8%{transform:translate(816px,64px)}49.6%{transform:translate(800px,64px)}51.2%{transform:translate(800px,32px)}58.4%{transform:translate(656px,32px)}59.2%{transform:translate(656px,48px)}60%{transform:translate(640px,48px)}60.8%{transform:translate(640px,32px)}61.6%{transform:translate(624px,32px)}64%{transform:translate(624px,80px)}75.2%{transform:translate(400px,80px)}76%{transform:translate(400px,96px)}88.8%{transform:translate(144px,96px)}90.4%{transform:translate(144px,64px)}91.2%{transform:translate(128px,64px)}92%{transform:translate(128px,48px)}92.8%{transform:translate(112px,48px)}95.2%{transform:translate(112px,0px)}96.8%{transform:translate(80px,0px)}97.6%{transform:translate(80px,-16px)}}.s.s3{transform:translate(48px,-16px);animation-name:s3}</style><rect class="c c0" x="2" y="2" rx="2" ry="2"/><rect class="c" x="2" y="18" rx="2" ry="2"/><rect class="c" x="2" y="34" rx="2" ry="2"/><rect class="c" x="2" y="50" rx="2" ry="2"/><rect class="c" x="2" y="66" rx="2" ry="2"/><rect class="c" x="2" y="82" rx="2" ry="2"/><rect class="c" x="2" y="98" rx="2" ry="2"/><rect class="c c1" x="18" y="2" rx="2" ry="2"/><rect class="c" x="18" y="18" rx="2" ry="2"/><rect class="c" x="18" y="34" rx="2" ry="2"/><rect class="c" x="18" y="50" rx="2" ry="2"/><rect class="c" x="18" y="66" rx="2" ry="2"/><rect class="c" x="18" y="82" rx="2" ry="2"/><rect class="c" x="18" y="98" rx="2" ry="2"/><rect class="c c2" x="34" y="2" rx="2" ry="2"/><rect class="c" x="34" y="18" rx="2" ry="2"/><rect class="c" x="34" y="34" rx="2" ry="2"/><rect class="c" x="34" y="50" rx="2" ry="2"/><rect class="c" x="34" y="66" rx="2" ry="2"/><rect class="c" x="34" y="82" rx="2" ry="2"/><rect class="c" x="34" y="98" rx="2" ry="2"/><rect class="c c3" x="50" y="2" rx="2" ry="2"/><rect class="c" x="50" y="18" rx="2" ry="2"/><rect class="c" x="50" y="34" rx="2" ry="2"/><rect class="c" x="50" y="50" rx="2" ry="2"/><rect class="c" x="50" y="66" rx="2" ry="2"/><rect class="c" x="50" y="82" rx="2" ry="2"/><rect class="c" x="50" y="98" rx="2" ry="2"/><rect class="c c4" x="66" y="2" rx="2" ry="2"/><rect class="c" x="66" y="18" rx="2" ry="2"/><rect class="c" x="66" y="34" rx="2" ry="2"/><rect class="c" x="66" y="50" rx="2" ry="2"/><rect class="c" x="66" y="66" rx="2" ry="2"/><rect class="c" x="66" y="82" rx="2" ry="2"/><rect class="c" x="66" y="98" rx="2" ry="2"/><rect class="c c5" x="82" y="2" rx="2" ry="2"/><rect class="c" x="82" y="18" rx="2" ry="2"/><rect class="c" x="82" y="34" rx="2" ry="2"/><rect class="c" x="82" y="50" rx="2" ry="2"/><rect class="c" x="82" y="66" rx="2" ry="2"/><rect class="c" x="82" y="82" rx="2" ry="2"/><rect class="c" x="82" y="98" rx="2" ry="2"/><rect class="c c6" x="98" y="2" rx="2" ry="2"/><rect class="c" x="98" y="18" rx="2" ry="2"/><rect class="c" x="98" y="34" rx="2" ry="2"/><rect class="c" x="98" y="50" rx="2" ry="2"/><rect class="c" x="98" y="66" rx="2" ry="2"/><rect class="c" x="98" y="82" rx="2" ry="2"/><rect class="c" x="98" y="98" rx="2" ry="2"/><rect class="c c7" x="114" y="2" rx="2" ry="2"/><rect class="c" x="114" y="18" rx="2" ry="2"/><rect class="c" x="114" y="34" rx="2" ry="2"/><rect class="c" x="114" y="50" rx="2" ry="2"/><rect class="c" x="114" y="66" rx="2" ry="2"/><rect class="c" x="114" y="82" rx="2" ry="2"/><rect class="c" x="114" y="98" rx="2" ry="2"/><rect class="c c8" x="130" y="2" rx="2" ry="2"/><rect class="c" x="130" y="18" rx="2" ry="2"/><rect class="c" x="130" y="34" rx="2" ry="2"/><rect class="c" x="130" y="50" rx="2" ry="2"/><rect class="c" x="130" y="66" rx="2" ry="2"/><rect class="c" x="130" y="82" rx="2" ry="2"/><rect class="c" x="130" y="98" rx="2" ry="2"/><rect class="c c9" x="146" y="2" rx="2" ry="2"/><rect class="c" x="146" y="18" rx="2" ry="2"/><rect class="c" x="146" y="34" rx="2" ry="2"/><rect class="c" x="146" y="50" rx="2" ry="2"/><rect class="c" x="146" y="66" rx="2" ry="2"/><rect class="c" x="146" y="82" rx="2" ry="2"/><rect class="c" x="146" y="98" rx="2" ry="2"/><rect class="c ca" x="162" y="2" rx="2" ry="2"/><rect class="c" x="162" y="18" rx="2" ry="2"/><rect class="c" x="162" y="34" rx="2" ry="2"/><rect class="c" x="162" y="50" rx="2" ry="2"/><rect class="c" x="162" y="66" rx="2" ry="2"/><rect class="c" x="162" y="82" rx="2" ry="2"/><rect class="c" x="162" y="98" rx="2" ry="2"/><rect class="c cb" x="178" y="2" rx="2" ry="2"/><rect class="c" x="178" y="18" rx="2" ry="2"/><rect class="c" x="178" y="34" rx="2" ry="2"/><rect class="c" x="178" y="50" rx="2" ry="2"/><rect class="c" x="178" y="66" rx="2" ry="2"/><rect class="c" x="178" y="82" rx="2" ry="2"/><rect class="c" x="178" y="98" rx="2" ry="2"/><rect class="c cc" x="194" y="2" rx="2" ry="2"/><rect class="c" x="194" y="18" rx="2" ry="2"/><rect class="c" x="194" y="34" rx="2" ry="2"/><rect class="c" x="194" y="50" rx="2" ry="2"/><rect class="c" x="194" y="66" rx="2" ry="2"/><rect class="c" x="194" y="82" rx="2" ry="2"/><rect class="c" x="194" y="98" rx="2" ry="2"/><rect class="c cd" x="210" y="2" rx="2" ry="2"/><rect class="c" x="210" y="18" rx="2" ry="2"/><rect class="c" x="210" y="34" rx="2" ry="2"/><rect class="c" x="210" y="50" rx="2" ry="2"/><rect class="c" x="210" y="66" rx="2" ry="2"/><rect class="c" x="210" y="82" rx="2" ry="2"/><rect class="c" x="210" y="98" rx="2" ry="2"/><rect class="c ce" x="226" y="2" rx="2" ry="2"/><rect class="c" x="226" y="18" rx="2" ry="2"/><rect class="c" x="226" y="34" rx="2" ry="2"/><rect class="c" x="226" y="50" rx="2" ry="2"/><rect class="c" x="226" y="66" rx="2" ry="2"/><rect class="c" x="226" y="82" rx="2" ry="2"/><rect class="c" x="226" y="98" rx="2" ry="2"/><rect class="c cf" x="242" y="2" rx="2" ry="2"/><rect class="c" x="242" y="18" rx="2" ry="2"/><rect class="c" x="242" y="34" rx="2" ry="2"/><rect class="c" x="242" y="50" rx="2" ry="2"/><rect class="c" x="242" y="66" rx="2" ry="2"/><rect class="c" x="242" y="82" rx="2" ry="2"/><rect class="c" x="242" y="98" rx="2" ry="2"/><rect class="c cg" x="258" y="2" rx="2" ry="2"/><rect class="c" x="258" y="18" rx="2" ry="2"/><rect class="c" x="258" y="34" rx="2" ry="2"/><rect class="c" x="258" y="50" rx="2" ry="2"/><rect class="c" x="258" y="66" rx="2" ry="2"/><rect class="c" x="258" y="82" rx="2" ry="2"/><rect class="c" x="258" y="98" rx="2" ry="2"/><rect class="c ch" x="274" y="2" rx="2" ry="2"/><rect class="c" x="274" y="18" rx="2" ry="2"/><rect class="c" x="274" y="34" rx="2" ry="2"/><rect class="c" x="274" y="50" rx="2" ry="2"/><rect class="c" x="274" y="66" rx="2" ry="2"/><rect class="c" x="274" y="82" rx="2" ry="2"/><rect class="c" x="274" y="98" rx="2" ry="2"/><rect class="c ci" x="290" y="2" rx="2" ry="2"/><rect class="c" x="290" y="18" rx="2" ry="2"/><rect class="c" x="290" y="34" rx="2" ry="2"/><rect class="c" x="290" y="50" rx="2" ry="2"/><rect class="c" x="290" y="66" rx="2" ry="2"/><rect class="c" x="290" y="82" rx="2" ry="2"/><rect class="c" x="290" y="98" rx="2" ry="2"/><rect class="c cj" x="306" y="2" rx="2" ry="2"/><rect class="c" x="306" y="18" rx="2" ry="2"/><rect class="c" x="306" y="34" rx="2" ry="2"/><rect class="c" x="306" y="50" rx="2" ry="2"/><rect class="c" x="306" y="66" rx="2" ry="2"/><rect class="c" x="306" y="82" rx="2" ry="2"/><rect class="c" x="306" y="98" rx="2" ry="2"/><rect class="c ck" x="322" y="2" rx="2" ry="2"/><rect class="c" x="322" y="18" rx="2" ry="2"/><rect class="c" x="322" y="34" rx="2" ry="2"/><rect class="c" x="322" y="50" rx="2" ry="2"/><rect class="c" x="322" y="66" rx="2" ry="2"/><rect class="c" x="322" y="82" rx="2" ry="2"/><rect class="c" x="322" y="98" rx="2" ry="2"/><rect class="c cl" x="338" y="2" rx="2" ry="2"/><rect class="c" x="338" y="18" rx="2" ry="2"/><rect class="c" x="338" y="34" rx="2" ry="2"/><rect class="c" x="338" y="50" rx="2" ry="2"/><rect class="c" x="338" y="66" rx="2" ry="2"/><rect class="c" x="338" y="82" rx="2" ry="2"/><rect class="c" x="338" y="98" rx="2" ry="2"/><rect class="c cm" x="354" y="2" rx="2" ry="2"/><rect class="c" x="354" y="18" rx="2" ry="2"/><rect class="c" x="354" y="34" rx="2" ry="2"/><rect class="c" x="354" y="50" rx="2" ry="2"/><rect class="c" x="354" y="66" rx="2" ry="2"/><rect class="c" x="354" y="82" rx="2" ry="2"/><rect class="c" x="354" y="98" rx="2" ry="2"/><rect class="c cn" x="370" y="2" rx="2" ry="2"/><rect class="c" x="370" y="18" rx="2" ry="2"/><rect class="c" x="370" y="34" rx="2" ry="2"/><rect class="c" x="370" y="50" rx="2" ry="2"/><rect class="c" x="370" y="66" rx="2" ry="2"/><rect class="c" x="370" y="82" rx="2" ry="2"/><rect class="c" x="370" y="98" rx="2" ry="2"/><rect class="c co" x="386" y="2" rx="2" ry="2"/><rect class="c" x="386" y="18" rx="2" ry="2"/><rect class="c" x="386" y="34" rx="2" ry="2"/><rect class="c" x="386" y="50" rx="2" ry="2"/><rect class="c" x="386" y="66" rx="2" ry="2"/><rect class="c" x="386" y="82" rx="2" ry="2"/><rect class="c" x="386" y="98" rx="2" ry="2"/><rect class="c cp" x="402" y="2" rx="2" ry="2"/><rect class="c" x="402" y="18" rx="2" ry="2"/><rect class="c" x="402" y="34" rx="2" ry="2"/><rect class="c" x="402" y="50" rx="2" ry="2"/><rect class="c" x="402" y="66" rx="2" ry="2"/><rect class="c" x="402" y="82" rx="2" ry="2"/><rect class="c cq" x="402" y="98" rx="2" ry="2"/><rect class="c cr" x="418" y="2" rx="2" ry="2"/><rect class="c" x="418" y="18" rx="2" ry="2"/><rect class="c" x="418" y="34" rx="2" ry="2"/><rect class="c" x="418" y="50" rx="2" ry="2"/><rect class="c" x="418" y="66" rx="2" ry="2"/><rect class="c" x="418" y="82" rx="2" ry="2"/><rect class="c" x="418" y="98" rx="2" ry="2"/><rect class="c cs" x="434" y="2" rx="2" ry="2"/><rect class="c" x="434" y="18" rx="2" ry="2"/><rect class="c" x="434" y="34" rx="2" ry="2"/><rect class="c" x="434" y="50" rx="2" ry="2"/><rect class="c" x="434" y="66" rx="2" ry="2"/><rect class="c" x="434" y="82" rx="2" ry="2"/><rect class="c" x="434" y="98" rx="2" ry="2"/><rect class="c ct" x="450" y="2" rx="2" ry="2"/><rect class="c" x="450" y="18" rx="2" ry="2"/><rect class="c" x="450" y="34" rx="2" ry="2"/><rect class="c" x="450" y="50" rx="2" ry="2"/><rect class="c" x="450" y="66" rx="2" ry="2"/><rect class="c" x="450" y="82" rx="2" ry="2"/><rect class="c" x="450" y="98" rx="2" ry="2"/><rect class="c cu" x="466" y="2" rx="2" ry="2"/><rect class="c" x="466" y="18" rx="2" ry="2"/><rect class="c" x="466" y="34" rx="2" ry="2"/><rect class="c" x="466" y="50" rx="2" ry="2"/><rect class="c" x="466" y="66" rx="2" ry="2"/><rect class="c" x="466" y="82" rx="2" ry="2"/><rect class="c" x="466" y="98" rx="2" ry="2"/><rect class="c cv" x="482" y="2" rx="2" ry="2"/><rect class="c" x="482" y="18" rx="2" ry="2"/><rect class="c" x="482" y="34" rx="2" ry="2"/><rect class="c" x="482" y="50" rx="2" ry="2"/><rect class="c" x="482" y="66" rx="2" ry="2"/><rect class="c" x="482" y="82" rx="2" ry="2"/><rect class="c" x="482" y="98" rx="2" ry="2"/><rect class="c cw" x="498" y="2" rx="2" ry="2"/><rect class="c" x="498" y="18" rx="2" ry="2"/><rect class="c" x="498" y="34" rx="2" ry="2"/><rect class="c" x="498" y="50" rx="2" ry="2"/><rect class="c" x="498" y="66" rx="2" ry="2"/><rect class="c" x="498" y="82" rx="2" ry="2"/><rect class="c" x="498" y="98" rx="2" ry="2"/><rect class="c cx" x="514" y="2" rx="2" ry="2"/><rect class="c" x="514" y="18" rx="2" ry="2"/><rect class="c" x="514" y="34" rx="2" ry="2"/><rect class="c" x="514" y="50" rx="2" ry="2"/><rect class="c" x="514" y="66" rx="2" ry="2"/><rect class="c" x="514" y="82" rx="2" ry="2"/><rect class="c" x="514" y="98" rx="2" ry="2"/><rect class="c cy" x="530" y="2" rx="2" ry="2"/><rect class="c" x="530" y="18" rx="2" ry="2"/><rect class="c" x="530" y="34" rx="2" ry="2"/><rect class="c" x="530" y="50" rx="2" ry="2"/><rect class="c" x="530" y="66" rx="2" ry="2"/><rect class="c" x="530" y="82" rx="2" ry="2"/><rect class="c" x="530" y="98" rx="2" ry="2"/><rect class="c cz" x="546" y="2" rx="2" ry="2"/><rect class="c" x="546" y="18" rx="2" ry="2"/><rect class="c" x="546" y="34" rx="2" ry="2"/><rect class="c" x="546" y="50" rx="2" ry="2"/><rect class="c" x="546" y="66" rx="2" ry="2"/><rect class="c" x="546" y="82" rx="2" ry="2"/><rect class="c" x="546" y="98" rx="2" ry="2"/><rect class="c c10" x="562" y="2" rx="2" ry="2"/><rect class="c" x="562" y="18" rx="2" ry="2"/><rect class="c" x="562" y="34" rx="2" ry="2"/><rect class="c" x="562" y="50" rx="2" ry="2"/><rect class="c" x="562" y="66" rx="2" ry="2"/><rect class="c" x="562" y="82" rx="2" ry="2"/><rect class="c" x="562" y="98" rx="2" ry="2"/><rect class="c c11" x="578" y="2" rx="2" ry="2"/><rect class="c" x="578" y="18" rx="2" ry="2"/><rect class="c" x="578" y="34" rx="2" ry="2"/><rect class="c" x="578" y="50" rx="2" ry="2"/><rect class="c" x="578" y="66" rx="2" ry="2"/><rect class="c" x="578" y="82" rx="2" ry="2"/><rect class="c" x="578" y="98" rx="2" ry="2"/><rect class="c c12" x="594" y="2" rx="2" ry="2"/><rect class="c" x="594" y="18" rx="2" ry="2"/><rect class="c" x="594" y="34" rx="2" ry="2"/><rect class="c" x="594" y="50" rx="2" ry="2"/><rect class="c" x="594" y="66" rx="2" ry="2"/><rect class="c" x="594" y="82" rx="2" ry="2"/><rect class="c" x="594" y="98" rx="2" ry="2"/><rect class="c c13" x="610" y="2" rx="2" ry="2"/><rect class="c" x="610" y="18" rx="2" ry="2"/><rect class="c" x="610" y="34" rx="2" ry="2"/><rect class="c" x="610" y="50" rx="2" ry="2"/><rect class="c" x="610" y="66" rx="2" ry="2"/><rect class="c" x="610" y="82" rx="2" ry="2"/><rect class="c" x="610" y="98" rx="2" ry="2"/><rect class="c c14" x="626" y="2" rx="2" ry="2"/><rect class="c" x="626" y="18" rx="2" ry="2"/><rect class="c c15" x="626" y="34" rx="2" ry="2"/><rect class="c" x="626" y="50" rx="2" ry="2"/><rect class="c" x="626" y="66" rx="2" ry="2"/><rect class="c c16" x="626" y="82" rx="2" ry="2"/><rect class="c" x="626" y="98" rx="2" ry="2"/><rect class="c c17" x="642" y="2" rx="2" ry="2"/><rect class="c" x="642" y="18" rx="2" ry="2"/><rect class="c" x="642" y="34" rx="2" ry="2"/><rect class="c" x="642" y="50" rx="2" ry="2"/><rect class="c" x="642" y="66" rx="2" ry="2"/><rect class="c" x="642" y="82" rx="2" ry="2"/><rect class="c" x="642" y="98" rx="2" ry="2"/><rect class="c c18" x="658" y="2" rx="2" ry="2"/><rect class="c" x="658" y="18" rx="2" ry="2"/><rect class="c" x="658" y="34" rx="2" ry="2"/><rect class="c c19" x="658" y="50" rx="2" ry="2"/><rect class="c" x="658" y="66" rx="2" ry="2"/><rect class="c" x="658" y="82" rx="2" ry="2"/><rect class="c" x="658" y="98" rx="2" ry="2"/><rect class="c c1a" x="674" y="2" rx="2" ry="2"/><rect class="c" x="674" y="18" rx="2" ry="2"/><rect class="c" x="674" y="34" rx="2" ry="2"/><rect class="c" x="674" y="50" rx="2" ry="2"/><rect class="c" x="674" y="66" rx="2" ry="2"/><rect class="c" x="674" y="82" rx="2" ry="2"/><rect class="c" x="674" y="98" rx="2" ry="2"/><rect class="c c1b" x="690" y="2" rx="2" ry="2"/><rect class="c" x="690" y="18" rx="2" ry="2"/><rect class="c" x="690" y="34" rx="2" ry="2"/><rect class="c" x="690" y="50" rx="2" ry="2"/><rect class="c" x="690" y="66" rx="2" ry="2"/><rect class="c" x="690" y="82" rx="2" ry="2"/><rect class="c" x="690" y="98" rx="2" ry="2"/><rect class="c c1c" x="706" y="2" rx="2" ry="2"/><rect class="c" x="706" y="18" rx="2" ry="2"/><rect class="c" x="706" y="34" rx="2" ry="2"/><rect class="c" x="706" y="50" rx="2" ry="2"/><rect class="c" x="706" y="66" rx="2" ry="2"/><rect class="c" x="706" y="82" rx="2" ry="2"/><rect class="c" x="706" y="98" rx="2" ry="2"/><rect class="c c1d" x="722" y="2" rx="2" ry="2"/><rect class="c" x="722" y="18" rx="2" ry="2"/><rect class="c" x="722" y="34" rx="2" ry="2"/><rect class="c" x="722" y="50" rx="2" ry="2"/><rect class="c" x="722" y="66" rx="2" ry="2"/><rect class="c" x="722" y="82" rx="2" ry="2"/><rect class="c" x="722" y="98" rx="2" ry="2"/><rect class="c c1e" x="738" y="2" rx="2" ry="2"/><rect class="c" x="738" y="18" rx="2" ry="2"/><rect class="c" x="738" y="34" rx="2" ry="2"/><rect class="c" x="738" y="50" rx="2" ry="2"/><rect class="c" x="738" y="66" rx="2" ry="2"/><rect class="c" x="738" y="82" rx="2" ry="2"/><rect class="c" x="738" y="98" rx="2" ry="2"/><rect class="c c1f" x="754" y="2" rx="2" ry="2"/><rect class="c" x="754" y="18" rx="2" ry="2"/><rect class="c c1g" x="754" y="34" rx="2" ry="2"/><rect class="c" x="754" y="50" rx="2" ry="2"/><rect class="c" x="754" y="66" rx="2" ry="2"/><rect class="c" x="754" y="82" rx="2" ry="2"/><rect class="c" x="754" y="98" rx="2" ry="2"/><rect class="c c1h" x="770" y="2" rx="2" ry="2"/><rect class="c" x="770" y="18" rx="2" ry="2"/><rect class="c" x="770" y="34" rx="2" ry="2"/><rect class="c" x="770" y="50" rx="2" ry="2"/><rect class="c" x="770" y="66" rx="2" ry="2"/><rect class="c" x="770" y="82" rx="2" ry="2"/><rect class="c" x="770" y="98" rx="2" ry="2"/><rect class="c c1i" x="786" y="2" rx="2" ry="2"/><rect class="c" x="786" y="18" rx="2" ry="2"/><rect class="c" x="786" y="34" rx="2" ry="2"/><rect class="c" x="786" y="50" rx="2" ry="2"/><rect class="c" x="786" y="66" rx="2" ry="2"/><rect class="c" x="786" y="82" rx="2" ry="2"/><rect class="c" x="786" y="98" rx="2" ry="2"/><rect class="c c1j" x="802" y="2" rx="2" ry="2"/><rect class="c" x="802" y="18" rx="2" ry="2"/><rect class="c" x="802" y="34" rx="2" ry="2"/><rect class="c c1k" x="802" y="50" rx="2" ry="2"/><rect class="c" x="802" y="66" rx="2" ry="2"/><rect class="c" x="802" y="82" rx="2" ry="2"/><rect class="c" x="802" y="98" rx="2" ry="2"/><rect class="c c1l" x="818" y="2" rx="2" ry="2"/><rect class="c" x="818" y="18" rx="2" ry="2"/><rect class="c" x="818" y="34" rx="2" ry="2"/><rect class="c" x="818" y="50" rx="2" ry="2"/><rect class="c c1m" x="818" y="66" rx="2" ry="2"/><rect class="c" x="818" y="82" rx="2" ry="2"/><rect class="c" x="818" y="98" rx="2" ry="2"/><rect class="c" x="834" y="2" rx="2" ry="2"/><rect class="u u0" height="12" width="848.6" x="0.0" y="144"/><rect class="s s0" x="0.8" y="0.8" width="14.4" height="14.4" rx="4.5" ry="4.5"/><rect class="s s1" x="1.8" y="1.8" width="12.3" height="12.3" rx="4.1" ry="4.1"/><rect class="s s2" x="2.6" y="2.6" width="10.8" height="10.8" rx="3.6" ry="3.6"/><rect class="s s3" x="3.0" y="3.0" width="9.9" height="9.9" rx="3.3" ry="3.3"/></svg>