<svg viewBox="-16 -32 880 192" width="880" height="192" xmlns="http://www.w3.org/2000/svg"><desc>Generated with https://github.com/Platane/snk</desc><style>@keyframes c0{1.97%{fill:var(--c1)}1.99%,to{fill:var(--ce)}}@keyframes c1{73.59%{fill:var(--c2)}73.61%,to{fill:var(--ce)}}@keyframes c2{3.95%{fill:var(--c1)}3.97%,to{fill:var(--ce)}}@keyframes c3{53.13%{fill:var(--c1)}53.15%,to{fill:var(--ce)}}@keyframes c4{7.91%{fill:var(--c1)}7.93%,to{fill:var(--ce)}}@keyframes c5{8.24%{fill:var(--c1)}8.26%,to{fill:var(--ce)}}@keyframes c6{11.54%{fill:var(--c1)}11.56%,to{fill:var(--ce)}}@keyframes c7{10.88%{fill:var(--c1)}10.9%,to{fill:var(--ce)}}@keyframes c8{10.55%{fill:var(--c1)}10.57%,to{fill:var(--ce)}}@keyframes c9{10.22%{fill:var(--c1)}10.24%,to{fill:var(--ce)}}@keyframes ca{9.89%{fill:var(--c1)}9.91%,to{fill:var(--ce)}}@keyframes cb{9.56%{fill:var(--c1)}9.58%,to{fill:var(--ce)}}@keyframes cc{50.16%{fill:var(--c1)}50.18%,to{fill:var(--ce)}}@keyframes cd{50.49%{fill:var(--c1)}50.51%,to{fill:var(--ce)}}@keyframes ce{13.85%{fill:var(--c1)}13.87%,to{fill:var(--ce)}}@keyframes cf{49.82%{fill:var(--c1)}49.84%,to{fill:var(--ce)}}@keyframes cg{49.49%{fill:var(--c1)}49.51%,to{fill:var(--ce)}}@keyframes ch{15.83%{fill:var(--c1)}15.85%,to{fill:var(--ce)}}@keyframes ci{16.16%{fill:var(--c1)}16.18%,to{fill:var(--ce)}}@keyframes cj{48.83%{fill:var(--c1)}48.85%,to{fill:var(--ce)}}@keyframes ck{14.84%{fill:var(--c1)}14.86%,to{fill:var(--ce)}}@keyframes cl{15.17%{fill:var(--c1)}15.19%,to{fill:var(--ce)}}@keyframes cm{17.15%{fill:var(--c1)}17.17%,to{fill:var(--ce)}}@keyframes cn{57.09%{fill:var(--c2)}57.11%,to{fill:var(--ce)}}@keyframes co{17.81%{fill:var(--c1)}17.83%,to{fill:var(--ce)}}@keyframes cp{18.8%{fill:var(--c1)}18.82%,to{fill:var(--ce)}}@keyframes cq{22.43%{fill:var(--c1)}22.45%,to{fill:var(--ce)}}@keyframes cr{21.11%{fill:var(--c1)}21.13%,to{fill:var(--ce)}}@keyframes cs{19.79%{fill:var(--c1)}19.81%,to{fill:var(--ce)}}@keyframes ct{20.78%{fill:var(--c1)}20.8%,to{fill:var(--ce)}}@keyframes cu{20.12%{fill:var(--c1)}20.14%,to{fill:var(--ce)}}@keyframes cv{24.08%{fill:var(--c1)}24.1%,to{fill:var(--ce)}}@keyframes cw{41.9%{fill:var(--c1)}41.92%,to{fill:var(--ce)}}@keyframes cx{44.54%{fill:var(--c1)}44.56%,to{fill:var(--ce)}}@keyframes cy{24.74%{fill:var(--c1)}24.76%,to{fill:var(--ce)}}@keyframes cz{41.57%{fill:var(--c1)}41.59%,to{fill:var(--ce)}}@keyframes c10{40.58%{fill:var(--c1)}40.6%,to{fill:var(--ce)}}@keyframes c11{25.07%{fill:var(--c1)}25.09%,to{fill:var(--ce)}}@keyframes c12{62.37%{fill:var(--c2)}62.39%,to{fill:var(--ce)}}@keyframes c13{42.89%{fill:var(--c1)}42.91%,to{fill:var(--ce)}}@keyframes c14{40.25%{fill:var(--c1)}40.27%,to{fill:var(--ce)}}@keyframes c15{25.4%{fill:var(--c1)}25.42%,to{fill:var(--ce)}}@keyframes c16{39.59%{fill:var(--c1)}39.61%,to{fill:var(--ce)}}@keyframes c17{38.6%{fill:var(--c1)}38.62%,to{fill:var(--ce)}}@keyframes c18{38.27%{fill:var(--c1)}38.29%,to{fill:var(--ce)}}@keyframes c19{25.73%{fill:var(--c1)}25.75%,to{fill:var(--ce)}}@keyframes c1a{85.8%{fill:var(--c4)}85.82%,to{fill:var(--ce)}}@keyframes c1b{26.06%{fill:var(--c1)}26.08%,to{fill:var(--ce)}}@keyframes c1c{36.29%{fill:var(--c1)}36.31%,to{fill:var(--ce)}}@keyframes c1d{36.62%{fill:var(--c1)}36.64%,to{fill:var(--ce)}}@keyframes c1e{36.95%{fill:var(--c1)}36.97%,to{fill:var(--ce)}}@keyframes c1f{37.28%{fill:var(--c1)}37.3%,to{fill:var(--ce)}}@keyframes c1g{37.61%{fill:var(--c1)}37.63%,to{fill:var(--ce)}}@keyframes c1h{26.72%{fill:var(--c1)}26.74%,to{fill:var(--ce)}}@keyframes c1i{26.39%{fill:var(--c1)}26.41%,to{fill:var(--ce)}}@keyframes c1j{35.96%{fill:var(--c1)}35.98%,to{fill:var(--ce)}}@keyframes c1k{35.63%{fill:var(--c1)}35.65%,to{fill:var(--ce)}}@keyframes c1l{35.3%{fill:var(--c1)}35.32%,to{fill:var(--ce)}}@keyframes c1m{34.97%{fill:var(--c1)}34.99%,to{fill:var(--ce)}}@keyframes c1n{34.64%{fill:var(--c1)}34.66%,to{fill:var(--ce)}}@keyframes c1o{27.05%{fill:var(--c1)}27.07%,to{fill:var(--ce)}}@keyframes c1p{27.38%{fill:var(--c1)}27.4%,to{fill:var(--ce)}}@keyframes c1q{27.71%{fill:var(--c1)}27.73%,to{fill:var(--ce)}}@keyframes c1r{33.65%{fill:var(--c1)}33.67%,to{fill:var(--ce)}}@keyframes c1s{28.04%{fill:var(--c1)}28.06%,to{fill:var(--ce)}}@keyframes c1t{28.37%{fill:var(--c1)}28.39%,to{fill:var(--ce)}}@keyframes c1u{32.99%{fill:var(--c1)}33.01%,to{fill:var(--ce)}}@keyframes c1v{28.7%{fill:var(--c1)}28.72%,to{fill:var(--ce)}}@keyframes c1w{29.03%{fill:var(--c1)}29.05%,to{fill:var(--ce)}}@keyframes c1x{29.36%{fill:var(--c1)}29.38%,to{fill:var(--ce)}}@keyframes c1y{29.69%{fill:var(--c1)}29.71%,to{fill:var(--ce)}}@keyframes u0{1.97%{transform:scale(0,1)}1.99%,3.95%{transform:scale(.01,1)}3.97%,7.91%{transform:scale(.03,1)}7.93%,8.24%{transform:scale(.04,1)}8.26%,9.56%{transform:scale(.06,1)}9.58%,9.89%{transform:scale(.07,1)}10.22%,9.91%{transform:scale(.09,1)}10.24%,10.55%{transform:scale(.1,1)}10.57%,10.88%{transform:scale(.12,1)}10.9%,11.54%{transform:scale(.13,1)}11.56%,13.85%{transform:scale(.15,1)}13.87%,14.84%{transform:scale(.16,1)}14.86%,15.17%{transform:scale(.18,1)}15.19%,15.83%{transform:scale(.19,1)}15.85%,16.16%{transform:scale(.21,1)}16.18%,17.15%{transform:scale(.22,1)}17.17%,17.81%{transform:scale(.24,1)}17.83%,18.8%{transform:scale(.25,1)}18.82%,19.79%{transform:scale(.27,1)}19.81%,20.12%{transform:scale(.28,1)}20.14%,20.78%{transform:scale(.3,1)}20.8%,21.11%{transform:scale(.31,1)}21.13%,22.43%{transform:scale(.33,1)}22.45%,24.08%{transform:scale(.34,1)}24.1%,24.74%{transform:scale(.36,1)}24.76%,25.07%{transform:scale(.37,1)}25.09%,25.4%{transform:scale(.39,1)}25.42%,25.73%{transform:scale(.4,1)}25.75%,26.06%{transform:scale(.42,1)}26.08%,26.39%{transform:scale(.43,1)}26.41%,26.72%{transform:scale(.45,1)}26.74%,27.05%{transform:scale(.46,1)}27.07%,27.38%{transform:scale(.48,1)}27.4%,27.71%{transform:scale(.49,1)}27.73%,28.04%{transform:scale(.51,1)}28.06%,28.37%{transform:scale(.52,1)}28.39%,28.7%{transform:scale(.54,1)}28.72%,29.03%{transform:scale(.55,1)}29.05%,29.36%{transform:scale(.57,1)}29.38%,29.69%{transform:scale(.58,1)}29.71%,32.99%{transform:scale(.6,1)}33.01%,33.65%{transform:scale(.61,1)}33.67%,34.64%{transform:scale(.63,1)}34.66%,34.97%{transform:scale(.64,1)}34.99%,35.3%{transform:scale(.66,1)}35.32%,35.63%{transform:scale(.67,1)}35.65%,35.96%{transform:scale(.69,1)}35.98%,36.29%{transform:scale(.7,1)}36.31%,36.62%{transform:scale(.72,1)}36.64%,36.95%{transform:scale(.73,1)}36.97%,37.28%{transform:scale(.75,1)}37.3%,37.61%{transform:scale(.76,1)}37.63%,38.27%{transform:scale(.78,1)}38.29%,38.6%{transform:scale(.79,1)}38.62%,39.59%{transform:scale(.81,1)}39.61%,40.25%{transform:scale(.82,1)}40.27%,40.58%{transform:scale(.84,1)}40.6%,41.57%{transform:scale(.85,1)}41.59%,41.9%{transform:scale(.87,1)}41.92%,42.89%{transform:scale(.88,1)}42.91%,44.54%{transform:scale(.9,1)}44.56%,48.83%{transform:scale(.91,1)}48.85%,49.49%{transform:scale(.93,1)}49.51%,49.82%{transform:scale(.94,1)}49.84%,50.16%{transform:scale(.96,1)}50.18%,50.49%{transform:scale(.97,1)}50.51%,53.13%{transform:scale(.99,1)}53.15%,to{transform:scale(1,1)}}@keyframes u1{57.09%{transform:scale(0,1)}57.11%,62.37%{transform:scale(.33,1)}62.39%,73.59%{transform:scale(.67,1)}73.61%,to{transform:scale(1,1)}}@keyframes u2{85.8%{transform:scale(0,1)}85.82%,to{transform:scale(1,1)}}@keyframes s0{0%,99.67%{transform:translate(0,-16px)}.33%{transform:translate(0,0)}.99%{transform:translate(32px,0)}1.98%{transform:translate(32px,48px)}3.3%{transform:translate(96px,48px)}3.96%{transform:translate(96px,16px)}7.59%{transform:translate(272px,16px)}8.25%{transform:translate(272px,48px)}9.57%{transform:translate(336px,48px)}10.56%{transform:translate(336px,0)}11.55%{transform:translate(288px,0)}11.88%{transform:translate(288px,-16px)}13.53%{transform:translate(368px,-16px)}13.86%{transform:translate(368px,0)}14.85%{transform:translate(416px,0)}15.18%{transform:translate(416px,16px)}15.51%{transform:translate(400px,16px)}16.17%{transform:translate(400px,48px)}16.5%{transform:translate(416px,48px)}17.16%{transform:translate(416px,80px)}17.49%{transform:translate(432px,80px)}17.82%{transform:translate(432px,96px)}19.47%{transform:translate(512px,96px)}19.8%{transform:translate(512px,80px)}20.13%{transform:translate(528px,80px)}20.79%{transform:translate(528px,48px)}21.12%{transform:translate(512px,48px)}22.11%{transform:translate(512px,0)}22.44%{transform:translate(496px,0)}22.77%{transform:translate(496px,16px)}26.4%{transform:translate(672px,16px)}26.73%{transform:translate(672px,0)}29.7%{transform:translate(816px,0)}30.03%{transform:translate(816px,16px)}31.35%{transform:translate(752px,16px)}33%{transform:translate(752px,96px)}34.65%{transform:translate(672px,96px)}35.97%{transform:translate(672px,32px)}36.3%{transform:translate(656px,32px)}37.62%{transform:translate(656px,96px)}38.28%{transform:translate(624px,96px)}40.26%{transform:translate(624px,0)}40.92%{transform:translate(592px,0)}41.58%{transform:translate(592px,32px)}41.91%{transform:translate(576px,32px)}42.24%{transform:translate(576px,48px)}42.9%{transform:translate(608px,48px)}43.23%{transform:translate(608px,64px)}43.89%{transform:translate(576px,64px)}44.55%{transform:translate(576px,96px)}44.88%{transform:translate(560px,96px)}45.21%{transform:translate(560px,80px)}48.51%{transform:translate(400px,80px)}48.84%{transform:translate(400px,96px)}49.5%{transform:translate(368px,96px)}49.83%{transform:translate(368px,80px)}50.17%{transform:translate(352px,80px)}50.5%{transform:translate(352px,96px)}50.83%{transform:translate(336px,96px)}51.16%{transform:translate(336px,80px)}53.14%{transform:translate(240px,80px)}53.47%{transform:translate(240px,96px)}61.06%{transform:translate(608px,96px)}63.04%{transform:translate(608px,0)}73.6%{transform:translate(96px,0)}73.93%{transform:translate(96px,-16px)}85.48%{transform:translate(656px,-16px)}85.81%{transform:translate(656px,0)}97.69%{transform:translate(80px,0)}98.02%{transform:translate(80px,-16px)}}@keyframes s1{0%,99.67%{transform:translate(16px,-16px)}.33%{transform:translate(0,-16px)}.66%{transform:translate(0,0)}1.32%{transform:translate(32px,0)}2.31%{transform:translate(32px,48px)}3.63%{transform:translate(96px,48px)}4.29%{transform:translate(96px,16px)}7.92%{transform:translate(272px,16px)}8.58%{transform:translate(272px,48px)}9.9%{transform:translate(336px,48px)}10.89%{transform:translate(336px,0)}11.88%{transform:translate(288px,0)}12.21%{transform:translate(288px,-16px)}13.86%{transform:translate(368px,-16px)}14.19%{transform:translate(368px,0)}15.18%{transform:translate(416px,0)}15.51%{transform:translate(416px,16px)}15.84%{transform:translate(400px,16px)}16.5%{transform:translate(400px,48px)}16.83%{transform:translate(416px,48px)}17.49%{transform:translate(416px,80px)}17.82%{transform:translate(432px,80px)}18.15%{transform:translate(432px,96px)}19.8%{transform:translate(512px,96px)}20.13%{transform:translate(512px,80px)}20.46%{transform:translate(528px,80px)}21.12%{transform:translate(528px,48px)}21.45%{transform:translate(512px,48px)}22.44%{transform:translate(512px,0)}22.77%{transform:translate(496px,0)}23.1%{transform:translate(496px,16px)}26.73%{transform:translate(672px,16px)}27.06%{transform:translate(672px,0)}30.03%{transform:translate(816px,0)}30.36%{transform:translate(816px,16px)}31.68%{transform:translate(752px,16px)}33.33%{transform:translate(752px,96px)}34.98%{transform:translate(672px,96px)}36.3%{transform:translate(672px,32px)}36.63%{transform:translate(656px,32px)}37.95%{transform:translate(656px,96px)}38.61%{transform:translate(624px,96px)}40.59%{transform:translate(624px,0)}41.25%{transform:translate(592px,0)}41.91%{transform:translate(592px,32px)}42.24%{transform:translate(576px,32px)}42.57%{transform:translate(576px,48px)}43.23%{transform:translate(608px,48px)}43.56%{transform:translate(608px,64px)}44.22%{transform:translate(576px,64px)}44.88%{transform:translate(576px,96px)}45.21%{transform:translate(560px,96px)}45.54%{transform:translate(560px,80px)}48.84%{transform:translate(400px,80px)}49.17%{transform:translate(400px,96px)}49.83%{transform:translate(368px,96px)}50.17%{transform:translate(368px,80px)}50.5%{transform:translate(352px,80px)}50.83%{transform:translate(352px,96px)}51.16%{transform:translate(336px,96px)}51.49%{transform:translate(336px,80px)}53.47%{transform:translate(240px,80px)}53.8%{transform:translate(240px,96px)}61.39%{transform:translate(608px,96px)}63.37%{transform:translate(608px,0)}73.93%{transform:translate(96px,0)}74.26%{transform:translate(96px,-16px)}85.81%{transform:translate(656px,-16px)}86.14%{transform:translate(656px,0)}98.02%{transform:translate(80px,0)}98.35%{transform:translate(80px,-16px)}}@keyframes s2{0%,99.67%{transform:translate(32px,-16px)}.66%{transform:translate(0,-16px)}.99%{transform:translate(0,0)}1.65%{transform:translate(32px,0)}2.64%{transform:translate(32px,48px)}3.96%{transform:translate(96px,48px)}4.62%{transform:translate(96px,16px)}8.25%{transform:translate(272px,16px)}8.91%{transform:translate(272px,48px)}10.23%{transform:translate(336px,48px)}11.22%{transform:translate(336px,0)}12.21%{transform:translate(288px,0)}12.54%{transform:translate(288px,-16px)}14.19%{transform:translate(368px,-16px)}14.52%{transform:translate(368px,0)}15.51%{transform:translate(416px,0)}15.84%{transform:translate(416px,16px)}16.17%{transform:translate(400px,16px)}16.83%{transform:translate(400px,48px)}17.16%{transform:translate(416px,48px)}17.82%{transform:translate(416px,80px)}18.15%{transform:translate(432px,80px)}18.48%{transform:translate(432px,96px)}20.13%{transform:translate(512px,96px)}20.46%{transform:translate(512px,80px)}20.79%{transform:translate(528px,80px)}21.45%{transform:translate(528px,48px)}21.78%{transform:translate(512px,48px)}22.77%{transform:translate(512px,0)}23.1%{transform:translate(496px,0)}23.43%{transform:translate(496px,16px)}27.06%{transform:translate(672px,16px)}27.39%{transform:translate(672px,0)}30.36%{transform:translate(816px,0)}30.69%{transform:translate(816px,16px)}32.01%{transform:translate(752px,16px)}33.66%{transform:translate(752px,96px)}35.31%{transform:translate(672px,96px)}36.63%{transform:translate(672px,32px)}36.96%{transform:translate(656px,32px)}38.28%{transform:translate(656px,96px)}38.94%{transform:translate(624px,96px)}40.92%{transform:translate(624px,0)}41.58%{transform:translate(592px,0)}42.24%{transform:translate(592px,32px)}42.57%{transform:translate(576px,32px)}42.9%{transform:translate(576px,48px)}43.56%{transform:translate(608px,48px)}43.89%{transform:translate(608px,64px)}44.55%{transform:translate(576px,64px)}45.21%{transform:translate(576px,96px)}45.54%{transform:translate(560px,96px)}45.87%{transform:translate(560px,80px)}49.17%{transform:translate(400px,80px)}49.5%{transform:translate(400px,96px)}50.17%{transform:translate(368px,96px)}50.5%{transform:translate(368px,80px)}50.83%{transform:translate(352px,80px)}51.16%{transform:translate(352px,96px)}51.49%{transform:translate(336px,96px)}51.82%{transform:translate(336px,80px)}53.8%{transform:translate(240px,80px)}54.13%{transform:translate(240px,96px)}61.72%{transform:translate(608px,96px)}63.7%{transform:translate(608px,0)}74.26%{transform:translate(96px,0)}74.59%{transform:translate(96px,-16px)}86.14%{transform:translate(656px,-16px)}86.47%{transform:translate(656px,0)}98.35%{transform:translate(80px,0)}98.68%{transform:translate(80px,-16px)}}@keyframes s3{0%,99.67%{transform:translate(48px,-16px)}.99%{transform:translate(0,-16px)}1.32%{transform:translate(0,0)}1.98%{transform:translate(32px,0)}2.97%{transform:translate(32px,48px)}4.29%{transform:translate(96px,48px)}4.95%{transform:translate(96px,16px)}8.58%{transform:translate(272px,16px)}9.24%{transform:translate(272px,48px)}10.56%{transform:translate(336px,48px)}11.55%{transform:translate(336px,0)}12.54%{transform:translate(288px,0)}12.87%{transform:translate(288px,-16px)}14.52%{transform:translate(368px,-16px)}14.85%{transform:translate(368px,0)}15.84%{transform:translate(416px,0)}16.17%{transform:translate(416px,16px)}16.5%{transform:translate(400px,16px)}17.16%{transform:translate(400px,48px)}17.49%{transform:translate(416px,48px)}18.15%{transform:translate(416px,80px)}18.48%{transform:translate(432px,80px)}18.81%{transform:translate(432px,96px)}20.46%{transform:translate(512px,96px)}20.79%{transform:translate(512px,80px)}21.12%{transform:translate(528px,80px)}21.78%{transform:translate(528px,48px)}22.11%{transform:translate(512px,48px)}23.1%{transform:translate(512px,0)}23.43%{transform:translate(496px,0)}23.76%{transform:translate(496px,16px)}27.39%{transform:translate(672px,16px)}27.72%{transform:translate(672px,0)}30.69%{transform:translate(816px,0)}31.02%{transform:translate(816px,16px)}32.34%{transform:translate(752px,16px)}33.99%{transform:translate(752px,96px)}35.64%{transform:translate(672px,96px)}36.96%{transform:translate(672px,32px)}37.29%{transform:translate(656px,32px)}38.61%{transform:translate(656px,96px)}39.27%{transform:translate(624px,96px)}41.25%{transform:translate(624px,0)}41.91%{transform:translate(592px,0)}42.57%{transform:translate(592px,32px)}42.9%{transform:translate(576px,32px)}43.23%{transform:translate(576px,48px)}43.89%{transform:translate(608px,48px)}44.22%{transform:translate(608px,64px)}44.88%{transform:translate(576px,64px)}45.54%{transform:translate(576px,96px)}45.87%{transform:translate(560px,96px)}46.2%{transform:translate(560px,80px)}49.5%{transform:translate(400px,80px)}49.83%{transform:translate(400px,96px)}50.5%{transform:translate(368px,96px)}50.83%{transform:translate(368px,80px)}51.16%{transform:translate(352px,80px)}51.49%{transform:translate(352px,96px)}51.82%{transform:translate(336px,96px)}52.15%{transform:translate(336px,80px)}54.13%{transform:translate(240px,80px)}54.46%{transform:translate(240px,96px)}62.05%{transform:translate(608px,96px)}64.03%{transform:translate(608px,0)}74.59%{transform:translate(96px,0)}74.92%{transform:translate(96px,-16px)}86.47%{transform:translate(656px,-16px)}86.8%{transform:translate(656px,0)}98.68%{transform:translate(80px,0)}99.01%{transform:translate(80px,-16px)}}:root{--cb:#1b1f230a;--cs:orange;--ce:#bfd6f6;--c0:#bfd6f6;--c1:#8dbdff;--c2:#64a1f4;--c3:#4b91f1;--c4:#3c7dd9}.c{shape-rendering:geometricPrecision;fill:var(--ce);stroke-width:1px;stroke:var(--cb);animation:none 30300ms linear infinite}.c.c0{fill:var(--c1);animation-name:c0}.c.c1{fill:var(--c2);animation-name:c1}.c.c2,.c.c3,.c.c4{fill:var(--c1);animation-name:c2}.c.c3,.c.c4{animation-name:c3}.c.c4{animation-name:c4}.c.c5,.c.c6,.c.c7{fill:var(--c1);animation-name:c5}.c.c6,.c.c7{animation-name:c6}.c.c7{animation-name:c7}.c.c8,.c.c9,.c.ca{fill:var(--c1);animation-name:c8}.c.c9,.c.ca{animation-name:c9}.c.ca{animation-name:ca}.c.cb,.c.cc,.c.cd{fill:var(--c1);animation-name:cb}.c.cc,.c.cd{animation-name:cc}.c.cd{animation-name:cd}.c.ce,.c.cf,.c.cg{fill:var(--c1);animation-name:ce}.c.cf,.c.cg{animation-name:cf}.c.cg{animation-name:cg}.c.ch,.c.ci,.c.cj{fill:var(--c1);animation-name:ch}.c.ci,.c.cj{animation-name:ci}.c.cj{animation-name:cj}.c.ck,.c.cl,.c.cm{fill:var(--c1);animation-name:ck}.c.cl,.c.cm{animation-name:cl}.c.cm{animation-name:cm}.c.cn{fill:var(--c2);animation-name:cn}.c.co,.c.cp{fill:var(--c1);animation-name:co}.c.cp{animation-name:cp}.c.cq,.c.cr,.c.cs{fill:var(--c1);animation-name:cq}.c.cr,.c.cs{animation-name:cr}.c.cs{animation-name:cs}.c.ct,.c.cu,.c.cv{fill:var(--c1);animation-name:ct}.c.cu,.c.cv{animation-name:cu}.c.cv{animation-name:cv}.c.cw,.c.cx,.c.cy{fill:var(--c1);animation-name:cw}.c.cx,.c.cy{animation-name:cx}.c.cy{animation-name:cy}.c.c10,.c.c11,.c.cz{fill:var(--c1);animation-name:cz}.c.c10,.c.c11{animation-name:c10}.c.c11{animation-name:c11}.c.c12{fill:var(--c2);animation-name:c12}.c.c13{fill:var(--c1);animation-name:c13}.c.c14,.c.c15,.c.c16{fill:var(--c1);animation-name:c14}.c.c15,.c.c16{animation-name:c15}.c.c16{animation-name:c16}.c.c17,.c.c18,.c.c19{fill:var(--c1);animation-name:c17}.c.c18,.c.c19{animation-name:c18}.c.c19{animation-name:c19}.c.c1a{fill:var(--c4);animation-name:c1a}.c.c1b,.c.c1c,.c.c1d{fill:var(--c1);animation-name:c1b}.c.c1c,.c.c1d{animation-name:c1c}.c.c1d{animation-name:c1d}.c.c1e,.c.c1f,.c.c1g{fill:var(--c1);animation-name:c1e}.c.c1f,.c.c1g{animation-name:c1f}.c.c1g{animation-name:c1g}.c.c1h,.c.c1i,.c.c1j{fill:var(--c1);animation-name:c1h}.c.c1i,.c.c1j{animation-name:c1i}.c.c1j{animation-name:c1j}.c.c1k,.c.c1l,.c.c1m{fill:var(--c1);animation-name:c1k}.c.c1l,.c.c1m{animation-name:c1l}.c.c1m{animation-name:c1m}.c.c1n,.c.c1o,.c.c1p{fill:var(--c1);animation-name:c1n}.c.c1o,.c.c1p{animation-name:c1o}.c.c1p{animation-name:c1p}.c.c1q,.c.c1r,.c.c1s{fill:var(--c1);animation-name:c1q}.c.c1r,.c.c1s{animation-name:c1r}.c.c1s{animation-name:c1s}.c.c1t,.c.c1u,.c.c1v{fill:var(--c1);animation-name:c1t}.c.c1u,.c.c1v{animation-name:c1u}.c.c1v{animation-name:c1v}.c.c1w,.c.c1x,.c.c1y{fill:var(--c1);animation-name:c1w}.c.c1x,.c.c1y{animation-name:c1x}.c.c1y{animation-name:c1y}.s,.u{animation:none linear 30300ms infinite}.u,.u.u0{transform-origin:0 0}.u{transform:scale(0,1)}.u.u0{fill:var(--c1);animation-name:u0}.u.u1{fill:var(--c2);animation-name:u1;transform-origin:800.2px 0}.u.u2{fill:var(--c4);animation-name:u2;transform-origin:836.1px 0}.s{shape-rendering:geometricPrecision;fill:var(--cs)}.s.s0{transform:translate(0,-16px);animation-name:s0}.s.s1{transform:translate(16px,-16px);animation-name:s1}.s.s2{transform:translate(32px,-16px);animation-name:s2}.s.s3{transform:translate(48px,-16px);animation-name:s3}</style><rect class="c" x="2" y="2" rx="2" ry="2" width="12" height="12"/><rect class="c" x="2" y="18" rx="2" ry="2" width="12" height="12"/><rect class="c" x="2" y="34" rx="2" ry="2" width="12" height="12"/><rect class="c" x="2" y="50" rx="2" ry="2" width="12" height="12"/><rect class="c" x="2" y="66" rx="2" ry="2" width="12" height="12"/><rect class="c" x="2" y="82" rx="2" ry="2" width="12" height="12"/><rect class="c" x="2" y="98" rx="2" ry="2" width="12" height="12"/><rect class="c" x="18" y="2" rx="2" ry="2" width="12" height="12"/><rect class="c" x="18" y="18" rx="2" ry="2" width="12" height="12"/><rect class="c" x="18" y="34" rx="2" ry="2" width="12" height="12"/><rect class="c" x="18" y="50" rx="2" ry="2" width="12" height="12"/><rect class="c" x="18" y="66" rx="2" ry="2" width="12" height="12"/><rect class="c" x="18" y="82" rx="2" ry="2" width="12" height="12"/><rect class="c" x="18" y="98" rx="2" ry="2" width="12" height="12"/><rect class="c" x="34" y="2" rx="2" ry="2" width="12" height="12"/><rect class="c" x="34" y="18" rx="2" ry="2" width="12" height="12"/><rect class="c" x="34" y="34" rx="2" ry="2" width="12" height="12"/><rect class="c c0" x="34" y="50" rx="2" ry="2" width="12" height="12"/><rect class="c" x="34" y="66" rx="2" ry="2" width="12" height="12"/><rect class="c" x="34" y="82" rx="2" ry="2" width="12" height="12"/><rect class="c" x="34" y="98" rx="2" ry="2" width="12" height="12"/><rect class="c" x="50" y="2" rx="2" ry="2" width="12" height="12"/><rect class="c" x="50" y="18" rx="2" ry="2" width="12" height="12"/><rect class="c" x="50" y="34" rx="2" ry="2" width="12" height="12"/><rect class="c" x="50" y="50" rx="2" ry="2" width="12" height="12"/><rect class="c" x="50" y="66" rx="2" ry="2" width="12" height="12"/><rect class="c" x="50" y="82" rx="2" ry="2" width="12" height="12"/><rect class="c" x="50" y="98" rx="2" ry="2" width="12" height="12"/><rect class="c" x="66" y="2" rx="2" ry="2" width="12" height="12"/><rect class="c" x="66" y="18" rx="2" ry="2" width="12" height="12"/><rect class="c" x="66" y="34" rx="2" ry="2" width="12" height="12"/><rect class="c" x="66" y="50" rx="2" ry="2" width="12" height="12"/><rect class="c" x="66" y="66" rx="2" ry="2" width="12" height="12"/><rect class="c" x="66" y="82" rx="2" ry="2" width="12" height="12"/><rect class="c" x="66" y="98" rx="2" ry="2" width="12" height="12"/><rect class="c" x="82" y="2" rx="2" ry="2" width="12" height="12"/><rect class="c" x="82" y="18" rx="2" ry="2" width="12" height="12"/><rect class="c" x="82" y="34" rx="2" ry="2" width="12" height="12"/><rect class="c" x="82" y="50" rx="2" ry="2" width="12" height="12"/><rect class="c" x="82" y="66" rx="2" ry="2" width="12" height="12"/><rect class="c" x="82" y="82" rx="2" ry="2" width="12" height="12"/><rect class="c" x="82" y="98" rx="2" ry="2" width="12" height="12"/><rect class="c c1" x="98" y="2" rx="2" ry="2" width="12" height="12"/><rect class="c c2" x="98" y="18" rx="2" ry="2" width="12" height="12"/><rect class="c" x="98" y="34" rx="2" ry="2" width="12" height="12"/><rect class="c" x="98" y="50" rx="2" ry="2" width="12" height="12"/><rect class="c" x="98" y="66" rx="2" ry="2" width="12" height="12"/><rect class="c" x="98" y="82" rx="2" ry="2" width="12" height="12"/><rect class="c" x="98" y="98" rx="2" ry="2" width="12" height="12"/><rect class="c" x="114" y="2" rx="2" ry="2" width="12" height="12"/><rect class="c" x="114" y="18" rx="2" ry="2" width="12" height="12"/><rect class="c" x="114" y="34" rx="2" ry="2" width="12" height="12"/><rect class="c" x="114" y="50" rx="2" ry="2" width="12" height="12"/><rect class="c" x="114" y="66" rx="2" ry="2" width="12" height="12"/><rect class="c" x="114" y="82" rx="2" ry="2" width="12" height="12"/><rect class="c" x="114" y="98" rx="2" ry="2" width="12" height="12"/><rect class="c" x="130" y="2" rx="2" ry="2" width="12" height="12"/><rect class="c" x="130" y="18" rx="2" ry="2" width="12" height="12"/><rect class="c" x="130" y="34" rx="2" ry="2" width="12" height="12"/><rect class="c" x="130" y="50" rx="2" ry="2" width="12" height="12"/><rect class="c" x="130" y="66" rx="2" ry="2" width="12" height="12"/><rect class="c" x="130" y="82" rx="2" ry="2" width="12" height="12"/><rect class="c" x="130" y="98" rx="2" ry="2" width="12" height="12"/><rect class="c" x="146" y="2" rx="2" ry="2" width="12" height="12"/><rect class="c" x="146" y="18" rx="2" ry="2" width="12" height="12"/><rect class="c" x="146" y="34" rx="2" ry="2" width="12" height="12"/><rect class="c" x="146" y="50" rx="2" ry="2" width="12" height="12"/><rect class="c" x="146" y="66" rx="2" ry="2" width="12" height="12"/><rect class="c" x="146" y="82" rx="2" ry="2" width="12" height="12"/><rect class="c" x="146" y="98" rx="2" ry="2" width="12" height="12"/><rect class="c" x="162" y="2" rx="2" ry="2" width="12" height="12"/><rect class="c" x="162" y="18" rx="2" ry="2" width="12" height="12"/><rect class="c" x="162" y="34" rx="2" ry="2" width="12" height="12"/><rect class="c" x="162" y="50" rx="2" ry="2" width="12" height="12"/><rect class="c" x="162" y="66" rx="2" ry="2" width="12" height="12"/><rect class="c" x="162" y="82" rx="2" ry="2" width="12" height="12"/><rect class="c" x="162" y="98" rx="2" ry="2" width="12" height="12"/><rect class="c" x="178" y="2" rx="2" ry="2" width="12" height="12"/><rect class="c" x="178" y="18" rx="2" ry="2" width="12" height="12"/><rect class="c" x="178" y="34" rx="2" ry="2" width="12" height="12"/><rect class="c" x="178" y="50" rx="2" ry="2" width="12" height="12"/><rect class="c" x="178" y="66" rx="2" ry="2" width="12" height="12"/><rect class="c" x="178" y="82" rx="2" ry="2" width="12" height="12"/><rect class="c" x="178" y="98" rx="2" ry="2" width="12" height="12"/><rect class="c" x="194" y="2" rx="2" ry="2" width="12" height="12"/><rect class="c" x="194" y="18" rx="2" ry="2" width="12" height="12"/><rect class="c" x="194" y="34" rx="2" ry="2" width="12" height="12"/><rect class="c" x="194" y="50" rx="2" ry="2" width="12" height="12"/><rect class="c" x="194" y="66" rx="2" ry="2" width="12" height="12"/><rect class="c" x="194" y="82" rx="2" ry="2" width="12" height="12"/><rect class="c" x="194" y="98" rx="2" ry="2" width="12" height="12"/><rect class="c" x="210" y="2" rx="2" ry="2" width="12" height="12"/><rect class="c" x="210" y="18" rx="2" ry="2" width="12" height="12"/><rect class="c" x="210" y="34" rx="2" ry="2" width="12" height="12"/><rect class="c" x="210" y="50" rx="2" ry="2" width="12" height="12"/><rect class="c" x="210" y="66" rx="2" ry="2" width="12" height="12"/><rect class="c" x="210" y="82" rx="2" ry="2" width="12" height="12"/><rect class="c" x="210" y="98" rx="2" ry="2" width="12" height="12"/><rect class="c" x="226" y="2" rx="2" ry="2" width="12" height="12"/><rect class="c" x="226" y="18" rx="2" ry="2" width="12" height="12"/><rect class="c" x="226" y="34" rx="2" ry="2" width="12" height="12"/><rect class="c" x="226" y="50" rx="2" ry="2" width="12" height="12"/><rect class="c" x="226" y="66" rx="2" ry="2" width="12" height="12"/><rect class="c" x="226" y="82" rx="2" ry="2" width="12" height="12"/><rect class="c" x="226" y="98" rx="2" ry="2" width="12" height="12"/><rect class="c" x="242" y="2" rx="2" ry="2" width="12" height="12"/><rect class="c" x="242" y="18" rx="2" ry="2" width="12" height="12"/><rect class="c" x="242" y="34" rx="2" ry="2" width="12" height="12"/><rect class="c" x="242" y="50" rx="2" ry="2" width="12" height="12"/><rect class="c" x="242" y="66" rx="2" ry="2" width="12" height="12"/><rect class="c c3" x="242" y="82" rx="2" ry="2" width="12" height="12"/><rect class="c" x="242" y="98" rx="2" ry="2" width="12" height="12"/><rect class="c" x="258" y="2" rx="2" ry="2" width="12" height="12"/><rect class="c" x="258" y="18" rx="2" ry="2" width="12" height="12"/><rect class="c" x="258" y="34" rx="2" ry="2" width="12" height="12"/><rect class="c" x="258" y="50" rx="2" ry="2" width="12" height="12"/><rect class="c" x="258" y="66" rx="2" ry="2" width="12" height="12"/><rect class="c" x="258" y="82" rx="2" ry="2" width="12" height="12"/><rect class="c" x="258" y="98" rx="2" ry="2" width="12" height="12"/><rect class="c" x="274" y="2" rx="2" ry="2" width="12" height="12"/><rect class="c" x="274" y="18" rx="2" ry="2" width="12" height="12"/><rect class="c c4" x="274" y="34" rx="2" ry="2" width="12" height="12"/><rect class="c c5" x="274" y="50" rx="2" ry="2" width="12" height="12"/><rect class="c" x="274" y="66" rx="2" ry="2" width="12" height="12"/><rect class="c" x="274" y="82" rx="2" ry="2" width="12" height="12"/><rect class="c" x="274" y="98" rx="2" ry="2" width="12" height="12"/><rect class="c c6" x="290" y="2" rx="2" ry="2" width="12" height="12"/><rect class="c" x="290" y="18" rx="2" ry="2" width="12" height="12"/><rect class="c" x="290" y="34" rx="2" ry="2" width="12" height="12"/><rect class="c" x="290" y="50" rx="2" ry="2" width="12" height="12"/><rect class="c" x="290" y="66" rx="2" ry="2" width="12" height="12"/><rect class="c" x="290" y="82" rx="2" ry="2" width="12" height="12"/><rect class="c" x="290" y="98" rx="2" ry="2" width="12" height="12"/><rect class="c" x="306" y="2" rx="2" ry="2" width="12" height="12"/><rect class="c" x="306" y="18" rx="2" ry="2" width="12" height="12"/><rect class="c" x="306" y="34" rx="2" ry="2" width="12" height="12"/><rect class="c" x="306" y="50" rx="2" ry="2" width="12" height="12"/><rect class="c" x="306" y="66" rx="2" ry="2" width="12" height="12"/><rect class="c" x="306" y="82" rx="2" ry="2" width="12" height="12"/><rect class="c" x="306" y="98" rx="2" ry="2" width="12" height="12"/><rect class="c c7" x="322" y="2" rx="2" ry="2" width="12" height="12"/><rect class="c" x="322" y="18" rx="2" ry="2" width="12" height="12"/><rect class="c" x="322" y="34" rx="2" ry="2" width="12" height="12"/><rect class="c" x="322" y="50" rx="2" ry="2" width="12" height="12"/><rect class="c" x="322" y="66" rx="2" ry="2" width="12" height="12"/><rect class="c" x="322" y="82" rx="2" ry="2" width="12" height="12"/><rect class="c" x="322" y="98" rx="2" ry="2" width="12" height="12"/><rect class="c c8" x="338" y="2" rx="2" ry="2" width="12" height="12"/><rect class="c c9" x="338" y="18" rx="2" ry="2" width="12" height="12"/><rect class="c ca" x="338" y="34" rx="2" ry="2" width="12" height="12"/><rect class="c cb" x="338" y="50" rx="2" ry="2" width="12" height="12"/><rect class="c" x="338" y="66" rx="2" ry="2" width="12" height="12"/><rect class="c" x="338" y="82" rx="2" ry="2" width="12" height="12"/><rect class="c" x="338" y="98" rx="2" ry="2" width="12" height="12"/><rect class="c" x="354" y="2" rx="2" ry="2" width="12" height="12"/><rect class="c" x="354" y="18" rx="2" ry="2" width="12" height="12"/><rect class="c" x="354" y="34" rx="2" ry="2" width="12" height="12"/><rect class="c" x="354" y="50" rx="2" ry="2" width="12" height="12"/><rect class="c" x="354" y="66" rx="2" ry="2" width="12" height="12"/><rect class="c cc" x="354" y="82" rx="2" ry="2" width="12" height="12"/><rect class="c cd" x="354" y="98" rx="2" ry="2" width="12" height="12"/><rect class="c ce" x="370" y="2" rx="2" ry="2" width="12" height="12"/><rect class="c" x="370" y="18" rx="2" ry="2" width="12" height="12"/><rect class="c" x="370" y="34" rx="2" ry="2" width="12" height="12"/><rect class="c" x="370" y="50" rx="2" ry="2" width="12" height="12"/><rect class="c" x="370" y="66" rx="2" ry="2" width="12" height="12"/><rect class="c cf" x="370" y="82" rx="2" ry="2" width="12" height="12"/><rect class="c cg" x="370" y="98" rx="2" ry="2" width="12" height="12"/><rect class="c" x="386" y="2" rx="2" ry="2" width="12" height="12"/><rect class="c" x="386" y="18" rx="2" ry="2" width="12" height="12"/><rect class="c" x="386" y="34" rx="2" ry="2" width="12" height="12"/><rect class="c" x="386" y="50" rx="2" ry="2" width="12" height="12"/><rect class="c" x="386" y="66" rx="2" ry="2" width="12" height="12"/><rect class="c" x="386" y="82" rx="2" ry="2" width="12" height="12"/><rect class="c" x="386" y="98" rx="2" ry="2" width="12" height="12"/><rect class="c" x="402" y="2" rx="2" ry="2" width="12" height="12"/><rect class="c" x="402" y="18" rx="2" ry="2" width="12" height="12"/><rect class="c ch" x="402" y="34" rx="2" ry="2" width="12" height="12"/><rect class="c ci" x="402" y="50" rx="2" ry="2" width="12" height="12"/><rect class="c" x="402" y="66" rx="2" ry="2" width="12" height="12"/><rect class="c" x="402" y="82" rx="2" ry="2" width="12" height="12"/><rect class="c cj" x="402" y="98" rx="2" ry="2" width="12" height="12"/><rect class="c ck" x="418" y="2" rx="2" ry="2" width="12" height="12"/><rect class="c cl" x="418" y="18" rx="2" ry="2" width="12" height="12"/><rect class="c" x="418" y="34" rx="2" ry="2" width="12" height="12"/><rect class="c" x="418" y="50" rx="2" ry="2" width="12" height="12"/><rect class="c" x="418" y="66" rx="2" ry="2" width="12" height="12"/><rect class="c cm" x="418" y="82" rx="2" ry="2" width="12" height="12"/><rect class="c cn" x="418" y="98" rx="2" ry="2" width="12" height="12"/><rect class="c" x="434" y="2" rx="2" ry="2" width="12" height="12"/><rect class="c" x="434" y="18" rx="2" ry="2" width="12" height="12"/><rect class="c" x="434" y="34" rx="2" ry="2" width="12" height="12"/><rect class="c" x="434" y="50" rx="2" ry="2" width="12" height="12"/><rect class="c" x="434" y="66" rx="2" ry="2" width="12" height="12"/><rect class="c" x="434" y="82" rx="2" ry="2" width="12" height="12"/><rect class="c co" x="434" y="98" rx="2" ry="2" width="12" height="12"/><rect class="c" x="450" y="2" rx="2" ry="2" width="12" height="12"/><rect class="c" x="450" y="18" rx="2" ry="2" width="12" height="12"/><rect class="c" x="450" y="34" rx="2" ry="2" width="12" height="12"/><rect class="c" x="450" y="50" rx="2" ry="2" width="12" height="12"/><rect class="c" x="450" y="66" rx="2" ry="2" width="12" height="12"/><rect class="c" x="450" y="82" rx="2" ry="2" width="12" height="12"/><rect class="c" x="450" y="98" rx="2" ry="2" width="12" height="12"/><rect class="c" x="466" y="2" rx="2" ry="2" width="12" height="12"/><rect class="c" x="466" y="18" rx="2" ry="2" width="12" height="12"/><rect class="c" x="466" y="34" rx="2" ry="2" width="12" height="12"/><rect class="c" x="466" y="50" rx="2" ry="2" width="12" height="12"/><rect class="c" x="466" y="66" rx="2" ry="2" width="12" height="12"/><rect class="c" x="466" y="82" rx="2" ry="2" width="12" height="12"/><rect class="c" x="466" y="98" rx="2" ry="2" width="12" height="12"/><rect class="c" x="482" y="2" rx="2" ry="2" width="12" height="12"/><rect class="c" x="482" y="18" rx="2" ry="2" width="12" height="12"/><rect class="c" x="482" y="34" rx="2" ry="2" width="12" height="12"/><rect class="c" x="482" y="50" rx="2" ry="2" width="12" height="12"/><rect class="c" x="482" y="66" rx="2" ry="2" width="12" height="12"/><rect class="c" x="482" y="82" rx="2" ry="2" width="12" height="12"/><rect class="c cp" x="482" y="98" rx="2" ry="2" width="12" height="12"/><rect class="c cq" x="498" y="2" rx="2" ry="2" width="12" height="12"/><rect class="c" x="498" y="18" rx="2" ry="2" width="12" height="12"/><rect class="c" x="498" y="34" rx="2" ry="2" width="12" height="12"/><rect class="c" x="498" y="50" rx="2" ry="2" width="12" height="12"/><rect class="c" x="498" y="66" rx="2" ry="2" width="12" height="12"/><rect class="c" x="498" y="82" rx="2" ry="2" width="12" height="12"/><rect class="c" x="498" y="98" rx="2" ry="2" width="12" height="12"/><rect class="c" x="514" y="2" rx="2" ry="2" width="12" height="12"/><rect class="c" x="514" y="18" rx="2" ry="2" width="12" height="12"/><rect class="c" x="514" y="34" rx="2" ry="2" width="12" height="12"/><rect class="c cr" x="514" y="50" rx="2" ry="2" width="12" height="12"/><rect class="c" x="514" y="66" rx="2" ry="2" width="12" height="12"/><rect class="c cs" x="514" y="82" rx="2" ry="2" width="12" height="12"/><rect class="c" x="514" y="98" rx="2" ry="2" width="12" height="12"/><rect class="c" x="530" y="2" rx="2" ry="2" width="12" height="12"/><rect class="c" x="530" y="18" rx="2" ry="2" width="12" height="12"/><rect class="c" x="530" y="34" rx="2" ry="2" width="12" height="12"/><rect class="c ct" x="530" y="50" rx="2" ry="2" width="12" height="12"/><rect class="c" x="530" y="66" rx="2" ry="2" width="12" height="12"/><rect class="c cu" x="530" y="82" rx="2" ry="2" width="12" height="12"/><rect class="c" x="530" y="98" rx="2" ry="2" width="12" height="12"/><rect class="c" x="546" y="2" rx="2" ry="2" width="12" height="12"/><rect class="c" x="546" y="18" rx="2" ry="2" width="12" height="12"/><rect class="c" x="546" y="34" rx="2" ry="2" width="12" height="12"/><rect class="c" x="546" y="50" rx="2" ry="2" width="12" height="12"/><rect class="c" x="546" y="66" rx="2" ry="2" width="12" height="12"/><rect class="c" x="546" y="82" rx="2" ry="2" width="12" height="12"/><rect class="c" x="546" y="98" rx="2" ry="2" width="12" height="12"/><rect class="c" x="562" y="2" rx="2" ry="2" width="12" height="12"/><rect class="c cv" x="562" y="18" rx="2" ry="2" width="12" height="12"/><rect class="c" x="562" y="34" rx="2" ry="2" width="12" height="12"/><rect class="c" x="562" y="50" rx="2" ry="2" width="12" height="12"/><rect class="c" x="562" y="66" rx="2" ry="2" width="12" height="12"/><rect class="c" x="562" y="82" rx="2" ry="2" width="12" height="12"/><rect class="c" x="562" y="98" rx="2" ry="2" width="12" height="12"/><rect class="c" x="578" y="2" rx="2" ry="2" width="12" height="12"/><rect class="c" x="578" y="18" rx="2" ry="2" width="12" height="12"/><rect class="c cw" x="578" y="34" rx="2" ry="2" width="12" height="12"/><rect class="c" x="578" y="50" rx="2" ry="2" width="12" height="12"/><rect class="c" x="578" y="66" rx="2" ry="2" width="12" height="12"/><rect class="c" x="578" y="82" rx="2" ry="2" width="12" height="12"/><rect class="c cx" x="578" y="98" rx="2" ry="2" width="12" height="12"/><rect class="c" x="594" y="2" rx="2" ry="2" width="12" height="12"/><rect class="c cy" x="594" y="18" rx="2" ry="2" width="12" height="12"/><rect class="c cz" x="594" y="34" rx="2" ry="2" width="12" height="12"/><rect class="c" x="594" y="50" rx="2" ry="2" width="12" height="12"/><rect class="c" x="594" y="66" rx="2" ry="2" width="12" height="12"/><rect class="c" x="594" y="82" rx="2" ry="2" width="12" height="12"/><rect class="c" x="594" y="98" rx="2" ry="2" width="12" height="12"/><rect class="c c10" x="610" y="2" rx="2" ry="2" width="12" height="12"/><rect class="c c11" x="610" y="18" rx="2" ry="2" width="12" height="12"/><rect class="c c12" x="610" y="34" rx="2" ry="2" width="12" height="12"/><rect class="c c13" x="610" y="50" rx="2" ry="2" width="12" height="12"/><rect class="c" x="610" y="66" rx="2" ry="2" width="12" height="12"/><rect class="c" x="610" y="82" rx="2" ry="2" width="12" height="12"/><rect class="c" x="610" y="98" rx="2" ry="2" width="12" height="12"/><rect class="c c14" x="626" y="2" rx="2" ry="2" width="12" height="12"/><rect class="c c15" x="626" y="18" rx="2" ry="2" width="12" height="12"/><rect class="c c16" x="626" y="34" rx="2" ry="2" width="12" height="12"/><rect class="c" x="626" y="50" rx="2" ry="2" width="12" height="12"/><rect class="c" x="626" y="66" rx="2" ry="2" width="12" height="12"/><rect class="c c17" x="626" y="82" rx="2" ry="2" width="12" height="12"/><rect class="c c18" x="626" y="98" rx="2" ry="2" width="12" height="12"/><rect class="c" x="642" y="2" rx="2" ry="2" width="12" height="12"/><rect class="c c19" x="642" y="18" rx="2" ry="2" width="12" height="12"/><rect class="c" x="642" y="34" rx="2" ry="2" width="12" height="12"/><rect class="c" x="642" y="50" rx="2" ry="2" width="12" height="12"/><rect class="c" x="642" y="66" rx="2" ry="2" width="12" height="12"/><rect class="c" x="642" y="82" rx="2" ry="2" width="12" height="12"/><rect class="c" x="642" y="98" rx="2" ry="2" width="12" height="12"/><rect class="c c1a" x="658" y="2" rx="2" ry="2" width="12" height="12"/><rect class="c c1b" x="658" y="18" rx="2" ry="2" width="12" height="12"/><rect class="c c1c" x="658" y="34" rx="2" ry="2" width="12" height="12"/><rect class="c c1d" x="658" y="50" rx="2" ry="2" width="12" height="12"/><rect class="c c1e" x="658" y="66" rx="2" ry="2" width="12" height="12"/><rect class="c c1f" x="658" y="82" rx="2" ry="2" width="12" height="12"/><rect class="c c1g" x="658" y="98" rx="2" ry="2" width="12" height="12"/><rect class="c c1h" x="674" y="2" rx="2" ry="2" width="12" height="12"/><rect class="c c1i" x="674" y="18" rx="2" ry="2" width="12" height="12"/><rect class="c c1j" x="674" y="34" rx="2" ry="2" width="12" height="12"/><rect class="c c1k" x="674" y="50" rx="2" ry="2" width="12" height="12"/><rect class="c c1l" x="674" y="66" rx="2" ry="2" width="12" height="12"/><rect class="c c1m" x="674" y="82" rx="2" ry="2" width="12" height="12"/><rect class="c c1n" x="674" y="98" rx="2" ry="2" width="12" height="12"/><rect class="c c1o" x="690" y="2" rx="2" ry="2" width="12" height="12"/><rect class="c" x="690" y="18" rx="2" ry="2" width="12" height="12"/><rect class="c" x="690" y="34" rx="2" ry="2" width="12" height="12"/><rect class="c" x="690" y="50" rx="2" ry="2" width="12" height="12"/><rect class="c" x="690" y="66" rx="2" ry="2" width="12" height="12"/><rect class="c" x="690" y="82" rx="2" ry="2" width="12" height="12"/><rect class="c" x="690" y="98" rx="2" ry="2" width="12" height="12"/><rect class="c c1p" x="706" y="2" rx="2" ry="2" width="12" height="12"/><rect class="c" x="706" y="18" rx="2" ry="2" width="12" height="12"/><rect class="c" x="706" y="34" rx="2" ry="2" width="12" height="12"/><rect class="c" x="706" y="50" rx="2" ry="2" width="12" height="12"/><rect class="c" x="706" y="66" rx="2" ry="2" width="12" height="12"/><rect class="c" x="706" y="82" rx="2" ry="2" width="12" height="12"/><rect class="c" x="706" y="98" rx="2" ry="2" width="12" height="12"/><rect class="c c1q" x="722" y="2" rx="2" ry="2" width="12" height="12"/><rect class="c" x="722" y="18" rx="2" ry="2" width="12" height="12"/><rect class="c" x="722" y="34" rx="2" ry="2" width="12" height="12"/><rect class="c" x="722" y="50" rx="2" ry="2" width="12" height="12"/><rect class="c" x="722" y="66" rx="2" ry="2" width="12" height="12"/><rect class="c" x="722" y="82" rx="2" ry="2" width="12" height="12"/><rect class="c c1r" x="722" y="98" rx="2" ry="2" width="12" height="12"/><rect class="c c1s" x="738" y="2" rx="2" ry="2" width="12" height="12"/><rect class="c" x="738" y="18" rx="2" ry="2" width="12" height="12"/><rect class="c" x="738" y="34" rx="2" ry="2" width="12" height="12"/><rect class="c" x="738" y="50" rx="2" ry="2" width="12" height="12"/><rect class="c" x="738" y="66" rx="2" ry="2" width="12" height="12"/><rect class="c" x="738" y="82" rx="2" ry="2" width="12" height="12"/><rect class="c" x="738" y="98" rx="2" ry="2" width="12" height="12"/><rect class="c c1t" x="754" y="2" rx="2" ry="2" width="12" height="12"/><rect class="c" x="754" y="18" rx="2" ry="2" width="12" height="12"/><rect class="c" x="754" y="34" rx="2" ry="2" width="12" height="12"/><rect class="c" x="754" y="50" rx="2" ry="2" width="12" height="12"/><rect class="c" x="754" y="66" rx="2" ry="2" width="12" height="12"/><rect class="c" x="754" y="82" rx="2" ry="2" width="12" height="12"/><rect class="c c1u" x="754" y="98" rx="2" ry="2" width="12" height="12"/><rect class="c c1v" x="770" y="2" rx="2" ry="2" width="12" height="12"/><rect class="c" x="770" y="18" rx="2" ry="2" width="12" height="12"/><rect class="c" x="770" y="34" rx="2" ry="2" width="12" height="12"/><rect class="c" x="770" y="50" rx="2" ry="2" width="12" height="12"/><rect class="c" x="770" y="66" rx="2" ry="2" width="12" height="12"/><rect class="c" x="770" y="82" rx="2" ry="2" width="12" height="12"/><rect class="c" x="770" y="98" rx="2" ry="2" width="12" height="12"/><rect class="c c1w" x="786" y="2" rx="2" ry="2" width="12" height="12"/><rect class="c" x="786" y="18" rx="2" ry="2" width="12" height="12"/><rect class="c" x="786" y="34" rx="2" ry="2" width="12" height="12"/><rect class="c" x="786" y="50" rx="2" ry="2" width="12" height="12"/><rect class="c" x="786" y="66" rx="2" ry="2" width="12" height="12"/><rect class="c" x="786" y="82" rx="2" ry="2" width="12" height="12"/><rect class="c" x="786" y="98" rx="2" ry="2" width="12" height="12"/><rect class="c c1x" x="802" y="2" rx="2" ry="2" width="12" height="12"/><rect class="c" x="802" y="18" rx="2" ry="2" width="12" height="12"/><rect class="c" x="802" y="34" rx="2" ry="2" width="12" height="12"/><rect class="c" x="802" y="50" rx="2" ry="2" width="12" height="12"/><rect class="c" x="802" y="66" rx="2" ry="2" width="12" height="12"/><rect class="c" x="802" y="82" rx="2" ry="2" width="12" height="12"/><rect class="c" x="802" y="98" rx="2" ry="2" width="12" height="12"/><rect class="c c1y" x="818" y="2" rx="2" ry="2" width="12" height="12"/><rect class="c" x="818" y="18" rx="2" ry="2" width="12" height="12"/><rect class="c" x="818" y="34" rx="2" ry="2" width="12" height="12"/><rect class="c" x="818" y="50" rx="2" ry="2" width="12" height="12"/><rect class="c" x="818" y="66" rx="2" ry="2" width="12" height="12"/><rect class="c" x="818" y="82" rx="2" ry="2" width="12" height="12"/><rect class="c" x="818" y="98" rx="2" ry="2" width="12" height="12"/><rect class="c" x="834" y="2" rx="2" ry="2" width="12" height="12"/><rect class="u u0" height="12" width="800.8" x="0.0" y="144"/><rect class="u u1" height="12" width="36.4" x="800.2" y="144"/><rect class="u u2" height="12" width="12.5" x="836.1" y="144"/><rect class="s s0" x="0.8" y="0.8" width="14.4" height="14.4" rx="4.5" ry="4.5"/><rect class="s s1" x="1.8" y="1.8" width="12.3" height="12.3" rx="4.1" ry="4.1"/><rect class="s s2" x="2.6" y="2.6" width="10.8" height="10.8" rx="3.6" ry="3.6"/><rect class="s s3" x="3.0" y="3.0" width="9.9" height="9.9" rx="3.3" ry="3.3"/></svg>