<svg viewBox="-16 -32 880 192" width="880" height="192" xmlns="http://www.w3.org/2000/svg"><desc>Generated with https://github.com/Platane/snk</desc><style>@keyframes c0{54%{fill:var(--c3)}54.02%,to{fill:var(--ce)}}@keyframes c1{8.26%{fill:var(--c1)}8.28%,to{fill:var(--ce)}}@keyframes c2{6.97%{fill:var(--c1)}6.99%,to{fill:var(--ce)}}@keyframes c3{6.71%{fill:var(--c1)}6.73%,to{fill:var(--ce)}}@keyframes c4{6.45%{fill:var(--c1)}6.47%,to{fill:var(--ce)}}@keyframes c5{51.15%{fill:var(--c2)}51.17%,to{fill:var(--ce)}}@keyframes c6{55.55%{fill:var(--c3)}55.57%,to{fill:var(--ce)}}@keyframes c7{1.02%{fill:var(--c1)}1.04%,to{fill:var(--ce)}}@keyframes c8{53.48%{fill:var(--c2)}53.5%,to{fill:var(--ce)}}@keyframes c9{7.23%{fill:var(--c1)}7.25%,to{fill:var(--ce)}}@keyframes ca{50.64%{fill:var(--c2)}50.66%,to{fill:var(--ce)}}@keyframes cb{1.54%{fill:var(--c1)}1.56%,to{fill:var(--ce)}}@keyframes cc{1.8%{fill:var(--c1)}1.82%,to{fill:var(--ce)}}@keyframes cd{52.7%{fill:var(--c2)}52.72%,to{fill:var(--ce)}}@keyframes ce{52.44%{fill:var(--c2)}52.46%,to{fill:var(--ce)}}@keyframes cf{5.16%{fill:var(--c1)}5.18%,to{fill:var(--ce)}}@keyframes cg{2.32%{fill:var(--c1)}2.34%,to{fill:var(--ce)}}@keyframes ch{2.83%{fill:var(--c1)}2.85%,to{fill:var(--ce)}}@keyframes ci{3.61%{fill:var(--c1)}3.63%,to{fill:var(--ce)}}@keyframes cj{13.17%{fill:var(--c1)}13.19%,to{fill:var(--ce)}}@keyframes ck{76.48%{fill:var(--c4)}76.5%,to{fill:var(--ce)}}@keyframes cl{14.72%{fill:var(--c1)}14.74%,to{fill:var(--ce)}}@keyframes cm{18.08%{fill:var(--c1)}18.1%,to{fill:var(--ce)}}@keyframes cn{72.6%{fill:var(--c4)}72.62%,to{fill:var(--ce)}}@keyframes co{72.86%{fill:var(--c4)}72.88%,to{fill:var(--ce)}}@keyframes cp{43.92%{fill:var(--c2)}43.94%,to{fill:var(--ce)}}@keyframes cq{71.82%{fill:var(--c4)}71.84%,to{fill:var(--ce)}}@keyframes cr{20.66%{fill:var(--c1)}20.68%,to{fill:var(--ce)}}@keyframes cs{71.05%{fill:var(--c4)}71.07%,to{fill:var(--ce)}}@keyframes ct{37.2%{fill:var(--c2)}37.22%,to{fill:var(--ce)}}@keyframes cu{37.46%{fill:var(--c2)}37.48%,to{fill:var(--ce)}}@keyframes cv{37.72%{fill:var(--c2)}37.74%,to{fill:var(--ce)}}@keyframes cw{64.33%{fill:var(--c3)}64.35%,to{fill:var(--ce)}}@keyframes cx{69.24%{fill:var(--c4)}69.26%,to{fill:var(--ce)}}@keyframes cy{36.42%{fill:var(--c2)}36.44%,to{fill:var(--ce)}}@keyframes cz{38.75%{fill:var(--c2)}38.77%,to{fill:var(--ce)}}@keyframes c10{68.98%{fill:var(--c4)}69%,to{fill:var(--ce)}}@keyframes c11{34.36%{fill:var(--c2)}34.38%,to{fill:var(--ce)}}@keyframes c12{23.25%{fill:var(--c1)}23.27%,to{fill:var(--ce)}}@keyframes c13{39.52%{fill:var(--c2)}39.54%,to{fill:var(--ce)}}@keyframes c14{35.13%{fill:var(--c2)}35.15%,to{fill:var(--ce)}}@keyframes c15{66.4%{fill:var(--c3)}66.42%,to{fill:var(--ce)}}@keyframes c16{67.95%{fill:var(--c4)}67.97%,to{fill:var(--ce)}}@keyframes c17{68.21%{fill:var(--c4)}68.23%,to{fill:var(--ce)}}@keyframes c18{40.56%{fill:var(--c2)}40.58%,to{fill:var(--ce)}}@keyframes c19{25.57%{fill:var(--c1)}25.59%,to{fill:var(--ce)}}@keyframes c1a{28.93%{fill:var(--c1)}28.95%,to{fill:var(--ce)}}@keyframes c1b{27.64%{fill:var(--c1)}27.66%,to{fill:var(--ce)}}@keyframes c1c{29.71%{fill:var(--c1)}29.73%,to{fill:var(--ce)}}@keyframes c1d{86.04%{fill:var(--c4)}86.06%,to{fill:var(--ce)}}@keyframes c1e{29.96%{fill:var(--c1)}29.98%,to{fill:var(--ce)}}@keyframes u0{1.02%{transform:scale(0,1)}1.04%,1.54%{transform:scale(.05,1)}1.56%,1.8%{transform:scale(.09,1)}1.82%,2.32%{transform:scale(.14,1)}2.34%,2.83%{transform:scale(.18,1)}2.85%,3.61%{transform:scale(.23,1)}3.63%,5.16%{transform:scale(.27,1)}5.18%,6.45%{transform:scale(.32,1)}6.47%,6.71%{transform:scale(.36,1)}6.73%,6.97%{transform:scale(.41,1)}6.99%,7.23%{transform:scale(.45,1)}7.25%,8.26%{transform:scale(.5,1)}13.17%,8.28%{transform:scale(.55,1)}13.19%,14.72%{transform:scale(.59,1)}14.74%,18.08%{transform:scale(.64,1)}18.1%,20.66%{transform:scale(.68,1)}20.68%,23.25%{transform:scale(.73,1)}23.27%,25.57%{transform:scale(.77,1)}25.59%,27.64%{transform:scale(.82,1)}27.66%,28.93%{transform:scale(.86,1)}28.95%,29.71%{transform:scale(.91,1)}29.73%,29.96%{transform:scale(.95,1)}29.98%,to{transform:scale(1,1)}}@keyframes u1{34.36%{transform:scale(0,1)}34.38%,35.13%{transform:scale(.07,1)}35.15%,36.42%{transform:scale(.13,1)}36.44%,37.2%{transform:scale(.2,1)}37.22%,37.46%{transform:scale(.27,1)}37.48%,37.72%{transform:scale(.33,1)}37.74%,38.75%{transform:scale(.4,1)}38.77%,39.52%{transform:scale(.47,1)}39.54%,40.56%{transform:scale(.53,1)}40.58%,43.92%{transform:scale(.6,1)}43.94%,50.64%{transform:scale(.67,1)}50.66%,51.15%{transform:scale(.73,1)}51.17%,52.44%{transform:scale(.8,1)}52.46%,52.7%{transform:scale(.87,1)}52.72%,53.48%{transform:scale(.93,1)}53.5%,to{transform:scale(1,1)}}@keyframes u2{54%{transform:scale(0,1)}54.02%,55.55%{transform:scale(.25,1)}55.57%,64.33%{transform:scale(.5,1)}64.35%,66.4%{transform:scale(.75,1)}66.42%,to{transform:scale(1,1)}}@keyframes u3{67.95%{transform:scale(0,1)}67.97%,68.21%{transform:scale(.1,1)}68.23%,68.98%{transform:scale(.2,1)}69%,69.24%{transform:scale(.3,1)}69.26%,71.05%{transform:scale(.4,1)}71.07%,71.82%{transform:scale(.5,1)}71.84%,72.6%{transform:scale(.6,1)}72.62%,72.86%{transform:scale(.7,1)}72.88%,76.48%{transform:scale(.8,1)}76.5%,86.04%{transform:scale(.9,1)}86.06%,to{transform:scale(1,1)}}@keyframes s0{0%,99.74%{transform:translate(0,-16px)}.26%{transform:translate(0,-32px)}.52%{transform:translate(16px,-32px)}1.03%,53.75%{transform:translate(16px,0)}1.55%{transform:translate(48px,0)}1.81%,52.97%{transform:translate(48px,16px)}2.07%{transform:translate(64px,16px)}2.33%{transform:translate(64px,32px)}2.58%{transform:translate(80px,32px)}2.84%{transform:translate(80px,48px)}3.36%{transform:translate(112px,48px)}3.62%{transform:translate(112px,64px)}4.65%,52.2%{transform:translate(48px,64px)}5.17%{transform:translate(48px,96px)}5.68%{transform:translate(16px,96px)}6.2%{transform:translate(16px,64px)}51.42%,6.46%{transform:translate(0,64px)}6.98%{transform:translate(0,32px)}7.24%{transform:translate(16px,32px)}7.49%{transform:translate(16px,48px)}7.75%{transform:translate(0,48px)}8.27%{transform:translate(0,16px)}8.53%{transform:translate(-16px,16px)}8.79%{transform:translate(-16px,32px)}9.56%{transform:translate(32px,32px)}9.82%{transform:translate(32px,16px)}12.66%{transform:translate(208px,16px)}13.18%{transform:translate(208px,48px)}14.21%{transform:translate(272px,48px)}14.73%{transform:translate(272px,16px)}17.05%{transform:translate(416px,16px)}18.09%{transform:translate(416px,80px)}18.35%{transform:translate(432px,80px)}18.6%{transform:translate(432px,64px)}19.64%{transform:translate(496px,64px)}20.93%{transform:translate(496px,-16px)}21.96%{transform:translate(560px,-16px)}23%{transform:translate(560px,48px)}25.06%{transform:translate(688px,48px)}25.58%{transform:translate(688px,80px)}27.39%{transform:translate(800px,80px)}27.65%{transform:translate(800px,96px)}27.91%{transform:translate(784px,96px)}28.94%{transform:translate(784px,32px)}29.46%{transform:translate(816px,32px)}29.72%{transform:translate(816px,16px)}29.97%{transform:translate(832px,16px)}30.23%{transform:translate(832px,32px)}34.37%{transform:translate(576px,32px)}34.88%{transform:translate(576px,0)}35.14%{transform:translate(592px,0)}35.4%{transform:translate(592px,-16px)}36.18%{transform:translate(544px,-16px)}36.43%{transform:translate(544px,0)}36.69%,70.8%{transform:translate(528px,0)}36.95%{transform:translate(528px,16px)}37.21%{transform:translate(512px,16px)}37.73%{transform:translate(512px,48px)}38.24%{transform:translate(544px,48px)}38.76%{transform:translate(544px,80px)}39.28%,65.12%{transform:translate(576px,80px)}39.79%{transform:translate(576px,112px)}40.31%{transform:translate(608px,112px)}41.09%{transform:translate(608px,64px)}43.67%{transform:translate(448px,64px)}43.93%{transform:translate(448px,80px)}51.16%{transform:translate(0,80px)}53.49%{transform:translate(16px,16px)}54.01%{transform:translate(0,0)}55.56%{transform:translate(0,96px)}63.82%{transform:translate(512px,96px)}64.08%{transform:translate(512px,80px)}65.37%{transform:translate(576px,64px)}65.63%{transform:translate(592px,64px)}66.41%{transform:translate(592px,16px)}66.67%{transform:translate(608px,16px)}66.93%{transform:translate(608px,32px)}67.18%{transform:translate(592px,32px)}68.22%{transform:translate(592px,96px)}69.25%{transform:translate(528px,96px)}72.09%{transform:translate(448px,0)}72.87%{transform:translate(448px,48px)}73.13%{transform:translate(432px,48px)}73.9%{transform:translate(432px,0)}76.49%{transform:translate(272px,0)}76.74%{transform:translate(272px,-16px)}85.79%{transform:translate(832px,-16px)}86.05%{transform:translate(832px,0)}98.19%{transform:translate(80px,0)}98.45%{transform:translate(80px,-16px)}}@keyframes s1{0%,99.74%{transform:translate(16px,-16px)}.26%{transform:translate(0,-16px)}.52%{transform:translate(0,-32px)}.78%{transform:translate(16px,-32px)}1.29%,54.01%{transform:translate(16px,0)}1.81%{transform:translate(48px,0)}2.07%,53.23%{transform:translate(48px,16px)}2.33%{transform:translate(64px,16px)}2.58%{transform:translate(64px,32px)}2.84%{transform:translate(80px,32px)}3.1%{transform:translate(80px,48px)}3.62%{transform:translate(112px,48px)}3.88%{transform:translate(112px,64px)}4.91%,52.45%{transform:translate(48px,64px)}5.43%{transform:translate(48px,96px)}5.94%{transform:translate(16px,96px)}6.46%{transform:translate(16px,64px)}51.68%,6.72%{transform:translate(0,64px)}7.24%{transform:translate(0,32px)}7.49%{transform:translate(16px,32px)}7.75%{transform:translate(16px,48px)}8.01%{transform:translate(0,48px)}8.53%{transform:translate(0,16px)}8.79%{transform:translate(-16px,16px)}9.04%{transform:translate(-16px,32px)}9.82%{transform:translate(32px,32px)}10.08%{transform:translate(32px,16px)}12.92%{transform:translate(208px,16px)}13.44%{transform:translate(208px,48px)}14.47%{transform:translate(272px,48px)}14.99%{transform:translate(272px,16px)}17.31%{transform:translate(416px,16px)}18.35%{transform:translate(416px,80px)}18.6%{transform:translate(432px,80px)}18.86%{transform:translate(432px,64px)}19.9%{transform:translate(496px,64px)}21.19%{transform:translate(496px,-16px)}22.22%{transform:translate(560px,-16px)}23.26%{transform:translate(560px,48px)}25.32%{transform:translate(688px,48px)}25.84%{transform:translate(688px,80px)}27.65%{transform:translate(800px,80px)}27.91%{transform:translate(800px,96px)}28.17%{transform:translate(784px,96px)}29.2%{transform:translate(784px,32px)}29.72%{transform:translate(816px,32px)}29.97%{transform:translate(816px,16px)}30.23%{transform:translate(832px,16px)}30.49%{transform:translate(832px,32px)}34.63%{transform:translate(576px,32px)}35.14%{transform:translate(576px,0)}35.4%{transform:translate(592px,0)}35.66%{transform:translate(592px,-16px)}36.43%{transform:translate(544px,-16px)}36.69%{transform:translate(544px,0)}36.95%,71.06%{transform:translate(528px,0)}37.21%{transform:translate(528px,16px)}37.47%{transform:translate(512px,16px)}37.98%{transform:translate(512px,48px)}38.5%{transform:translate(544px,48px)}39.02%{transform:translate(544px,80px)}39.53%,65.37%{transform:translate(576px,80px)}40.05%{transform:translate(576px,112px)}40.57%{transform:translate(608px,112px)}41.34%{transform:translate(608px,64px)}43.93%{transform:translate(448px,64px)}44.19%{transform:translate(448px,80px)}51.42%{transform:translate(0,80px)}53.75%{transform:translate(16px,16px)}54.26%{transform:translate(0,0)}55.81%{transform:translate(0,96px)}64.08%{transform:translate(512px,96px)}64.34%{transform:translate(512px,80px)}65.63%{transform:translate(576px,64px)}65.89%{transform:translate(592px,64px)}66.67%{transform:translate(592px,16px)}66.93%{transform:translate(608px,16px)}67.18%{transform:translate(608px,32px)}67.44%{transform:translate(592px,32px)}68.48%{transform:translate(592px,96px)}69.51%{transform:translate(528px,96px)}72.35%{transform:translate(448px,0)}73.13%{transform:translate(448px,48px)}73.39%{transform:translate(432px,48px)}74.16%{transform:translate(432px,0)}76.74%{transform:translate(272px,0)}77%{transform:translate(272px,-16px)}86.05%{transform:translate(832px,-16px)}86.3%{transform:translate(832px,0)}98.45%{transform:translate(80px,0)}98.71%{transform:translate(80px,-16px)}}@keyframes s2{0%,99.74%{transform:translate(32px,-16px)}.52%{transform:translate(0,-16px)}.78%{transform:translate(0,-32px)}1.03%{transform:translate(16px,-32px)}1.55%,54.26%{transform:translate(16px,0)}2.07%{transform:translate(48px,0)}2.33%,53.49%{transform:translate(48px,16px)}2.58%{transform:translate(64px,16px)}2.84%{transform:translate(64px,32px)}3.1%{transform:translate(80px,32px)}3.36%{transform:translate(80px,48px)}3.88%{transform:translate(112px,48px)}4.13%{transform:translate(112px,64px)}5.17%,52.71%{transform:translate(48px,64px)}5.68%{transform:translate(48px,96px)}6.2%{transform:translate(16px,96px)}6.72%{transform:translate(16px,64px)}51.94%,6.98%{transform:translate(0,64px)}7.49%{transform:translate(0,32px)}7.75%{transform:translate(16px,32px)}8.01%{transform:translate(16px,48px)}8.27%{transform:translate(0,48px)}8.79%{transform:translate(0,16px)}9.04%{transform:translate(-16px,16px)}9.3%{transform:translate(-16px,32px)}10.08%{transform:translate(32px,32px)}10.34%{transform:translate(32px,16px)}13.18%{transform:translate(208px,16px)}13.7%{transform:translate(208px,48px)}14.73%{transform:translate(272px,48px)}15.25%{transform:translate(272px,16px)}17.57%{transform:translate(416px,16px)}18.6%{transform:translate(416px,80px)}18.86%{transform:translate(432px,80px)}19.12%{transform:translate(432px,64px)}20.16%{transform:translate(496px,64px)}21.45%{transform:translate(496px,-16px)}22.48%{transform:translate(560px,-16px)}23.51%{transform:translate(560px,48px)}25.58%{transform:translate(688px,48px)}26.1%{transform:translate(688px,80px)}27.91%{transform:translate(800px,80px)}28.17%{transform:translate(800px,96px)}28.42%{transform:translate(784px,96px)}29.46%{transform:translate(784px,32px)}29.97%{transform:translate(816px,32px)}30.23%{transform:translate(816px,16px)}30.49%{transform:translate(832px,16px)}30.75%{transform:translate(832px,32px)}34.88%{transform:translate(576px,32px)}35.4%{transform:translate(576px,0)}35.66%{transform:translate(592px,0)}35.92%{transform:translate(592px,-16px)}36.69%{transform:translate(544px,-16px)}36.95%{transform:translate(544px,0)}37.21%,71.32%{transform:translate(528px,0)}37.47%{transform:translate(528px,16px)}37.73%{transform:translate(512px,16px)}38.24%{transform:translate(512px,48px)}38.76%{transform:translate(544px,48px)}39.28%{transform:translate(544px,80px)}39.79%,65.63%{transform:translate(576px,80px)}40.31%{transform:translate(576px,112px)}40.83%{transform:translate(608px,112px)}41.6%{transform:translate(608px,64px)}44.19%{transform:translate(448px,64px)}44.44%{transform:translate(448px,80px)}51.68%{transform:translate(0,80px)}54.01%{transform:translate(16px,16px)}54.52%{transform:translate(0,0)}56.07%{transform:translate(0,96px)}64.34%{transform:translate(512px,96px)}64.6%{transform:translate(512px,80px)}65.89%{transform:translate(576px,64px)}66.15%{transform:translate(592px,64px)}66.93%{transform:translate(592px,16px)}67.18%{transform:translate(608px,16px)}67.44%{transform:translate(608px,32px)}67.7%{transform:translate(592px,32px)}68.73%{transform:translate(592px,96px)}69.77%{transform:translate(528px,96px)}72.61%{transform:translate(448px,0)}73.39%{transform:translate(448px,48px)}73.64%{transform:translate(432px,48px)}74.42%{transform:translate(432px,0)}77%{transform:translate(272px,0)}77.26%{transform:translate(272px,-16px)}86.3%{transform:translate(832px,-16px)}86.56%{transform:translate(832px,0)}98.71%{transform:translate(80px,0)}98.97%{transform:translate(80px,-16px)}}@keyframes s3{0%,99.74%{transform:translate(48px,-16px)}.78%{transform:translate(0,-16px)}1.03%{transform:translate(0,-32px)}1.29%{transform:translate(16px,-32px)}1.81%,54.52%{transform:translate(16px,0)}2.33%{transform:translate(48px,0)}2.58%,53.75%{transform:translate(48px,16px)}2.84%{transform:translate(64px,16px)}3.1%{transform:translate(64px,32px)}3.36%{transform:translate(80px,32px)}3.62%{transform:translate(80px,48px)}4.13%{transform:translate(112px,48px)}4.39%{transform:translate(112px,64px)}5.43%,52.97%{transform:translate(48px,64px)}5.94%{transform:translate(48px,96px)}6.46%{transform:translate(16px,96px)}6.98%{transform:translate(16px,64px)}52.2%,7.24%{transform:translate(0,64px)}7.75%{transform:translate(0,32px)}8.01%{transform:translate(16px,32px)}8.27%{transform:translate(16px,48px)}8.53%{transform:translate(0,48px)}9.04%{transform:translate(0,16px)}9.3%{transform:translate(-16px,16px)}9.56%{transform:translate(-16px,32px)}10.34%{transform:translate(32px,32px)}10.59%{transform:translate(32px,16px)}13.44%{transform:translate(208px,16px)}13.95%{transform:translate(208px,48px)}14.99%{transform:translate(272px,48px)}15.5%{transform:translate(272px,16px)}17.83%{transform:translate(416px,16px)}18.86%{transform:translate(416px,80px)}19.12%{transform:translate(432px,80px)}19.38%{transform:translate(432px,64px)}20.41%{transform:translate(496px,64px)}21.71%{transform:translate(496px,-16px)}22.74%{transform:translate(560px,-16px)}23.77%{transform:translate(560px,48px)}25.84%{transform:translate(688px,48px)}26.36%{transform:translate(688px,80px)}28.17%{transform:translate(800px,80px)}28.42%{transform:translate(800px,96px)}28.68%{transform:translate(784px,96px)}29.72%{transform:translate(784px,32px)}30.23%{transform:translate(816px,32px)}30.49%{transform:translate(816px,16px)}30.75%{transform:translate(832px,16px)}31.01%{transform:translate(832px,32px)}35.14%{transform:translate(576px,32px)}35.66%{transform:translate(576px,0)}35.92%{transform:translate(592px,0)}36.18%{transform:translate(592px,-16px)}36.95%{transform:translate(544px,-16px)}37.21%{transform:translate(544px,0)}37.47%,71.58%{transform:translate(528px,0)}37.73%{transform:translate(528px,16px)}37.98%{transform:translate(512px,16px)}38.5%{transform:translate(512px,48px)}39.02%{transform:translate(544px,48px)}39.53%{transform:translate(544px,80px)}40.05%,65.89%{transform:translate(576px,80px)}40.57%{transform:translate(576px,112px)}41.09%{transform:translate(608px,112px)}41.86%{transform:translate(608px,64px)}44.44%{transform:translate(448px,64px)}44.7%{transform:translate(448px,80px)}51.94%{transform:translate(0,80px)}54.26%{transform:translate(16px,16px)}54.78%{transform:translate(0,0)}56.33%{transform:translate(0,96px)}64.6%{transform:translate(512px,96px)}64.86%{transform:translate(512px,80px)}66.15%{transform:translate(576px,64px)}66.41%{transform:translate(592px,64px)}67.18%{transform:translate(592px,16px)}67.44%{transform:translate(608px,16px)}67.7%{transform:translate(608px,32px)}67.96%{transform:translate(592px,32px)}68.99%{transform:translate(592px,96px)}70.03%{transform:translate(528px,96px)}72.87%{transform:translate(448px,0)}73.64%{transform:translate(448px,48px)}73.9%{transform:translate(432px,48px)}74.68%{transform:translate(432px,0)}77.26%{transform:translate(272px,0)}77.52%{transform:translate(272px,-16px)}86.56%{transform:translate(832px,-16px)}86.82%{transform:translate(832px,0)}98.97%{transform:translate(80px,0)}99.22%{transform:translate(80px,-16px)}}:root{--cb:#1b1f230a;--cs:orange;--ce:#bfd6f6;--c0:#bfd6f6;--c1:#8dbdff;--c2:#64a1f4;--c3:#4b91f1;--c4:#3c7dd9}.c{shape-rendering:geometricPrecision;fill:var(--ce);stroke-width:1px;stroke:var(--cb);animation:none 38700ms linear infinite}.c.c0{fill:var(--c3);animation-name:c0}.c.c1{fill:var(--c1);animation-name:c1}.c.c2,.c.c3,.c.c4{fill:var(--c1);animation-name:c2}.c.c3,.c.c4{animation-name:c3}.c.c4{animation-name:c4}.c.c5{fill:var(--c2);animation-name:c5}.c.c6{fill:var(--c3);animation-name:c6}.c.c7{fill:var(--c1);animation-name:c7}.c.c8{fill:var(--c2);animation-name:c8}.c.c9{fill:var(--c1);animation-name:c9}.c.ca{fill:var(--c2);animation-name:ca}.c.cb,.c.cc{fill:var(--c1);animation-name:cb}.c.cc{animation-name:cc}.c.cd,.c.ce{fill:var(--c2);animation-name:cd}.c.ce{animation-name:ce}.c.cf,.c.cg{fill:var(--c1);animation-name:cf}.c.cg{animation-name:cg}.c.ch,.c.ci,.c.cj{fill:var(--c1);animation-name:ch}.c.ci,.c.cj{animation-name:ci}.c.cj{animation-name:cj}.c.ck{fill:var(--c4);animation-name:ck}.c.cl,.c.cm{fill:var(--c1);animation-name:cl}.c.cm{animation-name:cm}.c.cn,.c.co{fill:var(--c4);animation-name:cn}.c.co{animation-name:co}.c.cp{fill:var(--c2);animation-name:cp}.c.cq{fill:var(--c4);animation-name:cq}.c.cr{fill:var(--c1);animation-name:cr}.c.cs{fill:var(--c4);animation-name:cs}.c.ct,.c.cu,.c.cv{fill:var(--c2);animation-name:ct}.c.cu,.c.cv{animation-name:cu}.c.cv{animation-name:cv}.c.cw{fill:var(--c3);animation-name:cw}.c.cx{fill:var(--c4);animation-name:cx}.c.cy,.c.cz{fill:var(--c2);animation-name:cy}.c.cz{animation-name:cz}.c.c10{fill:var(--c4);animation-name:c10}.c.c11{fill:var(--c2);animation-name:c11}.c.c12{fill:var(--c1);animation-name:c12}.c.c13,.c.c14{fill:var(--c2);animation-name:c13}.c.c14{animation-name:c14}.c.c15{fill:var(--c3);animation-name:c15}.c.c16,.c.c17{fill:var(--c4);animation-name:c16}.c.c17{animation-name:c17}.c.c18{fill:var(--c2);animation-name:c18}.c.c19{fill:var(--c1);animation-name:c19}.c.c1a,.c.c1b,.c.c1c{fill:var(--c1);animation-name:c1a}.c.c1b,.c.c1c{animation-name:c1b}.c.c1c{animation-name:c1c}.c.c1d{fill:var(--c4);animation-name:c1d}.c.c1e{fill:var(--c1);animation-name:c1e}.s,.u{animation:none linear 38700ms infinite}.u,.u.u0{transform-origin:0 0}.u{transform:scale(0,1)}.u.u0{fill:var(--c1);animation-name:u0}.u.u1{fill:var(--c2);animation-name:u1;transform-origin:365.8px 0}.u.u2{fill:var(--c3);animation-name:u2;transform-origin:615.2px 0}.u.u3{fill:var(--c4);animation-name:u3;transform-origin:681.7px 0}.s{shape-rendering:geometricPrecision;fill:var(--cs)}.s.s0{transform:translate(0,-16px);animation-name:s0}.s.s1{transform:translate(16px,-16px);animation-name:s1}.s.s2{transform:translate(32px,-16px);animation-name:s2}.s.s3{transform:translate(48px,-16px);animation-name:s3}</style><rect class="c c0" x="2" y="2" rx="2" ry="2" width="12" height="12"/><rect class="c c1" x="2" y="18" rx="2" ry="2" width="12" height="12"/><rect class="c c2" x="2" y="34" rx="2" ry="2" width="12" height="12"/><rect class="c c3" x="2" y="50" rx="2" ry="2" width="12" height="12"/><rect class="c c4" x="2" y="66" rx="2" ry="2" width="12" height="12"/><rect class="c c5" x="2" y="82" rx="2" ry="2" width="12" height="12"/><rect class="c c6" x="2" y="98" rx="2" ry="2" width="12" height="12"/><rect class="c c7" x="18" y="2" rx="2" ry="2" width="12" height="12"/><rect class="c c8" x="18" y="18" rx="2" ry="2" width="12" height="12"/><rect class="c c9" x="18" y="34" rx="2" ry="2" width="12" height="12"/><rect class="c" x="18" y="50" rx="2" ry="2" width="12" height="12"/><rect class="c" x="18" y="66" rx="2" ry="2" width="12" height="12"/><rect class="c" x="18" y="82" rx="2" ry="2" width="12" height="12"/><rect class="c" x="18" y="98" rx="2" ry="2" width="12" height="12"/><rect class="c" x="34" y="2" rx="2" ry="2" width="12" height="12"/><rect class="c" x="34" y="18" rx="2" ry="2" width="12" height="12"/><rect class="c" x="34" y="34" rx="2" ry="2" width="12" height="12"/><rect class="c" x="34" y="50" rx="2" ry="2" width="12" height="12"/><rect class="c" x="34" y="66" rx="2" ry="2" width="12" height="12"/><rect class="c ca" x="34" y="82" rx="2" ry="2" width="12" height="12"/><rect class="c" x="34" y="98" rx="2" ry="2" width="12" height="12"/><rect class="c cb" x="50" y="2" rx="2" ry="2" width="12" height="12"/><rect class="c cc" x="50" y="18" rx="2" ry="2" width="12" height="12"/><rect class="c cd" x="50" y="34" rx="2" ry="2" width="12" height="12"/><rect class="c ce" x="50" y="50" rx="2" ry="2" width="12" height="12"/><rect class="c" x="50" y="66" rx="2" ry="2" width="12" height="12"/><rect class="c" x="50" y="82" rx="2" ry="2" width="12" height="12"/><rect class="c cf" x="50" y="98" rx="2" ry="2" width="12" height="12"/><rect class="c" x="66" y="2" rx="2" ry="2" width="12" height="12"/><rect class="c" x="66" y="18" rx="2" ry="2" width="12" height="12"/><rect class="c cg" x="66" y="34" rx="2" ry="2" width="12" height="12"/><rect class="c" x="66" y="50" rx="2" ry="2" width="12" height="12"/><rect class="c" x="66" y="66" rx="2" ry="2" width="12" height="12"/><rect class="c" x="66" y="82" rx="2" ry="2" width="12" height="12"/><rect class="c" x="66" y="98" rx="2" ry="2" width="12" height="12"/><rect class="c" x="82" y="2" rx="2" ry="2" width="12" height="12"/><rect class="c" x="82" y="18" rx="2" ry="2" width="12" height="12"/><rect class="c" x="82" y="34" rx="2" ry="2" width="12" height="12"/><rect class="c ch" x="82" y="50" rx="2" ry="2" width="12" height="12"/><rect class="c" x="82" y="66" rx="2" ry="2" width="12" height="12"/><rect class="c" x="82" y="82" rx="2" ry="2" width="12" height="12"/><rect class="c" x="82" y="98" rx="2" ry="2" width="12" height="12"/><rect class="c" x="98" y="2" rx="2" ry="2" width="12" height="12"/><rect class="c" x="98" y="18" rx="2" ry="2" width="12" height="12"/><rect class="c" x="98" y="34" rx="2" ry="2" width="12" height="12"/><rect class="c" x="98" y="50" rx="2" ry="2" width="12" height="12"/><rect class="c" x="98" y="66" rx="2" ry="2" width="12" height="12"/><rect class="c" x="98" y="82" rx="2" ry="2" width="12" height="12"/><rect class="c" x="98" y="98" rx="2" ry="2" width="12" height="12"/><rect class="c" x="114" y="2" rx="2" ry="2" width="12" height="12"/><rect class="c" x="114" y="18" rx="2" ry="2" width="12" height="12"/><rect class="c" x="114" y="34" rx="2" ry="2" width="12" height="12"/><rect class="c" x="114" y="50" rx="2" ry="2" width="12" height="12"/><rect class="c ci" x="114" y="66" rx="2" ry="2" width="12" height="12"/><rect class="c" x="114" y="82" rx="2" ry="2" width="12" height="12"/><rect class="c" x="114" y="98" rx="2" ry="2" width="12" height="12"/><rect class="c" x="130" y="2" rx="2" ry="2" width="12" height="12"/><rect class="c" x="130" y="18" rx="2" ry="2" width="12" height="12"/><rect class="c" x="130" y="34" rx="2" ry="2" width="12" height="12"/><rect class="c" x="130" y="50" rx="2" ry="2" width="12" height="12"/><rect class="c" x="130" y="66" rx="2" ry="2" width="12" height="12"/><rect class="c" x="130" y="82" rx="2" ry="2" width="12" height="12"/><rect class="c" x="130" y="98" rx="2" ry="2" width="12" height="12"/><rect class="c" x="146" y="2" rx="2" ry="2" width="12" height="12"/><rect class="c" x="146" y="18" rx="2" ry="2" width="12" height="12"/><rect class="c" x="146" y="34" rx="2" ry="2" width="12" height="12"/><rect class="c" x="146" y="50" rx="2" ry="2" width="12" height="12"/><rect class="c" x="146" y="66" rx="2" ry="2" width="12" height="12"/><rect class="c" x="146" y="82" rx="2" ry="2" width="12" height="12"/><rect class="c" x="146" y="98" rx="2" ry="2" width="12" height="12"/><rect class="c" x="162" y="2" rx="2" ry="2" width="12" height="12"/><rect class="c" x="162" y="18" rx="2" ry="2" width="12" height="12"/><rect class="c" x="162" y="34" rx="2" ry="2" width="12" height="12"/><rect class="c" x="162" y="50" rx="2" ry="2" width="12" height="12"/><rect class="c" x="162" y="66" rx="2" ry="2" width="12" height="12"/><rect class="c" x="162" y="82" rx="2" ry="2" width="12" height="12"/><rect class="c" x="162" y="98" rx="2" ry="2" width="12" height="12"/><rect class="c" x="178" y="2" rx="2" ry="2" width="12" height="12"/><rect class="c" x="178" y="18" rx="2" ry="2" width="12" height="12"/><rect class="c" x="178" y="34" rx="2" ry="2" width="12" height="12"/><rect class="c" x="178" y="50" rx="2" ry="2" width="12" height="12"/><rect class="c" x="178" y="66" rx="2" ry="2" width="12" height="12"/><rect class="c" x="178" y="82" rx="2" ry="2" width="12" height="12"/><rect class="c" x="178" y="98" rx="2" ry="2" width="12" height="12"/><rect class="c" x="194" y="2" rx="2" ry="2" width="12" height="12"/><rect class="c" x="194" y="18" rx="2" ry="2" width="12" height="12"/><rect class="c" x="194" y="34" rx="2" ry="2" width="12" height="12"/><rect class="c" x="194" y="50" rx="2" ry="2" width="12" height="12"/><rect class="c" x="194" y="66" rx="2" ry="2" width="12" height="12"/><rect class="c" x="194" y="82" rx="2" ry="2" width="12" height="12"/><rect class="c" x="194" y="98" rx="2" ry="2" width="12" height="12"/><rect class="c" x="210" y="2" rx="2" ry="2" width="12" height="12"/><rect class="c" x="210" y="18" rx="2" ry="2" width="12" height="12"/><rect class="c" x="210" y="34" rx="2" ry="2" width="12" height="12"/><rect class="c cj" x="210" y="50" rx="2" ry="2" width="12" height="12"/><rect class="c" x="210" y="66" rx="2" ry="2" width="12" height="12"/><rect class="c" x="210" y="82" rx="2" ry="2" width="12" height="12"/><rect class="c" x="210" y="98" rx="2" ry="2" width="12" height="12"/><rect class="c" x="226" y="2" rx="2" ry="2" width="12" height="12"/><rect class="c" x="226" y="18" rx="2" ry="2" width="12" height="12"/><rect class="c" x="226" y="34" rx="2" ry="2" width="12" height="12"/><rect class="c" x="226" y="50" rx="2" ry="2" width="12" height="12"/><rect class="c" x="226" y="66" rx="2" ry="2" width="12" height="12"/><rect class="c" x="226" y="82" rx="2" ry="2" width="12" height="12"/><rect class="c" x="226" y="98" rx="2" ry="2" width="12" height="12"/><rect class="c" x="242" y="2" rx="2" ry="2" width="12" height="12"/><rect class="c" x="242" y="18" rx="2" ry="2" width="12" height="12"/><rect class="c" x="242" y="34" rx="2" ry="2" width="12" height="12"/><rect class="c" x="242" y="50" rx="2" ry="2" width="12" height="12"/><rect class="c" x="242" y="66" rx="2" ry="2" width="12" height="12"/><rect class="c" x="242" y="82" rx="2" ry="2" width="12" height="12"/><rect class="c" x="242" y="98" rx="2" ry="2" width="12" height="12"/><rect class="c" x="258" y="2" rx="2" ry="2" width="12" height="12"/><rect class="c" x="258" y="18" rx="2" ry="2" width="12" height="12"/><rect class="c" x="258" y="34" rx="2" ry="2" width="12" height="12"/><rect class="c" x="258" y="50" rx="2" ry="2" width="12" height="12"/><rect class="c" x="258" y="66" rx="2" ry="2" width="12" height="12"/><rect class="c" x="258" y="82" rx="2" ry="2" width="12" height="12"/><rect class="c" x="258" y="98" rx="2" ry="2" width="12" height="12"/><rect class="c ck" x="274" y="2" rx="2" ry="2" width="12" height="12"/><rect class="c cl" x="274" y="18" rx="2" ry="2" width="12" height="12"/><rect class="c" x="274" y="34" rx="2" ry="2" width="12" height="12"/><rect class="c" x="274" y="50" rx="2" ry="2" width="12" height="12"/><rect class="c" x="274" y="66" rx="2" ry="2" width="12" height="12"/><rect class="c" x="274" y="82" rx="2" ry="2" width="12" height="12"/><rect class="c" x="274" y="98" rx="2" ry="2" width="12" height="12"/><rect class="c" x="290" y="2" rx="2" ry="2" width="12" height="12"/><rect class="c" x="290" y="18" rx="2" ry="2" width="12" height="12"/><rect class="c" x="290" y="34" rx="2" ry="2" width="12" height="12"/><rect class="c" x="290" y="50" rx="2" ry="2" width="12" height="12"/><rect class="c" x="290" y="66" rx="2" ry="2" width="12" height="12"/><rect class="c" x="290" y="82" rx="2" ry="2" width="12" height="12"/><rect class="c" x="290" y="98" rx="2" ry="2" width="12" height="12"/><rect class="c" x="306" y="2" rx="2" ry="2" width="12" height="12"/><rect class="c" x="306" y="18" rx="2" ry="2" width="12" height="12"/><rect class="c" x="306" y="34" rx="2" ry="2" width="12" height="12"/><rect class="c" x="306" y="50" rx="2" ry="2" width="12" height="12"/><rect class="c" x="306" y="66" rx="2" ry="2" width="12" height="12"/><rect class="c" x="306" y="82" rx="2" ry="2" width="12" height="12"/><rect class="c" x="306" y="98" rx="2" ry="2" width="12" height="12"/><rect class="c" x="322" y="2" rx="2" ry="2" width="12" height="12"/><rect class="c" x="322" y="18" rx="2" ry="2" width="12" height="12"/><rect class="c" x="322" y="34" rx="2" ry="2" width="12" height="12"/><rect class="c" x="322" y="50" rx="2" ry="2" width="12" height="12"/><rect class="c" x="322" y="66" rx="2" ry="2" width="12" height="12"/><rect class="c" x="322" y="82" rx="2" ry="2" width="12" height="12"/><rect class="c" x="322" y="98" rx="2" ry="2" width="12" height="12"/><rect class="c" x="338" y="2" rx="2" ry="2" width="12" height="12"/><rect class="c" x="338" y="18" rx="2" ry="2" width="12" height="12"/><rect class="c" x="338" y="34" rx="2" ry="2" width="12" height="12"/><rect class="c" x="338" y="50" rx="2" ry="2" width="12" height="12"/><rect class="c" x="338" y="66" rx="2" ry="2" width="12" height="12"/><rect class="c" x="338" y="82" rx="2" ry="2" width="12" height="12"/><rect class="c" x="338" y="98" rx="2" ry="2" width="12" height="12"/><rect class="c" x="354" y="2" rx="2" ry="2" width="12" height="12"/><rect class="c" x="354" y="18" rx="2" ry="2" width="12" height="12"/><rect class="c" x="354" y="34" rx="2" ry="2" width="12" height="12"/><rect class="c" x="354" y="50" rx="2" ry="2" width="12" height="12"/><rect class="c" x="354" y="66" rx="2" ry="2" width="12" height="12"/><rect class="c" x="354" y="82" rx="2" ry="2" width="12" height="12"/><rect class="c" x="354" y="98" rx="2" ry="2" width="12" height="12"/><rect class="c" x="370" y="2" rx="2" ry="2" width="12" height="12"/><rect class="c" x="370" y="18" rx="2" ry="2" width="12" height="12"/><rect class="c" x="370" y="34" rx="2" ry="2" width="12" height="12"/><rect class="c" x="370" y="50" rx="2" ry="2" width="12" height="12"/><rect class="c" x="370" y="66" rx="2" ry="2" width="12" height="12"/><rect class="c" x="370" y="82" rx="2" ry="2" width="12" height="12"/><rect class="c" x="370" y="98" rx="2" ry="2" width="12" height="12"/><rect class="c" x="386" y="2" rx="2" ry="2" width="12" height="12"/><rect class="c" x="386" y="18" rx="2" ry="2" width="12" height="12"/><rect class="c" x="386" y="34" rx="2" ry="2" width="12" height="12"/><rect class="c" x="386" y="50" rx="2" ry="2" width="12" height="12"/><rect class="c" x="386" y="66" rx="2" ry="2" width="12" height="12"/><rect class="c" x="386" y="82" rx="2" ry="2" width="12" height="12"/><rect class="c" x="386" y="98" rx="2" ry="2" width="12" height="12"/><rect class="c" x="402" y="2" rx="2" ry="2" width="12" height="12"/><rect class="c" x="402" y="18" rx="2" ry="2" width="12" height="12"/><rect class="c" x="402" y="34" rx="2" ry="2" width="12" height="12"/><rect class="c" x="402" y="50" rx="2" ry="2" width="12" height="12"/><rect class="c" x="402" y="66" rx="2" ry="2" width="12" height="12"/><rect class="c" x="402" y="82" rx="2" ry="2" width="12" height="12"/><rect class="c" x="402" y="98" rx="2" ry="2" width="12" height="12"/><rect class="c" x="418" y="2" rx="2" ry="2" width="12" height="12"/><rect class="c" x="418" y="18" rx="2" ry="2" width="12" height="12"/><rect class="c" x="418" y="34" rx="2" ry="2" width="12" height="12"/><rect class="c" x="418" y="50" rx="2" ry="2" width="12" height="12"/><rect class="c" x="418" y="66" rx="2" ry="2" width="12" height="12"/><rect class="c cm" x="418" y="82" rx="2" ry="2" width="12" height="12"/><rect class="c" x="418" y="98" rx="2" ry="2" width="12" height="12"/><rect class="c" x="434" y="2" rx="2" ry="2" width="12" height="12"/><rect class="c" x="434" y="18" rx="2" ry="2" width="12" height="12"/><rect class="c" x="434" y="34" rx="2" ry="2" width="12" height="12"/><rect class="c" x="434" y="50" rx="2" ry="2" width="12" height="12"/><rect class="c" x="434" y="66" rx="2" ry="2" width="12" height="12"/><rect class="c" x="434" y="82" rx="2" ry="2" width="12" height="12"/><rect class="c" x="434" y="98" rx="2" ry="2" width="12" height="12"/><rect class="c" x="450" y="2" rx="2" ry="2" width="12" height="12"/><rect class="c" x="450" y="18" rx="2" ry="2" width="12" height="12"/><rect class="c cn" x="450" y="34" rx="2" ry="2" width="12" height="12"/><rect class="c co" x="450" y="50" rx="2" ry="2" width="12" height="12"/><rect class="c" x="450" y="66" rx="2" ry="2" width="12" height="12"/><rect class="c cp" x="450" y="82" rx="2" ry="2" width="12" height="12"/><rect class="c" x="450" y="98" rx="2" ry="2" width="12" height="12"/><rect class="c cq" x="466" y="2" rx="2" ry="2" width="12" height="12"/><rect class="c" x="466" y="18" rx="2" ry="2" width="12" height="12"/><rect class="c" x="466" y="34" rx="2" ry="2" width="12" height="12"/><rect class="c" x="466" y="50" rx="2" ry="2" width="12" height="12"/><rect class="c" x="466" y="66" rx="2" ry="2" width="12" height="12"/><rect class="c" x="466" y="82" rx="2" ry="2" width="12" height="12"/><rect class="c" x="466" y="98" rx="2" ry="2" width="12" height="12"/><rect class="c" x="482" y="2" rx="2" ry="2" width="12" height="12"/><rect class="c" x="482" y="18" rx="2" ry="2" width="12" height="12"/><rect class="c" x="482" y="34" rx="2" ry="2" width="12" height="12"/><rect class="c" x="482" y="50" rx="2" ry="2" width="12" height="12"/><rect class="c" x="482" y="66" rx="2" ry="2" width="12" height="12"/><rect class="c" x="482" y="82" rx="2" ry="2" width="12" height="12"/><rect class="c" x="482" y="98" rx="2" ry="2" width="12" height="12"/><rect class="c cr" x="498" y="2" rx="2" ry="2" width="12" height="12"/><rect class="c" x="498" y="18" rx="2" ry="2" width="12" height="12"/><rect class="c" x="498" y="34" rx="2" ry="2" width="12" height="12"/><rect class="c" x="498" y="50" rx="2" ry="2" width="12" height="12"/><rect class="c" x="498" y="66" rx="2" ry="2" width="12" height="12"/><rect class="c" x="498" y="82" rx="2" ry="2" width="12" height="12"/><rect class="c" x="498" y="98" rx="2" ry="2" width="12" height="12"/><rect class="c cs" x="514" y="2" rx="2" ry="2" width="12" height="12"/><rect class="c ct" x="514" y="18" rx="2" ry="2" width="12" height="12"/><rect class="c cu" x="514" y="34" rx="2" ry="2" width="12" height="12"/><rect class="c cv" x="514" y="50" rx="2" ry="2" width="12" height="12"/><rect class="c" x="514" y="66" rx="2" ry="2" width="12" height="12"/><rect class="c" x="514" y="82" rx="2" ry="2" width="12" height="12"/><rect class="c" x="514" y="98" rx="2" ry="2" width="12" height="12"/><rect class="c" x="530" y="2" rx="2" ry="2" width="12" height="12"/><rect class="c" x="530" y="18" rx="2" ry="2" width="12" height="12"/><rect class="c" x="530" y="34" rx="2" ry="2" width="12" height="12"/><rect class="c" x="530" y="50" rx="2" ry="2" width="12" height="12"/><rect class="c" x="530" y="66" rx="2" ry="2" width="12" height="12"/><rect class="c cw" x="530" y="82" rx="2" ry="2" width="12" height="12"/><rect class="c cx" x="530" y="98" rx="2" ry="2" width="12" height="12"/><rect class="c cy" x="546" y="2" rx="2" ry="2" width="12" height="12"/><rect class="c" x="546" y="18" rx="2" ry="2" width="12" height="12"/><rect class="c" x="546" y="34" rx="2" ry="2" width="12" height="12"/><rect class="c" x="546" y="50" rx="2" ry="2" width="12" height="12"/><rect class="c" x="546" y="66" rx="2" ry="2" width="12" height="12"/><rect class="c cz" x="546" y="82" rx="2" ry="2" width="12" height="12"/><rect class="c c10" x="546" y="98" rx="2" ry="2" width="12" height="12"/><rect class="c" x="562" y="2" rx="2" ry="2" width="12" height="12"/><rect class="c" x="562" y="18" rx="2" ry="2" width="12" height="12"/><rect class="c" x="562" y="34" rx="2" ry="2" width="12" height="12"/><rect class="c" x="562" y="50" rx="2" ry="2" width="12" height="12"/><rect class="c" x="562" y="66" rx="2" ry="2" width="12" height="12"/><rect class="c" x="562" y="82" rx="2" ry="2" width="12" height="12"/><rect class="c" x="562" y="98" rx="2" ry="2" width="12" height="12"/><rect class="c" x="578" y="2" rx="2" ry="2" width="12" height="12"/><rect class="c" x="578" y="18" rx="2" ry="2" width="12" height="12"/><rect class="c c11" x="578" y="34" rx="2" ry="2" width="12" height="12"/><rect class="c c12" x="578" y="50" rx="2" ry="2" width="12" height="12"/><rect class="c" x="578" y="66" rx="2" ry="2" width="12" height="12"/><rect class="c" x="578" y="82" rx="2" ry="2" width="12" height="12"/><rect class="c c13" x="578" y="98" rx="2" ry="2" width="12" height="12"/><rect class="c c14" x="594" y="2" rx="2" ry="2" width="12" height="12"/><rect class="c c15" x="594" y="18" rx="2" ry="2" width="12" height="12"/><rect class="c" x="594" y="34" rx="2" ry="2" width="12" height="12"/><rect class="c" x="594" y="50" rx="2" ry="2" width="12" height="12"/><rect class="c" x="594" y="66" rx="2" ry="2" width="12" height="12"/><rect class="c c16" x="594" y="82" rx="2" ry="2" width="12" height="12"/><rect class="c c17" x="594" y="98" rx="2" ry="2" width="12" height="12"/><rect class="c" x="610" y="2" rx="2" ry="2" width="12" height="12"/><rect class="c" x="610" y="18" rx="2" ry="2" width="12" height="12"/><rect class="c" x="610" y="34" rx="2" ry="2" width="12" height="12"/><rect class="c" x="610" y="50" rx="2" ry="2" width="12" height="12"/><rect class="c" x="610" y="66" rx="2" ry="2" width="12" height="12"/><rect class="c" x="610" y="82" rx="2" ry="2" width="12" height="12"/><rect class="c c18" x="610" y="98" rx="2" ry="2" width="12" height="12"/><rect class="c" x="626" y="2" rx="2" ry="2" width="12" height="12"/><rect class="c" x="626" y="18" rx="2" ry="2" width="12" height="12"/><rect class="c" x="626" y="34" rx="2" ry="2" width="12" height="12"/><rect class="c" x="626" y="50" rx="2" ry="2" width="12" height="12"/><rect class="c" x="626" y="66" rx="2" ry="2" width="12" height="12"/><rect class="c" x="626" y="82" rx="2" ry="2" width="12" height="12"/><rect class="c" x="626" y="98" rx="2" ry="2" width="12" height="12"/><rect class="c" x="642" y="2" rx="2" ry="2" width="12" height="12"/><rect class="c" x="642" y="18" rx="2" ry="2" width="12" height="12"/><rect class="c" x="642" y="34" rx="2" ry="2" width="12" height="12"/><rect class="c" x="642" y="50" rx="2" ry="2" width="12" height="12"/><rect class="c" x="642" y="66" rx="2" ry="2" width="12" height="12"/><rect class="c" x="642" y="82" rx="2" ry="2" width="12" height="12"/><rect class="c" x="642" y="98" rx="2" ry="2" width="12" height="12"/><rect class="c" x="658" y="2" rx="2" ry="2" width="12" height="12"/><rect class="c" x="658" y="18" rx="2" ry="2" width="12" height="12"/><rect class="c" x="658" y="34" rx="2" ry="2" width="12" height="12"/><rect class="c" x="658" y="50" rx="2" ry="2" width="12" height="12"/><rect class="c" x="658" y="66" rx="2" ry="2" width="12" height="12"/><rect class="c" x="658" y="82" rx="2" ry="2" width="12" height="12"/><rect class="c" x="658" y="98" rx="2" ry="2" width="12" height="12"/><rect class="c" x="674" y="2" rx="2" ry="2" width="12" height="12"/><rect class="c" x="674" y="18" rx="2" ry="2" width="12" height="12"/><rect class="c" x="674" y="34" rx="2" ry="2" width="12" height="12"/><rect class="c" x="674" y="50" rx="2" ry="2" width="12" height="12"/><rect class="c" x="674" y="66" rx="2" ry="2" width="12" height="12"/><rect class="c" x="674" y="82" rx="2" ry="2" width="12" height="12"/><rect class="c" x="674" y="98" rx="2" ry="2" width="12" height="12"/><rect class="c" x="690" y="2" rx="2" ry="2" width="12" height="12"/><rect class="c" x="690" y="18" rx="2" ry="2" width="12" height="12"/><rect class="c" x="690" y="34" rx="2" ry="2" width="12" height="12"/><rect class="c" x="690" y="50" rx="2" ry="2" width="12" height="12"/><rect class="c" x="690" y="66" rx="2" ry="2" width="12" height="12"/><rect class="c c19" x="690" y="82" rx="2" ry="2" width="12" height="12"/><rect class="c" x="690" y="98" rx="2" ry="2" width="12" height="12"/><rect class="c" x="706" y="2" rx="2" ry="2" width="12" height="12"/><rect class="c" x="706" y="18" rx="2" ry="2" width="12" height="12"/><rect class="c" x="706" y="34" rx="2" ry="2" width="12" height="12"/><rect class="c" x="706" y="50" rx="2" ry="2" width="12" height="12"/><rect class="c" x="706" y="66" rx="2" ry="2" width="12" height="12"/><rect class="c" x="706" y="82" rx="2" ry="2" width="12" height="12"/><rect class="c" x="706" y="98" rx="2" ry="2" width="12" height="12"/><rect class="c" x="722" y="2" rx="2" ry="2" width="12" height="12"/><rect class="c" x="722" y="18" rx="2" ry="2" width="12" height="12"/><rect class="c" x="722" y="34" rx="2" ry="2" width="12" height="12"/><rect class="c" x="722" y="50" rx="2" ry="2" width="12" height="12"/><rect class="c" x="722" y="66" rx="2" ry="2" width="12" height="12"/><rect class="c" x="722" y="82" rx="2" ry="2" width="12" height="12"/><rect class="c" x="722" y="98" rx="2" ry="2" width="12" height="12"/><rect class="c" x="738" y="2" rx="2" ry="2" width="12" height="12"/><rect class="c" x="738" y="18" rx="2" ry="2" width="12" height="12"/><rect class="c" x="738" y="34" rx="2" ry="2" width="12" height="12"/><rect class="c" x="738" y="50" rx="2" ry="2" width="12" height="12"/><rect class="c" x="738" y="66" rx="2" ry="2" width="12" height="12"/><rect class="c" x="738" y="82" rx="2" ry="2" width="12" height="12"/><rect class="c" x="738" y="98" rx="2" ry="2" width="12" height="12"/><rect class="c" x="754" y="2" rx="2" ry="2" width="12" height="12"/><rect class="c" x="754" y="18" rx="2" ry="2" width="12" height="12"/><rect class="c" x="754" y="34" rx="2" ry="2" width="12" height="12"/><rect class="c" x="754" y="50" rx="2" ry="2" width="12" height="12"/><rect class="c" x="754" y="66" rx="2" ry="2" width="12" height="12"/><rect class="c" x="754" y="82" rx="2" ry="2" width="12" height="12"/><rect class="c" x="754" y="98" rx="2" ry="2" width="12" height="12"/><rect class="c" x="770" y="2" rx="2" ry="2" width="12" height="12"/><rect class="c" x="770" y="18" rx="2" ry="2" width="12" height="12"/><rect class="c" x="770" y="34" rx="2" ry="2" width="12" height="12"/><rect class="c" x="770" y="50" rx="2" ry="2" width="12" height="12"/><rect class="c" x="770" y="66" rx="2" ry="2" width="12" height="12"/><rect class="c" x="770" y="82" rx="2" ry="2" width="12" height="12"/><rect class="c" x="770" y="98" rx="2" ry="2" width="12" height="12"/><rect class="c" x="786" y="2" rx="2" ry="2" width="12" height="12"/><rect class="c" x="786" y="18" rx="2" ry="2" width="12" height="12"/><rect class="c c1a" x="786" y="34" rx="2" ry="2" width="12" height="12"/><rect class="c" x="786" y="50" rx="2" ry="2" width="12" height="12"/><rect class="c" x="786" y="66" rx="2" ry="2" width="12" height="12"/><rect class="c" x="786" y="82" rx="2" ry="2" width="12" height="12"/><rect class="c" x="786" y="98" rx="2" ry="2" width="12" height="12"/><rect class="c" x="802" y="2" rx="2" ry="2" width="12" height="12"/><rect class="c" x="802" y="18" rx="2" ry="2" width="12" height="12"/><rect class="c" x="802" y="34" rx="2" ry="2" width="12" height="12"/><rect class="c" x="802" y="50" rx="2" ry="2" width="12" height="12"/><rect class="c" x="802" y="66" rx="2" ry="2" width="12" height="12"/><rect class="c" x="802" y="82" rx="2" ry="2" width="12" height="12"/><rect class="c c1b" x="802" y="98" rx="2" ry="2" width="12" height="12"/><rect class="c" x="818" y="2" rx="2" ry="2" width="12" height="12"/><rect class="c c1c" x="818" y="18" rx="2" ry="2" width="12" height="12"/><rect class="c" x="818" y="34" rx="2" ry="2" width="12" height="12"/><rect class="c" x="818" y="50" rx="2" ry="2" width="12" height="12"/><rect class="c" x="818" y="66" rx="2" ry="2" width="12" height="12"/><rect class="c" x="818" y="82" rx="2" ry="2" width="12" height="12"/><rect class="c" x="818" y="98" rx="2" ry="2" width="12" height="12"/><rect class="c c1d" x="834" y="2" rx="2" ry="2" width="12" height="12"/><rect class="c c1e" x="834" y="18" rx="2" ry="2" width="12" height="12"/><rect class="c" x="834" y="34" rx="2" ry="2" width="12" height="12"/><rect class="u u0" height="12" width="366.4" x="0.0" y="144"/><rect class="u u1" height="12" width="250.0" x="365.8" y="144"/><rect class="u u2" height="12" width="67.1" x="615.2" y="144"/><rect class="u u3" height="12" width="166.9" x="681.7" y="144"/><rect class="s s0" x="0.8" y="0.8" width="14.4" height="14.4" rx="4.5" ry="4.5"/><rect class="s s1" x="1.8" y="1.8" width="12.3" height="12.3" rx="4.1" ry="4.1"/><rect class="s s2" x="2.6" y="2.6" width="10.8" height="10.8" rx="3.6" ry="3.6"/><rect class="s s3" x="3.0" y="3.0" width="9.9" height="9.9" rx="3.3" ry="3.3"/></svg>