<svg viewBox="-16 -32 880 192" width="880" height="192" xmlns="http://www.w3.org/2000/svg"><desc>Generated with https://github.com/Platane/snk</desc><style>:root{--cb:#1b1f230a;--cs:orange;--ce:#bfd6f6;--c0:#bfd6f6;--c1:#8dbdff;--c2:#64a1f4;--c3:#4b91f1;--c4:#3c7dd9}.c{shape-rendering:geometricPrecision;fill:var(--ce);stroke-width:1px;stroke:var(--cb);animation:none 32500ms linear infinite;width:12px;height:12px}@keyframes c0{71.68%{fill:var(--c3)}71.7%,100%{fill:var(--ce)}}.c.c0{fill:var(--c3);animation-name:c0}@keyframes c1{1.22%{fill:var(--c1)}1.24%,100%{fill:var(--ce)}}.c.c1{fill:var(--c1);animation-name:c1}@keyframes c2{1.53%{fill:var(--c1)}1.55%,100%{fill:var(--ce)}}.c.c2{fill:var(--c1);animation-name:c2}@keyframes c3{1.84%{fill:var(--c1)}1.86%,100%{fill:var(--ce)}}.c.c3{fill:var(--c1);animation-name:c3}@keyframes c4{2.14%{fill:var(--c1)}2.16%,100%{fill:var(--ce)}}.c.c4{fill:var(--c1);animation-name:c4}@keyframes c5{2.45%{fill:var(--c1)}2.47%,100%{fill:var(--ce)}}.c.c5{fill:var(--c1);animation-name:c5}@keyframes c6{2.76%{fill:var(--c1)}2.78%,100%{fill:var(--ce)}}.c.c6{fill:var(--c1);animation-name:c6}@keyframes c7{38.76%{fill:var(--c2)}38.78%,100%{fill:var(--ce)}}.c.c7{fill:var(--c2);animation-name:c7}@keyframes c8{3.99%{fill:var(--c1)}4.01%,100%{fill:var(--ce)}}.c.c8{fill:var(--c1);animation-name:c8}@keyframes c9{4.3%{fill:var(--c1)}4.32%,100%{fill:var(--ce)}}.c.c9{fill:var(--c1);animation-name:c9}@keyframes ca{4.61%{fill:var(--c1)}4.63%,100%{fill:var(--ce)}}.c.ca{fill:var(--c1);animation-name:ca}@keyframes cb{4.91%{fill:var(--c1)}4.93%,100%{fill:var(--ce)}}.c.cb{fill:var(--c1);animation-name:cb}@keyframes cc{5.22%{fill:var(--c1)}5.24%,100%{fill:var(--ce)}}.c.cc{fill:var(--c1);animation-name:cc}@keyframes cd{5.53%{fill:var(--c1)}5.55%,100%{fill:var(--ce)}}.c.cd{fill:var(--c1);animation-name:cd}@keyframes ce{5.84%{fill:var(--c1)}5.86%,100%{fill:var(--ce)}}.c.ce{fill:var(--c1);animation-name:ce}@keyframes cf{6.14%{fill:var(--c1)}6.16%,100%{fill:var(--ce)}}.c.cf{fill:var(--c1);animation-name:cf}@keyframes cg{6.45%{fill:var(--c1)}6.47%,100%{fill:var(--ce)}}.c.cg{fill:var(--c1);animation-name:cg}@keyframes ch{6.76%{fill:var(--c1)}6.78%,100%{fill:var(--ce)}}.c.ch{fill:var(--c1);animation-name:ch}@keyframes ci{7.07%{fill:var(--c1)}7.09%,100%{fill:var(--ce)}}.c.ci{fill:var(--c1);animation-name:ci}@keyframes cj{33.84%{fill:var(--c1)}33.86%,100%{fill:var(--ce)}}.c.cj{fill:var(--c1);animation-name:cj}@keyframes ck{7.37%{fill:var(--c1)}7.39%,100%{fill:var(--ce)}}.c.ck{fill:var(--c1);animation-name:ck}@keyframes cl{7.68%{fill:var(--c1)}7.7%,100%{fill:var(--ce)}}.c.cl{fill:var(--c1);animation-name:cl}@keyframes cm{7.99%{fill:var(--c1)}8.01%,100%{fill:var(--ce)}}.c.cm{fill:var(--c1);animation-name:cm}@keyframes cn{8.3%{fill:var(--c1)}8.32%,100%{fill:var(--ce)}}.c.cn{fill:var(--c1);animation-name:cn}@keyframes co{8.61%{fill:var(--c1)}8.63%,100%{fill:var(--ce)}}.c.co{fill:var(--c1);animation-name:co}@keyframes cp{8.91%{fill:var(--c1)}8.93%,100%{fill:var(--ce)}}.c.cp{fill:var(--c1);animation-name:cp}@keyframes cq{9.22%{fill:var(--c1)}9.24%,100%{fill:var(--ce)}}.c.cq{fill:var(--c1);animation-name:cq}@keyframes cr{9.53%{fill:var(--c1)}9.55%,100%{fill:var(--ce)}}.c.cr{fill:var(--c1);animation-name:cr}@keyframes cs{9.84%{fill:var(--c1)}9.86%,100%{fill:var(--ce)}}.c.cs{fill:var(--c1);animation-name:cs}@keyframes ct{10.14%{fill:var(--c1)}10.16%,100%{fill:var(--ce)}}.c.ct{fill:var(--c1);animation-name:ct}@keyframes cu{10.45%{fill:var(--c1)}10.47%,100%{fill:var(--ce)}}.c.cu{fill:var(--c1);animation-name:cu}@keyframes cv{10.76%{fill:var(--c1)}10.78%,100%{fill:var(--ce)}}.c.cv{fill:var(--c1);animation-name:cv}@keyframes cw{11.07%{fill:var(--c1)}11.09%,100%{fill:var(--ce)}}.c.cw{fill:var(--c1);animation-name:cw}@keyframes cx{11.37%{fill:var(--c1)}11.39%,100%{fill:var(--ce)}}.c.cx{fill:var(--c1);animation-name:cx}@keyframes cy{11.99%{fill:var(--c1)}12.01%,100%{fill:var(--ce)}}.c.cy{fill:var(--c1);animation-name:cy}@keyframes cz{12.3%{fill:var(--c1)}12.32%,100%{fill:var(--ce)}}.c.cz{fill:var(--c1);animation-name:cz}@keyframes c10{12.61%{fill:var(--c1)}12.63%,100%{fill:var(--ce)}}.c.c10{fill:var(--c1);animation-name:c10}@keyframes c11{12.91%{fill:var(--c1)}12.93%,100%{fill:var(--ce)}}.c.c11{fill:var(--c1);animation-name:c11}@keyframes c12{26.76%{fill:var(--c1)}26.78%,100%{fill:var(--ce)}}.c.c12{fill:var(--c1);animation-name:c12}@keyframes c13{49.22%{fill:var(--c2)}49.24%,100%{fill:var(--ce)}}.c.c13{fill:var(--c2);animation-name:c13}@keyframes c14{49.53%{fill:var(--c2)}49.55%,100%{fill:var(--ce)}}.c.c14{fill:var(--c2);animation-name:c14}@keyframes c15{13.22%{fill:var(--c1)}13.24%,100%{fill:var(--ce)}}.c.c15{fill:var(--c1);animation-name:c15}@keyframes c16{24.91%{fill:var(--c1)}24.93%,100%{fill:var(--ce)}}.c.c16{fill:var(--c1);animation-name:c16}@keyframes c17{13.53%{fill:var(--c1)}13.55%,100%{fill:var(--ce)}}.c.c17{fill:var(--c1);animation-name:c17}@keyframes c18{58.14%{fill:var(--c3)}58.16%,100%{fill:var(--ce)}}.c.c18{fill:var(--c3);animation-name:c18}@keyframes c19{13.84%{fill:var(--c1)}13.86%,100%{fill:var(--ce)}}.c.c19{fill:var(--c1);animation-name:c19}@keyframes c1a{14.14%{fill:var(--c1)}14.16%,100%{fill:var(--ce)}}.c.c1a{fill:var(--c1);animation-name:c1a}@keyframes c1b{22.14%{fill:var(--c1)}22.16%,100%{fill:var(--ce)}}.c.c1b{fill:var(--c1);animation-name:c1b}@keyframes c1c{14.45%{fill:var(--c1)}14.47%,100%{fill:var(--ce)}}.c.c1c{fill:var(--c1);animation-name:c1c}@keyframes c1d{23.68%{fill:var(--c1)}23.7%,100%{fill:var(--ce)}}.c.c1d{fill:var(--c1);animation-name:c1d}@keyframes c1e{14.76%{fill:var(--c1)}14.78%,100%{fill:var(--ce)}}.c.c1e{fill:var(--c1);animation-name:c1e}@keyframes c1f{85.53%{fill:var(--c4)}85.55%,100%{fill:var(--ce)}}.c.c1f{fill:var(--c4);animation-name:c1f}@keyframes c1g{15.07%{fill:var(--c1)}15.09%,100%{fill:var(--ce)}}.c.c1g{fill:var(--c1);animation-name:c1g}@keyframes c1h{16.3%{fill:var(--c1)}16.32%,100%{fill:var(--ce)}}.c.c1h{fill:var(--c1);animation-name:c1h}@keyframes c1i{54.45%{fill:var(--c3)}54.47%,100%{fill:var(--ce)}}.c.c1i{fill:var(--c3);animation-name:c1i}@keyframes c1j{54.14%{fill:var(--c2)}54.16%,100%{fill:var(--ce)}}.c.c1j{fill:var(--c2);animation-name:c1j}@keyframes c1k{18.14%{fill:var(--c1)}18.16%,100%{fill:var(--ce)}}.c.c1k{fill:var(--c1);animation-name:c1k}.u{transform-origin:0 0;transform:scale(0,1);animation:none linear 32500ms infinite}@keyframes u0{1.22%{transform:scale(0.000,1)}1.24%,1.53%{transform:scale(0.020,1)}1.55%,1.84%{transform:scale(0.041,1)}1.86%,2.14%{transform:scale(0.061,1)}2.16%,2.45%{transform:scale(0.082,1)}2.47%,2.76%{transform:scale(0.102,1)}2.78%,3.99%{transform:scale(0.122,1)}4.01%,4.3%{transform:scale(0.143,1)}4.32%,4.61%{transform:scale(0.163,1)}4.63%,4.91%{transform:scale(0.184,1)}4.93%,5.22%{transform:scale(0.204,1)}5.24%,5.53%{transform:scale(0.224,1)}5.55%,5.84%{transform:scale(0.245,1)}5.86%,6.14%{transform:scale(0.265,1)}6.16%,6.45%{transform:scale(0.286,1)}6.47%,6.76%{transform:scale(0.306,1)}6.78%,7.07%{transform:scale(0.327,1)}7.09%,7.37%{transform:scale(0.347,1)}7.39%,7.68%{transform:scale(0.367,1)}7.7%,7.99%{transform:scale(0.388,1)}8.01%,8.3%{transform:scale(0.408,1)}8.32%,8.61%{transform:scale(0.429,1)}8.63%,8.91%{transform:scale(0.449,1)}8.93%,9.22%{transform:scale(0.469,1)}9.24%,9.53%{transform:scale(0.490,1)}9.55%,9.84%{transform:scale(0.510,1)}9.86%,10.14%{transform:scale(0.531,1)}10.16%,10.45%{transform:scale(0.551,1)}10.47%,10.76%{transform:scale(0.571,1)}10.78%,11.07%{transform:scale(0.592,1)}11.09%,11.37%{transform:scale(0.612,1)}11.39%,11.99%{transform:scale(0.633,1)}12.01%,12.3%{transform:scale(0.653,1)}12.32%,12.61%{transform:scale(0.673,1)}12.63%,12.91%{transform:scale(0.694,1)}12.93%,13.22%{transform:scale(0.714,1)}13.24%,13.53%{transform:scale(0.735,1)}13.55%,13.84%{transform:scale(0.755,1)}13.86%,14.14%{transform:scale(0.776,1)}14.16%,14.45%{transform:scale(0.796,1)}14.47%,14.76%{transform:scale(0.816,1)}14.78%,15.07%{transform:scale(0.837,1)}15.09%,16.3%{transform:scale(0.857,1)}16.32%,18.14%{transform:scale(0.878,1)}18.16%,22.14%{transform:scale(0.898,1)}22.16%,23.68%{transform:scale(0.918,1)}23.7%,24.91%{transform:scale(0.939,1)}24.93%,26.76%{transform:scale(0.959,1)}26.78%,33.84%{transform:scale(0.980,1)}33.86%,100%{transform:scale(1.000,1)}}.u.u0{fill:var(--c1);animation-name:u0;transform-origin:0.0px 0}@keyframes u1{38.76%{transform:scale(0.000,1)}38.78%,49.22%{transform:scale(0.250,1)}49.24%,49.53%{transform:scale(0.500,1)}49.55%,54.14%{transform:scale(0.750,1)}54.16%,100%{transform:scale(1.000,1)}}.u.u1{fill:var(--c2);animation-name:u1;transform-origin:729.0px 0}@keyframes u2{54.45%{transform:scale(0.000,1)}54.47%,58.14%{transform:scale(0.333,1)}58.16%,71.68%{transform:scale(0.667,1)}71.7%,100%{transform:scale(1.000,1)}}.u.u2{fill:var(--c3);animation-name:u2;transform-origin:788.5px 0}@keyframes u3{85.53%{transform:scale(0.000,1)}85.55%,100%{transform:scale(1.000,1)}}.u.u3{fill:var(--c4);animation-name:u3;transform-origin:833.1px 0}.s{shape-rendering:geometricPrecision;fill:var(--cs);animation:none linear 32500ms infinite}@keyframes s0{0%,99.69%{transform:translate(0px,-16px)}0.31%{transform:translate(0px,-32px)}0.62%{transform:translate(16px,-32px)}1.23%{transform:translate(16px,0px)}2.77%{transform:translate(96px,0px)}3.08%{transform:translate(96px,-16px)}3.69%{transform:translate(128px,-16px)}4%{transform:translate(128px,0px)}16%{transform:translate(752px,0px)}16.31%{transform:translate(752px,16px)}17.85%{transform:translate(832px,16px)}18.15%{transform:translate(832px,0px)}21.54%{transform:translate(656px,0px)}22.15%{transform:translate(656px,32px)}22.46%{transform:translate(672px,32px)}23.69%{transform:translate(672px,96px)}24.92%{transform:translate(608px,96px)}26.46%{transform:translate(608px,16px)}32.62%{transform:translate(288px,16px)}33.85%{transform:translate(288px,80px)}34.15%{transform:translate(272px,80px)}35.69%{transform:translate(272px,0px)}38.77%{transform:translate(112px,0px)}39.08%{transform:translate(112px,16px)}48.31%{transform:translate(592px,16px)}49.54%{transform:translate(592px,80px)}49.85%,58.46%{transform:translate(608px,80px)}50.15%{transform:translate(608px,64px)}53.54%{transform:translate(784px,64px)}54.15%{transform:translate(784px,32px)}55.69%{transform:translate(704px,32px)}56%{transform:translate(704px,48px)}57.54%{transform:translate(624px,48px)}58.15%{transform:translate(624px,80px)}60%{transform:translate(608px,0px)}71.69%{transform:translate(0px,0px)}72%{transform:translate(0px,16px)}85.23%{transform:translate(688px,16px)}85.54%{transform:translate(688px,32px)}97.85%{transform:translate(48px,32px)}98.77%{transform:translate(48px,-16px)}}.s.s0{transform:translate(0px,-16px);animation-name:s0}@keyframes s1{0%,99.69%{transform:translate(16px,-16px)}0.31%{transform:translate(0px,-16px)}0.62%{transform:translate(0px,-32px)}0.92%{transform:translate(16px,-32px)}1.54%{transform:translate(16px,0px)}3.08%{transform:translate(96px,0px)}3.38%{transform:translate(96px,-16px)}4%{transform:translate(128px,-16px)}4.31%{transform:translate(128px,0px)}16.31%{transform:translate(752px,0px)}16.62%{transform:translate(752px,16px)}18.15%{transform:translate(832px,16px)}18.46%{transform:translate(832px,0px)}21.85%{transform:translate(656px,0px)}22.46%{transform:translate(656px,32px)}22.77%{transform:translate(672px,32px)}24%{transform:translate(672px,96px)}25.23%{transform:translate(608px,96px)}26.77%{transform:translate(608px,16px)}32.92%{transform:translate(288px,16px)}34.15%{transform:translate(288px,80px)}34.46%{transform:translate(272px,80px)}36%{transform:translate(272px,0px)}39.08%{transform:translate(112px,0px)}39.38%{transform:translate(112px,16px)}48.62%{transform:translate(592px,16px)}49.85%{transform:translate(592px,80px)}50.15%,58.77%{transform:translate(608px,80px)}50.46%{transform:translate(608px,64px)}53.85%{transform:translate(784px,64px)}54.46%{transform:translate(784px,32px)}56%{transform:translate(704px,32px)}56.31%{transform:translate(704px,48px)}57.85%{transform:translate(624px,48px)}58.46%{transform:translate(624px,80px)}60.31%{transform:translate(608px,0px)}72%{transform:translate(0px,0px)}72.31%{transform:translate(0px,16px)}85.54%{transform:translate(688px,16px)}85.85%{transform:translate(688px,32px)}98.15%{transform:translate(48px,32px)}99.08%{transform:translate(48px,-16px)}}.s.s1{transform:translate(16px,-16px);animation-name:s1}@keyframes s2{0%,99.69%{transform:translate(32px,-16px)}0.62%{transform:translate(0px,-16px)}0.92%{transform:translate(0px,-32px)}1.23%{transform:translate(16px,-32px)}1.85%{transform:translate(16px,0px)}3.38%{transform:translate(96px,0px)}3.69%{transform:translate(96px,-16px)}4.31%{transform:translate(128px,-16px)}4.62%{transform:translate(128px,0px)}16.62%{transform:translate(752px,0px)}16.92%{transform:translate(752px,16px)}18.46%{transform:translate(832px,16px)}18.77%{transform:translate(832px,0px)}22.15%{transform:translate(656px,0px)}22.77%{transform:translate(656px,32px)}23.08%{transform:translate(672px,32px)}24.31%{transform:translate(672px,96px)}25.54%{transform:translate(608px,96px)}27.08%{transform:translate(608px,16px)}33.23%{transform:translate(288px,16px)}34.46%{transform:translate(288px,80px)}34.77%{transform:translate(272px,80px)}36.31%{transform:translate(272px,0px)}39.38%{transform:translate(112px,0px)}39.69%{transform:translate(112px,16px)}48.92%{transform:translate(592px,16px)}50.15%{transform:translate(592px,80px)}50.46%,59.08%{transform:translate(608px,80px)}50.77%{transform:translate(608px,64px)}54.15%{transform:translate(784px,64px)}54.77%{transform:translate(784px,32px)}56.31%{transform:translate(704px,32px)}56.62%{transform:translate(704px,48px)}58.15%{transform:translate(624px,48px)}58.77%{transform:translate(624px,80px)}60.62%{transform:translate(608px,0px)}72.31%{transform:translate(0px,0px)}72.62%{transform:translate(0px,16px)}85.85%{transform:translate(688px,16px)}86.15%{transform:translate(688px,32px)}98.46%{transform:translate(48px,32px)}99.38%{transform:translate(48px,-16px)}}.s.s2{transform:translate(32px,-16px);animation-name:s2}@keyframes s3{0%,99.69%{transform:translate(48px,-16px)}0.92%{transform:translate(0px,-16px)}1.23%{transform:translate(0px,-32px)}1.54%{transform:translate(16px,-32px)}2.15%{transform:translate(16px,0px)}3.69%{transform:translate(96px,0px)}4%{transform:translate(96px,-16px)}4.62%{transform:translate(128px,-16px)}4.92%{transform:translate(128px,0px)}16.92%{transform:translate(752px,0px)}17.23%{transform:translate(752px,16px)}18.77%{transform:translate(832px,16px)}19.08%{transform:translate(832px,0px)}22.46%{transform:translate(656px,0px)}23.08%{transform:translate(656px,32px)}23.38%{transform:translate(672px,32px)}24.62%{transform:translate(672px,96px)}25.85%{transform:translate(608px,96px)}27.38%{transform:translate(608px,16px)}33.54%{transform:translate(288px,16px)}34.77%{transform:translate(288px,80px)}35.08%{transform:translate(272px,80px)}36.62%{transform:translate(272px,0px)}39.69%{transform:translate(112px,0px)}40%{transform:translate(112px,16px)}49.23%{transform:translate(592px,16px)}50.46%{transform:translate(592px,80px)}50.77%,59.38%{transform:translate(608px,80px)}51.08%{transform:translate(608px,64px)}54.46%{transform:translate(784px,64px)}55.08%{transform:translate(784px,32px)}56.62%{transform:translate(704px,32px)}56.92%{transform:translate(704px,48px)}58.46%{transform:translate(624px,48px)}59.08%{transform:translate(624px,80px)}60.92%{transform:translate(608px,0px)}72.62%{transform:translate(0px,0px)}72.92%{transform:translate(0px,16px)}86.15%{transform:translate(688px,16px)}86.46%{transform:translate(688px,32px)}98.77%{transform:translate(48px,32px)}}.s.s3{transform:translate(48px,-16px);animation-name:s3}</style><rect class="c c0" x="2" y="2" rx="2" ry="2"/><rect class="c" x="2" y="18" rx="2" ry="2"/><rect class="c" x="2" y="34" rx="2" ry="2"/><rect class="c" x="2" y="50" rx="2" ry="2"/><rect class="c" x="2" y="66" rx="2" ry="2"/><rect class="c" x="2" y="82" rx="2" ry="2"/><rect class="c" x="2" y="98" rx="2" ry="2"/><rect class="c c1" x="18" y="2" rx="2" ry="2"/><rect class="c" x="18" y="18" rx="2" ry="2"/><rect class="c" x="18" y="34" rx="2" ry="2"/><rect class="c" x="18" y="50" rx="2" ry="2"/><rect class="c" x="18" y="66" rx="2" ry="2"/><rect class="c" x="18" y="82" rx="2" ry="2"/><rect class="c" x="18" y="98" rx="2" ry="2"/><rect class="c c2" x="34" y="2" rx="2" ry="2"/><rect class="c" x="34" y="18" rx="2" ry="2"/><rect class="c" x="34" y="34" rx="2" ry="2"/><rect class="c" x="34" y="50" rx="2" ry="2"/><rect class="c" x="34" y="66" rx="2" ry="2"/><rect class="c" x="34" y="82" rx="2" ry="2"/><rect class="c" x="34" y="98" rx="2" ry="2"/><rect class="c c3" x="50" y="2" rx="2" ry="2"/><rect class="c" x="50" y="18" rx="2" ry="2"/><rect class="c" x="50" y="34" rx="2" ry="2"/><rect class="c" x="50" y="50" rx="2" ry="2"/><rect class="c" x="50" y="66" rx="2" ry="2"/><rect class="c" x="50" y="82" rx="2" ry="2"/><rect class="c" x="50" y="98" rx="2" ry="2"/><rect class="c c4" x="66" y="2" rx="2" ry="2"/><rect class="c" x="66" y="18" rx="2" ry="2"/><rect class="c" x="66" y="34" rx="2" ry="2"/><rect class="c" x="66" y="50" rx="2" ry="2"/><rect class="c" x="66" y="66" rx="2" ry="2"/><rect class="c" x="66" y="82" rx="2" ry="2"/><rect class="c" x="66" y="98" rx="2" ry="2"/><rect class="c c5" x="82" y="2" rx="2" ry="2"/><rect class="c" x="82" y="18" rx="2" ry="2"/><rect class="c" x="82" y="34" rx="2" ry="2"/><rect class="c" x="82" y="50" rx="2" ry="2"/><rect class="c" x="82" y="66" rx="2" ry="2"/><rect class="c" x="82" y="82" rx="2" ry="2"/><rect class="c" x="82" y="98" rx="2" ry="2"/><rect class="c c6" x="98" y="2" rx="2" ry="2"/><rect class="c" x="98" y="18" rx="2" ry="2"/><rect class="c" x="98" y="34" rx="2" ry="2"/><rect class="c" x="98" y="50" rx="2" ry="2"/><rect class="c" x="98" y="66" rx="2" ry="2"/><rect class="c" x="98" y="82" rx="2" ry="2"/><rect class="c" x="98" y="98" rx="2" ry="2"/><rect class="c c7" x="114" y="2" rx="2" ry="2"/><rect class="c" x="114" y="18" rx="2" ry="2"/><rect class="c" x="114" y="34" rx="2" ry="2"/><rect class="c" x="114" y="50" rx="2" ry="2"/><rect class="c" x="114" y="66" rx="2" ry="2"/><rect class="c" x="114" y="82" rx="2" ry="2"/><rect class="c" x="114" y="98" rx="2" ry="2"/><rect class="c c8" x="130" y="2" rx="2" ry="2"/><rect class="c" x="130" y="18" rx="2" ry="2"/><rect class="c" x="130" y="34" rx="2" ry="2"/><rect class="c" x="130" y="50" rx="2" ry="2"/><rect class="c" x="130" y="66" rx="2" ry="2"/><rect class="c" x="130" y="82" rx="2" ry="2"/><rect class="c" x="130" y="98" rx="2" ry="2"/><rect class="c c9" x="146" y="2" rx="2" ry="2"/><rect class="c" x="146" y="18" rx="2" ry="2"/><rect class="c" x="146" y="34" rx="2" ry="2"/><rect class="c" x="146" y="50" rx="2" ry="2"/><rect class="c" x="146" y="66" rx="2" ry="2"/><rect class="c" x="146" y="82" rx="2" ry="2"/><rect class="c" x="146" y="98" rx="2" ry="2"/><rect class="c ca" x="162" y="2" rx="2" ry="2"/><rect class="c" x="162" y="18" rx="2" ry="2"/><rect class="c" x="162" y="34" rx="2" ry="2"/><rect class="c" x="162" y="50" rx="2" ry="2"/><rect class="c" x="162" y="66" rx="2" ry="2"/><rect class="c" x="162" y="82" rx="2" ry="2"/><rect class="c" x="162" y="98" rx="2" ry="2"/><rect class="c cb" x="178" y="2" rx="2" ry="2"/><rect class="c" x="178" y="18" rx="2" ry="2"/><rect class="c" x="178" y="34" rx="2" ry="2"/><rect class="c" x="178" y="50" rx="2" ry="2"/><rect class="c" x="178" y="66" rx="2" ry="2"/><rect class="c" x="178" y="82" rx="2" ry="2"/><rect class="c" x="178" y="98" rx="2" ry="2"/><rect class="c cc" x="194" y="2" rx="2" ry="2"/><rect class="c" x="194" y="18" rx="2" ry="2"/><rect class="c" x="194" y="34" rx="2" ry="2"/><rect class="c" x="194" y="50" rx="2" ry="2"/><rect class="c" x="194" y="66" rx="2" ry="2"/><rect class="c" x="194" y="82" rx="2" ry="2"/><rect class="c" x="194" y="98" rx="2" ry="2"/><rect class="c cd" x="210" y="2" rx="2" ry="2"/><rect class="c" x="210" y="18" rx="2" ry="2"/><rect class="c" x="210" y="34" rx="2" ry="2"/><rect class="c" x="210" y="50" rx="2" ry="2"/><rect class="c" x="210" y="66" rx="2" ry="2"/><rect class="c" x="210" y="82" rx="2" ry="2"/><rect class="c" x="210" y="98" rx="2" ry="2"/><rect class="c ce" x="226" y="2" rx="2" ry="2"/><rect class="c" x="226" y="18" rx="2" ry="2"/><rect class="c" x="226" y="34" rx="2" ry="2"/><rect class="c" x="226" y="50" rx="2" ry="2"/><rect class="c" x="226" y="66" rx="2" ry="2"/><rect class="c" x="226" y="82" rx="2" ry="2"/><rect class="c" x="226" y="98" rx="2" ry="2"/><rect class="c cf" x="242" y="2" rx="2" ry="2"/><rect class="c" x="242" y="18" rx="2" ry="2"/><rect class="c" x="242" y="34" rx="2" ry="2"/><rect class="c" x="242" y="50" rx="2" ry="2"/><rect class="c" x="242" y="66" rx="2" ry="2"/><rect class="c" x="242" y="82" rx="2" ry="2"/><rect class="c" x="242" y="98" rx="2" ry="2"/><rect class="c cg" x="258" y="2" rx="2" ry="2"/><rect class="c" x="258" y="18" rx="2" ry="2"/><rect class="c" x="258" y="34" rx="2" ry="2"/><rect class="c" x="258" y="50" rx="2" ry="2"/><rect class="c" x="258" y="66" rx="2" ry="2"/><rect class="c" x="258" y="82" rx="2" ry="2"/><rect class="c" x="258" y="98" rx="2" ry="2"/><rect class="c ch" x="274" y="2" rx="2" ry="2"/><rect class="c" x="274" y="18" rx="2" ry="2"/><rect class="c" x="274" y="34" rx="2" ry="2"/><rect class="c" x="274" y="50" rx="2" ry="2"/><rect class="c" x="274" y="66" rx="2" ry="2"/><rect class="c" x="274" y="82" rx="2" ry="2"/><rect class="c" x="274" y="98" rx="2" ry="2"/><rect class="c ci" x="290" y="2" rx="2" ry="2"/><rect class="c" x="290" y="18" rx="2" ry="2"/><rect class="c" x="290" y="34" rx="2" ry="2"/><rect class="c" x="290" y="50" rx="2" ry="2"/><rect class="c" x="290" y="66" rx="2" ry="2"/><rect class="c cj" x="290" y="82" rx="2" ry="2"/><rect class="c" x="290" y="98" rx="2" ry="2"/><rect class="c ck" x="306" y="2" rx="2" ry="2"/><rect class="c" x="306" y="18" rx="2" ry="2"/><rect class="c" x="306" y="34" rx="2" ry="2"/><rect class="c" x="306" y="50" rx="2" ry="2"/><rect class="c" x="306" y="66" rx="2" ry="2"/><rect class="c" x="306" y="82" rx="2" ry="2"/><rect class="c" x="306" y="98" rx="2" ry="2"/><rect class="c cl" x="322" y="2" rx="2" ry="2"/><rect class="c" x="322" y="18" rx="2" ry="2"/><rect class="c" x="322" y="34" rx="2" ry="2"/><rect class="c" x="322" y="50" rx="2" ry="2"/><rect class="c" x="322" y="66" rx="2" ry="2"/><rect class="c" x="322" y="82" rx="2" ry="2"/><rect class="c" x="322" y="98" rx="2" ry="2"/><rect class="c cm" x="338" y="2" rx="2" ry="2"/><rect class="c" x="338" y="18" rx="2" ry="2"/><rect class="c" x="338" y="34" rx="2" ry="2"/><rect class="c" x="338" y="50" rx="2" ry="2"/><rect class="c" x="338" y="66" rx="2" ry="2"/><rect class="c" x="338" y="82" rx="2" ry="2"/><rect class="c" x="338" y="98" rx="2" ry="2"/><rect class="c cn" x="354" y="2" rx="2" ry="2"/><rect class="c" x="354" y="18" rx="2" ry="2"/><rect class="c" x="354" y="34" rx="2" ry="2"/><rect class="c" x="354" y="50" rx="2" ry="2"/><rect class="c" x="354" y="66" rx="2" ry="2"/><rect class="c" x="354" y="82" rx="2" ry="2"/><rect class="c" x="354" y="98" rx="2" ry="2"/><rect class="c co" x="370" y="2" rx="2" ry="2"/><rect class="c" x="370" y="18" rx="2" ry="2"/><rect class="c" x="370" y="34" rx="2" ry="2"/><rect class="c" x="370" y="50" rx="2" ry="2"/><rect class="c" x="370" y="66" rx="2" ry="2"/><rect class="c" x="370" y="82" rx="2" ry="2"/><rect class="c" x="370" y="98" rx="2" ry="2"/><rect class="c cp" x="386" y="2" rx="2" ry="2"/><rect class="c" x="386" y="18" rx="2" ry="2"/><rect class="c" x="386" y="34" rx="2" ry="2"/><rect class="c" x="386" y="50" rx="2" ry="2"/><rect class="c" x="386" y="66" rx="2" ry="2"/><rect class="c" x="386" y="82" rx="2" ry="2"/><rect class="c" x="386" y="98" rx="2" ry="2"/><rect class="c cq" x="402" y="2" rx="2" ry="2"/><rect class="c" x="402" y="18" rx="2" ry="2"/><rect class="c" x="402" y="34" rx="2" ry="2"/><rect class="c" x="402" y="50" rx="2" ry="2"/><rect class="c" x="402" y="66" rx="2" ry="2"/><rect class="c" x="402" y="82" rx="2" ry="2"/><rect class="c" x="402" y="98" rx="2" ry="2"/><rect class="c cr" x="418" y="2" rx="2" ry="2"/><rect class="c" x="418" y="18" rx="2" ry="2"/><rect class="c" x="418" y="34" rx="2" ry="2"/><rect class="c" x="418" y="50" rx="2" ry="2"/><rect class="c" x="418" y="66" rx="2" ry="2"/><rect class="c" x="418" y="82" rx="2" ry="2"/><rect class="c" x="418" y="98" rx="2" ry="2"/><rect class="c cs" x="434" y="2" rx="2" ry="2"/><rect class="c" x="434" y="18" rx="2" ry="2"/><rect class="c" x="434" y="34" rx="2" ry="2"/><rect class="c" x="434" y="50" rx="2" ry="2"/><rect class="c" x="434" y="66" rx="2" ry="2"/><rect class="c" x="434" y="82" rx="2" ry="2"/><rect class="c" x="434" y="98" rx="2" ry="2"/><rect class="c ct" x="450" y="2" rx="2" ry="2"/><rect class="c" x="450" y="18" rx="2" ry="2"/><rect class="c" x="450" y="34" rx="2" ry="2"/><rect class="c" x="450" y="50" rx="2" ry="2"/><rect class="c" x="450" y="66" rx="2" ry="2"/><rect class="c" x="450" y="82" rx="2" ry="2"/><rect class="c" x="450" y="98" rx="2" ry="2"/><rect class="c cu" x="466" y="2" rx="2" ry="2"/><rect class="c" x="466" y="18" rx="2" ry="2"/><rect class="c" x="466" y="34" rx="2" ry="2"/><rect class="c" x="466" y="50" rx="2" ry="2"/><rect class="c" x="466" y="66" rx="2" ry="2"/><rect class="c" x="466" y="82" rx="2" ry="2"/><rect class="c" x="466" y="98" rx="2" ry="2"/><rect class="c cv" x="482" y="2" rx="2" ry="2"/><rect class="c" x="482" y="18" rx="2" ry="2"/><rect class="c" x="482" y="34" rx="2" ry="2"/><rect class="c" x="482" y="50" rx="2" ry="2"/><rect class="c" x="482" y="66" rx="2" ry="2"/><rect class="c" x="482" y="82" rx="2" ry="2"/><rect class="c" x="482" y="98" rx="2" ry="2"/><rect class="c cw" x="498" y="2" rx="2" ry="2"/><rect class="c" x="498" y="18" rx="2" ry="2"/><rect class="c" x="498" y="34" rx="2" ry="2"/><rect class="c" x="498" y="50" rx="2" ry="2"/><rect class="c" x="498" y="66" rx="2" ry="2"/><rect class="c" x="498" y="82" rx="2" ry="2"/><rect class="c" x="498" y="98" rx="2" ry="2"/><rect class="c cx" x="514" y="2" rx="2" ry="2"/><rect class="c" x="514" y="18" rx="2" ry="2"/><rect class="c" x="514" y="34" rx="2" ry="2"/><rect class="c" x="514" y="50" rx="2" ry="2"/><rect class="c" x="514" y="66" rx="2" ry="2"/><rect class="c" x="514" y="82" rx="2" ry="2"/><rect class="c" x="514" y="98" rx="2" ry="2"/><rect class="c" x="530" y="2" rx="2" ry="2"/><rect class="c" x="530" y="18" rx="2" ry="2"/><rect class="c" x="530" y="34" rx="2" ry="2"/><rect class="c" x="530" y="50" rx="2" ry="2"/><rect class="c" x="530" y="66" rx="2" ry="2"/><rect class="c" x="530" y="82" rx="2" ry="2"/><rect class="c" x="530" y="98" rx="2" ry="2"/><rect class="c cy" x="546" y="2" rx="2" ry="2"/><rect class="c" x="546" y="18" rx="2" ry="2"/><rect class="c" x="546" y="34" rx="2" ry="2"/><rect class="c" x="546" y="50" rx="2" ry="2"/><rect class="c" x="546" y="66" rx="2" ry="2"/><rect class="c" x="546" y="82" rx="2" ry="2"/><rect class="c" x="546" y="98" rx="2" ry="2"/><rect class="c cz" x="562" y="2" rx="2" ry="2"/><rect class="c" x="562" y="18" rx="2" ry="2"/><rect class="c" x="562" y="34" rx="2" ry="2"/><rect class="c" x="562" y="50" rx="2" ry="2"/><rect class="c" x="562" y="66" rx="2" ry="2"/><rect class="c" x="562" y="82" rx="2" ry="2"/><rect class="c" x="562" y="98" rx="2" ry="2"/><rect class="c c10" x="578" y="2" rx="2" ry="2"/><rect class="c" x="578" y="18" rx="2" ry="2"/><rect class="c" x="578" y="34" rx="2" ry="2"/><rect class="c" x="578" y="50" rx="2" ry="2"/><rect class="c" x="578" y="66" rx="2" ry="2"/><rect class="c" x="578" y="82" rx="2" ry="2"/><rect class="c" x="578" y="98" rx="2" ry="2"/><rect class="c c11" x="594" y="2" rx="2" ry="2"/><rect class="c c12" x="594" y="18" rx="2" ry="2"/><rect class="c" x="594" y="34" rx="2" ry="2"/><rect class="c" x="594" y="50" rx="2" ry="2"/><rect class="c c13" x="594" y="66" rx="2" ry="2"/><rect class="c c14" x="594" y="82" rx="2" ry="2"/><rect class="c" x="594" y="98" rx="2" ry="2"/><rect class="c c15" x="610" y="2" rx="2" ry="2"/><rect class="c" x="610" y="18" rx="2" ry="2"/><rect class="c" x="610" y="34" rx="2" ry="2"/><rect class="c" x="610" y="50" rx="2" ry="2"/><rect class="c" x="610" y="66" rx="2" ry="2"/><rect class="c" x="610" y="82" rx="2" ry="2"/><rect class="c c16" x="610" y="98" rx="2" ry="2"/><rect class="c c17" x="626" y="2" rx="2" ry="2"/><rect class="c" x="626" y="18" rx="2" ry="2"/><rect class="c" x="626" y="34" rx="2" ry="2"/><rect class="c" x="626" y="50" rx="2" ry="2"/><rect class="c" x="626" y="66" rx="2" ry="2"/><rect class="c c18" x="626" y="82" rx="2" ry="2"/><rect class="c" x="626" y="98" rx="2" ry="2"/><rect class="c c19" x="642" y="2" rx="2" ry="2"/><rect class="c" x="642" y="18" rx="2" ry="2"/><rect class="c" x="642" y="34" rx="2" ry="2"/><rect class="c" x="642" y="50" rx="2" ry="2"/><rect class="c" x="642" y="66" rx="2" ry="2"/><rect class="c" x="642" y="82" rx="2" ry="2"/><rect class="c" x="642" y="98" rx="2" ry="2"/><rect class="c c1a" x="658" y="2" rx="2" ry="2"/><rect class="c" x="658" y="18" rx="2" ry="2"/><rect class="c c1b" x="658" y="34" rx="2" ry="2"/><rect class="c" x="658" y="50" rx="2" ry="2"/><rect class="c" x="658" y="66" rx="2" ry="2"/><rect class="c" x="658" y="82" rx="2" ry="2"/><rect class="c" x="658" y="98" rx="2" ry="2"/><rect class="c c1c" x="674" y="2" rx="2" ry="2"/><rect class="c" x="674" y="18" rx="2" ry="2"/><rect class="c" x="674" y="34" rx="2" ry="2"/><rect class="c" x="674" y="50" rx="2" ry="2"/><rect class="c" x="674" y="66" rx="2" ry="2"/><rect class="c" x="674" y="82" rx="2" ry="2"/><rect class="c c1d" x="674" y="98" rx="2" ry="2"/><rect class="c c1e" x="690" y="2" rx="2" ry="2"/><rect class="c" x="690" y="18" rx="2" ry="2"/><rect class="c c1f" x="690" y="34" rx="2" ry="2"/><rect class="c" x="690" y="50" rx="2" ry="2"/><rect class="c" x="690" y="66" rx="2" ry="2"/><rect class="c" x="690" y="82" rx="2" ry="2"/><rect class="c" x="690" y="98" rx="2" ry="2"/><rect class="c c1g" x="706" y="2" rx="2" ry="2"/><rect class="c" x="706" y="18" rx="2" ry="2"/><rect class="c" x="706" y="34" rx="2" ry="2"/><rect class="c" x="706" y="50" rx="2" ry="2"/><rect class="c" x="706" y="66" rx="2" ry="2"/><rect class="c" x="706" y="82" rx="2" ry="2"/><rect class="c" x="706" y="98" rx="2" ry="2"/><rect class="c" x="722" y="2" rx="2" ry="2"/><rect class="c" x="722" y="18" rx="2" ry="2"/><rect class="c" x="722" y="34" rx="2" ry="2"/><rect class="c" x="722" y="50" rx="2" ry="2"/><rect class="c" x="722" y="66" rx="2" ry="2"/><rect class="c" x="722" y="82" rx="2" ry="2"/><rect class="c" x="722" y="98" rx="2" ry="2"/><rect class="c" x="738" y="2" rx="2" ry="2"/><rect class="c" x="738" y="18" rx="2" ry="2"/><rect class="c" x="738" y="34" rx="2" ry="2"/><rect class="c" x="738" y="50" rx="2" ry="2"/><rect class="c" x="738" y="66" rx="2" ry="2"/><rect class="c" x="738" y="82" rx="2" ry="2"/><rect class="c" x="738" y="98" rx="2" ry="2"/><rect class="c" x="754" y="2" rx="2" ry="2"/><rect class="c c1h" x="754" y="18" rx="2" ry="2"/><rect class="c" x="754" y="34" rx="2" ry="2"/><rect class="c" x="754" y="50" rx="2" ry="2"/><rect class="c" x="754" y="66" rx="2" ry="2"/><rect class="c" x="754" y="82" rx="2" ry="2"/><rect class="c" x="754" y="98" rx="2" ry="2"/><rect class="c" x="770" y="2" rx="2" ry="2"/><rect class="c" x="770" y="18" rx="2" ry="2"/><rect class="c c1i" x="770" y="34" rx="2" ry="2"/><rect class="c" x="770" y="50" rx="2" ry="2"/><rect class="c" x="770" y="66" rx="2" ry="2"/><rect class="c" x="770" y="82" rx="2" ry="2"/><rect class="c" x="770" y="98" rx="2" ry="2"/><rect class="c" x="786" y="2" rx="2" ry="2"/><rect class="c" x="786" y="18" rx="2" ry="2"/><rect class="c c1j" x="786" y="34" rx="2" ry="2"/><rect class="c" x="786" y="50" rx="2" ry="2"/><rect class="c" x="786" y="66" rx="2" ry="2"/><rect class="c" x="786" y="82" rx="2" ry="2"/><rect class="c" x="786" y="98" rx="2" ry="2"/><rect class="c" x="802" y="2" rx="2" ry="2"/><rect class="c" x="802" y="18" rx="2" ry="2"/><rect class="c" x="802" y="34" rx="2" ry="2"/><rect class="c" x="802" y="50" rx="2" ry="2"/><rect class="c" x="802" y="66" rx="2" ry="2"/><rect class="c" x="802" y="82" rx="2" ry="2"/><rect class="c" x="802" y="98" rx="2" ry="2"/><rect class="c" x="818" y="2" rx="2" ry="2"/><rect class="c" x="818" y="18" rx="2" ry="2"/><rect class="c" x="818" y="34" rx="2" ry="2"/><rect class="c" x="818" y="50" rx="2" ry="2"/><rect class="c" x="818" y="66" rx="2" ry="2"/><rect class="c" x="818" y="82" rx="2" ry="2"/><rect class="c" x="818" y="98" rx="2" ry="2"/><rect class="c c1k" x="834" y="2" rx="2" ry="2"/><rect class="c" x="834" y="18" rx="2" ry="2"/><rect class="u u0" height="12" width="729.6" x="0.0" y="144"/><rect class="u u1" height="12" width="60.1" x="729.0" y="144"/><rect class="u u2" height="12" width="45.2" x="788.5" y="144"/><rect class="u u3" height="12" width="15.5" x="833.1" y="144"/><rect class="s s0" x="0.8" y="0.8" width="14.4" height="14.4" rx="4.5" ry="4.5"/><rect class="s s1" x="1.8" y="1.8" width="12.3" height="12.3" rx="4.1" ry="4.1"/><rect class="s s2" x="2.6" y="2.6" width="10.8" height="10.8" rx="3.6" ry="3.6"/><rect class="s s3" x="3.0" y="3.0" width="9.9" height="9.9" rx="3.3" ry="3.3"/></svg>