<svg viewBox="-16 -32 880 192" width="880" height="192" xmlns="http://www.w3.org/2000/svg"><desc>Generated with https://github.com/Platane/snk</desc><style>:root{--cb:#1b1f230a;--cs:orange;--ce:#bfd6f6;--c0:#bfd6f6;--c1:#8dbdff;--c2:#64a1f4;--c3:#4b91f1;--c4:#3c7dd9}.c{shape-rendering:geometricPrecision;fill:var(--ce);stroke-width:1px;stroke:var(--cb);animation:none 46300ms linear infinite;width:12px;height:12px}@keyframes c0{81.42%{fill:var(--c4)}81.44%,100%{fill:var(--ce)}}.c.c0{fill:var(--c4);animation-name:c0}@keyframes c1{29.36%{fill:var(--c1)}29.38%,100%{fill:var(--ce)}}.c.c1{fill:var(--c1);animation-name:c1}@keyframes c2{29.58%{fill:var(--c1)}29.6%,100%{fill:var(--ce)}}.c.c2{fill:var(--c1);animation-name:c2}@keyframes c3{30.23%{fill:var(--c1)}30.25%,100%{fill:var(--ce)}}.c.c3{fill:var(--c1);animation-name:c3}@keyframes c4{30.44%{fill:var(--c1)}30.46%,100%{fill:var(--ce)}}.c.c4{fill:var(--c1);animation-name:c4}@keyframes c5{31.09%{fill:var(--c1)}31.11%,100%{fill:var(--ce)}}.c.c5{fill:var(--c1);animation-name:c5}@keyframes c6{31.31%{fill:var(--c1)}31.33%,100%{fill:var(--ce)}}.c.c6{fill:var(--c1);animation-name:c6}@keyframes c7{0.85%{fill:var(--c1)}0.87%,100%{fill:var(--ce)}}.c.c7{fill:var(--c1);animation-name:c7}@keyframes c8{29.15%{fill:var(--c1)}29.17%,100%{fill:var(--ce)}}.c.c8{fill:var(--c1);animation-name:c8}@keyframes c9{29.8%{fill:var(--c1)}29.82%,100%{fill:var(--ce)}}.c.c9{fill:var(--c1);animation-name:c9}@keyframes ca{30.01%{fill:var(--c1)}30.03%,100%{fill:var(--ce)}}.c.ca{fill:var(--c1);animation-name:ca}@keyframes cb{30.66%{fill:var(--c1)}30.68%,100%{fill:var(--ce)}}.c.cb{fill:var(--c1);animation-name:cb}@keyframes cc{30.88%{fill:var(--c1)}30.9%,100%{fill:var(--ce)}}.c.cc{fill:var(--c1);animation-name:cc}@keyframes cd{31.52%{fill:var(--c1)}31.54%,100%{fill:var(--ce)}}.c.cd{fill:var(--c1);animation-name:cd}@keyframes ce{1.07%{fill:var(--c1)}1.09%,100%{fill:var(--ce)}}.c.ce{fill:var(--c1);animation-name:ce}@keyframes cf{1.29%{fill:var(--c1)}1.31%,100%{fill:var(--ce)}}.c.cf{fill:var(--c1);animation-name:cf}@keyframes cg{1.5%{fill:var(--c1)}1.52%,100%{fill:var(--ce)}}.c.cg{fill:var(--c1);animation-name:cg}@keyframes ch{1.72%{fill:var(--c1)}1.74%,100%{fill:var(--ce)}}.c.ch{fill:var(--c1);animation-name:ch}@keyframes ci{1.93%{fill:var(--c1)}1.95%,100%{fill:var(--ce)}}.c.ci{fill:var(--c1);animation-name:ci}@keyframes cj{2.15%{fill:var(--c1)}2.17%,100%{fill:var(--ce)}}.c.cj{fill:var(--c1);animation-name:cj}@keyframes ck{2.37%{fill:var(--c1)}2.39%,100%{fill:var(--ce)}}.c.ck{fill:var(--c1);animation-name:ck}@keyframes cl{2.58%{fill:var(--c1)}2.6%,100%{fill:var(--ce)}}.c.cl{fill:var(--c1);animation-name:cl}@keyframes cm{2.8%{fill:var(--c1)}2.82%,100%{fill:var(--ce)}}.c.cm{fill:var(--c1);animation-name:cm}@keyframes cn{3.01%{fill:var(--c1)}3.03%,100%{fill:var(--ce)}}.c.cn{fill:var(--c1);animation-name:cn}@keyframes co{3.23%{fill:var(--c1)}3.25%,100%{fill:var(--ce)}}.c.co{fill:var(--c1);animation-name:co}@keyframes cp{77.1%{fill:var(--c4)}77.12%,100%{fill:var(--ce)}}.c.cp{fill:var(--c4);animation-name:cp}@keyframes cq{72.13%{fill:var(--c3)}72.15%,100%{fill:var(--ce)}}.c.cq{fill:var(--c3);animation-name:cq}@keyframes cr{40.81%{fill:var(--c2)}40.83%,100%{fill:var(--ce)}}.c.cr{fill:var(--c2);animation-name:cr}@keyframes cs{71.7%{fill:var(--c3)}71.72%,100%{fill:var(--ce)}}.c.cs{fill:var(--c3);animation-name:cs}@keyframes ct{41.67%{fill:var(--c2)}41.69%,100%{fill:var(--ce)}}.c.ct{fill:var(--c2);animation-name:ct}@keyframes cu{77.74%{fill:var(--c4)}77.76%,100%{fill:var(--ce)}}.c.cu{fill:var(--c4);animation-name:cu}@keyframes cv{49.02%{fill:var(--c2)}49.04%,100%{fill:var(--ce)}}.c.cv{fill:var(--c2);animation-name:cv}@keyframes cw{72.34%{fill:var(--c3)}72.36%,100%{fill:var(--ce)}}.c.cw{fill:var(--c3);animation-name:cw}@keyframes cx{4.31%{fill:var(--c1)}4.33%,100%{fill:var(--ce)}}.c.cx{fill:var(--c1);animation-name:cx}@keyframes cy{4.53%{fill:var(--c1)}4.55%,100%{fill:var(--ce)}}.c.cy{fill:var(--c1);animation-name:cy}@keyframes cz{25.04%{fill:var(--c1)}25.06%,100%{fill:var(--ce)}}.c.cz{fill:var(--c1);animation-name:cz}@keyframes c10{74.07%{fill:var(--c4)}74.09%,100%{fill:var(--ce)}}.c.c10{fill:var(--c4);animation-name:c10}@keyframes c11{42.32%{fill:var(--c2)}42.34%,100%{fill:var(--ce)}}.c.c11{fill:var(--c2);animation-name:c11}@keyframes c12{69.32%{fill:var(--c3)}69.34%,100%{fill:var(--ce)}}.c.c12{fill:var(--c3);animation-name:c12}@keyframes c13{74.72%{fill:var(--c4)}74.74%,100%{fill:var(--ce)}}.c.c13{fill:var(--c4);animation-name:c13}@keyframes c14{4.74%{fill:var(--c1)}4.76%,100%{fill:var(--ce)}}.c.c14{fill:var(--c1);animation-name:c14}@keyframes c15{39.95%{fill:var(--c2)}39.97%,100%{fill:var(--ce)}}.c.c15{fill:var(--c2);animation-name:c15}@keyframes c16{68.67%{fill:var(--c3)}68.69%,100%{fill:var(--ce)}}.c.c16{fill:var(--c3);animation-name:c16}@keyframes c17{38.22%{fill:var(--c1)}38.24%,100%{fill:var(--ce)}}.c.c17{fill:var(--c1);animation-name:c17}@keyframes c18{42.97%{fill:var(--c2)}42.99%,100%{fill:var(--ce)}}.c.c18{fill:var(--c2);animation-name:c18}@keyframes c19{43.19%{fill:var(--c2)}43.21%,100%{fill:var(--ce)}}.c.c19{fill:var(--c2);animation-name:c19}@keyframes c1a{73.21%{fill:var(--c4)}73.23%,100%{fill:var(--ce)}}.c.c1a{fill:var(--c4);animation-name:c1a}@keyframes c1b{37.57%{fill:var(--c1)}37.59%,100%{fill:var(--ce)}}.c.c1b{fill:var(--c1);animation-name:c1b}@keyframes c1c{38.65%{fill:var(--c1)}38.67%,100%{fill:var(--ce)}}.c.c1c{fill:var(--c1);animation-name:c1c}@keyframes c1d{43.4%{fill:var(--c2)}43.42%,100%{fill:var(--ce)}}.c.c1d{fill:var(--c2);animation-name:c1d}@keyframes c1e{5.61%{fill:var(--c1)}5.63%,100%{fill:var(--ce)}}.c.c1e{fill:var(--c1);animation-name:c1e}@keyframes c1f{37.36%{fill:var(--c2)}37.38%,100%{fill:var(--ce)}}.c.c1f{fill:var(--c2);animation-name:c1f}@keyframes c1g{39.3%{fill:var(--c2)}39.32%,100%{fill:var(--ce)}}.c.c1g{fill:var(--c2);animation-name:c1g}@keyframes c1h{39.08%{fill:var(--c2)}39.1%,100%{fill:var(--ce)}}.c.c1h{fill:var(--c2);animation-name:c1h}@keyframes c1i{69.97%{fill:var(--c3)}69.99%,100%{fill:var(--ce)}}.c.c1i{fill:var(--c3);animation-name:c1i}@keyframes c1j{43.83%{fill:var(--c2)}43.85%,100%{fill:var(--ce)}}.c.c1j{fill:var(--c2);animation-name:c1j}@keyframes c1k{75.58%{fill:var(--c4)}75.6%,100%{fill:var(--ce)}}.c.c1k{fill:var(--c4);animation-name:c1k}@keyframes c1l{5.82%{fill:var(--c1)}5.84%,100%{fill:var(--ce)}}.c.c1l{fill:var(--c1);animation-name:c1l}@keyframes c1m{6.04%{fill:var(--c1)}6.06%,100%{fill:var(--ce)}}.c.c1m{fill:var(--c1);animation-name:c1m}@keyframes c1n{6.25%{fill:var(--c1)}6.27%,100%{fill:var(--ce)}}.c.c1n{fill:var(--c1);animation-name:c1n}@keyframes c1o{21.8%{fill:var(--c1)}21.82%,100%{fill:var(--ce)}}.c.c1o{fill:var(--c1);animation-name:c1o}@keyframes c1p{6.47%{fill:var(--c1)}6.49%,100%{fill:var(--ce)}}.c.c1p{fill:var(--c1);animation-name:c1p}@keyframes c1q{6.69%{fill:var(--c1)}6.71%,100%{fill:var(--ce)}}.c.c1q{fill:var(--c1);animation-name:c1q}@keyframes c1r{6.9%{fill:var(--c1)}6.92%,100%{fill:var(--ce)}}.c.c1r{fill:var(--c1);animation-name:c1r}@keyframes c1s{7.12%{fill:var(--c1)}7.14%,100%{fill:var(--ce)}}.c.c1s{fill:var(--c1);animation-name:c1s}@keyframes c1t{45.56%{fill:var(--c2)}45.58%,100%{fill:var(--ce)}}.c.c1t{fill:var(--c2);animation-name:c1t}@keyframes c1u{7.33%{fill:var(--c1)}7.35%,100%{fill:var(--ce)}}.c.c1u{fill:var(--c1);animation-name:c1u}@keyframes c1v{65.86%{fill:var(--c3)}65.88%,100%{fill:var(--ce)}}.c.c1v{fill:var(--c3);animation-name:c1v}@keyframes c1w{8.2%{fill:var(--c1)}8.22%,100%{fill:var(--ce)}}.c.c1w{fill:var(--c1);animation-name:c1w}@keyframes c1x{8.41%{fill:var(--c1)}8.43%,100%{fill:var(--ce)}}.c.c1x{fill:var(--c1);animation-name:c1x}@keyframes c1y{8.63%{fill:var(--c1)}8.65%,100%{fill:var(--ce)}}.c.c1y{fill:var(--c1);animation-name:c1y}@keyframes c1z{8.85%{fill:var(--c1)}8.87%,100%{fill:var(--ce)}}.c.c1z{fill:var(--c1);animation-name:c1z}@keyframes c20{9.06%{fill:var(--c1)}9.08%,100%{fill:var(--ce)}}.c.c20{fill:var(--c1);animation-name:c20}@keyframes c21{9.28%{fill:var(--c1)}9.3%,100%{fill:var(--ce)}}.c.c21{fill:var(--c1);animation-name:c21}@keyframes c22{9.49%{fill:var(--c1)}9.51%,100%{fill:var(--ce)}}.c.c22{fill:var(--c1);animation-name:c22}@keyframes c23{9.71%{fill:var(--c1)}9.73%,100%{fill:var(--ce)}}.c.c23{fill:var(--c1);animation-name:c23}@keyframes c24{9.93%{fill:var(--c1)}9.95%,100%{fill:var(--ce)}}.c.c24{fill:var(--c1);animation-name:c24}@keyframes c25{10.14%{fill:var(--c1)}10.16%,100%{fill:var(--ce)}}.c.c25{fill:var(--c1);animation-name:c25}@keyframes c26{17.7%{fill:var(--c1)}17.72%,100%{fill:var(--ce)}}.c.c26{fill:var(--c1);animation-name:c26}@keyframes c27{10.36%{fill:var(--c1)}10.38%,100%{fill:var(--ce)}}.c.c27{fill:var(--c1);animation-name:c27}@keyframes c28{55.71%{fill:var(--c2)}55.73%,100%{fill:var(--ce)}}.c.c28{fill:var(--c2);animation-name:c28}@keyframes c29{90.49%{fill:var(--c4)}90.51%,100%{fill:var(--ce)}}.c.c29{fill:var(--c4);animation-name:c29}@keyframes c2a{10.57%{fill:var(--c1)}10.59%,100%{fill:var(--ce)}}.c.c2a{fill:var(--c1);animation-name:c2a}@keyframes c2b{10.79%{fill:var(--c1)}10.81%,100%{fill:var(--ce)}}.c.c2b{fill:var(--c1);animation-name:c2b}@keyframes c2c{11.01%{fill:var(--c1)}11.03%,100%{fill:var(--ce)}}.c.c2c{fill:var(--c1);animation-name:c2c}@keyframes c2d{11.22%{fill:var(--c1)}11.24%,100%{fill:var(--ce)}}.c.c2d{fill:var(--c1);animation-name:c2d}@keyframes c2e{11.44%{fill:var(--c1)}11.46%,100%{fill:var(--ce)}}.c.c2e{fill:var(--c1);animation-name:c2e}@keyframes c2f{11.65%{fill:var(--c1)}11.67%,100%{fill:var(--ce)}}.c.c2f{fill:var(--c1);animation-name:c2f}@keyframes c2g{11.87%{fill:var(--c1)}11.89%,100%{fill:var(--ce)}}.c.c2g{fill:var(--c1);animation-name:c2g}@keyframes c2h{15.54%{fill:var(--c1)}15.56%,100%{fill:var(--ce)}}.c.c2h{fill:var(--c1);animation-name:c2h}@keyframes c2i{12.09%{fill:var(--c1)}12.11%,100%{fill:var(--ce)}}.c.c2i{fill:var(--c1);animation-name:c2i}@keyframes c2j{12.3%{fill:var(--c1)}12.32%,100%{fill:var(--ce)}}.c.c2j{fill:var(--c1);animation-name:c2j}@keyframes c2k{60.9%{fill:var(--c3)}60.92%,100%{fill:var(--ce)}}.c.c2k{fill:var(--c3);animation-name:c2k}@keyframes c2l{12.52%{fill:var(--c1)}12.54%,100%{fill:var(--ce)}}.c.c2l{fill:var(--c1);animation-name:c2l}@keyframes c2m{12.73%{fill:var(--c1)}12.75%,100%{fill:var(--ce)}}.c.c2m{fill:var(--c1);animation-name:c2m}@keyframes c2n{58.31%{fill:var(--c2)}58.33%,100%{fill:var(--ce)}}.c.c2n{fill:var(--c2);animation-name:c2n}@keyframes c2o{58.09%{fill:var(--c2)}58.11%,100%{fill:var(--ce)}}.c.c2o{fill:var(--c2);animation-name:c2o}@keyframes c2p{60.03%{fill:var(--c3)}60.05%,100%{fill:var(--ce)}}.c.c2p{fill:var(--c3);animation-name:c2p}@keyframes c2q{12.95%{fill:var(--c1)}12.97%,100%{fill:var(--ce)}}.c.c2q{fill:var(--c1);animation-name:c2q}@keyframes c2r{58.95%{fill:var(--c2)}58.97%,100%{fill:var(--ce)}}.c.c2r{fill:var(--c2);animation-name:c2r}@keyframes c2s{59.6%{fill:var(--c2)}59.62%,100%{fill:var(--ce)}}.c.c2s{fill:var(--c2);animation-name:c2s}.u{transform-origin:0 0;transform:scale(0,1);animation:none linear 46300ms infinite}@keyframes u0{0.85%{transform:scale(0.000,1)}0.87%,1.07%{transform:scale(0.016,1)}1.09%,1.29%{transform:scale(0.032,1)}1.31%,1.5%{transform:scale(0.048,1)}1.52%,1.72%{transform:scale(0.063,1)}1.74%,1.93%{transform:scale(0.079,1)}1.95%,2.15%{transform:scale(0.095,1)}2.17%,2.37%{transform:scale(0.111,1)}2.39%,2.58%{transform:scale(0.127,1)}2.6%,2.8%{transform:scale(0.143,1)}2.82%,3.01%{transform:scale(0.159,1)}3.03%,3.23%{transform:scale(0.175,1)}3.25%,4.31%{transform:scale(0.190,1)}4.33%,4.53%{transform:scale(0.206,1)}4.55%,4.74%{transform:scale(0.222,1)}4.76%,5.61%{transform:scale(0.238,1)}5.63%,5.82%{transform:scale(0.254,1)}5.84%,6.04%{transform:scale(0.270,1)}6.06%,6.25%{transform:scale(0.286,1)}6.27%,6.47%{transform:scale(0.302,1)}6.49%,6.69%{transform:scale(0.317,1)}6.71%,6.9%{transform:scale(0.333,1)}6.92%,7.12%{transform:scale(0.349,1)}7.14%,7.33%{transform:scale(0.365,1)}7.35%,8.2%{transform:scale(0.381,1)}8.22%,8.41%{transform:scale(0.397,1)}8.43%,8.63%{transform:scale(0.413,1)}8.65%,8.85%{transform:scale(0.429,1)}8.87%,9.06%{transform:scale(0.444,1)}9.08%,9.28%{transform:scale(0.460,1)}9.3%,9.49%{transform:scale(0.476,1)}9.51%,9.71%{transform:scale(0.492,1)}9.73%,9.93%{transform:scale(0.508,1)}9.95%,10.14%{transform:scale(0.524,1)}10.16%,10.36%{transform:scale(0.540,1)}10.38%,10.57%{transform:scale(0.556,1)}10.59%,10.79%{transform:scale(0.571,1)}10.81%,11.01%{transform:scale(0.587,1)}11.03%,11.22%{transform:scale(0.603,1)}11.24%,11.44%{transform:scale(0.619,1)}11.46%,11.65%{transform:scale(0.635,1)}11.67%,11.87%{transform:scale(0.651,1)}11.89%,12.09%{transform:scale(0.667,1)}12.11%,12.3%{transform:scale(0.683,1)}12.32%,12.52%{transform:scale(0.698,1)}12.54%,12.73%{transform:scale(0.714,1)}12.75%,12.95%{transform:scale(0.730,1)}12.97%,15.54%{transform:scale(0.746,1)}15.56%,17.7%{transform:scale(0.762,1)}17.72%,21.8%{transform:scale(0.778,1)}21.82%,25.04%{transform:scale(0.794,1)}25.06%,29.15%{transform:scale(0.810,1)}29.17%,29.36%{transform:scale(0.825,1)}29.38%,29.58%{transform:scale(0.841,1)}29.6%,29.8%{transform:scale(0.857,1)}29.82%,30.01%{transform:scale(0.873,1)}30.03%,30.23%{transform:scale(0.889,1)}30.25%,30.44%{transform:scale(0.905,1)}30.46%,30.66%{transform:scale(0.921,1)}30.68%,30.88%{transform:scale(0.937,1)}30.9%,31.09%{transform:scale(0.952,1)}31.11%,31.31%{transform:scale(0.968,1)}31.33%,31.52%{transform:scale(0.984,1)}31.54%,100%{transform:scale(1.000,1)}}.u.u0{fill:var(--c1);animation-name:u0;transform-origin:0.0px 0}@keyframes u1{37.36%{transform:scale(0.000,1)}37.38%,100%{transform:scale(1.000,1)}}.u.u1{fill:var(--c2);animation-name:u1;transform-origin:529.0px 0}@keyframes u2{37.57%{transform:scale(0.000,1)}37.59%,38.22%{transform:scale(0.333,1)}38.24%,38.65%{transform:scale(0.667,1)}38.67%,100%{transform:scale(1.000,1)}}.u.u2{fill:var(--c1);animation-name:u2;transform-origin:537.3px 0}@keyframes u3{39.08%{transform:scale(0.000,1)}39.1%,39.3%{transform:scale(0.059,1)}39.32%,39.95%{transform:scale(0.118,1)}39.97%,40.81%{transform:scale(0.176,1)}40.83%,41.67%{transform:scale(0.235,1)}41.69%,42.32%{transform:scale(0.294,1)}42.34%,42.97%{transform:scale(0.353,1)}42.99%,43.19%{transform:scale(0.412,1)}43.21%,43.4%{transform:scale(0.471,1)}43.42%,43.83%{transform:scale(0.529,1)}43.85%,45.56%{transform:scale(0.588,1)}45.58%,49.02%{transform:scale(0.647,1)}49.04%,55.71%{transform:scale(0.706,1)}55.73%,58.09%{transform:scale(0.765,1)}58.11%,58.31%{transform:scale(0.824,1)}58.33%,58.95%{transform:scale(0.882,1)}58.97%,59.6%{transform:scale(0.941,1)}59.62%,100%{transform:scale(1.000,1)}}.u.u3{fill:var(--c2);animation-name:u3;transform-origin:562.5px 0}@keyframes u4{60.03%{transform:scale(0.000,1)}60.05%,60.9%{transform:scale(0.111,1)}60.92%,65.86%{transform:scale(0.222,1)}65.88%,68.67%{transform:scale(0.333,1)}68.69%,69.32%{transform:scale(0.444,1)}69.34%,69.97%{transform:scale(0.556,1)}69.99%,71.7%{transform:scale(0.667,1)}71.72%,72.13%{transform:scale(0.778,1)}72.15%,72.34%{transform:scale(0.889,1)}72.36%,100%{transform:scale(1.000,1)}}.u.u4{fill:var(--c3);animation-name:u4;transform-origin:705.3px 0}@keyframes u5{73.21%{transform:scale(0.000,1)}73.23%,74.07%{transform:scale(0.125,1)}74.09%,74.72%{transform:scale(0.250,1)}74.74%,75.58%{transform:scale(0.375,1)}75.6%,77.1%{transform:scale(0.500,1)}77.12%,77.74%{transform:scale(0.625,1)}77.76%,81.42%{transform:scale(0.750,1)}81.44%,90.49%{transform:scale(0.875,1)}90.51%,100%{transform:scale(1.000,1)}}.u.u5{fill:var(--c4);animation-name:u5;transform-origin:780.8px 0}.s{shape-rendering:geometricPrecision;fill:var(--cs);animation:none linear 46300ms infinite}@keyframes s0{0%,99.78%{transform:translate(0px,-16px)}0.22%{transform:translate(0px,-32px)}0.43%{transform:translate(16px,-32px)}0.86%{transform:translate(16px,0px)}3.24%{transform:translate(192px,0px)}3.46%{transform:translate(192px,-16px)}4.1%,25.7%{transform:translate(240px,-16px)}4.32%{transform:translate(240px,0px)}4.75%{transform:translate(272px,0px)}4.97%{transform:translate(272px,-16px)}5.4%,36.93%{transform:translate(304px,-16px)}5.62%,67.82%{transform:translate(304px,0px)}7.34%{transform:translate(432px,0px)}7.56%{transform:translate(432px,-16px)}7.99%{transform:translate(464px,-16px)}8.21%{transform:translate(464px,0px)}13.17%{transform:translate(832px,0px)}14.04%{transform:translate(832px,64px)}15.33%{transform:translate(736px,64px)}15.55%{transform:translate(736px,80px)}15.77%{transform:translate(720px,80px)}15.98%{transform:translate(720px,64px)}17.49%{transform:translate(608px,64px)}17.71%,55.29%{transform:translate(608px,48px)}21.17%{transform:translate(352px,48px)}21.81%{transform:translate(352px,96px)}22.03%{transform:translate(336px,96px)}23.54%{transform:translate(336px,-16px)}24.62%{transform:translate(256px,-16px)}25.05%,73.87%{transform:translate(256px,16px)}25.27%{transform:translate(240px,16px)}28.73%{transform:translate(16px,-16px)}29.16%{transform:translate(16px,16px)}29.37%,81.64%{transform:translate(0px,16px)}29.59%{transform:translate(0px,32px)}29.81%{transform:translate(16px,32px)}30.02%,32.18%{transform:translate(16px,48px)}30.24%{transform:translate(0px,48px)}30.45%{transform:translate(0px,64px)}30.67%{transform:translate(16px,64px)}30.89%{transform:translate(16px,80px)}31.1%{transform:translate(0px,80px)}31.32%{transform:translate(0px,96px)}31.53%{transform:translate(16px,96px)}34.34%{transform:translate(176px,48px)}35.21%{transform:translate(176px,-16px)}37.37%,39.52%,68.03%{transform:translate(304px,16px)}37.58%,73.43%{transform:translate(288px,16px)}38.01%,38.88%{transform:translate(288px,48px)}38.23%,42.55%,68.9%{transform:translate(272px,48px)}38.44%{transform:translate(272px,64px)}38.66%{transform:translate(288px,64px)}39.09%,70.19%{transform:translate(304px,48px)}41.04%{transform:translate(192px,16px)}41.47%,49.68%{transform:translate(192px,48px)}43.2%,47.95%{transform:translate(272px,96px)}43.41%{transform:translate(288px,96px)}43.63%{transform:translate(288px,80px)}45.36%{transform:translate(416px,80px)}45.57%{transform:translate(416px,96px)}45.79%{transform:translate(400px,96px)}46%{transform:translate(400px,80px)}47.73%{transform:translate(272px,80px)}48.38%{transform:translate(240px,96px)}48.6%{transform:translate(240px,80px)}49.24%,77.32%{transform:translate(192px,80px)}55.51%{transform:translate(608px,32px)}58.1%{transform:translate(800px,32px)}58.32%{transform:translate(800px,16px)}58.53%{transform:translate(816px,16px)}59.61%{transform:translate(816px,96px)}59.83%{transform:translate(800px,96px)}60.48%{transform:translate(800px,48px)}60.91%{transform:translate(768px,48px)}61.56%{transform:translate(768px,0px)}68.47%{transform:translate(272px,16px)}69.11%{transform:translate(256px,48px)}69.33%{transform:translate(256px,64px)}69.98%{transform:translate(304px,64px)}71.06%{transform:translate(240px,48px)}71.27%{transform:translate(240px,32px)}71.71%{transform:translate(208px,32px)}72.14%,78.62%{transform:translate(208px,0px)}73.22%{transform:translate(288px,0px)}74.73%{transform:translate(256px,80px)}75.38%{transform:translate(304px,80px)}75.59%{transform:translate(304px,96px)}77.11%{transform:translate(192px,96px)}77.54%{transform:translate(208px,80px)}81.43%{transform:translate(0px,0px)}90.06%{transform:translate(624px,16px)}90.5%{transform:translate(624px,48px)}97.84%{transform:translate(80px,48px)}98.06%{transform:translate(80px,32px)}98.49%{transform:translate(48px,32px)}99.14%{transform:translate(48px,-16px)}}.s.s0{transform:translate(0px,-16px);animation-name:s0}@keyframes s1{0%,28.94%,99.78%{transform:translate(16px,-16px)}0.22%{transform:translate(0px,-16px)}0.43%{transform:translate(0px,-32px)}0.65%{transform:translate(16px,-32px)}1.08%{transform:translate(16px,0px)}3.46%{transform:translate(192px,0px)}3.67%{transform:translate(192px,-16px)}4.32%,25.92%{transform:translate(240px,-16px)}4.54%{transform:translate(240px,0px)}4.97%{transform:translate(272px,0px)}5.18%{transform:translate(272px,-16px)}5.62%,37.15%{transform:translate(304px,-16px)}5.83%,68.03%{transform:translate(304px,0px)}7.56%{transform:translate(432px,0px)}7.78%{transform:translate(432px,-16px)}8.21%{transform:translate(464px,-16px)}8.42%{transform:translate(464px,0px)}13.39%{transform:translate(832px,0px)}14.25%{transform:translate(832px,64px)}15.55%{transform:translate(736px,64px)}15.77%{transform:translate(736px,80px)}15.98%{transform:translate(720px,80px)}16.2%{transform:translate(720px,64px)}17.71%{transform:translate(608px,64px)}17.93%,55.51%{transform:translate(608px,48px)}21.38%{transform:translate(352px,48px)}22.03%{transform:translate(352px,96px)}22.25%{transform:translate(336px,96px)}23.76%{transform:translate(336px,-16px)}24.84%{transform:translate(256px,-16px)}25.27%,74.08%{transform:translate(256px,16px)}25.49%{transform:translate(240px,16px)}29.37%{transform:translate(16px,16px)}29.59%,81.86%{transform:translate(0px,16px)}29.81%{transform:translate(0px,32px)}30.02%{transform:translate(16px,32px)}30.24%,32.4%{transform:translate(16px,48px)}30.45%{transform:translate(0px,48px)}30.67%{transform:translate(0px,64px)}30.89%{transform:translate(16px,64px)}31.1%{transform:translate(16px,80px)}31.32%{transform:translate(0px,80px)}31.53%{transform:translate(0px,96px)}31.75%{transform:translate(16px,96px)}34.56%{transform:translate(176px,48px)}35.42%{transform:translate(176px,-16px)}37.58%,39.74%,68.25%{transform:translate(304px,16px)}37.8%,73.65%{transform:translate(288px,16px)}38.23%,39.09%{transform:translate(288px,48px)}38.44%,42.76%,69.11%{transform:translate(272px,48px)}38.66%{transform:translate(272px,64px)}38.88%{transform:translate(288px,64px)}39.31%,70.41%{transform:translate(304px,48px)}41.25%{transform:translate(192px,16px)}41.68%,49.89%{transform:translate(192px,48px)}43.41%,48.16%{transform:translate(272px,96px)}43.63%{transform:translate(288px,96px)}43.84%{transform:translate(288px,80px)}45.57%{transform:translate(416px,80px)}45.79%{transform:translate(416px,96px)}46%{transform:translate(400px,96px)}46.22%{transform:translate(400px,80px)}47.95%{transform:translate(272px,80px)}48.6%{transform:translate(240px,96px)}48.81%{transform:translate(240px,80px)}49.46%,77.54%{transform:translate(192px,80px)}55.72%{transform:translate(608px,32px)}58.32%{transform:translate(800px,32px)}58.53%{transform:translate(800px,16px)}58.75%{transform:translate(816px,16px)}59.83%{transform:translate(816px,96px)}60.04%{transform:translate(800px,96px)}60.69%{transform:translate(800px,48px)}61.12%{transform:translate(768px,48px)}61.77%{transform:translate(768px,0px)}68.68%{transform:translate(272px,16px)}69.33%{transform:translate(256px,48px)}69.55%{transform:translate(256px,64px)}70.19%{transform:translate(304px,64px)}71.27%{transform:translate(240px,48px)}71.49%{transform:translate(240px,32px)}71.92%{transform:translate(208px,32px)}72.35%,78.83%{transform:translate(208px,0px)}73.43%{transform:translate(288px,0px)}74.95%{transform:translate(256px,80px)}75.59%{transform:translate(304px,80px)}75.81%{transform:translate(304px,96px)}77.32%{transform:translate(192px,96px)}77.75%{transform:translate(208px,80px)}81.64%{transform:translate(0px,0px)}90.28%{transform:translate(624px,16px)}90.71%{transform:translate(624px,48px)}98.06%{transform:translate(80px,48px)}98.27%{transform:translate(80px,32px)}98.7%{transform:translate(48px,32px)}99.35%{transform:translate(48px,-16px)}}.s.s1{transform:translate(16px,-16px);animation-name:s1}@keyframes s2{0%,99.78%{transform:translate(32px,-16px)}0.43%{transform:translate(0px,-16px)}0.65%{transform:translate(0px,-32px)}0.86%{transform:translate(16px,-32px)}1.3%{transform:translate(16px,0px)}3.67%{transform:translate(192px,0px)}3.89%{transform:translate(192px,-16px)}4.54%,26.13%{transform:translate(240px,-16px)}4.75%{transform:translate(240px,0px)}5.18%{transform:translate(272px,0px)}5.4%{transform:translate(272px,-16px)}5.83%,37.37%{transform:translate(304px,-16px)}6.05%,68.25%{transform:translate(304px,0px)}7.78%{transform:translate(432px,0px)}7.99%{transform:translate(432px,-16px)}8.42%{transform:translate(464px,-16px)}8.64%{transform:translate(464px,0px)}13.61%{transform:translate(832px,0px)}14.47%{transform:translate(832px,64px)}15.77%{transform:translate(736px,64px)}15.98%{transform:translate(736px,80px)}16.2%{transform:translate(720px,80px)}16.41%{transform:translate(720px,64px)}17.93%{transform:translate(608px,64px)}18.14%,55.72%{transform:translate(608px,48px)}21.6%{transform:translate(352px,48px)}22.25%{transform:translate(352px,96px)}22.46%{transform:translate(336px,96px)}23.97%{transform:translate(336px,-16px)}25.05%{transform:translate(256px,-16px)}25.49%,74.3%{transform:translate(256px,16px)}25.7%{transform:translate(240px,16px)}29.16%{transform:translate(16px,-16px)}29.59%{transform:translate(16px,16px)}29.81%,82.07%{transform:translate(0px,16px)}30.02%{transform:translate(0px,32px)}30.24%{transform:translate(16px,32px)}30.45%,32.61%{transform:translate(16px,48px)}30.67%{transform:translate(0px,48px)}30.89%{transform:translate(0px,64px)}31.1%{transform:translate(16px,64px)}31.32%{transform:translate(16px,80px)}31.53%{transform:translate(0px,80px)}31.75%{transform:translate(0px,96px)}31.97%{transform:translate(16px,96px)}34.77%{transform:translate(176px,48px)}35.64%{transform:translate(176px,-16px)}37.8%,39.96%,68.47%{transform:translate(304px,16px)}38.01%,73.87%{transform:translate(288px,16px)}38.44%,39.31%{transform:translate(288px,48px)}38.66%,42.98%,69.33%{transform:translate(272px,48px)}38.88%{transform:translate(272px,64px)}39.09%{transform:translate(288px,64px)}39.52%,70.63%{transform:translate(304px,48px)}41.47%{transform:translate(192px,16px)}41.9%,50.11%{transform:translate(192px,48px)}43.63%,48.38%{transform:translate(272px,96px)}43.84%{transform:translate(288px,96px)}44.06%{transform:translate(288px,80px)}45.79%{transform:translate(416px,80px)}46%{transform:translate(416px,96px)}46.22%{transform:translate(400px,96px)}46.44%{transform:translate(400px,80px)}48.16%{transform:translate(272px,80px)}48.81%{transform:translate(240px,96px)}49.03%{transform:translate(240px,80px)}49.68%,77.75%{transform:translate(192px,80px)}55.94%{transform:translate(608px,32px)}58.53%{transform:translate(800px,32px)}58.75%{transform:translate(800px,16px)}58.96%{transform:translate(816px,16px)}60.04%{transform:translate(816px,96px)}60.26%{transform:translate(800px,96px)}60.91%{transform:translate(800px,48px)}61.34%{transform:translate(768px,48px)}61.99%{transform:translate(768px,0px)}68.9%{transform:translate(272px,16px)}69.55%{transform:translate(256px,48px)}69.76%{transform:translate(256px,64px)}70.41%{transform:translate(304px,64px)}71.49%{transform:translate(240px,48px)}71.71%{transform:translate(240px,32px)}72.14%{transform:translate(208px,32px)}72.57%,79.05%{transform:translate(208px,0px)}73.65%{transform:translate(288px,0px)}75.16%{transform:translate(256px,80px)}75.81%{transform:translate(304px,80px)}76.03%{transform:translate(304px,96px)}77.54%{transform:translate(192px,96px)}77.97%{transform:translate(208px,80px)}81.86%{transform:translate(0px,0px)}90.5%{transform:translate(624px,16px)}90.93%{transform:translate(624px,48px)}98.27%{transform:translate(80px,48px)}98.49%{transform:translate(80px,32px)}98.92%{transform:translate(48px,32px)}99.57%{transform:translate(48px,-16px)}}.s.s2{transform:translate(32px,-16px);animation-name:s2}@keyframes s3{0%,99.78%{transform:translate(48px,-16px)}0.65%{transform:translate(0px,-16px)}0.86%{transform:translate(0px,-32px)}1.08%{transform:translate(16px,-32px)}1.51%{transform:translate(16px,0px)}3.89%{transform:translate(192px,0px)}4.1%{transform:translate(192px,-16px)}4.75%,26.35%{transform:translate(240px,-16px)}4.97%{transform:translate(240px,0px)}5.4%{transform:translate(272px,0px)}5.62%{transform:translate(272px,-16px)}6.05%,37.58%{transform:translate(304px,-16px)}6.26%,68.47%{transform:translate(304px,0px)}7.99%{transform:translate(432px,0px)}8.21%{transform:translate(432px,-16px)}8.64%{transform:translate(464px,-16px)}8.86%{transform:translate(464px,0px)}13.82%{transform:translate(832px,0px)}14.69%{transform:translate(832px,64px)}15.98%{transform:translate(736px,64px)}16.2%{transform:translate(736px,80px)}16.41%{transform:translate(720px,80px)}16.63%{transform:translate(720px,64px)}18.14%{transform:translate(608px,64px)}18.36%,55.94%{transform:translate(608px,48px)}21.81%{transform:translate(352px,48px)}22.46%{transform:translate(352px,96px)}22.68%{transform:translate(336px,96px)}24.19%{transform:translate(336px,-16px)}25.27%{transform:translate(256px,-16px)}25.7%,74.51%{transform:translate(256px,16px)}25.92%{transform:translate(240px,16px)}29.37%{transform:translate(16px,-16px)}29.81%{transform:translate(16px,16px)}30.02%,82.29%{transform:translate(0px,16px)}30.24%{transform:translate(0px,32px)}30.45%{transform:translate(16px,32px)}30.67%,32.83%{transform:translate(16px,48px)}30.89%{transform:translate(0px,48px)}31.1%{transform:translate(0px,64px)}31.32%{transform:translate(16px,64px)}31.53%{transform:translate(16px,80px)}31.75%{transform:translate(0px,80px)}31.97%{transform:translate(0px,96px)}32.18%{transform:translate(16px,96px)}34.99%{transform:translate(176px,48px)}35.85%{transform:translate(176px,-16px)}38.01%,40.17%,68.68%{transform:translate(304px,16px)}38.23%,74.08%{transform:translate(288px,16px)}38.66%,39.52%{transform:translate(288px,48px)}38.88%,43.2%,69.55%{transform:translate(272px,48px)}39.09%{transform:translate(272px,64px)}39.31%{transform:translate(288px,64px)}39.74%,70.84%{transform:translate(304px,48px)}41.68%{transform:translate(192px,16px)}42.12%,50.32%{transform:translate(192px,48px)}43.84%,48.6%{transform:translate(272px,96px)}44.06%{transform:translate(288px,96px)}44.28%{transform:translate(288px,80px)}46%{transform:translate(416px,80px)}46.22%{transform:translate(416px,96px)}46.44%{transform:translate(400px,96px)}46.65%{transform:translate(400px,80px)}48.38%{transform:translate(272px,80px)}49.03%{transform:translate(240px,96px)}49.24%{transform:translate(240px,80px)}49.89%,77.97%{transform:translate(192px,80px)}56.16%{transform:translate(608px,32px)}58.75%{transform:translate(800px,32px)}58.96%{transform:translate(800px,16px)}59.18%{transform:translate(816px,16px)}60.26%{transform:translate(816px,96px)}60.48%{transform:translate(800px,96px)}61.12%{transform:translate(800px,48px)}61.56%{transform:translate(768px,48px)}62.2%{transform:translate(768px,0px)}69.11%{transform:translate(272px,16px)}69.76%{transform:translate(256px,48px)}69.98%{transform:translate(256px,64px)}70.63%{transform:translate(304px,64px)}71.71%{transform:translate(240px,48px)}71.92%{transform:translate(240px,32px)}72.35%{transform:translate(208px,32px)}72.79%,79.27%{transform:translate(208px,0px)}73.87%{transform:translate(288px,0px)}75.38%{transform:translate(256px,80px)}76.03%{transform:translate(304px,80px)}76.24%{transform:translate(304px,96px)}77.75%{transform:translate(192px,96px)}78.19%{transform:translate(208px,80px)}82.07%{transform:translate(0px,0px)}90.71%{transform:translate(624px,16px)}91.14%{transform:translate(624px,48px)}98.49%{transform:translate(80px,48px)}98.7%{transform:translate(80px,32px)}99.14%{transform:translate(48px,32px)}}.s.s3{transform:translate(48px,-16px);animation-name:s3}</style><rect class="c c0" x="2" y="2" rx="2" ry="2"/><rect class="c c1" x="2" y="18" rx="2" ry="2"/><rect class="c c2" x="2" y="34" rx="2" ry="2"/><rect class="c c3" x="2" y="50" rx="2" ry="2"/><rect class="c c4" x="2" y="66" rx="2" ry="2"/><rect class="c c5" x="2" y="82" rx="2" ry="2"/><rect class="c c6" x="2" y="98" rx="2" ry="2"/><rect class="c c7" x="18" y="2" rx="2" ry="2"/><rect class="c c8" x="18" y="18" rx="2" ry="2"/><rect class="c c9" x="18" y="34" rx="2" ry="2"/><rect class="c ca" x="18" y="50" rx="2" ry="2"/><rect class="c cb" x="18" y="66" rx="2" ry="2"/><rect class="c cc" x="18" y="82" rx="2" ry="2"/><rect class="c cd" x="18" y="98" rx="2" ry="2"/><rect class="c ce" x="34" y="2" rx="2" ry="2"/><rect class="c" x="34" y="18" rx="2" ry="2"/><rect class="c" x="34" y="34" rx="2" ry="2"/><rect class="c" x="34" y="50" rx="2" ry="2"/><rect class="c" x="34" y="66" rx="2" ry="2"/><rect class="c" x="34" y="82" rx="2" ry="2"/><rect class="c" x="34" y="98" rx="2" ry="2"/><rect class="c cf" x="50" y="2" rx="2" ry="2"/><rect class="c" x="50" y="18" rx="2" ry="2"/><rect class="c" x="50" y="34" rx="2" ry="2"/><rect class="c" x="50" y="50" rx="2" ry="2"/><rect class="c" x="50" y="66" rx="2" ry="2"/><rect class="c" x="50" y="82" rx="2" ry="2"/><rect class="c" x="50" y="98" rx="2" ry="2"/><rect class="c cg" x="66" y="2" rx="2" ry="2"/><rect class="c" x="66" y="18" rx="2" ry="2"/><rect class="c" x="66" y="34" rx="2" ry="2"/><rect class="c" x="66" y="50" rx="2" ry="2"/><rect class="c" x="66" y="66" rx="2" ry="2"/><rect class="c" x="66" y="82" rx="2" ry="2"/><rect class="c" x="66" y="98" rx="2" ry="2"/><rect class="c ch" x="82" y="2" rx="2" ry="2"/><rect class="c" x="82" y="18" rx="2" ry="2"/><rect class="c" x="82" y="34" rx="2" ry="2"/><rect class="c" x="82" y="50" rx="2" ry="2"/><rect class="c" x="82" y="66" rx="2" ry="2"/><rect class="c" x="82" y="82" rx="2" ry="2"/><rect class="c" x="82" y="98" rx="2" ry="2"/><rect class="c ci" x="98" y="2" rx="2" ry="2"/><rect class="c" x="98" y="18" rx="2" ry="2"/><rect class="c" x="98" y="34" rx="2" ry="2"/><rect class="c" x="98" y="50" rx="2" ry="2"/><rect class="c" x="98" y="66" rx="2" ry="2"/><rect class="c" x="98" y="82" rx="2" ry="2"/><rect class="c" x="98" y="98" rx="2" ry="2"/><rect class="c cj" x="114" y="2" rx="2" ry="2"/><rect class="c" x="114" y="18" rx="2" ry="2"/><rect class="c" x="114" y="34" rx="2" ry="2"/><rect class="c" x="114" y="50" rx="2" ry="2"/><rect class="c" x="114" y="66" rx="2" ry="2"/><rect class="c" x="114" y="82" rx="2" ry="2"/><rect class="c" x="114" y="98" rx="2" ry="2"/><rect class="c ck" x="130" y="2" rx="2" ry="2"/><rect class="c" x="130" y="18" rx="2" ry="2"/><rect class="c" x="130" y="34" rx="2" ry="2"/><rect class="c" x="130" y="50" rx="2" ry="2"/><rect class="c" x="130" y="66" rx="2" ry="2"/><rect class="c" x="130" y="82" rx="2" ry="2"/><rect class="c" x="130" y="98" rx="2" ry="2"/><rect class="c cl" x="146" y="2" rx="2" ry="2"/><rect class="c" x="146" y="18" rx="2" ry="2"/><rect class="c" x="146" y="34" rx="2" ry="2"/><rect class="c" x="146" y="50" rx="2" ry="2"/><rect class="c" x="146" y="66" rx="2" ry="2"/><rect class="c" x="146" y="82" rx="2" ry="2"/><rect class="c" x="146" y="98" rx="2" ry="2"/><rect class="c cm" x="162" y="2" rx="2" ry="2"/><rect class="c" x="162" y="18" rx="2" ry="2"/><rect class="c" x="162" y="34" rx="2" ry="2"/><rect class="c" x="162" y="50" rx="2" ry="2"/><rect class="c" x="162" y="66" rx="2" ry="2"/><rect class="c" x="162" y="82" rx="2" ry="2"/><rect class="c" x="162" y="98" rx="2" ry="2"/><rect class="c cn" x="178" y="2" rx="2" ry="2"/><rect class="c" x="178" y="18" rx="2" ry="2"/><rect class="c" x="178" y="34" rx="2" ry="2"/><rect class="c" x="178" y="50" rx="2" ry="2"/><rect class="c" x="178" y="66" rx="2" ry="2"/><rect class="c" x="178" y="82" rx="2" ry="2"/><rect class="c" x="178" y="98" rx="2" ry="2"/><rect class="c co" x="194" y="2" rx="2" ry="2"/><rect class="c" x="194" y="18" rx="2" ry="2"/><rect class="c" x="194" y="34" rx="2" ry="2"/><rect class="c" x="194" y="50" rx="2" ry="2"/><rect class="c" x="194" y="66" rx="2" ry="2"/><rect class="c" x="194" y="82" rx="2" ry="2"/><rect class="c cp" x="194" y="98" rx="2" ry="2"/><rect class="c cq" x="210" y="2" rx="2" ry="2"/><rect class="c cr" x="210" y="18" rx="2" ry="2"/><rect class="c cs" x="210" y="34" rx="2" ry="2"/><rect class="c ct" x="210" y="50" rx="2" ry="2"/><rect class="c cu" x="210" y="66" rx="2" ry="2"/><rect class="c cv" x="210" y="82" rx="2" ry="2"/><rect class="c" x="210" y="98" rx="2" ry="2"/><rect class="c cw" x="226" y="2" rx="2" ry="2"/><rect class="c" x="226" y="18" rx="2" ry="2"/><rect class="c" x="226" y="34" rx="2" ry="2"/><rect class="c" x="226" y="50" rx="2" ry="2"/><rect class="c" x="226" y="66" rx="2" ry="2"/><rect class="c" x="226" y="82" rx="2" ry="2"/><rect class="c" x="226" y="98" rx="2" ry="2"/><rect class="c cx" x="242" y="2" rx="2" ry="2"/><rect class="c" x="242" y="18" rx="2" ry="2"/><rect class="c" x="242" y="34" rx="2" ry="2"/><rect class="c" x="242" y="50" rx="2" ry="2"/><rect class="c" x="242" y="66" rx="2" ry="2"/><rect class="c" x="242" y="82" rx="2" ry="2"/><rect class="c" x="242" y="98" rx="2" ry="2"/><rect class="c cy" x="258" y="2" rx="2" ry="2"/><rect class="c cz" x="258" y="18" rx="2" ry="2"/><rect class="c c10" x="258" y="34" rx="2" ry="2"/><rect class="c c11" x="258" y="50" rx="2" ry="2"/><rect class="c c12" x="258" y="66" rx="2" ry="2"/><rect class="c c13" x="258" y="82" rx="2" ry="2"/><rect class="c" x="258" y="98" rx="2" ry="2"/><rect class="c c14" x="274" y="2" rx="2" ry="2"/><rect class="c c15" x="274" y="18" rx="2" ry="2"/><rect class="c c16" x="274" y="34" rx="2" ry="2"/><rect class="c c17" x="274" y="50" rx="2" ry="2"/><rect class="c" x="274" y="66" rx="2" ry="2"/><rect class="c c18" x="274" y="82" rx="2" ry="2"/><rect class="c c19" x="274" y="98" rx="2" ry="2"/><rect class="c c1a" x="290" y="2" rx="2" ry="2"/><rect class="c c1b" x="290" y="18" rx="2" ry="2"/><rect class="c" x="290" y="34" rx="2" ry="2"/><rect class="c" x="290" y="50" rx="2" ry="2"/><rect class="c c1c" x="290" y="66" rx="2" ry="2"/><rect class="c" x="290" y="82" rx="2" ry="2"/><rect class="c c1d" x="290" y="98" rx="2" ry="2"/><rect class="c c1e" x="306" y="2" rx="2" ry="2"/><rect class="c c1f" x="306" y="18" rx="2" ry="2"/><rect class="c c1g" x="306" y="34" rx="2" ry="2"/><rect class="c c1h" x="306" y="50" rx="2" ry="2"/><rect class="c c1i" x="306" y="66" rx="2" ry="2"/><rect class="c c1j" x="306" y="82" rx="2" ry="2"/><rect class="c c1k" x="306" y="98" rx="2" ry="2"/><rect class="c c1l" x="322" y="2" rx="2" ry="2"/><rect class="c" x="322" y="18" rx="2" ry="2"/><rect class="c" x="322" y="34" rx="2" ry="2"/><rect class="c" x="322" y="50" rx="2" ry="2"/><rect class="c" x="322" y="66" rx="2" ry="2"/><rect class="c" x="322" y="82" rx="2" ry="2"/><rect class="c" x="322" y="98" rx="2" ry="2"/><rect class="c c1m" x="338" y="2" rx="2" ry="2"/><rect class="c" x="338" y="18" rx="2" ry="2"/><rect class="c" x="338" y="34" rx="2" ry="2"/><rect class="c" x="338" y="50" rx="2" ry="2"/><rect class="c" x="338" y="66" rx="2" ry="2"/><rect class="c" x="338" y="82" rx="2" ry="2"/><rect class="c" x="338" y="98" rx="2" ry="2"/><rect class="c c1n" x="354" y="2" rx="2" ry="2"/><rect class="c" x="354" y="18" rx="2" ry="2"/><rect class="c" x="354" y="34" rx="2" ry="2"/><rect class="c" x="354" y="50" rx="2" ry="2"/><rect class="c" x="354" y="66" rx="2" ry="2"/><rect class="c" x="354" y="82" rx="2" ry="2"/><rect class="c c1o" x="354" y="98" rx="2" ry="2"/><rect class="c c1p" x="370" y="2" rx="2" ry="2"/><rect class="c" x="370" y="18" rx="2" ry="2"/><rect class="c" x="370" y="34" rx="2" ry="2"/><rect class="c" x="370" y="50" rx="2" ry="2"/><rect class="c" x="370" y="66" rx="2" ry="2"/><rect class="c" x="370" y="82" rx="2" ry="2"/><rect class="c" x="370" y="98" rx="2" ry="2"/><rect class="c c1q" x="386" y="2" rx="2" ry="2"/><rect class="c" x="386" y="18" rx="2" ry="2"/><rect class="c" x="386" y="34" rx="2" ry="2"/><rect class="c" x="386" y="50" rx="2" ry="2"/><rect class="c" x="386" y="66" rx="2" ry="2"/><rect class="c" x="386" y="82" rx="2" ry="2"/><rect class="c" x="386" y="98" rx="2" ry="2"/><rect class="c c1r" x="402" y="2" rx="2" ry="2"/><rect class="c" x="402" y="18" rx="2" ry="2"/><rect class="c" x="402" y="34" rx="2" ry="2"/><rect class="c" x="402" y="50" rx="2" ry="2"/><rect class="c" x="402" y="66" rx="2" ry="2"/><rect class="c" x="402" y="82" rx="2" ry="2"/><rect class="c" x="402" y="98" rx="2" ry="2"/><rect class="c c1s" x="418" y="2" rx="2" ry="2"/><rect class="c" x="418" y="18" rx="2" ry="2"/><rect class="c" x="418" y="34" rx="2" ry="2"/><rect class="c" x="418" y="50" rx="2" ry="2"/><rect class="c" x="418" y="66" rx="2" ry="2"/><rect class="c" x="418" y="82" rx="2" ry="2"/><rect class="c c1t" x="418" y="98" rx="2" ry="2"/><rect class="c c1u" x="434" y="2" rx="2" ry="2"/><rect class="c" x="434" y="18" rx="2" ry="2"/><rect class="c" x="434" y="34" rx="2" ry="2"/><rect class="c" x="434" y="50" rx="2" ry="2"/><rect class="c" x="434" y="66" rx="2" ry="2"/><rect class="c" x="434" y="82" rx="2" ry="2"/><rect class="c" x="434" y="98" rx="2" ry="2"/><rect class="c c1v" x="450" y="2" rx="2" ry="2"/><rect class="c" x="450" y="18" rx="2" ry="2"/><rect class="c" x="450" y="34" rx="2" ry="2"/><rect class="c" x="450" y="50" rx="2" ry="2"/><rect class="c" x="450" y="66" rx="2" ry="2"/><rect class="c" x="450" y="82" rx="2" ry="2"/><rect class="c" x="450" y="98" rx="2" ry="2"/><rect class="c c1w" x="466" y="2" rx="2" ry="2"/><rect class="c" x="466" y="18" rx="2" ry="2"/><rect class="c" x="466" y="34" rx="2" ry="2"/><rect class="c" x="466" y="50" rx="2" ry="2"/><rect class="c" x="466" y="66" rx="2" ry="2"/><rect class="c" x="466" y="82" rx="2" ry="2"/><rect class="c" x="466" y="98" rx="2" ry="2"/><rect class="c c1x" x="482" y="2" rx="2" ry="2"/><rect class="c" x="482" y="18" rx="2" ry="2"/><rect class="c" x="482" y="34" rx="2" ry="2"/><rect class="c" x="482" y="50" rx="2" ry="2"/><rect class="c" x="482" y="66" rx="2" ry="2"/><rect class="c" x="482" y="82" rx="2" ry="2"/><rect class="c" x="482" y="98" rx="2" ry="2"/><rect class="c c1y" x="498" y="2" rx="2" ry="2"/><rect class="c" x="498" y="18" rx="2" ry="2"/><rect class="c" x="498" y="34" rx="2" ry="2"/><rect class="c" x="498" y="50" rx="2" ry="2"/><rect class="c" x="498" y="66" rx="2" ry="2"/><rect class="c" x="498" y="82" rx="2" ry="2"/><rect class="c" x="498" y="98" rx="2" ry="2"/><rect class="c c1z" x="514" y="2" rx="2" ry="2"/><rect class="c" x="514" y="18" rx="2" ry="2"/><rect class="c" x="514" y="34" rx="2" ry="2"/><rect class="c" x="514" y="50" rx="2" ry="2"/><rect class="c" x="514" y="66" rx="2" ry="2"/><rect class="c" x="514" y="82" rx="2" ry="2"/><rect class="c" x="514" y="98" rx="2" ry="2"/><rect class="c c20" x="530" y="2" rx="2" ry="2"/><rect class="c" x="530" y="18" rx="2" ry="2"/><rect class="c" x="530" y="34" rx="2" ry="2"/><rect class="c" x="530" y="50" rx="2" ry="2"/><rect class="c" x="530" y="66" rx="2" ry="2"/><rect class="c" x="530" y="82" rx="2" ry="2"/><rect class="c" x="530" y="98" rx="2" ry="2"/><rect class="c c21" x="546" y="2" rx="2" ry="2"/><rect class="c" x="546" y="18" rx="2" ry="2"/><rect class="c" x="546" y="34" rx="2" ry="2"/><rect class="c" x="546" y="50" rx="2" ry="2"/><rect class="c" x="546" y="66" rx="2" ry="2"/><rect class="c" x="546" y="82" rx="2" ry="2"/><rect class="c" x="546" y="98" rx="2" ry="2"/><rect class="c c22" x="562" y="2" rx="2" ry="2"/><rect class="c" x="562" y="18" rx="2" ry="2"/><rect class="c" x="562" y="34" rx="2" ry="2"/><rect class="c" x="562" y="50" rx="2" ry="2"/><rect class="c" x="562" y="66" rx="2" ry="2"/><rect class="c" x="562" y="82" rx="2" ry="2"/><rect class="c" x="562" y="98" rx="2" ry="2"/><rect class="c c23" x="578" y="2" rx="2" ry="2"/><rect class="c" x="578" y="18" rx="2" ry="2"/><rect class="c" x="578" y="34" rx="2" ry="2"/><rect class="c" x="578" y="50" rx="2" ry="2"/><rect class="c" x="578" y="66" rx="2" ry="2"/><rect class="c" x="578" y="82" rx="2" ry="2"/><rect class="c" x="578" y="98" rx="2" ry="2"/><rect class="c c24" x="594" y="2" rx="2" ry="2"/><rect class="c" x="594" y="18" rx="2" ry="2"/><rect class="c" x="594" y="34" rx="2" ry="2"/><rect class="c" x="594" y="50" rx="2" ry="2"/><rect class="c" x="594" y="66" rx="2" ry="2"/><rect class="c" x="594" y="82" rx="2" ry="2"/><rect class="c" x="594" y="98" rx="2" ry="2"/><rect class="c c25" x="610" y="2" rx="2" ry="2"/><rect class="c" x="610" y="18" rx="2" ry="2"/><rect class="c" x="610" y="34" rx="2" ry="2"/><rect class="c c26" x="610" y="50" rx="2" ry="2"/><rect class="c" x="610" y="66" rx="2" ry="2"/><rect class="c" x="610" y="82" rx="2" ry="2"/><rect class="c" x="610" y="98" rx="2" ry="2"/><rect class="c c27" x="626" y="2" rx="2" ry="2"/><rect class="c" x="626" y="18" rx="2" ry="2"/><rect class="c c28" x="626" y="34" rx="2" ry="2"/><rect class="c c29" x="626" y="50" rx="2" ry="2"/><rect class="c" x="626" y="66" rx="2" ry="2"/><rect class="c" x="626" y="82" rx="2" ry="2"/><rect class="c" x="626" y="98" rx="2" ry="2"/><rect class="c c2a" x="642" y="2" rx="2" ry="2"/><rect class="c" x="642" y="18" rx="2" ry="2"/><rect class="c" x="642" y="34" rx="2" ry="2"/><rect class="c" x="642" y="50" rx="2" ry="2"/><rect class="c" x="642" y="66" rx="2" ry="2"/><rect class="c" x="642" y="82" rx="2" ry="2"/><rect class="c" x="642" y="98" rx="2" ry="2"/><rect class="c c2b" x="658" y="2" rx="2" ry="2"/><rect class="c" x="658" y="18" rx="2" ry="2"/><rect class="c" x="658" y="34" rx="2" ry="2"/><rect class="c" x="658" y="50" rx="2" ry="2"/><rect class="c" x="658" y="66" rx="2" ry="2"/><rect class="c" x="658" y="82" rx="2" ry="2"/><rect class="c" x="658" y="98" rx="2" ry="2"/><rect class="c c2c" x="674" y="2" rx="2" ry="2"/><rect class="c" x="674" y="18" rx="2" ry="2"/><rect class="c" x="674" y="34" rx="2" ry="2"/><rect class="c" x="674" y="50" rx="2" ry="2"/><rect class="c" x="674" y="66" rx="2" ry="2"/><rect class="c" x="674" y="82" rx="2" ry="2"/><rect class="c" x="674" y="98" rx="2" ry="2"/><rect class="c c2d" x="690" y="2" rx="2" ry="2"/><rect class="c" x="690" y="18" rx="2" ry="2"/><rect class="c" x="690" y="34" rx="2" ry="2"/><rect class="c" x="690" y="50" rx="2" ry="2"/><rect class="c" x="690" y="66" rx="2" ry="2"/><rect class="c" x="690" y="82" rx="2" ry="2"/><rect class="c" x="690" y="98" rx="2" ry="2"/><rect class="c c2e" x="706" y="2" rx="2" ry="2"/><rect class="c" x="706" y="18" rx="2" ry="2"/><rect class="c" x="706" y="34" rx="2" ry="2"/><rect class="c" x="706" y="50" rx="2" ry="2"/><rect class="c" x="706" y="66" rx="2" ry="2"/><rect class="c" x="706" y="82" rx="2" ry="2"/><rect class="c" x="706" y="98" rx="2" ry="2"/><rect class="c c2f" x="722" y="2" rx="2" ry="2"/><rect class="c" x="722" y="18" rx="2" ry="2"/><rect class="c" x="722" y="34" rx="2" ry="2"/><rect class="c" x="722" y="50" rx="2" ry="2"/><rect class="c" x="722" y="66" rx="2" ry="2"/><rect class="c" x="722" y="82" rx="2" ry="2"/><rect class="c" x="722" y="98" rx="2" ry="2"/><rect class="c c2g" x="738" y="2" rx="2" ry="2"/><rect class="c" x="738" y="18" rx="2" ry="2"/><rect class="c" x="738" y="34" rx="2" ry="2"/><rect class="c" x="738" y="50" rx="2" ry="2"/><rect class="c" x="738" y="66" rx="2" ry="2"/><rect class="c c2h" x="738" y="82" rx="2" ry="2"/><rect class="c" x="738" y="98" rx="2" ry="2"/><rect class="c c2i" x="754" y="2" rx="2" ry="2"/><rect class="c" x="754" y="18" rx="2" ry="2"/><rect class="c" x="754" y="34" rx="2" ry="2"/><rect class="c" x="754" y="50" rx="2" ry="2"/><rect class="c" x="754" y="66" rx="2" ry="2"/><rect class="c" x="754" y="82" rx="2" ry="2"/><rect class="c" x="754" y="98" rx="2" ry="2"/><rect class="c c2j" x="770" y="2" rx="2" ry="2"/><rect class="c" x="770" y="18" rx="2" ry="2"/><rect class="c" x="770" y="34" rx="2" ry="2"/><rect class="c c2k" x="770" y="50" rx="2" ry="2"/><rect class="c" x="770" y="66" rx="2" ry="2"/><rect class="c" x="770" y="82" rx="2" ry="2"/><rect class="c" x="770" y="98" rx="2" ry="2"/><rect class="c c2l" x="786" y="2" rx="2" ry="2"/><rect class="c" x="786" y="18" rx="2" ry="2"/><rect class="c" x="786" y="34" rx="2" ry="2"/><rect class="c" x="786" y="50" rx="2" ry="2"/><rect class="c" x="786" y="66" rx="2" ry="2"/><rect class="c" x="786" y="82" rx="2" ry="2"/><rect class="c" x="786" y="98" rx="2" ry="2"/><rect class="c c2m" x="802" y="2" rx="2" ry="2"/><rect class="c c2n" x="802" y="18" rx="2" ry="2"/><rect class="c c2o" x="802" y="34" rx="2" ry="2"/><rect class="c" x="802" y="50" rx="2" ry="2"/><rect class="c" x="802" y="66" rx="2" ry="2"/><rect class="c c2p" x="802" y="82" rx="2" ry="2"/><rect class="c" x="802" y="98" rx="2" ry="2"/><rect class="c c2q" x="818" y="2" rx="2" ry="2"/><rect class="c" x="818" y="18" rx="2" ry="2"/><rect class="c" x="818" y="34" rx="2" ry="2"/><rect class="c c2r" x="818" y="50" rx="2" ry="2"/><rect class="c" x="818" y="66" rx="2" ry="2"/><rect class="c" x="818" y="82" rx="2" ry="2"/><rect class="c c2s" x="818" y="98" rx="2" ry="2"/><rect class="c" x="834" y="2" rx="2" ry="2"/><rect class="u u0" height="12" width="529.6" x="0.0" y="144"/><rect class="u u1" height="12" width="9.0" x="529.0" y="144"/><rect class="u u2" height="12" width="25.8" x="537.3" y="144"/><rect class="u u3" height="12" width="143.3" x="562.5" y="144"/><rect class="u u4" height="12" width="76.2" x="705.3" y="144"/><rect class="u u5" height="12" width="67.8" x="780.8" y="144"/><rect class="s s0" x="0.8" y="0.8" width="14.4" height="14.4" rx="4.5" ry="4.5"/><rect class="s s1" x="1.8" y="1.8" width="12.3" height="12.3" rx="4.1" ry="4.1"/><rect class="s s2" x="2.6" y="2.6" width="10.8" height="10.8" rx="3.6" ry="3.6"/><rect class="s s3" x="3.0" y="3.0" width="9.9" height="9.9" rx="3.3" ry="3.3"/></svg>