<svg viewBox="-16 -32 880 192" width="880" height="192" xmlns="http://www.w3.org/2000/svg"><desc>Generated with https://github.com/Platane/snk</desc><style>@keyframes c0{53.76%{fill:var(--c3)}53.78%,to{fill:var(--ce)}}@keyframes c1{8.3%{fill:var(--c1)}8.32%,to{fill:var(--ce)}}@keyframes c2{7%{fill:var(--c1)}7.02%,to{fill:var(--ce)}}@keyframes c3{6.74%{fill:var(--c1)}6.76%,to{fill:var(--ce)}}@keyframes c4{6.48%{fill:var(--c1)}6.5%,to{fill:var(--ce)}}@keyframes c5{50.9%{fill:var(--c2)}50.92%,to{fill:var(--ce)}}@keyframes c6{55.31%{fill:var(--c3)}55.33%,to{fill:var(--ce)}}@keyframes c7{1.03%{fill:var(--c1)}1.05%,to{fill:var(--ce)}}@keyframes c8{53.24%{fill:var(--c2)}53.26%,to{fill:var(--ce)}}@keyframes c9{7.26%{fill:var(--c1)}7.28%,to{fill:var(--ce)}}@keyframes ca{50.38%{fill:var(--c2)}50.4%,to{fill:var(--ce)}}@keyframes cb{1.55%{fill:var(--c1)}1.57%,to{fill:var(--ce)}}@keyframes cc{1.81%{fill:var(--c1)}1.83%,to{fill:var(--ce)}}@keyframes cd{52.46%{fill:var(--c2)}52.48%,to{fill:var(--ce)}}@keyframes ce{52.2%{fill:var(--c2)}52.22%,to{fill:var(--ce)}}@keyframes cf{5.18%{fill:var(--c1)}5.2%,to{fill:var(--ce)}}@keyframes cg{2.33%{fill:var(--c1)}2.35%,to{fill:var(--ce)}}@keyframes ch{2.85%{fill:var(--c1)}2.87%,to{fill:var(--ce)}}@keyframes ci{3.63%{fill:var(--c1)}3.65%,to{fill:var(--ce)}}@keyframes cj{13.24%{fill:var(--c1)}13.26%,to{fill:var(--ce)}}@keyframes ck{76.35%{fill:var(--c4)}76.37%,to{fill:var(--ce)}}@keyframes cl{14.8%{fill:var(--c1)}14.82%,to{fill:var(--ce)}}@keyframes cm{18.17%{fill:var(--c1)}18.19%,to{fill:var(--ce)}}@keyframes cn{72.46%{fill:var(--c4)}72.48%,to{fill:var(--ce)}}@keyframes co{72.72%{fill:var(--c4)}72.74%,to{fill:var(--ce)}}@keyframes cp{43.63%{fill:var(--c2)}43.65%,to{fill:var(--ce)}}@keyframes cq{71.68%{fill:var(--c4)}71.7%,to{fill:var(--ce)}}@keyframes cr{20.77%{fill:var(--c1)}20.79%,to{fill:var(--ce)}}@keyframes cs{70.9%{fill:var(--c4)}70.92%,to{fill:var(--ce)}}@keyframes ct{36.87%{fill:var(--c2)}36.89%,to{fill:var(--ce)}}@keyframes cu{37.13%{fill:var(--c2)}37.15%,to{fill:var(--ce)}}@keyframes cv{37.39%{fill:var(--c2)}37.41%,to{fill:var(--ce)}}@keyframes cw{64.15%{fill:var(--c3)}64.17%,to{fill:var(--ce)}}@keyframes cx{69.08%{fill:var(--c4)}69.1%,to{fill:var(--ce)}}@keyframes cy{36.09%{fill:var(--c2)}36.11%,to{fill:var(--ce)}}@keyframes cz{38.43%{fill:var(--c2)}38.45%,to{fill:var(--ce)}}@keyframes c10{68.82%{fill:var(--c4)}68.84%,to{fill:var(--ce)}}@keyframes c11{34.02%{fill:var(--c2)}34.04%,to{fill:var(--ce)}}@keyframes c12{23.37%{fill:var(--c1)}23.39%,to{fill:var(--ce)}}@keyframes c13{39.21%{fill:var(--c2)}39.23%,to{fill:var(--ce)}}@keyframes c14{34.8%{fill:var(--c2)}34.82%,to{fill:var(--ce)}}@keyframes c15{66.22%{fill:var(--c3)}66.24%,to{fill:var(--ce)}}@keyframes c16{67.78%{fill:var(--c4)}67.8%,to{fill:var(--ce)}}@keyframes c17{68.04%{fill:var(--c4)}68.06%,to{fill:var(--ce)}}@keyframes c18{40.25%{fill:var(--c2)}40.27%,to{fill:var(--ce)}}@keyframes c19{25.7%{fill:var(--c1)}25.72%,to{fill:var(--ce)}}@keyframes c1a{30.64%{fill:var(--c1)}30.66%,to{fill:var(--ce)}}@keyframes c1b{27.78%{fill:var(--c1)}27.8%,to{fill:var(--ce)}}@keyframes c1c{29.86%{fill:var(--c1)}29.88%,to{fill:var(--ce)}}@keyframes c1d{85.96%{fill:var(--c4)}85.98%,to{fill:var(--ce)}}@keyframes c1e{29.6%{fill:var(--c1)}29.62%,to{fill:var(--ce)}}@keyframes c1f{29.34%{fill:var(--c1)}29.36%,to{fill:var(--ce)}}@keyframes c1g{29.08%{fill:var(--c1)}29.1%,to{fill:var(--ce)}}@keyframes u0{1.03%{transform:scale(0,1)}1.05%,1.55%{transform:scale(.04,1)}1.57%,1.81%{transform:scale(.08,1)}1.83%,2.33%{transform:scale(.13,1)}2.35%,2.85%{transform:scale(.17,1)}2.87%,3.63%{transform:scale(.21,1)}3.65%,5.18%{transform:scale(.25,1)}5.2%,6.48%{transform:scale(.29,1)}6.5%,6.74%{transform:scale(.33,1)}6.76%,7%{transform:scale(.38,1)}7.02%,7.26%{transform:scale(.42,1)}7.28%,8.3%{transform:scale(.46,1)}13.24%,8.32%{transform:scale(.5,1)}13.26%,14.8%{transform:scale(.54,1)}14.82%,18.17%{transform:scale(.58,1)}18.19%,20.77%{transform:scale(.63,1)}20.79%,23.37%{transform:scale(.67,1)}23.39%,25.7%{transform:scale(.71,1)}25.72%,27.78%{transform:scale(.75,1)}27.8%,29.08%{transform:scale(.79,1)}29.1%,29.34%{transform:scale(.83,1)}29.36%,29.6%{transform:scale(.88,1)}29.62%,29.86%{transform:scale(.92,1)}29.88%,30.64%{transform:scale(.96,1)}30.66%,to{transform:scale(1,1)}}@keyframes u1{34.02%{transform:scale(0,1)}34.04%,34.8%{transform:scale(.07,1)}34.82%,36.09%{transform:scale(.13,1)}36.11%,36.87%{transform:scale(.2,1)}36.89%,37.13%{transform:scale(.27,1)}37.15%,37.39%{transform:scale(.33,1)}37.41%,38.43%{transform:scale(.4,1)}38.45%,39.21%{transform:scale(.47,1)}39.23%,40.25%{transform:scale(.53,1)}40.27%,43.63%{transform:scale(.6,1)}43.65%,50.38%{transform:scale(.67,1)}50.4%,50.9%{transform:scale(.73,1)}50.92%,52.2%{transform:scale(.8,1)}52.22%,52.46%{transform:scale(.87,1)}52.48%,53.24%{transform:scale(.93,1)}53.26%,to{transform:scale(1,1)}}@keyframes u2{53.76%{transform:scale(0,1)}53.78%,55.31%{transform:scale(.25,1)}55.33%,64.15%{transform:scale(.5,1)}64.17%,66.22%{transform:scale(.75,1)}66.24%,to{transform:scale(1,1)}}@keyframes u3{67.78%{transform:scale(0,1)}67.8%,68.04%{transform:scale(.1,1)}68.06%,68.82%{transform:scale(.2,1)}68.84%,69.08%{transform:scale(.3,1)}69.1%,70.9%{transform:scale(.4,1)}70.92%,71.68%{transform:scale(.5,1)}71.7%,72.46%{transform:scale(.6,1)}72.48%,72.72%{transform:scale(.7,1)}72.74%,76.35%{transform:scale(.8,1)}76.37%,85.96%{transform:scale(.9,1)}85.98%,to{transform:scale(1,1)}}@keyframes s0{0%,99.74%{transform:translate(0,-16px)}.26%{transform:translate(0,-32px)}.52%{transform:translate(16px,-32px)}1.04%,53.51%{transform:translate(16px,0)}1.56%{transform:translate(48px,0)}1.82%,52.73%{transform:translate(48px,16px)}2.08%{transform:translate(64px,16px)}2.34%{transform:translate(64px,32px)}2.6%{transform:translate(80px,32px)}2.86%{transform:translate(80px,48px)}3.38%{transform:translate(112px,48px)}3.64%{transform:translate(112px,64px)}4.68%,51.95%{transform:translate(48px,64px)}5.19%{transform:translate(48px,96px)}5.71%{transform:translate(16px,96px)}6.23%{transform:translate(16px,64px)}51.17%,6.49%{transform:translate(0,64px)}7.01%{transform:translate(0,32px)}7.27%{transform:translate(16px,32px)}7.53%{transform:translate(16px,48px)}7.79%{transform:translate(0,48px)}8.31%{transform:translate(0,16px)}8.57%{transform:translate(-16px,16px)}8.83%{transform:translate(-16px,32px)}9.61%{transform:translate(32px,32px)}9.87%{transform:translate(32px,16px)}12.73%{transform:translate(208px,16px)}13.25%{transform:translate(208px,48px)}14.29%{transform:translate(272px,48px)}14.81%{transform:translate(272px,16px)}17.14%{transform:translate(416px,16px)}18.18%{transform:translate(416px,80px)}18.44%{transform:translate(432px,80px)}18.7%{transform:translate(432px,64px)}19.74%{transform:translate(496px,64px)}21.04%{transform:translate(496px,-16px)}22.08%{transform:translate(560px,-16px)}23.12%{transform:translate(560px,48px)}25.19%{transform:translate(688px,48px)}25.71%{transform:translate(688px,80px)}27.53%{transform:translate(800px,80px)}27.79%{transform:translate(800px,96px)}28.31%{transform:translate(832px,96px)}29.61%{transform:translate(832px,16px)}30.39%{transform:translate(784px,16px)}30.65%{transform:translate(784px,32px)}34.03%{transform:translate(576px,32px)}34.55%{transform:translate(576px,0)}34.81%{transform:translate(592px,0)}35.06%{transform:translate(592px,-16px)}35.84%{transform:translate(544px,-16px)}36.1%{transform:translate(544px,0)}36.36%,70.65%{transform:translate(528px,0)}36.62%{transform:translate(528px,16px)}36.88%{transform:translate(512px,16px)}37.4%{transform:translate(512px,48px)}37.92%{transform:translate(544px,48px)}38.44%{transform:translate(544px,80px)}38.96%,64.94%{transform:translate(576px,80px)}39.48%{transform:translate(576px,112px)}40%{transform:translate(608px,112px)}40.78%{transform:translate(608px,64px)}43.38%{transform:translate(448px,64px)}43.64%{transform:translate(448px,80px)}50.91%{transform:translate(0,80px)}53.25%{transform:translate(16px,16px)}53.77%{transform:translate(0,0)}55.32%{transform:translate(0,96px)}63.64%{transform:translate(512px,96px)}63.9%{transform:translate(512px,80px)}65.19%{transform:translate(576px,64px)}65.45%{transform:translate(592px,64px)}66.23%{transform:translate(592px,16px)}66.49%{transform:translate(608px,16px)}66.75%{transform:translate(608px,32px)}67.01%{transform:translate(592px,32px)}68.05%{transform:translate(592px,96px)}69.09%{transform:translate(528px,96px)}71.95%{transform:translate(448px,0)}72.73%{transform:translate(448px,48px)}72.99%{transform:translate(432px,48px)}73.77%{transform:translate(432px,0)}76.36%{transform:translate(272px,0)}76.62%{transform:translate(272px,-16px)}85.71%{transform:translate(832px,-16px)}85.97%{transform:translate(832px,0)}98.18%{transform:translate(80px,0)}98.44%{transform:translate(80px,-16px)}}@keyframes s1{0%,99.74%{transform:translate(16px,-16px)}.26%{transform:translate(0,-16px)}.52%{transform:translate(0,-32px)}.78%{transform:translate(16px,-32px)}1.3%,53.77%{transform:translate(16px,0)}1.82%{transform:translate(48px,0)}2.08%,52.99%{transform:translate(48px,16px)}2.34%{transform:translate(64px,16px)}2.6%{transform:translate(64px,32px)}2.86%{transform:translate(80px,32px)}3.12%{transform:translate(80px,48px)}3.64%{transform:translate(112px,48px)}3.9%{transform:translate(112px,64px)}4.94%,52.21%{transform:translate(48px,64px)}5.45%{transform:translate(48px,96px)}5.97%{transform:translate(16px,96px)}6.49%{transform:translate(16px,64px)}51.43%,6.75%{transform:translate(0,64px)}7.27%{transform:translate(0,32px)}7.53%{transform:translate(16px,32px)}7.79%{transform:translate(16px,48px)}8.05%{transform:translate(0,48px)}8.57%{transform:translate(0,16px)}8.83%{transform:translate(-16px,16px)}9.09%{transform:translate(-16px,32px)}9.87%{transform:translate(32px,32px)}10.13%{transform:translate(32px,16px)}12.99%{transform:translate(208px,16px)}13.51%{transform:translate(208px,48px)}14.55%{transform:translate(272px,48px)}15.06%{transform:translate(272px,16px)}17.4%{transform:translate(416px,16px)}18.44%{transform:translate(416px,80px)}18.7%{transform:translate(432px,80px)}18.96%{transform:translate(432px,64px)}20%{transform:translate(496px,64px)}21.3%{transform:translate(496px,-16px)}22.34%{transform:translate(560px,-16px)}23.38%{transform:translate(560px,48px)}25.45%{transform:translate(688px,48px)}25.97%{transform:translate(688px,80px)}27.79%{transform:translate(800px,80px)}28.05%{transform:translate(800px,96px)}28.57%{transform:translate(832px,96px)}29.87%{transform:translate(832px,16px)}30.65%{transform:translate(784px,16px)}30.91%{transform:translate(784px,32px)}34.29%{transform:translate(576px,32px)}34.81%{transform:translate(576px,0)}35.06%{transform:translate(592px,0)}35.32%{transform:translate(592px,-16px)}36.1%{transform:translate(544px,-16px)}36.36%{transform:translate(544px,0)}36.62%,70.91%{transform:translate(528px,0)}36.88%{transform:translate(528px,16px)}37.14%{transform:translate(512px,16px)}37.66%{transform:translate(512px,48px)}38.18%{transform:translate(544px,48px)}38.7%{transform:translate(544px,80px)}39.22%,65.19%{transform:translate(576px,80px)}39.74%{transform:translate(576px,112px)}40.26%{transform:translate(608px,112px)}41.04%{transform:translate(608px,64px)}43.64%{transform:translate(448px,64px)}43.9%{transform:translate(448px,80px)}51.17%{transform:translate(0,80px)}53.51%{transform:translate(16px,16px)}54.03%{transform:translate(0,0)}55.58%{transform:translate(0,96px)}63.9%{transform:translate(512px,96px)}64.16%{transform:translate(512px,80px)}65.45%{transform:translate(576px,64px)}65.71%{transform:translate(592px,64px)}66.49%{transform:translate(592px,16px)}66.75%{transform:translate(608px,16px)}67.01%{transform:translate(608px,32px)}67.27%{transform:translate(592px,32px)}68.31%{transform:translate(592px,96px)}69.35%{transform:translate(528px,96px)}72.21%{transform:translate(448px,0)}72.99%{transform:translate(448px,48px)}73.25%{transform:translate(432px,48px)}74.03%{transform:translate(432px,0)}76.62%{transform:translate(272px,0)}76.88%{transform:translate(272px,-16px)}85.97%{transform:translate(832px,-16px)}86.23%{transform:translate(832px,0)}98.44%{transform:translate(80px,0)}98.7%{transform:translate(80px,-16px)}}@keyframes s2{0%,99.74%{transform:translate(32px,-16px)}.52%{transform:translate(0,-16px)}.78%{transform:translate(0,-32px)}1.04%{transform:translate(16px,-32px)}1.56%,54.03%{transform:translate(16px,0)}2.08%{transform:translate(48px,0)}2.34%,53.25%{transform:translate(48px,16px)}2.6%{transform:translate(64px,16px)}2.86%{transform:translate(64px,32px)}3.12%{transform:translate(80px,32px)}3.38%{transform:translate(80px,48px)}3.9%{transform:translate(112px,48px)}4.16%{transform:translate(112px,64px)}5.19%,52.47%{transform:translate(48px,64px)}5.71%{transform:translate(48px,96px)}6.23%{transform:translate(16px,96px)}6.75%{transform:translate(16px,64px)}51.69%,7.01%{transform:translate(0,64px)}7.53%{transform:translate(0,32px)}7.79%{transform:translate(16px,32px)}8.05%{transform:translate(16px,48px)}8.31%{transform:translate(0,48px)}8.83%{transform:translate(0,16px)}9.09%{transform:translate(-16px,16px)}9.35%{transform:translate(-16px,32px)}10.13%{transform:translate(32px,32px)}10.39%{transform:translate(32px,16px)}13.25%{transform:translate(208px,16px)}13.77%{transform:translate(208px,48px)}14.81%{transform:translate(272px,48px)}15.32%{transform:translate(272px,16px)}17.66%{transform:translate(416px,16px)}18.7%{transform:translate(416px,80px)}18.96%{transform:translate(432px,80px)}19.22%{transform:translate(432px,64px)}20.26%{transform:translate(496px,64px)}21.56%{transform:translate(496px,-16px)}22.6%{transform:translate(560px,-16px)}23.64%{transform:translate(560px,48px)}25.71%{transform:translate(688px,48px)}26.23%{transform:translate(688px,80px)}28.05%{transform:translate(800px,80px)}28.31%{transform:translate(800px,96px)}28.83%{transform:translate(832px,96px)}30.13%{transform:translate(832px,16px)}30.91%{transform:translate(784px,16px)}31.17%{transform:translate(784px,32px)}34.55%{transform:translate(576px,32px)}35.06%{transform:translate(576px,0)}35.32%{transform:translate(592px,0)}35.58%{transform:translate(592px,-16px)}36.36%{transform:translate(544px,-16px)}36.62%{transform:translate(544px,0)}36.88%,71.17%{transform:translate(528px,0)}37.14%{transform:translate(528px,16px)}37.4%{transform:translate(512px,16px)}37.92%{transform:translate(512px,48px)}38.44%{transform:translate(544px,48px)}38.96%{transform:translate(544px,80px)}39.48%,65.45%{transform:translate(576px,80px)}40%{transform:translate(576px,112px)}40.52%{transform:translate(608px,112px)}41.3%{transform:translate(608px,64px)}43.9%{transform:translate(448px,64px)}44.16%{transform:translate(448px,80px)}51.43%{transform:translate(0,80px)}53.77%{transform:translate(16px,16px)}54.29%{transform:translate(0,0)}55.84%{transform:translate(0,96px)}64.16%{transform:translate(512px,96px)}64.42%{transform:translate(512px,80px)}65.71%{transform:translate(576px,64px)}65.97%{transform:translate(592px,64px)}66.75%{transform:translate(592px,16px)}67.01%{transform:translate(608px,16px)}67.27%{transform:translate(608px,32px)}67.53%{transform:translate(592px,32px)}68.57%{transform:translate(592px,96px)}69.61%{transform:translate(528px,96px)}72.47%{transform:translate(448px,0)}73.25%{transform:translate(448px,48px)}73.51%{transform:translate(432px,48px)}74.29%{transform:translate(432px,0)}76.88%{transform:translate(272px,0)}77.14%{transform:translate(272px,-16px)}86.23%{transform:translate(832px,-16px)}86.49%{transform:translate(832px,0)}98.7%{transform:translate(80px,0)}98.96%{transform:translate(80px,-16px)}}@keyframes s3{0%,99.74%{transform:translate(48px,-16px)}.78%{transform:translate(0,-16px)}1.04%{transform:translate(0,-32px)}1.3%{transform:translate(16px,-32px)}1.82%,54.29%{transform:translate(16px,0)}2.34%{transform:translate(48px,0)}2.6%,53.51%{transform:translate(48px,16px)}2.86%{transform:translate(64px,16px)}3.12%{transform:translate(64px,32px)}3.38%{transform:translate(80px,32px)}3.64%{transform:translate(80px,48px)}4.16%{transform:translate(112px,48px)}4.42%{transform:translate(112px,64px)}5.45%,52.73%{transform:translate(48px,64px)}5.97%{transform:translate(48px,96px)}6.49%{transform:translate(16px,96px)}7.01%{transform:translate(16px,64px)}51.95%,7.27%{transform:translate(0,64px)}7.79%{transform:translate(0,32px)}8.05%{transform:translate(16px,32px)}8.31%{transform:translate(16px,48px)}8.57%{transform:translate(0,48px)}9.09%{transform:translate(0,16px)}9.35%{transform:translate(-16px,16px)}9.61%{transform:translate(-16px,32px)}10.39%{transform:translate(32px,32px)}10.65%{transform:translate(32px,16px)}13.51%{transform:translate(208px,16px)}14.03%{transform:translate(208px,48px)}15.06%{transform:translate(272px,48px)}15.58%{transform:translate(272px,16px)}17.92%{transform:translate(416px,16px)}18.96%{transform:translate(416px,80px)}19.22%{transform:translate(432px,80px)}19.48%{transform:translate(432px,64px)}20.52%{transform:translate(496px,64px)}21.82%{transform:translate(496px,-16px)}22.86%{transform:translate(560px,-16px)}23.9%{transform:translate(560px,48px)}25.97%{transform:translate(688px,48px)}26.49%{transform:translate(688px,80px)}28.31%{transform:translate(800px,80px)}28.57%{transform:translate(800px,96px)}29.09%{transform:translate(832px,96px)}30.39%{transform:translate(832px,16px)}31.17%{transform:translate(784px,16px)}31.43%{transform:translate(784px,32px)}34.81%{transform:translate(576px,32px)}35.32%{transform:translate(576px,0)}35.58%{transform:translate(592px,0)}35.84%{transform:translate(592px,-16px)}36.62%{transform:translate(544px,-16px)}36.88%{transform:translate(544px,0)}37.14%,71.43%{transform:translate(528px,0)}37.4%{transform:translate(528px,16px)}37.66%{transform:translate(512px,16px)}38.18%{transform:translate(512px,48px)}38.7%{transform:translate(544px,48px)}39.22%{transform:translate(544px,80px)}39.74%,65.71%{transform:translate(576px,80px)}40.26%{transform:translate(576px,112px)}40.78%{transform:translate(608px,112px)}41.56%{transform:translate(608px,64px)}44.16%{transform:translate(448px,64px)}44.42%{transform:translate(448px,80px)}51.69%{transform:translate(0,80px)}54.03%{transform:translate(16px,16px)}54.55%{transform:translate(0,0)}56.1%{transform:translate(0,96px)}64.42%{transform:translate(512px,96px)}64.68%{transform:translate(512px,80px)}65.97%{transform:translate(576px,64px)}66.23%{transform:translate(592px,64px)}67.01%{transform:translate(592px,16px)}67.27%{transform:translate(608px,16px)}67.53%{transform:translate(608px,32px)}67.79%{transform:translate(592px,32px)}68.83%{transform:translate(592px,96px)}69.87%{transform:translate(528px,96px)}72.73%{transform:translate(448px,0)}73.51%{transform:translate(448px,48px)}73.77%{transform:translate(432px,48px)}74.55%{transform:translate(432px,0)}77.14%{transform:translate(272px,0)}77.4%{transform:translate(272px,-16px)}86.49%{transform:translate(832px,-16px)}86.75%{transform:translate(832px,0)}98.96%{transform:translate(80px,0)}99.22%{transform:translate(80px,-16px)}}:root{--cb:#1b1f230a;--cs:orange;--ce:#bfd6f6;--c0:#bfd6f6;--c1:#8dbdff;--c2:#64a1f4;--c3:#4b91f1;--c4:#3c7dd9}.c{shape-rendering:geometricPrecision;fill:var(--ce);stroke-width:1px;stroke:var(--cb);animation:none 38500ms linear infinite}.c.c0{fill:var(--c3);animation-name:c0}.c.c1{fill:var(--c1);animation-name:c1}.c.c2,.c.c3,.c.c4{fill:var(--c1);animation-name:c2}.c.c3,.c.c4{animation-name:c3}.c.c4{animation-name:c4}.c.c5{fill:var(--c2);animation-name:c5}.c.c6{fill:var(--c3);animation-name:c6}.c.c7{fill:var(--c1);animation-name:c7}.c.c8{fill:var(--c2);animation-name:c8}.c.c9{fill:var(--c1);animation-name:c9}.c.ca{fill:var(--c2);animation-name:ca}.c.cb,.c.cc{fill:var(--c1);animation-name:cb}.c.cc{animation-name:cc}.c.cd,.c.ce{fill:var(--c2);animation-name:cd}.c.ce{animation-name:ce}.c.cf,.c.cg{fill:var(--c1);animation-name:cf}.c.cg{animation-name:cg}.c.ch,.c.ci,.c.cj{fill:var(--c1);animation-name:ch}.c.ci,.c.cj{animation-name:ci}.c.cj{animation-name:cj}.c.ck{fill:var(--c4);animation-name:ck}.c.cl,.c.cm{fill:var(--c1);animation-name:cl}.c.cm{animation-name:cm}.c.cn,.c.co{fill:var(--c4);animation-name:cn}.c.co{animation-name:co}.c.cp{fill:var(--c2);animation-name:cp}.c.cq{fill:var(--c4);animation-name:cq}.c.cr{fill:var(--c1);animation-name:cr}.c.cs{fill:var(--c4);animation-name:cs}.c.ct,.c.cu,.c.cv{fill:var(--c2);animation-name:ct}.c.cu,.c.cv{animation-name:cu}.c.cv{animation-name:cv}.c.cw{fill:var(--c3);animation-name:cw}.c.cx{fill:var(--c4);animation-name:cx}.c.cy,.c.cz{fill:var(--c2);animation-name:cy}.c.cz{animation-name:cz}.c.c10{fill:var(--c4);animation-name:c10}.c.c11{fill:var(--c2);animation-name:c11}.c.c12{fill:var(--c1);animation-name:c12}.c.c13,.c.c14{fill:var(--c2);animation-name:c13}.c.c14{animation-name:c14}.c.c15{fill:var(--c3);animation-name:c15}.c.c16,.c.c17{fill:var(--c4);animation-name:c16}.c.c17{animation-name:c17}.c.c18{fill:var(--c2);animation-name:c18}.c.c19{fill:var(--c1);animation-name:c19}.c.c1a,.c.c1b,.c.c1c{fill:var(--c1);animation-name:c1a}.c.c1b,.c.c1c{animation-name:c1b}.c.c1c{animation-name:c1c}.c.c1d{fill:var(--c4);animation-name:c1d}.c.c1e,.c.c1f,.c.c1g{fill:var(--c1);animation-name:c1e}.c.c1f,.c.c1g{animation-name:c1f}.c.c1g{animation-name:c1g}.s,.u{animation:none linear 38500ms infinite}.u,.u.u0{transform-origin:0 0}.u{transform:scale(0,1)}.u.u0{fill:var(--c1);animation-name:u0}.u.u1{fill:var(--c2);animation-name:u1;transform-origin:384px 0}.u.u2{fill:var(--c3);animation-name:u2;transform-origin:624px 0}.u.u3{fill:var(--c4);animation-name:u3;transform-origin:688px 0}.s{shape-rendering:geometricPrecision;fill:var(--cs)}.s.s0{transform:translate(0,-16px);animation-name:s0}.s.s1{transform:translate(16px,-16px);animation-name:s1}.s.s2{transform:translate(32px,-16px);animation-name:s2}.s.s3{transform:translate(48px,-16px);animation-name:s3}</style><rect class="c c0" x="2" y="2" rx="2" ry="2" width="12" height="12"/><rect class="c c1" x="2" y="18" rx="2" ry="2" width="12" height="12"/><rect class="c c2" x="2" y="34" rx="2" ry="2" width="12" height="12"/><rect class="c c3" x="2" y="50" rx="2" ry="2" width="12" height="12"/><rect class="c c4" x="2" y="66" rx="2" ry="2" width="12" height="12"/><rect class="c c5" x="2" y="82" rx="2" ry="2" width="12" height="12"/><rect class="c c6" x="2" y="98" rx="2" ry="2" width="12" height="12"/><rect class="c c7" x="18" y="2" rx="2" ry="2" width="12" height="12"/><rect class="c c8" x="18" y="18" rx="2" ry="2" width="12" height="12"/><rect class="c c9" x="18" y="34" rx="2" ry="2" width="12" height="12"/><rect class="c" x="18" y="50" rx="2" ry="2" width="12" height="12"/><rect class="c" x="18" y="66" rx="2" ry="2" width="12" height="12"/><rect class="c" x="18" y="82" rx="2" ry="2" width="12" height="12"/><rect class="c" x="18" y="98" rx="2" ry="2" width="12" height="12"/><rect class="c" x="34" y="2" rx="2" ry="2" width="12" height="12"/><rect class="c" x="34" y="18" rx="2" ry="2" width="12" height="12"/><rect class="c" x="34" y="34" rx="2" ry="2" width="12" height="12"/><rect class="c" x="34" y="50" rx="2" ry="2" width="12" height="12"/><rect class="c" x="34" y="66" rx="2" ry="2" width="12" height="12"/><rect class="c ca" x="34" y="82" rx="2" ry="2" width="12" height="12"/><rect class="c" x="34" y="98" rx="2" ry="2" width="12" height="12"/><rect class="c cb" x="50" y="2" rx="2" ry="2" width="12" height="12"/><rect class="c cc" x="50" y="18" rx="2" ry="2" width="12" height="12"/><rect class="c cd" x="50" y="34" rx="2" ry="2" width="12" height="12"/><rect class="c ce" x="50" y="50" rx="2" ry="2" width="12" height="12"/><rect class="c" x="50" y="66" rx="2" ry="2" width="12" height="12"/><rect class="c" x="50" y="82" rx="2" ry="2" width="12" height="12"/><rect class="c cf" x="50" y="98" rx="2" ry="2" width="12" height="12"/><rect class="c" x="66" y="2" rx="2" ry="2" width="12" height="12"/><rect class="c" x="66" y="18" rx="2" ry="2" width="12" height="12"/><rect class="c cg" x="66" y="34" rx="2" ry="2" width="12" height="12"/><rect class="c" x="66" y="50" rx="2" ry="2" width="12" height="12"/><rect class="c" x="66" y="66" rx="2" ry="2" width="12" height="12"/><rect class="c" x="66" y="82" rx="2" ry="2" width="12" height="12"/><rect class="c" x="66" y="98" rx="2" ry="2" width="12" height="12"/><rect class="c" x="82" y="2" rx="2" ry="2" width="12" height="12"/><rect class="c" x="82" y="18" rx="2" ry="2" width="12" height="12"/><rect class="c" x="82" y="34" rx="2" ry="2" width="12" height="12"/><rect class="c ch" x="82" y="50" rx="2" ry="2" width="12" height="12"/><rect class="c" x="82" y="66" rx="2" ry="2" width="12" height="12"/><rect class="c" x="82" y="82" rx="2" ry="2" width="12" height="12"/><rect class="c" x="82" y="98" rx="2" ry="2" width="12" height="12"/><rect class="c" x="98" y="2" rx="2" ry="2" width="12" height="12"/><rect class="c" x="98" y="18" rx="2" ry="2" width="12" height="12"/><rect class="c" x="98" y="34" rx="2" ry="2" width="12" height="12"/><rect class="c" x="98" y="50" rx="2" ry="2" width="12" height="12"/><rect class="c" x="98" y="66" rx="2" ry="2" width="12" height="12"/><rect class="c" x="98" y="82" rx="2" ry="2" width="12" height="12"/><rect class="c" x="98" y="98" rx="2" ry="2" width="12" height="12"/><rect class="c" x="114" y="2" rx="2" ry="2" width="12" height="12"/><rect class="c" x="114" y="18" rx="2" ry="2" width="12" height="12"/><rect class="c" x="114" y="34" rx="2" ry="2" width="12" height="12"/><rect class="c" x="114" y="50" rx="2" ry="2" width="12" height="12"/><rect class="c ci" x="114" y="66" rx="2" ry="2" width="12" height="12"/><rect class="c" x="114" y="82" rx="2" ry="2" width="12" height="12"/><rect class="c" x="114" y="98" rx="2" ry="2" width="12" height="12"/><rect class="c" x="130" y="2" rx="2" ry="2" width="12" height="12"/><rect class="c" x="130" y="18" rx="2" ry="2" width="12" height="12"/><rect class="c" x="130" y="34" rx="2" ry="2" width="12" height="12"/><rect class="c" x="130" y="50" rx="2" ry="2" width="12" height="12"/><rect class="c" x="130" y="66" rx="2" ry="2" width="12" height="12"/><rect class="c" x="130" y="82" rx="2" ry="2" width="12" height="12"/><rect class="c" x="130" y="98" rx="2" ry="2" width="12" height="12"/><rect class="c" x="146" y="2" rx="2" ry="2" width="12" height="12"/><rect class="c" x="146" y="18" rx="2" ry="2" width="12" height="12"/><rect class="c" x="146" y="34" rx="2" ry="2" width="12" height="12"/><rect class="c" x="146" y="50" rx="2" ry="2" width="12" height="12"/><rect class="c" x="146" y="66" rx="2" ry="2" width="12" height="12"/><rect class="c" x="146" y="82" rx="2" ry="2" width="12" height="12"/><rect class="c" x="146" y="98" rx="2" ry="2" width="12" height="12"/><rect class="c" x="162" y="2" rx="2" ry="2" width="12" height="12"/><rect class="c" x="162" y="18" rx="2" ry="2" width="12" height="12"/><rect class="c" x="162" y="34" rx="2" ry="2" width="12" height="12"/><rect class="c" x="162" y="50" rx="2" ry="2" width="12" height="12"/><rect class="c" x="162" y="66" rx="2" ry="2" width="12" height="12"/><rect class="c" x="162" y="82" rx="2" ry="2" width="12" height="12"/><rect class="c" x="162" y="98" rx="2" ry="2" width="12" height="12"/><rect class="c" x="178" y="2" rx="2" ry="2" width="12" height="12"/><rect class="c" x="178" y="18" rx="2" ry="2" width="12" height="12"/><rect class="c" x="178" y="34" rx="2" ry="2" width="12" height="12"/><rect class="c" x="178" y="50" rx="2" ry="2" width="12" height="12"/><rect class="c" x="178" y="66" rx="2" ry="2" width="12" height="12"/><rect class="c" x="178" y="82" rx="2" ry="2" width="12" height="12"/><rect class="c" x="178" y="98" rx="2" ry="2" width="12" height="12"/><rect class="c" x="194" y="2" rx="2" ry="2" width="12" height="12"/><rect class="c" x="194" y="18" rx="2" ry="2" width="12" height="12"/><rect class="c" x="194" y="34" rx="2" ry="2" width="12" height="12"/><rect class="c" x="194" y="50" rx="2" ry="2" width="12" height="12"/><rect class="c" x="194" y="66" rx="2" ry="2" width="12" height="12"/><rect class="c" x="194" y="82" rx="2" ry="2" width="12" height="12"/><rect class="c" x="194" y="98" rx="2" ry="2" width="12" height="12"/><rect class="c" x="210" y="2" rx="2" ry="2" width="12" height="12"/><rect class="c" x="210" y="18" rx="2" ry="2" width="12" height="12"/><rect class="c" x="210" y="34" rx="2" ry="2" width="12" height="12"/><rect class="c cj" x="210" y="50" rx="2" ry="2" width="12" height="12"/><rect class="c" x="210" y="66" rx="2" ry="2" width="12" height="12"/><rect class="c" x="210" y="82" rx="2" ry="2" width="12" height="12"/><rect class="c" x="210" y="98" rx="2" ry="2" width="12" height="12"/><rect class="c" x="226" y="2" rx="2" ry="2" width="12" height="12"/><rect class="c" x="226" y="18" rx="2" ry="2" width="12" height="12"/><rect class="c" x="226" y="34" rx="2" ry="2" width="12" height="12"/><rect class="c" x="226" y="50" rx="2" ry="2" width="12" height="12"/><rect class="c" x="226" y="66" rx="2" ry="2" width="12" height="12"/><rect class="c" x="226" y="82" rx="2" ry="2" width="12" height="12"/><rect class="c" x="226" y="98" rx="2" ry="2" width="12" height="12"/><rect class="c" x="242" y="2" rx="2" ry="2" width="12" height="12"/><rect class="c" x="242" y="18" rx="2" ry="2" width="12" height="12"/><rect class="c" x="242" y="34" rx="2" ry="2" width="12" height="12"/><rect class="c" x="242" y="50" rx="2" ry="2" width="12" height="12"/><rect class="c" x="242" y="66" rx="2" ry="2" width="12" height="12"/><rect class="c" x="242" y="82" rx="2" ry="2" width="12" height="12"/><rect class="c" x="242" y="98" rx="2" ry="2" width="12" height="12"/><rect class="c" x="258" y="2" rx="2" ry="2" width="12" height="12"/><rect class="c" x="258" y="18" rx="2" ry="2" width="12" height="12"/><rect class="c" x="258" y="34" rx="2" ry="2" width="12" height="12"/><rect class="c" x="258" y="50" rx="2" ry="2" width="12" height="12"/><rect class="c" x="258" y="66" rx="2" ry="2" width="12" height="12"/><rect class="c" x="258" y="82" rx="2" ry="2" width="12" height="12"/><rect class="c" x="258" y="98" rx="2" ry="2" width="12" height="12"/><rect class="c ck" x="274" y="2" rx="2" ry="2" width="12" height="12"/><rect class="c cl" x="274" y="18" rx="2" ry="2" width="12" height="12"/><rect class="c" x="274" y="34" rx="2" ry="2" width="12" height="12"/><rect class="c" x="274" y="50" rx="2" ry="2" width="12" height="12"/><rect class="c" x="274" y="66" rx="2" ry="2" width="12" height="12"/><rect class="c" x="274" y="82" rx="2" ry="2" width="12" height="12"/><rect class="c" x="274" y="98" rx="2" ry="2" width="12" height="12"/><rect class="c" x="290" y="2" rx="2" ry="2" width="12" height="12"/><rect class="c" x="290" y="18" rx="2" ry="2" width="12" height="12"/><rect class="c" x="290" y="34" rx="2" ry="2" width="12" height="12"/><rect class="c" x="290" y="50" rx="2" ry="2" width="12" height="12"/><rect class="c" x="290" y="66" rx="2" ry="2" width="12" height="12"/><rect class="c" x="290" y="82" rx="2" ry="2" width="12" height="12"/><rect class="c" x="290" y="98" rx="2" ry="2" width="12" height="12"/><rect class="c" x="306" y="2" rx="2" ry="2" width="12" height="12"/><rect class="c" x="306" y="18" rx="2" ry="2" width="12" height="12"/><rect class="c" x="306" y="34" rx="2" ry="2" width="12" height="12"/><rect class="c" x="306" y="50" rx="2" ry="2" width="12" height="12"/><rect class="c" x="306" y="66" rx="2" ry="2" width="12" height="12"/><rect class="c" x="306" y="82" rx="2" ry="2" width="12" height="12"/><rect class="c" x="306" y="98" rx="2" ry="2" width="12" height="12"/><rect class="c" x="322" y="2" rx="2" ry="2" width="12" height="12"/><rect class="c" x="322" y="18" rx="2" ry="2" width="12" height="12"/><rect class="c" x="322" y="34" rx="2" ry="2" width="12" height="12"/><rect class="c" x="322" y="50" rx="2" ry="2" width="12" height="12"/><rect class="c" x="322" y="66" rx="2" ry="2" width="12" height="12"/><rect class="c" x="322" y="82" rx="2" ry="2" width="12" height="12"/><rect class="c" x="322" y="98" rx="2" ry="2" width="12" height="12"/><rect class="c" x="338" y="2" rx="2" ry="2" width="12" height="12"/><rect class="c" x="338" y="18" rx="2" ry="2" width="12" height="12"/><rect class="c" x="338" y="34" rx="2" ry="2" width="12" height="12"/><rect class="c" x="338" y="50" rx="2" ry="2" width="12" height="12"/><rect class="c" x="338" y="66" rx="2" ry="2" width="12" height="12"/><rect class="c" x="338" y="82" rx="2" ry="2" width="12" height="12"/><rect class="c" x="338" y="98" rx="2" ry="2" width="12" height="12"/><rect class="c" x="354" y="2" rx="2" ry="2" width="12" height="12"/><rect class="c" x="354" y="18" rx="2" ry="2" width="12" height="12"/><rect class="c" x="354" y="34" rx="2" ry="2" width="12" height="12"/><rect class="c" x="354" y="50" rx="2" ry="2" width="12" height="12"/><rect class="c" x="354" y="66" rx="2" ry="2" width="12" height="12"/><rect class="c" x="354" y="82" rx="2" ry="2" width="12" height="12"/><rect class="c" x="354" y="98" rx="2" ry="2" width="12" height="12"/><rect class="c" x="370" y="2" rx="2" ry="2" width="12" height="12"/><rect class="c" x="370" y="18" rx="2" ry="2" width="12" height="12"/><rect class="c" x="370" y="34" rx="2" ry="2" width="12" height="12"/><rect class="c" x="370" y="50" rx="2" ry="2" width="12" height="12"/><rect class="c" x="370" y="66" rx="2" ry="2" width="12" height="12"/><rect class="c" x="370" y="82" rx="2" ry="2" width="12" height="12"/><rect class="c" x="370" y="98" rx="2" ry="2" width="12" height="12"/><rect class="c" x="386" y="2" rx="2" ry="2" width="12" height="12"/><rect class="c" x="386" y="18" rx="2" ry="2" width="12" height="12"/><rect class="c" x="386" y="34" rx="2" ry="2" width="12" height="12"/><rect class="c" x="386" y="50" rx="2" ry="2" width="12" height="12"/><rect class="c" x="386" y="66" rx="2" ry="2" width="12" height="12"/><rect class="c" x="386" y="82" rx="2" ry="2" width="12" height="12"/><rect class="c" x="386" y="98" rx="2" ry="2" width="12" height="12"/><rect class="c" x="402" y="2" rx="2" ry="2" width="12" height="12"/><rect class="c" x="402" y="18" rx="2" ry="2" width="12" height="12"/><rect class="c" x="402" y="34" rx="2" ry="2" width="12" height="12"/><rect class="c" x="402" y="50" rx="2" ry="2" width="12" height="12"/><rect class="c" x="402" y="66" rx="2" ry="2" width="12" height="12"/><rect class="c" x="402" y="82" rx="2" ry="2" width="12" height="12"/><rect class="c" x="402" y="98" rx="2" ry="2" width="12" height="12"/><rect class="c" x="418" y="2" rx="2" ry="2" width="12" height="12"/><rect class="c" x="418" y="18" rx="2" ry="2" width="12" height="12"/><rect class="c" x="418" y="34" rx="2" ry="2" width="12" height="12"/><rect class="c" x="418" y="50" rx="2" ry="2" width="12" height="12"/><rect class="c" x="418" y="66" rx="2" ry="2" width="12" height="12"/><rect class="c cm" x="418" y="82" rx="2" ry="2" width="12" height="12"/><rect class="c" x="418" y="98" rx="2" ry="2" width="12" height="12"/><rect class="c" x="434" y="2" rx="2" ry="2" width="12" height="12"/><rect class="c" x="434" y="18" rx="2" ry="2" width="12" height="12"/><rect class="c" x="434" y="34" rx="2" ry="2" width="12" height="12"/><rect class="c" x="434" y="50" rx="2" ry="2" width="12" height="12"/><rect class="c" x="434" y="66" rx="2" ry="2" width="12" height="12"/><rect class="c" x="434" y="82" rx="2" ry="2" width="12" height="12"/><rect class="c" x="434" y="98" rx="2" ry="2" width="12" height="12"/><rect class="c" x="450" y="2" rx="2" ry="2" width="12" height="12"/><rect class="c" x="450" y="18" rx="2" ry="2" width="12" height="12"/><rect class="c cn" x="450" y="34" rx="2" ry="2" width="12" height="12"/><rect class="c co" x="450" y="50" rx="2" ry="2" width="12" height="12"/><rect class="c" x="450" y="66" rx="2" ry="2" width="12" height="12"/><rect class="c cp" x="450" y="82" rx="2" ry="2" width="12" height="12"/><rect class="c" x="450" y="98" rx="2" ry="2" width="12" height="12"/><rect class="c cq" x="466" y="2" rx="2" ry="2" width="12" height="12"/><rect class="c" x="466" y="18" rx="2" ry="2" width="12" height="12"/><rect class="c" x="466" y="34" rx="2" ry="2" width="12" height="12"/><rect class="c" x="466" y="50" rx="2" ry="2" width="12" height="12"/><rect class="c" x="466" y="66" rx="2" ry="2" width="12" height="12"/><rect class="c" x="466" y="82" rx="2" ry="2" width="12" height="12"/><rect class="c" x="466" y="98" rx="2" ry="2" width="12" height="12"/><rect class="c" x="482" y="2" rx="2" ry="2" width="12" height="12"/><rect class="c" x="482" y="18" rx="2" ry="2" width="12" height="12"/><rect class="c" x="482" y="34" rx="2" ry="2" width="12" height="12"/><rect class="c" x="482" y="50" rx="2" ry="2" width="12" height="12"/><rect class="c" x="482" y="66" rx="2" ry="2" width="12" height="12"/><rect class="c" x="482" y="82" rx="2" ry="2" width="12" height="12"/><rect class="c" x="482" y="98" rx="2" ry="2" width="12" height="12"/><rect class="c cr" x="498" y="2" rx="2" ry="2" width="12" height="12"/><rect class="c" x="498" y="18" rx="2" ry="2" width="12" height="12"/><rect class="c" x="498" y="34" rx="2" ry="2" width="12" height="12"/><rect class="c" x="498" y="50" rx="2" ry="2" width="12" height="12"/><rect class="c" x="498" y="66" rx="2" ry="2" width="12" height="12"/><rect class="c" x="498" y="82" rx="2" ry="2" width="12" height="12"/><rect class="c" x="498" y="98" rx="2" ry="2" width="12" height="12"/><rect class="c cs" x="514" y="2" rx="2" ry="2" width="12" height="12"/><rect class="c ct" x="514" y="18" rx="2" ry="2" width="12" height="12"/><rect class="c cu" x="514" y="34" rx="2" ry="2" width="12" height="12"/><rect class="c cv" x="514" y="50" rx="2" ry="2" width="12" height="12"/><rect class="c" x="514" y="66" rx="2" ry="2" width="12" height="12"/><rect class="c" x="514" y="82" rx="2" ry="2" width="12" height="12"/><rect class="c" x="514" y="98" rx="2" ry="2" width="12" height="12"/><rect class="c" x="530" y="2" rx="2" ry="2" width="12" height="12"/><rect class="c" x="530" y="18" rx="2" ry="2" width="12" height="12"/><rect class="c" x="530" y="34" rx="2" ry="2" width="12" height="12"/><rect class="c" x="530" y="50" rx="2" ry="2" width="12" height="12"/><rect class="c" x="530" y="66" rx="2" ry="2" width="12" height="12"/><rect class="c cw" x="530" y="82" rx="2" ry="2" width="12" height="12"/><rect class="c cx" x="530" y="98" rx="2" ry="2" width="12" height="12"/><rect class="c cy" x="546" y="2" rx="2" ry="2" width="12" height="12"/><rect class="c" x="546" y="18" rx="2" ry="2" width="12" height="12"/><rect class="c" x="546" y="34" rx="2" ry="2" width="12" height="12"/><rect class="c" x="546" y="50" rx="2" ry="2" width="12" height="12"/><rect class="c" x="546" y="66" rx="2" ry="2" width="12" height="12"/><rect class="c cz" x="546" y="82" rx="2" ry="2" width="12" height="12"/><rect class="c c10" x="546" y="98" rx="2" ry="2" width="12" height="12"/><rect class="c" x="562" y="2" rx="2" ry="2" width="12" height="12"/><rect class="c" x="562" y="18" rx="2" ry="2" width="12" height="12"/><rect class="c" x="562" y="34" rx="2" ry="2" width="12" height="12"/><rect class="c" x="562" y="50" rx="2" ry="2" width="12" height="12"/><rect class="c" x="562" y="66" rx="2" ry="2" width="12" height="12"/><rect class="c" x="562" y="82" rx="2" ry="2" width="12" height="12"/><rect class="c" x="562" y="98" rx="2" ry="2" width="12" height="12"/><rect class="c" x="578" y="2" rx="2" ry="2" width="12" height="12"/><rect class="c" x="578" y="18" rx="2" ry="2" width="12" height="12"/><rect class="c c11" x="578" y="34" rx="2" ry="2" width="12" height="12"/><rect class="c c12" x="578" y="50" rx="2" ry="2" width="12" height="12"/><rect class="c" x="578" y="66" rx="2" ry="2" width="12" height="12"/><rect class="c" x="578" y="82" rx="2" ry="2" width="12" height="12"/><rect class="c c13" x="578" y="98" rx="2" ry="2" width="12" height="12"/><rect class="c c14" x="594" y="2" rx="2" ry="2" width="12" height="12"/><rect class="c c15" x="594" y="18" rx="2" ry="2" width="12" height="12"/><rect class="c" x="594" y="34" rx="2" ry="2" width="12" height="12"/><rect class="c" x="594" y="50" rx="2" ry="2" width="12" height="12"/><rect class="c" x="594" y="66" rx="2" ry="2" width="12" height="12"/><rect class="c c16" x="594" y="82" rx="2" ry="2" width="12" height="12"/><rect class="c c17" x="594" y="98" rx="2" ry="2" width="12" height="12"/><rect class="c" x="610" y="2" rx="2" ry="2" width="12" height="12"/><rect class="c" x="610" y="18" rx="2" ry="2" width="12" height="12"/><rect class="c" x="610" y="34" rx="2" ry="2" width="12" height="12"/><rect class="c" x="610" y="50" rx="2" ry="2" width="12" height="12"/><rect class="c" x="610" y="66" rx="2" ry="2" width="12" height="12"/><rect class="c" x="610" y="82" rx="2" ry="2" width="12" height="12"/><rect class="c c18" x="610" y="98" rx="2" ry="2" width="12" height="12"/><rect class="c" x="626" y="2" rx="2" ry="2" width="12" height="12"/><rect class="c" x="626" y="18" rx="2" ry="2" width="12" height="12"/><rect class="c" x="626" y="34" rx="2" ry="2" width="12" height="12"/><rect class="c" x="626" y="50" rx="2" ry="2" width="12" height="12"/><rect class="c" x="626" y="66" rx="2" ry="2" width="12" height="12"/><rect class="c" x="626" y="82" rx="2" ry="2" width="12" height="12"/><rect class="c" x="626" y="98" rx="2" ry="2" width="12" height="12"/><rect class="c" x="642" y="2" rx="2" ry="2" width="12" height="12"/><rect class="c" x="642" y="18" rx="2" ry="2" width="12" height="12"/><rect class="c" x="642" y="34" rx="2" ry="2" width="12" height="12"/><rect class="c" x="642" y="50" rx="2" ry="2" width="12" height="12"/><rect class="c" x="642" y="66" rx="2" ry="2" width="12" height="12"/><rect class="c" x="642" y="82" rx="2" ry="2" width="12" height="12"/><rect class="c" x="642" y="98" rx="2" ry="2" width="12" height="12"/><rect class="c" x="658" y="2" rx="2" ry="2" width="12" height="12"/><rect class="c" x="658" y="18" rx="2" ry="2" width="12" height="12"/><rect class="c" x="658" y="34" rx="2" ry="2" width="12" height="12"/><rect class="c" x="658" y="50" rx="2" ry="2" width="12" height="12"/><rect class="c" x="658" y="66" rx="2" ry="2" width="12" height="12"/><rect class="c" x="658" y="82" rx="2" ry="2" width="12" height="12"/><rect class="c" x="658" y="98" rx="2" ry="2" width="12" height="12"/><rect class="c" x="674" y="2" rx="2" ry="2" width="12" height="12"/><rect class="c" x="674" y="18" rx="2" ry="2" width="12" height="12"/><rect class="c" x="674" y="34" rx="2" ry="2" width="12" height="12"/><rect class="c" x="674" y="50" rx="2" ry="2" width="12" height="12"/><rect class="c" x="674" y="66" rx="2" ry="2" width="12" height="12"/><rect class="c" x="674" y="82" rx="2" ry="2" width="12" height="12"/><rect class="c" x="674" y="98" rx="2" ry="2" width="12" height="12"/><rect class="c" x="690" y="2" rx="2" ry="2" width="12" height="12"/><rect class="c" x="690" y="18" rx="2" ry="2" width="12" height="12"/><rect class="c" x="690" y="34" rx="2" ry="2" width="12" height="12"/><rect class="c" x="690" y="50" rx="2" ry="2" width="12" height="12"/><rect class="c" x="690" y="66" rx="2" ry="2" width="12" height="12"/><rect class="c c19" x="690" y="82" rx="2" ry="2" width="12" height="12"/><rect class="c" x="690" y="98" rx="2" ry="2" width="12" height="12"/><rect class="c" x="706" y="2" rx="2" ry="2" width="12" height="12"/><rect class="c" x="706" y="18" rx="2" ry="2" width="12" height="12"/><rect class="c" x="706" y="34" rx="2" ry="2" width="12" height="12"/><rect class="c" x="706" y="50" rx="2" ry="2" width="12" height="12"/><rect class="c" x="706" y="66" rx="2" ry="2" width="12" height="12"/><rect class="c" x="706" y="82" rx="2" ry="2" width="12" height="12"/><rect class="c" x="706" y="98" rx="2" ry="2" width="12" height="12"/><rect class="c" x="722" y="2" rx="2" ry="2" width="12" height="12"/><rect class="c" x="722" y="18" rx="2" ry="2" width="12" height="12"/><rect class="c" x="722" y="34" rx="2" ry="2" width="12" height="12"/><rect class="c" x="722" y="50" rx="2" ry="2" width="12" height="12"/><rect class="c" x="722" y="66" rx="2" ry="2" width="12" height="12"/><rect class="c" x="722" y="82" rx="2" ry="2" width="12" height="12"/><rect class="c" x="722" y="98" rx="2" ry="2" width="12" height="12"/><rect class="c" x="738" y="2" rx="2" ry="2" width="12" height="12"/><rect class="c" x="738" y="18" rx="2" ry="2" width="12" height="12"/><rect class="c" x="738" y="34" rx="2" ry="2" width="12" height="12"/><rect class="c" x="738" y="50" rx="2" ry="2" width="12" height="12"/><rect class="c" x="738" y="66" rx="2" ry="2" width="12" height="12"/><rect class="c" x="738" y="82" rx="2" ry="2" width="12" height="12"/><rect class="c" x="738" y="98" rx="2" ry="2" width="12" height="12"/><rect class="c" x="754" y="2" rx="2" ry="2" width="12" height="12"/><rect class="c" x="754" y="18" rx="2" ry="2" width="12" height="12"/><rect class="c" x="754" y="34" rx="2" ry="2" width="12" height="12"/><rect class="c" x="754" y="50" rx="2" ry="2" width="12" height="12"/><rect class="c" x="754" y="66" rx="2" ry="2" width="12" height="12"/><rect class="c" x="754" y="82" rx="2" ry="2" width="12" height="12"/><rect class="c" x="754" y="98" rx="2" ry="2" width="12" height="12"/><rect class="c" x="770" y="2" rx="2" ry="2" width="12" height="12"/><rect class="c" x="770" y="18" rx="2" ry="2" width="12" height="12"/><rect class="c" x="770" y="34" rx="2" ry="2" width="12" height="12"/><rect class="c" x="770" y="50" rx="2" ry="2" width="12" height="12"/><rect class="c" x="770" y="66" rx="2" ry="2" width="12" height="12"/><rect class="c" x="770" y="82" rx="2" ry="2" width="12" height="12"/><rect class="c" x="770" y="98" rx="2" ry="2" width="12" height="12"/><rect class="c" x="786" y="2" rx="2" ry="2" width="12" height="12"/><rect class="c" x="786" y="18" rx="2" ry="2" width="12" height="12"/><rect class="c c1a" x="786" y="34" rx="2" ry="2" width="12" height="12"/><rect class="c" x="786" y="50" rx="2" ry="2" width="12" height="12"/><rect class="c" x="786" y="66" rx="2" ry="2" width="12" height="12"/><rect class="c" x="786" y="82" rx="2" ry="2" width="12" height="12"/><rect class="c" x="786" y="98" rx="2" ry="2" width="12" height="12"/><rect class="c" x="802" y="2" rx="2" ry="2" width="12" height="12"/><rect class="c" x="802" y="18" rx="2" ry="2" width="12" height="12"/><rect class="c" x="802" y="34" rx="2" ry="2" width="12" height="12"/><rect class="c" x="802" y="50" rx="2" ry="2" width="12" height="12"/><rect class="c" x="802" y="66" rx="2" ry="2" width="12" height="12"/><rect class="c" x="802" y="82" rx="2" ry="2" width="12" height="12"/><rect class="c c1b" x="802" y="98" rx="2" ry="2" width="12" height="12"/><rect class="c" x="818" y="2" rx="2" ry="2" width="12" height="12"/><rect class="c c1c" x="818" y="18" rx="2" ry="2" width="12" height="12"/><rect class="c" x="818" y="34" rx="2" ry="2" width="12" height="12"/><rect class="c" x="818" y="50" rx="2" ry="2" width="12" height="12"/><rect class="c" x="818" y="66" rx="2" ry="2" width="12" height="12"/><rect class="c" x="818" y="82" rx="2" ry="2" width="12" height="12"/><rect class="c" x="818" y="98" rx="2" ry="2" width="12" height="12"/><rect class="c c1d" x="834" y="2" rx="2" ry="2" width="12" height="12"/><rect class="c c1e" x="834" y="18" rx="2" ry="2" width="12" height="12"/><rect class="c c1f" x="834" y="34" rx="2" ry="2" width="12" height="12"/><rect class="c c1g" x="834" y="50" rx="2" ry="2" width="12" height="12"/><rect class="c" x="834" y="66" rx="2" ry="2" width="12" height="12"/><rect class="u u0" height="12" width="384.6" x="0.0" y="144"/><rect class="u u1" height="12" width="240.6" x="384.0" y="144"/><rect class="u u2" height="12" width="64.6" x="624.0" y="144"/><rect class="u u3" height="12" width="160.6" x="688.0" y="144"/><rect class="s s0" x="0.8" y="0.8" width="14.4" height="14.4" rx="4.5" ry="4.5"/><rect class="s s1" x="1.8" y="1.8" width="12.3" height="12.3" rx="4.1" ry="4.1"/><rect class="s s2" x="2.6" y="2.6" width="10.8" height="10.8" rx="3.6" ry="3.6"/><rect class="s s3" x="3.0" y="3.0" width="9.9" height="9.9" rx="3.3" ry="3.3"/></svg>