<svg viewBox="-16 -32 880 192" width="880" height="192" xmlns="http://www.w3.org/2000/svg"><desc>Generated with https://github.com/Platane/snk</desc><style>@keyframes c0{2.3%{fill:var(--c1)}2.32%,to{fill:var(--ce)}}@keyframes c1{73.26%{fill:var(--c2)}73.28%,to{fill:var(--ce)}}@keyframes c2{4.28%{fill:var(--c1)}4.3%,to{fill:var(--ce)}}@keyframes c3{52.8%{fill:var(--c1)}52.82%,to{fill:var(--ce)}}@keyframes c4{8.24%{fill:var(--c1)}8.26%,to{fill:var(--ce)}}@keyframes c5{8.57%{fill:var(--c1)}8.59%,to{fill:var(--ce)}}@keyframes c6{11.87%{fill:var(--c1)}11.89%,to{fill:var(--ce)}}@keyframes c7{11.21%{fill:var(--c1)}11.23%,to{fill:var(--ce)}}@keyframes c8{10.88%{fill:var(--c1)}10.9%,to{fill:var(--ce)}}@keyframes c9{10.55%{fill:var(--c1)}10.57%,to{fill:var(--ce)}}@keyframes ca{10.22%{fill:var(--c1)}10.24%,to{fill:var(--ce)}}@keyframes cb{9.89%{fill:var(--c1)}9.91%,to{fill:var(--ce)}}@keyframes cc{49.82%{fill:var(--c1)}49.84%,to{fill:var(--ce)}}@keyframes cd{50.16%{fill:var(--c1)}50.18%,to{fill:var(--ce)}}@keyframes ce{14.18%{fill:var(--c1)}14.2%,to{fill:var(--ce)}}@keyframes cf{49.49%{fill:var(--c1)}49.51%,to{fill:var(--ce)}}@keyframes cg{49.16%{fill:var(--c1)}49.18%,to{fill:var(--ce)}}@keyframes ch{16.16%{fill:var(--c1)}16.18%,to{fill:var(--ce)}}@keyframes ci{16.49%{fill:var(--c1)}16.51%,to{fill:var(--ce)}}@keyframes cj{48.5%{fill:var(--c1)}48.52%,to{fill:var(--ce)}}@keyframes ck{15.17%{fill:var(--c1)}15.19%,to{fill:var(--ce)}}@keyframes cl{15.5%{fill:var(--c1)}15.52%,to{fill:var(--ce)}}@keyframes cm{17.48%{fill:var(--c1)}17.5%,to{fill:var(--ce)}}@keyframes cn{56.76%{fill:var(--c2)}56.78%,to{fill:var(--ce)}}@keyframes co{18.14%{fill:var(--c1)}18.16%,to{fill:var(--ce)}}@keyframes cp{19.13%{fill:var(--c1)}19.15%,to{fill:var(--ce)}}@keyframes cq{22.76%{fill:var(--c1)}22.78%,to{fill:var(--ce)}}@keyframes cr{21.44%{fill:var(--c1)}21.46%,to{fill:var(--ce)}}@keyframes cs{20.12%{fill:var(--c1)}20.14%,to{fill:var(--ce)}}@keyframes ct{21.11%{fill:var(--c1)}21.13%,to{fill:var(--ce)}}@keyframes cu{20.45%{fill:var(--c1)}20.47%,to{fill:var(--ce)}}@keyframes cv{24.41%{fill:var(--c1)}24.43%,to{fill:var(--ce)}}@keyframes cw{41.57%{fill:var(--c1)}41.59%,to{fill:var(--ce)}}@keyframes cx{44.21%{fill:var(--c1)}44.23%,to{fill:var(--ce)}}@keyframes cy{25.07%{fill:var(--c1)}25.09%,to{fill:var(--ce)}}@keyframes cz{41.24%{fill:var(--c1)}41.26%,to{fill:var(--ce)}}@keyframes c10{40.25%{fill:var(--c1)}40.27%,to{fill:var(--ce)}}@keyframes c11{25.4%{fill:var(--c1)}25.42%,to{fill:var(--ce)}}@keyframes c12{62.04%{fill:var(--c2)}62.06%,to{fill:var(--ce)}}@keyframes c13{42.56%{fill:var(--c1)}42.58%,to{fill:var(--ce)}}@keyframes c14{39.92%{fill:var(--c1)}39.94%,to{fill:var(--ce)}}@keyframes c15{25.73%{fill:var(--c1)}25.75%,to{fill:var(--ce)}}@keyframes c16{39.26%{fill:var(--c1)}39.28%,to{fill:var(--ce)}}@keyframes c17{38.27%{fill:var(--c1)}38.29%,to{fill:var(--ce)}}@keyframes c18{37.94%{fill:var(--c1)}37.96%,to{fill:var(--ce)}}@keyframes c19{26.06%{fill:var(--c1)}26.08%,to{fill:var(--ce)}}@keyframes c1a{85.47%{fill:var(--c4)}85.49%,to{fill:var(--ce)}}@keyframes c1b{26.39%{fill:var(--c1)}26.41%,to{fill:var(--ce)}}@keyframes c1c{35.96%{fill:var(--c1)}35.98%,to{fill:var(--ce)}}@keyframes c1d{36.29%{fill:var(--c1)}36.31%,to{fill:var(--ce)}}@keyframes c1e{36.62%{fill:var(--c1)}36.64%,to{fill:var(--ce)}}@keyframes c1f{36.95%{fill:var(--c1)}36.97%,to{fill:var(--ce)}}@keyframes c1g{37.28%{fill:var(--c1)}37.3%,to{fill:var(--ce)}}@keyframes c1h{27.05%{fill:var(--c1)}27.07%,to{fill:var(--ce)}}@keyframes c1i{26.72%{fill:var(--c1)}26.74%,to{fill:var(--ce)}}@keyframes c1j{35.63%{fill:var(--c1)}35.65%,to{fill:var(--ce)}}@keyframes c1k{35.3%{fill:var(--c1)}35.32%,to{fill:var(--ce)}}@keyframes c1l{34.97%{fill:var(--c1)}34.99%,to{fill:var(--ce)}}@keyframes c1m{34.64%{fill:var(--c1)}34.66%,to{fill:var(--ce)}}@keyframes c1n{34.31%{fill:var(--c1)}34.33%,to{fill:var(--ce)}}@keyframes c1o{27.38%{fill:var(--c1)}27.4%,to{fill:var(--ce)}}@keyframes c1p{27.71%{fill:var(--c1)}27.73%,to{fill:var(--ce)}}@keyframes c1q{28.04%{fill:var(--c1)}28.06%,to{fill:var(--ce)}}@keyframes c1r{33.32%{fill:var(--c1)}33.34%,to{fill:var(--ce)}}@keyframes c1s{28.37%{fill:var(--c1)}28.39%,to{fill:var(--ce)}}@keyframes c1t{28.7%{fill:var(--c1)}28.72%,to{fill:var(--ce)}}@keyframes c1u{32.66%{fill:var(--c1)}32.68%,to{fill:var(--ce)}}@keyframes c1v{29.03%{fill:var(--c1)}29.05%,to{fill:var(--ce)}}@keyframes c1w{29.36%{fill:var(--c1)}29.38%,to{fill:var(--ce)}}@keyframes c1x{29.69%{fill:var(--c1)}29.71%,to{fill:var(--ce)}}@keyframes u0{2.3%{transform:scale(0,1)}2.32%,4.28%{transform:scale(.02,1)}4.3%,8.24%{transform:scale(.03,1)}8.26%,8.57%{transform:scale(.05,1)}8.59%,9.89%{transform:scale(.06,1)}10.22%,9.91%{transform:scale(.08,1)}10.24%,10.55%{transform:scale(.09,1)}10.57%,10.88%{transform:scale(.11,1)}10.9%,11.21%{transform:scale(.12,1)}11.23%,11.87%{transform:scale(.14,1)}11.89%,14.18%{transform:scale(.15,1)}14.2%,15.17%{transform:scale(.17,1)}15.19%,15.5%{transform:scale(.18,1)}15.52%,16.16%{transform:scale(.2,1)}16.18%,16.49%{transform:scale(.21,1)}16.51%,17.48%{transform:scale(.23,1)}17.5%,18.14%{transform:scale(.24,1)}18.16%,19.13%{transform:scale(.26,1)}19.15%,20.12%{transform:scale(.27,1)}20.14%,20.45%{transform:scale(.29,1)}20.47%,21.11%{transform:scale(.3,1)}21.13%,21.44%{transform:scale(.32,1)}21.46%,22.76%{transform:scale(.33,1)}22.78%,24.41%{transform:scale(.35,1)}24.43%,25.07%{transform:scale(.36,1)}25.09%,25.4%{transform:scale(.38,1)}25.42%,25.73%{transform:scale(.39,1)}25.75%,26.06%{transform:scale(.41,1)}26.08%,26.39%{transform:scale(.42,1)}26.41%,26.72%{transform:scale(.44,1)}26.74%,27.05%{transform:scale(.45,1)}27.07%,27.38%{transform:scale(.47,1)}27.4%,27.71%{transform:scale(.48,1)}27.73%,28.04%{transform:scale(.5,1)}28.06%,28.37%{transform:scale(.52,1)}28.39%,28.7%{transform:scale(.53,1)}28.72%,29.03%{transform:scale(.55,1)}29.05%,29.36%{transform:scale(.56,1)}29.38%,29.69%{transform:scale(.58,1)}29.71%,32.66%{transform:scale(.59,1)}32.68%,33.32%{transform:scale(.61,1)}33.34%,34.31%{transform:scale(.62,1)}34.33%,34.64%{transform:scale(.64,1)}34.66%,34.97%{transform:scale(.65,1)}34.99%,35.3%{transform:scale(.67,1)}35.32%,35.63%{transform:scale(.68,1)}35.65%,35.96%{transform:scale(.7,1)}35.98%,36.29%{transform:scale(.71,1)}36.31%,36.62%{transform:scale(.73,1)}36.64%,36.95%{transform:scale(.74,1)}36.97%,37.28%{transform:scale(.76,1)}37.3%,37.94%{transform:scale(.77,1)}37.96%,38.27%{transform:scale(.79,1)}38.29%,39.26%{transform:scale(.8,1)}39.28%,39.92%{transform:scale(.82,1)}39.94%,40.25%{transform:scale(.83,1)}40.27%,41.24%{transform:scale(.85,1)}41.26%,41.57%{transform:scale(.86,1)}41.59%,42.56%{transform:scale(.88,1)}42.58%,44.21%{transform:scale(.89,1)}44.23%,48.5%{transform:scale(.91,1)}48.52%,49.16%{transform:scale(.92,1)}49.18%,49.49%{transform:scale(.94,1)}49.51%,49.82%{transform:scale(.95,1)}49.84%,50.16%{transform:scale(.97,1)}50.18%,52.8%{transform:scale(.98,1)}52.82%,to{transform:scale(1,1)}}@keyframes u1{56.76%{transform:scale(0,1)}56.78%,62.04%{transform:scale(.33,1)}62.06%,73.26%{transform:scale(.67,1)}73.28%,to{transform:scale(1,1)}}@keyframes u2{85.47%{transform:scale(0,1)}85.49%,to{transform:scale(1,1)}}@keyframes s0{0%,99.67%{transform:translate(0,-16px)}.33%{transform:translate(0,0)}1.32%{transform:translate(48px,0)}2.31%{transform:translate(48px,48px)}3.63%{transform:translate(112px,48px)}4.29%{transform:translate(112px,16px)}7.92%{transform:translate(288px,16px)}8.58%{transform:translate(288px,48px)}9.9%{transform:translate(352px,48px)}10.89%{transform:translate(352px,0)}11.88%{transform:translate(304px,0)}12.21%{transform:translate(304px,-16px)}13.86%{transform:translate(384px,-16px)}14.19%{transform:translate(384px,0)}15.18%{transform:translate(432px,0)}15.51%{transform:translate(432px,16px)}15.84%{transform:translate(416px,16px)}16.5%{transform:translate(416px,48px)}16.83%{transform:translate(432px,48px)}17.49%{transform:translate(432px,80px)}17.82%{transform:translate(448px,80px)}18.15%{transform:translate(448px,96px)}19.8%{transform:translate(528px,96px)}20.13%{transform:translate(528px,80px)}20.46%{transform:translate(544px,80px)}21.12%{transform:translate(544px,48px)}21.45%{transform:translate(528px,48px)}22.44%{transform:translate(528px,0)}22.77%{transform:translate(512px,0)}23.1%{transform:translate(512px,16px)}26.73%{transform:translate(688px,16px)}27.06%{transform:translate(688px,0)}29.7%{transform:translate(816px,0)}30.03%{transform:translate(816px,16px)}31.02%{transform:translate(768px,16px)}32.67%{transform:translate(768px,96px)}34.32%{transform:translate(688px,96px)}35.64%{transform:translate(688px,32px)}35.97%{transform:translate(672px,32px)}37.29%{transform:translate(672px,96px)}37.95%{transform:translate(640px,96px)}39.93%{transform:translate(640px,0)}40.59%{transform:translate(608px,0)}41.25%{transform:translate(608px,32px)}41.58%{transform:translate(592px,32px)}41.91%{transform:translate(592px,48px)}42.57%{transform:translate(624px,48px)}42.9%{transform:translate(624px,64px)}43.56%{transform:translate(592px,64px)}44.22%{transform:translate(592px,96px)}44.55%{transform:translate(576px,96px)}44.88%{transform:translate(576px,80px)}48.18%{transform:translate(416px,80px)}48.51%{transform:translate(416px,96px)}49.17%{transform:translate(384px,96px)}49.5%{transform:translate(384px,80px)}49.83%{transform:translate(368px,80px)}50.17%{transform:translate(368px,96px)}50.5%{transform:translate(352px,96px)}50.83%{transform:translate(352px,80px)}52.81%{transform:translate(256px,80px)}53.14%{transform:translate(256px,96px)}60.73%{transform:translate(624px,96px)}62.71%{transform:translate(624px,0)}73.27%{transform:translate(112px,0)}73.6%{transform:translate(112px,-16px)}85.15%{transform:translate(672px,-16px)}85.48%{transform:translate(672px,0)}98.02%{transform:translate(64px,0)}98.35%{transform:translate(64px,-16px)}}@keyframes s1{0%,99.67%{transform:translate(16px,-16px)}.33%{transform:translate(0,-16px)}.66%{transform:translate(0,0)}1.65%{transform:translate(48px,0)}2.64%{transform:translate(48px,48px)}3.96%{transform:translate(112px,48px)}4.62%{transform:translate(112px,16px)}8.25%{transform:translate(288px,16px)}8.91%{transform:translate(288px,48px)}10.23%{transform:translate(352px,48px)}11.22%{transform:translate(352px,0)}12.21%{transform:translate(304px,0)}12.54%{transform:translate(304px,-16px)}14.19%{transform:translate(384px,-16px)}14.52%{transform:translate(384px,0)}15.51%{transform:translate(432px,0)}15.84%{transform:translate(432px,16px)}16.17%{transform:translate(416px,16px)}16.83%{transform:translate(416px,48px)}17.16%{transform:translate(432px,48px)}17.82%{transform:translate(432px,80px)}18.15%{transform:translate(448px,80px)}18.48%{transform:translate(448px,96px)}20.13%{transform:translate(528px,96px)}20.46%{transform:translate(528px,80px)}20.79%{transform:translate(544px,80px)}21.45%{transform:translate(544px,48px)}21.78%{transform:translate(528px,48px)}22.77%{transform:translate(528px,0)}23.1%{transform:translate(512px,0)}23.43%{transform:translate(512px,16px)}27.06%{transform:translate(688px,16px)}27.39%{transform:translate(688px,0)}30.03%{transform:translate(816px,0)}30.36%{transform:translate(816px,16px)}31.35%{transform:translate(768px,16px)}33%{transform:translate(768px,96px)}34.65%{transform:translate(688px,96px)}35.97%{transform:translate(688px,32px)}36.3%{transform:translate(672px,32px)}37.62%{transform:translate(672px,96px)}38.28%{transform:translate(640px,96px)}40.26%{transform:translate(640px,0)}40.92%{transform:translate(608px,0)}41.58%{transform:translate(608px,32px)}41.91%{transform:translate(592px,32px)}42.24%{transform:translate(592px,48px)}42.9%{transform:translate(624px,48px)}43.23%{transform:translate(624px,64px)}43.89%{transform:translate(592px,64px)}44.55%{transform:translate(592px,96px)}44.88%{transform:translate(576px,96px)}45.21%{transform:translate(576px,80px)}48.51%{transform:translate(416px,80px)}48.84%{transform:translate(416px,96px)}49.5%{transform:translate(384px,96px)}49.83%{transform:translate(384px,80px)}50.17%{transform:translate(368px,80px)}50.5%{transform:translate(368px,96px)}50.83%{transform:translate(352px,96px)}51.16%{transform:translate(352px,80px)}53.14%{transform:translate(256px,80px)}53.47%{transform:translate(256px,96px)}61.06%{transform:translate(624px,96px)}63.04%{transform:translate(624px,0)}73.6%{transform:translate(112px,0)}73.93%{transform:translate(112px,-16px)}85.48%{transform:translate(672px,-16px)}85.81%{transform:translate(672px,0)}98.35%{transform:translate(64px,0)}98.68%{transform:translate(64px,-16px)}}@keyframes s2{0%,99.67%{transform:translate(32px,-16px)}.66%{transform:translate(0,-16px)}.99%{transform:translate(0,0)}1.98%{transform:translate(48px,0)}2.97%{transform:translate(48px,48px)}4.29%{transform:translate(112px,48px)}4.95%{transform:translate(112px,16px)}8.58%{transform:translate(288px,16px)}9.24%{transform:translate(288px,48px)}10.56%{transform:translate(352px,48px)}11.55%{transform:translate(352px,0)}12.54%{transform:translate(304px,0)}12.87%{transform:translate(304px,-16px)}14.52%{transform:translate(384px,-16px)}14.85%{transform:translate(384px,0)}15.84%{transform:translate(432px,0)}16.17%{transform:translate(432px,16px)}16.5%{transform:translate(416px,16px)}17.16%{transform:translate(416px,48px)}17.49%{transform:translate(432px,48px)}18.15%{transform:translate(432px,80px)}18.48%{transform:translate(448px,80px)}18.81%{transform:translate(448px,96px)}20.46%{transform:translate(528px,96px)}20.79%{transform:translate(528px,80px)}21.12%{transform:translate(544px,80px)}21.78%{transform:translate(544px,48px)}22.11%{transform:translate(528px,48px)}23.1%{transform:translate(528px,0)}23.43%{transform:translate(512px,0)}23.76%{transform:translate(512px,16px)}27.39%{transform:translate(688px,16px)}27.72%{transform:translate(688px,0)}30.36%{transform:translate(816px,0)}30.69%{transform:translate(816px,16px)}31.68%{transform:translate(768px,16px)}33.33%{transform:translate(768px,96px)}34.98%{transform:translate(688px,96px)}36.3%{transform:translate(688px,32px)}36.63%{transform:translate(672px,32px)}37.95%{transform:translate(672px,96px)}38.61%{transform:translate(640px,96px)}40.59%{transform:translate(640px,0)}41.25%{transform:translate(608px,0)}41.91%{transform:translate(608px,32px)}42.24%{transform:translate(592px,32px)}42.57%{transform:translate(592px,48px)}43.23%{transform:translate(624px,48px)}43.56%{transform:translate(624px,64px)}44.22%{transform:translate(592px,64px)}44.88%{transform:translate(592px,96px)}45.21%{transform:translate(576px,96px)}45.54%{transform:translate(576px,80px)}48.84%{transform:translate(416px,80px)}49.17%{transform:translate(416px,96px)}49.83%{transform:translate(384px,96px)}50.17%{transform:translate(384px,80px)}50.5%{transform:translate(368px,80px)}50.83%{transform:translate(368px,96px)}51.16%{transform:translate(352px,96px)}51.49%{transform:translate(352px,80px)}53.47%{transform:translate(256px,80px)}53.8%{transform:translate(256px,96px)}61.39%{transform:translate(624px,96px)}63.37%{transform:translate(624px,0)}73.93%{transform:translate(112px,0)}74.26%{transform:translate(112px,-16px)}85.81%{transform:translate(672px,-16px)}86.14%{transform:translate(672px,0)}98.68%{transform:translate(64px,0)}99.01%{transform:translate(64px,-16px)}}@keyframes s3{0%,99.67%{transform:translate(48px,-16px)}.99%{transform:translate(0,-16px)}1.32%{transform:translate(0,0)}2.31%{transform:translate(48px,0)}3.3%{transform:translate(48px,48px)}4.62%{transform:translate(112px,48px)}5.28%{transform:translate(112px,16px)}8.91%{transform:translate(288px,16px)}9.57%{transform:translate(288px,48px)}10.89%{transform:translate(352px,48px)}11.88%{transform:translate(352px,0)}12.87%{transform:translate(304px,0)}13.2%{transform:translate(304px,-16px)}14.85%{transform:translate(384px,-16px)}15.18%{transform:translate(384px,0)}16.17%{transform:translate(432px,0)}16.5%{transform:translate(432px,16px)}16.83%{transform:translate(416px,16px)}17.49%{transform:translate(416px,48px)}17.82%{transform:translate(432px,48px)}18.48%{transform:translate(432px,80px)}18.81%{transform:translate(448px,80px)}19.14%{transform:translate(448px,96px)}20.79%{transform:translate(528px,96px)}21.12%{transform:translate(528px,80px)}21.45%{transform:translate(544px,80px)}22.11%{transform:translate(544px,48px)}22.44%{transform:translate(528px,48px)}23.43%{transform:translate(528px,0)}23.76%{transform:translate(512px,0)}24.09%{transform:translate(512px,16px)}27.72%{transform:translate(688px,16px)}28.05%{transform:translate(688px,0)}30.69%{transform:translate(816px,0)}31.02%{transform:translate(816px,16px)}32.01%{transform:translate(768px,16px)}33.66%{transform:translate(768px,96px)}35.31%{transform:translate(688px,96px)}36.63%{transform:translate(688px,32px)}36.96%{transform:translate(672px,32px)}38.28%{transform:translate(672px,96px)}38.94%{transform:translate(640px,96px)}40.92%{transform:translate(640px,0)}41.58%{transform:translate(608px,0)}42.24%{transform:translate(608px,32px)}42.57%{transform:translate(592px,32px)}42.9%{transform:translate(592px,48px)}43.56%{transform:translate(624px,48px)}43.89%{transform:translate(624px,64px)}44.55%{transform:translate(592px,64px)}45.21%{transform:translate(592px,96px)}45.54%{transform:translate(576px,96px)}45.87%{transform:translate(576px,80px)}49.17%{transform:translate(416px,80px)}49.5%{transform:translate(416px,96px)}50.17%{transform:translate(384px,96px)}50.5%{transform:translate(384px,80px)}50.83%{transform:translate(368px,80px)}51.16%{transform:translate(368px,96px)}51.49%{transform:translate(352px,96px)}51.82%{transform:translate(352px,80px)}53.8%{transform:translate(256px,80px)}54.13%{transform:translate(256px,96px)}61.72%{transform:translate(624px,96px)}63.7%{transform:translate(624px,0)}74.26%{transform:translate(112px,0)}74.59%{transform:translate(112px,-16px)}86.14%{transform:translate(672px,-16px)}86.47%{transform:translate(672px,0)}99.01%{transform:translate(64px,0)}99.34%{transform:translate(64px,-16px)}}:root{--cb:#1b1f230a;--cs:orange;--ce:#bfd6f6;--c0:#bfd6f6;--c1:#8dbdff;--c2:#64a1f4;--c3:#4b91f1;--c4:#3c7dd9}.c{shape-rendering:geometricPrecision;fill:var(--ce);stroke-width:1px;stroke:var(--cb);animation:none 30300ms linear infinite}.c.c0{fill:var(--c1);animation-name:c0}.c.c1{fill:var(--c2);animation-name:c1}.c.c2,.c.c3,.c.c4{fill:var(--c1);animation-name:c2}.c.c3,.c.c4{animation-name:c3}.c.c4{animation-name:c4}.c.c5,.c.c6,.c.c7{fill:var(--c1);animation-name:c5}.c.c6,.c.c7{animation-name:c6}.c.c7{animation-name:c7}.c.c8,.c.c9,.c.ca{fill:var(--c1);animation-name:c8}.c.c9,.c.ca{animation-name:c9}.c.ca{animation-name:ca}.c.cb,.c.cc,.c.cd{fill:var(--c1);animation-name:cb}.c.cc,.c.cd{animation-name:cc}.c.cd{animation-name:cd}.c.ce,.c.cf,.c.cg{fill:var(--c1);animation-name:ce}.c.cf,.c.cg{animation-name:cf}.c.cg{animation-name:cg}.c.ch,.c.ci,.c.cj{fill:var(--c1);animation-name:ch}.c.ci,.c.cj{animation-name:ci}.c.cj{animation-name:cj}.c.ck,.c.cl,.c.cm{fill:var(--c1);animation-name:ck}.c.cl,.c.cm{animation-name:cl}.c.cm{animation-name:cm}.c.cn{fill:var(--c2);animation-name:cn}.c.co,.c.cp{fill:var(--c1);animation-name:co}.c.cp{animation-name:cp}.c.cq,.c.cr,.c.cs{fill:var(--c1);animation-name:cq}.c.cr,.c.cs{animation-name:cr}.c.cs{animation-name:cs}.c.ct,.c.cu,.c.cv{fill:var(--c1);animation-name:ct}.c.cu,.c.cv{animation-name:cu}.c.cv{animation-name:cv}.c.cw,.c.cx,.c.cy{fill:var(--c1);animation-name:cw}.c.cx,.c.cy{animation-name:cx}.c.cy{animation-name:cy}.c.c10,.c.c11,.c.cz{fill:var(--c1);animation-name:cz}.c.c10,.c.c11{animation-name:c10}.c.c11{animation-name:c11}.c.c12{fill:var(--c2);animation-name:c12}.c.c13{fill:var(--c1);animation-name:c13}.c.c14,.c.c15,.c.c16{fill:var(--c1);animation-name:c14}.c.c15,.c.c16{animation-name:c15}.c.c16{animation-name:c16}.c.c17,.c.c18,.c.c19{fill:var(--c1);animation-name:c17}.c.c18,.c.c19{animation-name:c18}.c.c19{animation-name:c19}.c.c1a{fill:var(--c4);animation-name:c1a}.c.c1b,.c.c1c{fill:var(--c1);animation-name:c1b}.c.c1c{animation-name:c1c}.c.c1d,.c.c1e,.c.c1f{fill:var(--c1);animation-name:c1d}.c.c1e,.c.c1f{animation-name:c1e}.c.c1f{animation-name:c1f}.c.c1g,.c.c1h,.c.c1i{fill:var(--c1);animation-name:c1g}.c.c1h,.c.c1i{animation-name:c1h}.c.c1i{animation-name:c1i}.c.c1j,.c.c1k,.c.c1l{fill:var(--c1);animation-name:c1j}.c.c1k,.c.c1l{animation-name:c1k}.c.c1l{animation-name:c1l}.c.c1m,.c.c1n,.c.c1o{fill:var(--c1);animation-name:c1m}.c.c1n,.c.c1o{animation-name:c1n}.c.c1o{animation-name:c1o}.c.c1p,.c.c1q,.c.c1r{fill:var(--c1);animation-name:c1p}.c.c1q,.c.c1r{animation-name:c1q}.c.c1r{animation-name:c1r}.c.c1s,.c.c1t,.c.c1u{fill:var(--c1);animation-name:c1s}.c.c1t,.c.c1u{animation-name:c1t}.c.c1u{animation-name:c1u}.c.c1v,.c.c1w,.c.c1x{fill:var(--c1);animation-name:c1v}.c.c1w,.c.c1x{animation-name:c1w}.c.c1x{animation-name:c1x}.s,.u{animation:none linear 30300ms infinite}.u,.u.u0{transform-origin:0 0}.u{transform:scale(0,1)}.u.u0{fill:var(--c1);animation-name:u0}.u.u1{fill:var(--c2);animation-name:u1;transform-origin:799.5px 0}.u.u2{fill:var(--c4);animation-name:u2;transform-origin:835.9px 0}.s{shape-rendering:geometricPrecision;fill:var(--cs)}.s.s0{transform:translate(0,-16px);animation-name:s0}.s.s1{transform:translate(16px,-16px);animation-name:s1}.s.s2{transform:translate(32px,-16px);animation-name:s2}.s.s3{transform:translate(48px,-16px);animation-name:s3}</style><rect class="c" x="2" y="2" rx="2" ry="2" width="12" height="12"/><rect class="c" x="2" y="18" rx="2" ry="2" width="12" height="12"/><rect class="c" x="2" y="34" rx="2" ry="2" width="12" height="12"/><rect class="c" x="2" y="50" rx="2" ry="2" width="12" height="12"/><rect class="c" x="2" y="66" rx="2" ry="2" width="12" height="12"/><rect class="c" x="2" y="82" rx="2" ry="2" width="12" height="12"/><rect class="c" x="2" y="98" rx="2" ry="2" width="12" height="12"/><rect class="c" x="18" y="2" rx="2" ry="2" width="12" height="12"/><rect class="c" x="18" y="18" rx="2" ry="2" width="12" height="12"/><rect class="c" x="18" y="34" rx="2" ry="2" width="12" height="12"/><rect class="c" x="18" y="50" rx="2" ry="2" width="12" height="12"/><rect class="c" x="18" y="66" rx="2" ry="2" width="12" height="12"/><rect class="c" x="18" y="82" rx="2" ry="2" width="12" height="12"/><rect class="c" x="18" y="98" rx="2" ry="2" width="12" height="12"/><rect class="c" x="34" y="2" rx="2" ry="2" width="12" height="12"/><rect class="c" x="34" y="18" rx="2" ry="2" width="12" height="12"/><rect class="c" x="34" y="34" rx="2" ry="2" width="12" height="12"/><rect class="c" x="34" y="50" rx="2" ry="2" width="12" height="12"/><rect class="c" x="34" y="66" rx="2" ry="2" width="12" height="12"/><rect class="c" x="34" y="82" rx="2" ry="2" width="12" height="12"/><rect class="c" x="34" y="98" rx="2" ry="2" width="12" height="12"/><rect class="c" x="50" y="2" rx="2" ry="2" width="12" height="12"/><rect class="c" x="50" y="18" rx="2" ry="2" width="12" height="12"/><rect class="c" x="50" y="34" rx="2" ry="2" width="12" height="12"/><rect class="c c0" x="50" y="50" rx="2" ry="2" width="12" height="12"/><rect class="c" x="50" y="66" rx="2" ry="2" width="12" height="12"/><rect class="c" x="50" y="82" rx="2" ry="2" width="12" height="12"/><rect class="c" x="50" y="98" rx="2" ry="2" width="12" height="12"/><rect class="c" x="66" y="2" rx="2" ry="2" width="12" height="12"/><rect class="c" x="66" y="18" rx="2" ry="2" width="12" height="12"/><rect class="c" x="66" y="34" rx="2" ry="2" width="12" height="12"/><rect class="c" x="66" y="50" rx="2" ry="2" width="12" height="12"/><rect class="c" x="66" y="66" rx="2" ry="2" width="12" height="12"/><rect class="c" x="66" y="82" rx="2" ry="2" width="12" height="12"/><rect class="c" x="66" y="98" rx="2" ry="2" width="12" height="12"/><rect class="c" x="82" y="2" rx="2" ry="2" width="12" height="12"/><rect class="c" x="82" y="18" rx="2" ry="2" width="12" height="12"/><rect class="c" x="82" y="34" rx="2" ry="2" width="12" height="12"/><rect class="c" x="82" y="50" rx="2" ry="2" width="12" height="12"/><rect class="c" x="82" y="66" rx="2" ry="2" width="12" height="12"/><rect class="c" x="82" y="82" rx="2" ry="2" width="12" height="12"/><rect class="c" x="82" y="98" rx="2" ry="2" width="12" height="12"/><rect class="c" x="98" y="2" rx="2" ry="2" width="12" height="12"/><rect class="c" x="98" y="18" rx="2" ry="2" width="12" height="12"/><rect class="c" x="98" y="34" rx="2" ry="2" width="12" height="12"/><rect class="c" x="98" y="50" rx="2" ry="2" width="12" height="12"/><rect class="c" x="98" y="66" rx="2" ry="2" width="12" height="12"/><rect class="c" x="98" y="82" rx="2" ry="2" width="12" height="12"/><rect class="c" x="98" y="98" rx="2" ry="2" width="12" height="12"/><rect class="c c1" x="114" y="2" rx="2" ry="2" width="12" height="12"/><rect class="c c2" x="114" y="18" rx="2" ry="2" width="12" height="12"/><rect class="c" x="114" y="34" rx="2" ry="2" width="12" height="12"/><rect class="c" x="114" y="50" rx="2" ry="2" width="12" height="12"/><rect class="c" x="114" y="66" rx="2" ry="2" width="12" height="12"/><rect class="c" x="114" y="82" rx="2" ry="2" width="12" height="12"/><rect class="c" x="114" y="98" rx="2" ry="2" width="12" height="12"/><rect class="c" x="130" y="2" rx="2" ry="2" width="12" height="12"/><rect class="c" x="130" y="18" rx="2" ry="2" width="12" height="12"/><rect class="c" x="130" y="34" rx="2" ry="2" width="12" height="12"/><rect class="c" x="130" y="50" rx="2" ry="2" width="12" height="12"/><rect class="c" x="130" y="66" rx="2" ry="2" width="12" height="12"/><rect class="c" x="130" y="82" rx="2" ry="2" width="12" height="12"/><rect class="c" x="130" y="98" rx="2" ry="2" width="12" height="12"/><rect class="c" x="146" y="2" rx="2" ry="2" width="12" height="12"/><rect class="c" x="146" y="18" rx="2" ry="2" width="12" height="12"/><rect class="c" x="146" y="34" rx="2" ry="2" width="12" height="12"/><rect class="c" x="146" y="50" rx="2" ry="2" width="12" height="12"/><rect class="c" x="146" y="66" rx="2" ry="2" width="12" height="12"/><rect class="c" x="146" y="82" rx="2" ry="2" width="12" height="12"/><rect class="c" x="146" y="98" rx="2" ry="2" width="12" height="12"/><rect class="c" x="162" y="2" rx="2" ry="2" width="12" height="12"/><rect class="c" x="162" y="18" rx="2" ry="2" width="12" height="12"/><rect class="c" x="162" y="34" rx="2" ry="2" width="12" height="12"/><rect class="c" x="162" y="50" rx="2" ry="2" width="12" height="12"/><rect class="c" x="162" y="66" rx="2" ry="2" width="12" height="12"/><rect class="c" x="162" y="82" rx="2" ry="2" width="12" height="12"/><rect class="c" x="162" y="98" rx="2" ry="2" width="12" height="12"/><rect class="c" x="178" y="2" rx="2" ry="2" width="12" height="12"/><rect class="c" x="178" y="18" rx="2" ry="2" width="12" height="12"/><rect class="c" x="178" y="34" rx="2" ry="2" width="12" height="12"/><rect class="c" x="178" y="50" rx="2" ry="2" width="12" height="12"/><rect class="c" x="178" y="66" rx="2" ry="2" width="12" height="12"/><rect class="c" x="178" y="82" rx="2" ry="2" width="12" height="12"/><rect class="c" x="178" y="98" rx="2" ry="2" width="12" height="12"/><rect class="c" x="194" y="2" rx="2" ry="2" width="12" height="12"/><rect class="c" x="194" y="18" rx="2" ry="2" width="12" height="12"/><rect class="c" x="194" y="34" rx="2" ry="2" width="12" height="12"/><rect class="c" x="194" y="50" rx="2" ry="2" width="12" height="12"/><rect class="c" x="194" y="66" rx="2" ry="2" width="12" height="12"/><rect class="c" x="194" y="82" rx="2" ry="2" width="12" height="12"/><rect class="c" x="194" y="98" rx="2" ry="2" width="12" height="12"/><rect class="c" x="210" y="2" rx="2" ry="2" width="12" height="12"/><rect class="c" x="210" y="18" rx="2" ry="2" width="12" height="12"/><rect class="c" x="210" y="34" rx="2" ry="2" width="12" height="12"/><rect class="c" x="210" y="50" rx="2" ry="2" width="12" height="12"/><rect class="c" x="210" y="66" rx="2" ry="2" width="12" height="12"/><rect class="c" x="210" y="82" rx="2" ry="2" width="12" height="12"/><rect class="c" x="210" y="98" rx="2" ry="2" width="12" height="12"/><rect class="c" x="226" y="2" rx="2" ry="2" width="12" height="12"/><rect class="c" x="226" y="18" rx="2" ry="2" width="12" height="12"/><rect class="c" x="226" y="34" rx="2" ry="2" width="12" height="12"/><rect class="c" x="226" y="50" rx="2" ry="2" width="12" height="12"/><rect class="c" x="226" y="66" rx="2" ry="2" width="12" height="12"/><rect class="c" x="226" y="82" rx="2" ry="2" width="12" height="12"/><rect class="c" x="226" y="98" rx="2" ry="2" width="12" height="12"/><rect class="c" x="242" y="2" rx="2" ry="2" width="12" height="12"/><rect class="c" x="242" y="18" rx="2" ry="2" width="12" height="12"/><rect class="c" x="242" y="34" rx="2" ry="2" width="12" height="12"/><rect class="c" x="242" y="50" rx="2" ry="2" width="12" height="12"/><rect class="c" x="242" y="66" rx="2" ry="2" width="12" height="12"/><rect class="c" x="242" y="82" rx="2" ry="2" width="12" height="12"/><rect class="c" x="242" y="98" rx="2" ry="2" width="12" height="12"/><rect class="c" x="258" y="2" rx="2" ry="2" width="12" height="12"/><rect class="c" x="258" y="18" rx="2" ry="2" width="12" height="12"/><rect class="c" x="258" y="34" rx="2" ry="2" width="12" height="12"/><rect class="c" x="258" y="50" rx="2" ry="2" width="12" height="12"/><rect class="c" x="258" y="66" rx="2" ry="2" width="12" height="12"/><rect class="c c3" x="258" y="82" rx="2" ry="2" width="12" height="12"/><rect class="c" x="258" y="98" rx="2" ry="2" width="12" height="12"/><rect class="c" x="274" y="2" rx="2" ry="2" width="12" height="12"/><rect class="c" x="274" y="18" rx="2" ry="2" width="12" height="12"/><rect class="c" x="274" y="34" rx="2" ry="2" width="12" height="12"/><rect class="c" x="274" y="50" rx="2" ry="2" width="12" height="12"/><rect class="c" x="274" y="66" rx="2" ry="2" width="12" height="12"/><rect class="c" x="274" y="82" rx="2" ry="2" width="12" height="12"/><rect class="c" x="274" y="98" rx="2" ry="2" width="12" height="12"/><rect class="c" x="290" y="2" rx="2" ry="2" width="12" height="12"/><rect class="c" x="290" y="18" rx="2" ry="2" width="12" height="12"/><rect class="c c4" x="290" y="34" rx="2" ry="2" width="12" height="12"/><rect class="c c5" x="290" y="50" rx="2" ry="2" width="12" height="12"/><rect class="c" x="290" y="66" rx="2" ry="2" width="12" height="12"/><rect class="c" x="290" y="82" rx="2" ry="2" width="12" height="12"/><rect class="c" x="290" y="98" rx="2" ry="2" width="12" height="12"/><rect class="c c6" x="306" y="2" rx="2" ry="2" width="12" height="12"/><rect class="c" x="306" y="18" rx="2" ry="2" width="12" height="12"/><rect class="c" x="306" y="34" rx="2" ry="2" width="12" height="12"/><rect class="c" x="306" y="50" rx="2" ry="2" width="12" height="12"/><rect class="c" x="306" y="66" rx="2" ry="2" width="12" height="12"/><rect class="c" x="306" y="82" rx="2" ry="2" width="12" height="12"/><rect class="c" x="306" y="98" rx="2" ry="2" width="12" height="12"/><rect class="c" x="322" y="2" rx="2" ry="2" width="12" height="12"/><rect class="c" x="322" y="18" rx="2" ry="2" width="12" height="12"/><rect class="c" x="322" y="34" rx="2" ry="2" width="12" height="12"/><rect class="c" x="322" y="50" rx="2" ry="2" width="12" height="12"/><rect class="c" x="322" y="66" rx="2" ry="2" width="12" height="12"/><rect class="c" x="322" y="82" rx="2" ry="2" width="12" height="12"/><rect class="c" x="322" y="98" rx="2" ry="2" width="12" height="12"/><rect class="c c7" x="338" y="2" rx="2" ry="2" width="12" height="12"/><rect class="c" x="338" y="18" rx="2" ry="2" width="12" height="12"/><rect class="c" x="338" y="34" rx="2" ry="2" width="12" height="12"/><rect class="c" x="338" y="50" rx="2" ry="2" width="12" height="12"/><rect class="c" x="338" y="66" rx="2" ry="2" width="12" height="12"/><rect class="c" x="338" y="82" rx="2" ry="2" width="12" height="12"/><rect class="c" x="338" y="98" rx="2" ry="2" width="12" height="12"/><rect class="c c8" x="354" y="2" rx="2" ry="2" width="12" height="12"/><rect class="c c9" x="354" y="18" rx="2" ry="2" width="12" height="12"/><rect class="c ca" x="354" y="34" rx="2" ry="2" width="12" height="12"/><rect class="c cb" x="354" y="50" rx="2" ry="2" width="12" height="12"/><rect class="c" x="354" y="66" rx="2" ry="2" width="12" height="12"/><rect class="c" x="354" y="82" rx="2" ry="2" width="12" height="12"/><rect class="c" x="354" y="98" rx="2" ry="2" width="12" height="12"/><rect class="c" x="370" y="2" rx="2" ry="2" width="12" height="12"/><rect class="c" x="370" y="18" rx="2" ry="2" width="12" height="12"/><rect class="c" x="370" y="34" rx="2" ry="2" width="12" height="12"/><rect class="c" x="370" y="50" rx="2" ry="2" width="12" height="12"/><rect class="c" x="370" y="66" rx="2" ry="2" width="12" height="12"/><rect class="c cc" x="370" y="82" rx="2" ry="2" width="12" height="12"/><rect class="c cd" x="370" y="98" rx="2" ry="2" width="12" height="12"/><rect class="c ce" x="386" y="2" rx="2" ry="2" width="12" height="12"/><rect class="c" x="386" y="18" rx="2" ry="2" width="12" height="12"/><rect class="c" x="386" y="34" rx="2" ry="2" width="12" height="12"/><rect class="c" x="386" y="50" rx="2" ry="2" width="12" height="12"/><rect class="c" x="386" y="66" rx="2" ry="2" width="12" height="12"/><rect class="c cf" x="386" y="82" rx="2" ry="2" width="12" height="12"/><rect class="c cg" x="386" y="98" rx="2" ry="2" width="12" height="12"/><rect class="c" x="402" y="2" rx="2" ry="2" width="12" height="12"/><rect class="c" x="402" y="18" rx="2" ry="2" width="12" height="12"/><rect class="c" x="402" y="34" rx="2" ry="2" width="12" height="12"/><rect class="c" x="402" y="50" rx="2" ry="2" width="12" height="12"/><rect class="c" x="402" y="66" rx="2" ry="2" width="12" height="12"/><rect class="c" x="402" y="82" rx="2" ry="2" width="12" height="12"/><rect class="c" x="402" y="98" rx="2" ry="2" width="12" height="12"/><rect class="c" x="418" y="2" rx="2" ry="2" width="12" height="12"/><rect class="c" x="418" y="18" rx="2" ry="2" width="12" height="12"/><rect class="c ch" x="418" y="34" rx="2" ry="2" width="12" height="12"/><rect class="c ci" x="418" y="50" rx="2" ry="2" width="12" height="12"/><rect class="c" x="418" y="66" rx="2" ry="2" width="12" height="12"/><rect class="c" x="418" y="82" rx="2" ry="2" width="12" height="12"/><rect class="c cj" x="418" y="98" rx="2" ry="2" width="12" height="12"/><rect class="c ck" x="434" y="2" rx="2" ry="2" width="12" height="12"/><rect class="c cl" x="434" y="18" rx="2" ry="2" width="12" height="12"/><rect class="c" x="434" y="34" rx="2" ry="2" width="12" height="12"/><rect class="c" x="434" y="50" rx="2" ry="2" width="12" height="12"/><rect class="c" x="434" y="66" rx="2" ry="2" width="12" height="12"/><rect class="c cm" x="434" y="82" rx="2" ry="2" width="12" height="12"/><rect class="c cn" x="434" y="98" rx="2" ry="2" width="12" height="12"/><rect class="c" x="450" y="2" rx="2" ry="2" width="12" height="12"/><rect class="c" x="450" y="18" rx="2" ry="2" width="12" height="12"/><rect class="c" x="450" y="34" rx="2" ry="2" width="12" height="12"/><rect class="c" x="450" y="50" rx="2" ry="2" width="12" height="12"/><rect class="c" x="450" y="66" rx="2" ry="2" width="12" height="12"/><rect class="c" x="450" y="82" rx="2" ry="2" width="12" height="12"/><rect class="c co" x="450" y="98" rx="2" ry="2" width="12" height="12"/><rect class="c" x="466" y="2" rx="2" ry="2" width="12" height="12"/><rect class="c" x="466" y="18" rx="2" ry="2" width="12" height="12"/><rect class="c" x="466" y="34" rx="2" ry="2" width="12" height="12"/><rect class="c" x="466" y="50" rx="2" ry="2" width="12" height="12"/><rect class="c" x="466" y="66" rx="2" ry="2" width="12" height="12"/><rect class="c" x="466" y="82" rx="2" ry="2" width="12" height="12"/><rect class="c" x="466" y="98" rx="2" ry="2" width="12" height="12"/><rect class="c" x="482" y="2" rx="2" ry="2" width="12" height="12"/><rect class="c" x="482" y="18" rx="2" ry="2" width="12" height="12"/><rect class="c" x="482" y="34" rx="2" ry="2" width="12" height="12"/><rect class="c" x="482" y="50" rx="2" ry="2" width="12" height="12"/><rect class="c" x="482" y="66" rx="2" ry="2" width="12" height="12"/><rect class="c" x="482" y="82" rx="2" ry="2" width="12" height="12"/><rect class="c" x="482" y="98" rx="2" ry="2" width="12" height="12"/><rect class="c" x="498" y="2" rx="2" ry="2" width="12" height="12"/><rect class="c" x="498" y="18" rx="2" ry="2" width="12" height="12"/><rect class="c" x="498" y="34" rx="2" ry="2" width="12" height="12"/><rect class="c" x="498" y="50" rx="2" ry="2" width="12" height="12"/><rect class="c" x="498" y="66" rx="2" ry="2" width="12" height="12"/><rect class="c" x="498" y="82" rx="2" ry="2" width="12" height="12"/><rect class="c cp" x="498" y="98" rx="2" ry="2" width="12" height="12"/><rect class="c cq" x="514" y="2" rx="2" ry="2" width="12" height="12"/><rect class="c" x="514" y="18" rx="2" ry="2" width="12" height="12"/><rect class="c" x="514" y="34" rx="2" ry="2" width="12" height="12"/><rect class="c" x="514" y="50" rx="2" ry="2" width="12" height="12"/><rect class="c" x="514" y="66" rx="2" ry="2" width="12" height="12"/><rect class="c" x="514" y="82" rx="2" ry="2" width="12" height="12"/><rect class="c" x="514" y="98" rx="2" ry="2" width="12" height="12"/><rect class="c" x="530" y="2" rx="2" ry="2" width="12" height="12"/><rect class="c" x="530" y="18" rx="2" ry="2" width="12" height="12"/><rect class="c" x="530" y="34" rx="2" ry="2" width="12" height="12"/><rect class="c cr" x="530" y="50" rx="2" ry="2" width="12" height="12"/><rect class="c" x="530" y="66" rx="2" ry="2" width="12" height="12"/><rect class="c cs" x="530" y="82" rx="2" ry="2" width="12" height="12"/><rect class="c" x="530" y="98" rx="2" ry="2" width="12" height="12"/><rect class="c" x="546" y="2" rx="2" ry="2" width="12" height="12"/><rect class="c" x="546" y="18" rx="2" ry="2" width="12" height="12"/><rect class="c" x="546" y="34" rx="2" ry="2" width="12" height="12"/><rect class="c ct" x="546" y="50" rx="2" ry="2" width="12" height="12"/><rect class="c" x="546" y="66" rx="2" ry="2" width="12" height="12"/><rect class="c cu" x="546" y="82" rx="2" ry="2" width="12" height="12"/><rect class="c" x="546" y="98" rx="2" ry="2" width="12" height="12"/><rect class="c" x="562" y="2" rx="2" ry="2" width="12" height="12"/><rect class="c" x="562" y="18" rx="2" ry="2" width="12" height="12"/><rect class="c" x="562" y="34" rx="2" ry="2" width="12" height="12"/><rect class="c" x="562" y="50" rx="2" ry="2" width="12" height="12"/><rect class="c" x="562" y="66" rx="2" ry="2" width="12" height="12"/><rect class="c" x="562" y="82" rx="2" ry="2" width="12" height="12"/><rect class="c" x="562" y="98" rx="2" ry="2" width="12" height="12"/><rect class="c" x="578" y="2" rx="2" ry="2" width="12" height="12"/><rect class="c cv" x="578" y="18" rx="2" ry="2" width="12" height="12"/><rect class="c" x="578" y="34" rx="2" ry="2" width="12" height="12"/><rect class="c" x="578" y="50" rx="2" ry="2" width="12" height="12"/><rect class="c" x="578" y="66" rx="2" ry="2" width="12" height="12"/><rect class="c" x="578" y="82" rx="2" ry="2" width="12" height="12"/><rect class="c" x="578" y="98" rx="2" ry="2" width="12" height="12"/><rect class="c" x="594" y="2" rx="2" ry="2" width="12" height="12"/><rect class="c" x="594" y="18" rx="2" ry="2" width="12" height="12"/><rect class="c cw" x="594" y="34" rx="2" ry="2" width="12" height="12"/><rect class="c" x="594" y="50" rx="2" ry="2" width="12" height="12"/><rect class="c" x="594" y="66" rx="2" ry="2" width="12" height="12"/><rect class="c" x="594" y="82" rx="2" ry="2" width="12" height="12"/><rect class="c cx" x="594" y="98" rx="2" ry="2" width="12" height="12"/><rect class="c" x="610" y="2" rx="2" ry="2" width="12" height="12"/><rect class="c cy" x="610" y="18" rx="2" ry="2" width="12" height="12"/><rect class="c cz" x="610" y="34" rx="2" ry="2" width="12" height="12"/><rect class="c" x="610" y="50" rx="2" ry="2" width="12" height="12"/><rect class="c" x="610" y="66" rx="2" ry="2" width="12" height="12"/><rect class="c" x="610" y="82" rx="2" ry="2" width="12" height="12"/><rect class="c" x="610" y="98" rx="2" ry="2" width="12" height="12"/><rect class="c c10" x="626" y="2" rx="2" ry="2" width="12" height="12"/><rect class="c c11" x="626" y="18" rx="2" ry="2" width="12" height="12"/><rect class="c c12" x="626" y="34" rx="2" ry="2" width="12" height="12"/><rect class="c c13" x="626" y="50" rx="2" ry="2" width="12" height="12"/><rect class="c" x="626" y="66" rx="2" ry="2" width="12" height="12"/><rect class="c" x="626" y="82" rx="2" ry="2" width="12" height="12"/><rect class="c" x="626" y="98" rx="2" ry="2" width="12" height="12"/><rect class="c c14" x="642" y="2" rx="2" ry="2" width="12" height="12"/><rect class="c c15" x="642" y="18" rx="2" ry="2" width="12" height="12"/><rect class="c c16" x="642" y="34" rx="2" ry="2" width="12" height="12"/><rect class="c" x="642" y="50" rx="2" ry="2" width="12" height="12"/><rect class="c" x="642" y="66" rx="2" ry="2" width="12" height="12"/><rect class="c c17" x="642" y="82" rx="2" ry="2" width="12" height="12"/><rect class="c c18" x="642" y="98" rx="2" ry="2" width="12" height="12"/><rect class="c" x="658" y="2" rx="2" ry="2" width="12" height="12"/><rect class="c c19" x="658" y="18" rx="2" ry="2" width="12" height="12"/><rect class="c" x="658" y="34" rx="2" ry="2" width="12" height="12"/><rect class="c" x="658" y="50" rx="2" ry="2" width="12" height="12"/><rect class="c" x="658" y="66" rx="2" ry="2" width="12" height="12"/><rect class="c" x="658" y="82" rx="2" ry="2" width="12" height="12"/><rect class="c" x="658" y="98" rx="2" ry="2" width="12" height="12"/><rect class="c c1a" x="674" y="2" rx="2" ry="2" width="12" height="12"/><rect class="c c1b" x="674" y="18" rx="2" ry="2" width="12" height="12"/><rect class="c c1c" x="674" y="34" rx="2" ry="2" width="12" height="12"/><rect class="c c1d" x="674" y="50" rx="2" ry="2" width="12" height="12"/><rect class="c c1e" x="674" y="66" rx="2" ry="2" width="12" height="12"/><rect class="c c1f" x="674" y="82" rx="2" ry="2" width="12" height="12"/><rect class="c c1g" x="674" y="98" rx="2" ry="2" width="12" height="12"/><rect class="c c1h" x="690" y="2" rx="2" ry="2" width="12" height="12"/><rect class="c c1i" x="690" y="18" rx="2" ry="2" width="12" height="12"/><rect class="c c1j" x="690" y="34" rx="2" ry="2" width="12" height="12"/><rect class="c c1k" x="690" y="50" rx="2" ry="2" width="12" height="12"/><rect class="c c1l" x="690" y="66" rx="2" ry="2" width="12" height="12"/><rect class="c c1m" x="690" y="82" rx="2" ry="2" width="12" height="12"/><rect class="c c1n" x="690" y="98" rx="2" ry="2" width="12" height="12"/><rect class="c c1o" x="706" y="2" rx="2" ry="2" width="12" height="12"/><rect class="c" x="706" y="18" rx="2" ry="2" width="12" height="12"/><rect class="c" x="706" y="34" rx="2" ry="2" width="12" height="12"/><rect class="c" x="706" y="50" rx="2" ry="2" width="12" height="12"/><rect class="c" x="706" y="66" rx="2" ry="2" width="12" height="12"/><rect class="c" x="706" y="82" rx="2" ry="2" width="12" height="12"/><rect class="c" x="706" y="98" rx="2" ry="2" width="12" height="12"/><rect class="c c1p" x="722" y="2" rx="2" ry="2" width="12" height="12"/><rect class="c" x="722" y="18" rx="2" ry="2" width="12" height="12"/><rect class="c" x="722" y="34" rx="2" ry="2" width="12" height="12"/><rect class="c" x="722" y="50" rx="2" ry="2" width="12" height="12"/><rect class="c" x="722" y="66" rx="2" ry="2" width="12" height="12"/><rect class="c" x="722" y="82" rx="2" ry="2" width="12" height="12"/><rect class="c" x="722" y="98" rx="2" ry="2" width="12" height="12"/><rect class="c c1q" x="738" y="2" rx="2" ry="2" width="12" height="12"/><rect class="c" x="738" y="18" rx="2" ry="2" width="12" height="12"/><rect class="c" x="738" y="34" rx="2" ry="2" width="12" height="12"/><rect class="c" x="738" y="50" rx="2" ry="2" width="12" height="12"/><rect class="c" x="738" y="66" rx="2" ry="2" width="12" height="12"/><rect class="c" x="738" y="82" rx="2" ry="2" width="12" height="12"/><rect class="c c1r" x="738" y="98" rx="2" ry="2" width="12" height="12"/><rect class="c c1s" x="754" y="2" rx="2" ry="2" width="12" height="12"/><rect class="c" x="754" y="18" rx="2" ry="2" width="12" height="12"/><rect class="c" x="754" y="34" rx="2" ry="2" width="12" height="12"/><rect class="c" x="754" y="50" rx="2" ry="2" width="12" height="12"/><rect class="c" x="754" y="66" rx="2" ry="2" width="12" height="12"/><rect class="c" x="754" y="82" rx="2" ry="2" width="12" height="12"/><rect class="c" x="754" y="98" rx="2" ry="2" width="12" height="12"/><rect class="c c1t" x="770" y="2" rx="2" ry="2" width="12" height="12"/><rect class="c" x="770" y="18" rx="2" ry="2" width="12" height="12"/><rect class="c" x="770" y="34" rx="2" ry="2" width="12" height="12"/><rect class="c" x="770" y="50" rx="2" ry="2" width="12" height="12"/><rect class="c" x="770" y="66" rx="2" ry="2" width="12" height="12"/><rect class="c" x="770" y="82" rx="2" ry="2" width="12" height="12"/><rect class="c c1u" x="770" y="98" rx="2" ry="2" width="12" height="12"/><rect class="c c1v" x="786" y="2" rx="2" ry="2" width="12" height="12"/><rect class="c" x="786" y="18" rx="2" ry="2" width="12" height="12"/><rect class="c" x="786" y="34" rx="2" ry="2" width="12" height="12"/><rect class="c" x="786" y="50" rx="2" ry="2" width="12" height="12"/><rect class="c" x="786" y="66" rx="2" ry="2" width="12" height="12"/><rect class="c" x="786" y="82" rx="2" ry="2" width="12" height="12"/><rect class="c" x="786" y="98" rx="2" ry="2" width="12" height="12"/><rect class="c c1w" x="802" y="2" rx="2" ry="2" width="12" height="12"/><rect class="c" x="802" y="18" rx="2" ry="2" width="12" height="12"/><rect class="c" x="802" y="34" rx="2" ry="2" width="12" height="12"/><rect class="c" x="802" y="50" rx="2" ry="2" width="12" height="12"/><rect class="c" x="802" y="66" rx="2" ry="2" width="12" height="12"/><rect class="c" x="802" y="82" rx="2" ry="2" width="12" height="12"/><rect class="c" x="802" y="98" rx="2" ry="2" width="12" height="12"/><rect class="c c1x" x="818" y="2" rx="2" ry="2" width="12" height="12"/><rect class="c" x="818" y="18" rx="2" ry="2" width="12" height="12"/><rect class="c" x="818" y="34" rx="2" ry="2" width="12" height="12"/><rect class="c" x="818" y="50" rx="2" ry="2" width="12" height="12"/><rect class="c" x="818" y="66" rx="2" ry="2" width="12" height="12"/><rect class="c" x="818" y="82" rx="2" ry="2" width="12" height="12"/><rect class="c" x="818" y="98" rx="2" ry="2" width="12" height="12"/><rect class="c" x="834" y="2" rx="2" ry="2" width="12" height="12"/><rect class="u u0" height="12" width="800.1" x="0.0" y="144"/><rect class="u u1" height="12" width="36.9" x="799.5" y="144"/><rect class="u u2" height="12" width="12.7" x="835.9" y="144"/><rect class="s s0" x="0.8" y="0.8" width="14.4" height="14.4" rx="4.5" ry="4.5"/><rect class="s s1" x="1.8" y="1.8" width="12.3" height="12.3" rx="4.1" ry="4.1"/><rect class="s s2" x="2.6" y="2.6" width="10.8" height="10.8" rx="3.6" ry="3.6"/><rect class="s s3" x="3.0" y="3.0" width="9.9" height="9.9" rx="3.3" ry="3.3"/></svg>