<svg viewBox="-16 -32 880 192" width="880" height="192" xmlns="http://www.w3.org/2000/svg"><desc>Generated with https://github.com/Platane/snk</desc><style>:root{--cb:#1b1f230a;--cs:orange;--ce:#bfd6f6;--c0:#bfd6f6;--c1:#8dbdff;--c2:#64a1f4;--c3:#4b91f1;--c4:#3c7dd9}.c{shape-rendering:geometricPrecision;fill:var(--ce);stroke-width:1px;stroke:var(--cb);animation:none 40300ms linear infinite;width:12px;height:12px}@keyframes c0{0.24%{fill:var(--c1)}0.26%,100%{fill:var(--ce)}}.c.c0{fill:var(--c1);animation-name:c0}@keyframes c1{43.17%{fill:var(--c1)}43.19%,100%{fill:var(--ce)}}.c.c1{fill:var(--c1);animation-name:c1}@keyframes c2{0.49%{fill:var(--c1)}0.51%,100%{fill:var(--ce)}}.c.c2{fill:var(--c1);animation-name:c2}@keyframes c3{42.42%{fill:var(--c1)}42.44%,100%{fill:var(--ce)}}.c.c3{fill:var(--c1);animation-name:c3}@keyframes c4{0.73%{fill:var(--c1)}0.75%,100%{fill:var(--ce)}}.c.c4{fill:var(--c1);animation-name:c4}@keyframes c5{44.66%{fill:var(--c1)}44.68%,100%{fill:var(--ce)}}.c.c5{fill:var(--c1);animation-name:c5}@keyframes c6{0.98%{fill:var(--c1)}1%,100%{fill:var(--ce)}}.c.c6{fill:var(--c1);animation-name:c6}@keyframes c7{41.68%{fill:var(--c1)}41.7%,100%{fill:var(--ce)}}.c.c7{fill:var(--c1);animation-name:c7}@keyframes c8{41.93%{fill:var(--c1)}41.95%,100%{fill:var(--ce)}}.c.c8{fill:var(--c1);animation-name:c8}@keyframes c9{1.23%{fill:var(--c1)}1.25%,100%{fill:var(--ce)}}.c.c9{fill:var(--c1);animation-name:c9}@keyframes ca{1.48%{fill:var(--c1)}1.5%,100%{fill:var(--ce)}}.c.ca{fill:var(--c1);animation-name:ca}@keyframes cb{1.73%{fill:var(--c1)}1.75%,100%{fill:var(--ce)}}.c.cb{fill:var(--c1);animation-name:cb}@keyframes cc{1.98%{fill:var(--c1)}2%,100%{fill:var(--ce)}}.c.cc{fill:var(--c1);animation-name:cc}@keyframes cd{71.45%{fill:var(--c3)}71.47%,100%{fill:var(--ce)}}.c.cd{fill:var(--c3);animation-name:cd}@keyframes ce{70.71%{fill:var(--c2)}70.73%,100%{fill:var(--ce)}}.c.ce{fill:var(--c2);animation-name:ce}@keyframes cf{2.47%{fill:var(--c1)}2.49%,100%{fill:var(--ce)}}.c.cf{fill:var(--c1);animation-name:cf}@keyframes cg{2.72%{fill:var(--c1)}2.74%,100%{fill:var(--ce)}}.c.cg{fill:var(--c1);animation-name:cg}@keyframes ch{2.97%{fill:var(--c1)}2.99%,100%{fill:var(--ce)}}.c.ch{fill:var(--c1);animation-name:ch}@keyframes ci{3.22%{fill:var(--c1)}3.24%,100%{fill:var(--ce)}}.c.ci{fill:var(--c1);animation-name:ci}@keyframes cj{39.2%{fill:var(--c1)}39.22%,100%{fill:var(--ce)}}.c.cj{fill:var(--c1);animation-name:cj}@keyframes ck{72.69%{fill:var(--c3)}72.71%,100%{fill:var(--ce)}}.c.ck{fill:var(--c3);animation-name:ck}@keyframes cl{3.71%{fill:var(--c1)}3.73%,100%{fill:var(--ce)}}.c.cl{fill:var(--c1);animation-name:cl}@keyframes cm{72.94%{fill:var(--c3)}72.96%,100%{fill:var(--ce)}}.c.cm{fill:var(--c3);animation-name:cm}@keyframes cn{69.72%{fill:var(--c2)}69.74%,100%{fill:var(--ce)}}.c.cn{fill:var(--c2);animation-name:cn}@keyframes co{35.47%{fill:var(--c1)}35.49%,100%{fill:var(--ce)}}.c.co{fill:var(--c1);animation-name:co}@keyframes cp{36.96%{fill:var(--c1)}36.98%,100%{fill:var(--ce)}}.c.cp{fill:var(--c1);animation-name:cp}@keyframes cq{6.94%{fill:var(--c1)}6.96%,100%{fill:var(--ce)}}.c.cq{fill:var(--c1);animation-name:cq}@keyframes cr{6.19%{fill:var(--c1)}6.21%,100%{fill:var(--ce)}}.c.cr{fill:var(--c1);animation-name:cr}@keyframes cs{4.46%{fill:var(--c1)}4.48%,100%{fill:var(--ce)}}.c.cs{fill:var(--c1);animation-name:cs}@keyframes ct{7.19%{fill:var(--c1)}7.21%,100%{fill:var(--ce)}}.c.ct{fill:var(--c1);animation-name:ct}@keyframes cu{4.7%{fill:var(--c1)}4.72%,100%{fill:var(--ce)}}.c.cu{fill:var(--c1);animation-name:cu}@keyframes cv{7.43%{fill:var(--c1)}7.45%,100%{fill:var(--ce)}}.c.cv{fill:var(--c1);animation-name:cv}@keyframes cw{5.2%{fill:var(--c1)}5.22%,100%{fill:var(--ce)}}.c.cw{fill:var(--c1);animation-name:cw}@keyframes cx{7.68%{fill:var(--c1)}7.7%,100%{fill:var(--ce)}}.c.cx{fill:var(--c1);animation-name:cx}@keyframes cy{7.93%{fill:var(--c1)}7.95%,100%{fill:var(--ce)}}.c.cy{fill:var(--c1);animation-name:cy}@keyframes cz{8.18%{fill:var(--c1)}8.2%,100%{fill:var(--ce)}}.c.cz{fill:var(--c1);animation-name:cz}@keyframes c10{8.43%{fill:var(--c1)}8.45%,100%{fill:var(--ce)}}.c.c10{fill:var(--c1);animation-name:c10}@keyframes c11{8.67%{fill:var(--c1)}8.69%,100%{fill:var(--ce)}}.c.c11{fill:var(--c1);animation-name:c11}@keyframes c12{8.92%{fill:var(--c1)}8.94%,100%{fill:var(--ce)}}.c.c12{fill:var(--c1);animation-name:c12}@keyframes c13{9.17%{fill:var(--c1)}9.19%,100%{fill:var(--ce)}}.c.c13{fill:var(--c1);animation-name:c13}@keyframes c14{9.42%{fill:var(--c1)}9.44%,100%{fill:var(--ce)}}.c.c14{fill:var(--c1);animation-name:c14}@keyframes c15{9.67%{fill:var(--c1)}9.69%,100%{fill:var(--ce)}}.c.c15{fill:var(--c1);animation-name:c15}@keyframes c16{9.92%{fill:var(--c1)}9.94%,100%{fill:var(--ce)}}.c.c16{fill:var(--c1);animation-name:c16}@keyframes c17{10.16%{fill:var(--c1)}10.18%,100%{fill:var(--ce)}}.c.c17{fill:var(--c1);animation-name:c17}@keyframes c18{10.41%{fill:var(--c1)}10.43%,100%{fill:var(--ce)}}.c.c18{fill:var(--c1);animation-name:c18}@keyframes c19{10.66%{fill:var(--c1)}10.68%,100%{fill:var(--ce)}}.c.c19{fill:var(--c1);animation-name:c19}@keyframes c1a{10.91%{fill:var(--c1)}10.93%,100%{fill:var(--ce)}}.c.c1a{fill:var(--c1);animation-name:c1a}@keyframes c1b{11.16%{fill:var(--c1)}11.18%,100%{fill:var(--ce)}}.c.c1b{fill:var(--c1);animation-name:c1b}@keyframes c1c{11.4%{fill:var(--c1)}11.42%,100%{fill:var(--ce)}}.c.c1c{fill:var(--c1);animation-name:c1c}@keyframes c1d{11.65%{fill:var(--c1)}11.67%,100%{fill:var(--ce)}}.c.c1d{fill:var(--c1);animation-name:c1d}@keyframes c1e{11.9%{fill:var(--c1)}11.92%,100%{fill:var(--ce)}}.c.c1e{fill:var(--c1);animation-name:c1e}@keyframes c1f{12.15%{fill:var(--c1)}12.17%,100%{fill:var(--ce)}}.c.c1f{fill:var(--c1);animation-name:c1f}@keyframes c1g{12.4%{fill:var(--c1)}12.42%,100%{fill:var(--ce)}}.c.c1g{fill:var(--c1);animation-name:c1g}@keyframes c1h{12.65%{fill:var(--c1)}12.67%,100%{fill:var(--ce)}}.c.c1h{fill:var(--c1);animation-name:c1h}@keyframes c1i{12.89%{fill:var(--c1)}12.91%,100%{fill:var(--ce)}}.c.c1i{fill:var(--c1);animation-name:c1i}@keyframes c1j{13.14%{fill:var(--c1)}13.16%,100%{fill:var(--ce)}}.c.c1j{fill:var(--c1);animation-name:c1j}@keyframes c1k{13.39%{fill:var(--c1)}13.41%,100%{fill:var(--ce)}}.c.c1k{fill:var(--c1);animation-name:c1k}@keyframes c1l{13.64%{fill:var(--c1)}13.66%,100%{fill:var(--ce)}}.c.c1l{fill:var(--c1);animation-name:c1l}@keyframes c1m{80.39%{fill:var(--c3)}80.41%,100%{fill:var(--ce)}}.c.c1m{fill:var(--c3);animation-name:c1m}@keyframes c1n{14.63%{fill:var(--c1)}14.65%,100%{fill:var(--ce)}}.c.c1n{fill:var(--c1);animation-name:c1n}@keyframes c1o{62.02%{fill:var(--c2)}62.04%,100%{fill:var(--ce)}}.c.c1o{fill:var(--c2);animation-name:c1o}@keyframes c1p{22.07%{fill:var(--c1)}22.09%,100%{fill:var(--ce)}}.c.c1p{fill:var(--c1);animation-name:c1p}@keyframes c1q{14.88%{fill:var(--c1)}14.9%,100%{fill:var(--ce)}}.c.c1q{fill:var(--c1);animation-name:c1q}@keyframes c1r{15.13%{fill:var(--c1)}15.15%,100%{fill:var(--ce)}}.c.c1r{fill:var(--c1);animation-name:c1r}@keyframes c1s{15.37%{fill:var(--c1)}15.39%,100%{fill:var(--ce)}}.c.c1s{fill:var(--c1);animation-name:c1s}@keyframes c1t{20.34%{fill:var(--c1)}20.36%,100%{fill:var(--ce)}}.c.c1t{fill:var(--c1);animation-name:c1t}@keyframes c1u{15.62%{fill:var(--c1)}15.64%,100%{fill:var(--ce)}}.c.c1u{fill:var(--c1);animation-name:c1u}@keyframes c1v{23.81%{fill:var(--c1)}23.83%,100%{fill:var(--ce)}}.c.c1v{fill:var(--c1);animation-name:c1v}@keyframes c1w{82.12%{fill:var(--c3)}82.14%,100%{fill:var(--ce)}}.c.c1w{fill:var(--c3);animation-name:c1w}@keyframes c1x{56.07%{fill:var(--c1)}56.09%,100%{fill:var(--ce)}}.c.c1x{fill:var(--c1);animation-name:c1x}@keyframes c1y{82.62%{fill:var(--c3)}82.64%,100%{fill:var(--ce)}}.c.c1y{fill:var(--c3);animation-name:c1y}@keyframes c1z{83.12%{fill:var(--c3)}83.14%,100%{fill:var(--ce)}}.c.c1z{fill:var(--c3);animation-name:c1z}@keyframes c20{15.87%{fill:var(--c1)}15.89%,100%{fill:var(--ce)}}.c.c20{fill:var(--c1);animation-name:c20}@keyframes c21{56.57%{fill:var(--c1)}56.59%,100%{fill:var(--ce)}}.c.c21{fill:var(--c1);animation-name:c21}@keyframes c22{56.32%{fill:var(--c2)}56.34%,100%{fill:var(--ce)}}.c.c22{fill:var(--c2);animation-name:c22}@keyframes c23{58.05%{fill:var(--c2)}58.07%,100%{fill:var(--ce)}}.c.c23{fill:var(--c2);animation-name:c23}@keyframes c24{16.12%{fill:var(--c1)}16.14%,100%{fill:var(--ce)}}.c.c24{fill:var(--c1);animation-name:c24}@keyframes c25{56.81%{fill:var(--c2)}56.83%,100%{fill:var(--ce)}}.c.c25{fill:var(--c2);animation-name:c25}@keyframes c26{86.84%{fill:var(--c4)}86.86%,100%{fill:var(--ce)}}.c.c26{fill:var(--c4);animation-name:c26}@keyframes c27{57.81%{fill:var(--c2)}57.83%,100%{fill:var(--ce)}}.c.c27{fill:var(--c2);animation-name:c27}@keyframes c28{58.55%{fill:var(--c2)}58.57%,100%{fill:var(--ce)}}.c.c28{fill:var(--c2);animation-name:c28}@keyframes c29{19.1%{fill:var(--c1)}19.12%,100%{fill:var(--ce)}}.c.c29{fill:var(--c1);animation-name:c29}@keyframes c2a{60.04%{fill:var(--c2)}60.06%,100%{fill:var(--ce)}}.c.c2a{fill:var(--c2);animation-name:c2a}@keyframes c2b{16.86%{fill:var(--c1)}16.88%,100%{fill:var(--ce)}}.c.c2b{fill:var(--c1);animation-name:c2b}@keyframes c2c{57.31%{fill:var(--c2)}57.33%,100%{fill:var(--ce)}}.c.c2c{fill:var(--c2);animation-name:c2c}@keyframes c2d{84.11%{fill:var(--c3)}84.13%,100%{fill:var(--ce)}}.c.c2d{fill:var(--c3);animation-name:c2d}@keyframes c2e{83.86%{fill:var(--c3)}83.88%,100%{fill:var(--ce)}}.c.c2e{fill:var(--c3);animation-name:c2e}@keyframes c2f{25.55%{fill:var(--c1)}25.57%,100%{fill:var(--ce)}}.c.c2f{fill:var(--c1);animation-name:c2f}@keyframes c2g{17.36%{fill:var(--c1)}17.38%,100%{fill:var(--ce)}}.c.c2g{fill:var(--c1);animation-name:c2g}@keyframes c2h{25.3%{fill:var(--c1)}25.32%,100%{fill:var(--ce)}}.c.c2h{fill:var(--c1);animation-name:c2h}@keyframes c2i{25.05%{fill:var(--c1)}25.07%,100%{fill:var(--ce)}}.c.c2i{fill:var(--c1);animation-name:c2i}@keyframes c2j{85.1%{fill:var(--c3)}85.12%,100%{fill:var(--ce)}}.c.c2j{fill:var(--c3);animation-name:c2j}@keyframes c2k{85.35%{fill:var(--c4)}85.37%,100%{fill:var(--ce)}}.c.c2k{fill:var(--c4);animation-name:c2k}@keyframes c2l{85.6%{fill:var(--c4)}85.62%,100%{fill:var(--ce)}}.c.c2l{fill:var(--c4);animation-name:c2l}.u{transform-origin:0 0;transform:scale(0,1);animation:none linear 40300ms infinite}@keyframes u0{0.24%{transform:scale(0.000,1)}0.26%,0.49%{transform:scale(0.014,1)}0.51%,0.73%{transform:scale(0.029,1)}0.75%,0.98%{transform:scale(0.043,1)}1%,1.23%{transform:scale(0.057,1)}1.25%,1.48%{transform:scale(0.071,1)}1.5%,1.73%{transform:scale(0.086,1)}1.75%,1.98%{transform:scale(0.100,1)}2%,2.47%{transform:scale(0.114,1)}2.49%,2.72%{transform:scale(0.129,1)}2.74%,2.97%{transform:scale(0.143,1)}2.99%,3.22%{transform:scale(0.157,1)}3.24%,3.71%{transform:scale(0.171,1)}3.73%,4.46%{transform:scale(0.186,1)}4.48%,4.7%{transform:scale(0.200,1)}4.72%,5.2%{transform:scale(0.214,1)}5.22%,6.19%{transform:scale(0.229,1)}6.21%,6.94%{transform:scale(0.243,1)}6.96%,7.19%{transform:scale(0.257,1)}7.21%,7.43%{transform:scale(0.271,1)}7.45%,7.68%{transform:scale(0.286,1)}7.7%,7.93%{transform:scale(0.300,1)}7.95%,8.18%{transform:scale(0.314,1)}8.2%,8.43%{transform:scale(0.329,1)}8.45%,8.67%{transform:scale(0.343,1)}8.69%,8.92%{transform:scale(0.357,1)}8.94%,9.17%{transform:scale(0.371,1)}9.19%,9.42%{transform:scale(0.386,1)}9.44%,9.67%{transform:scale(0.400,1)}9.69%,9.92%{transform:scale(0.414,1)}9.94%,10.16%{transform:scale(0.429,1)}10.18%,10.41%{transform:scale(0.443,1)}10.43%,10.66%{transform:scale(0.457,1)}10.68%,10.91%{transform:scale(0.471,1)}10.93%,11.16%{transform:scale(0.486,1)}11.18%,11.4%{transform:scale(0.500,1)}11.42%,11.65%{transform:scale(0.514,1)}11.67%,11.9%{transform:scale(0.529,1)}11.92%,12.15%{transform:scale(0.543,1)}12.17%,12.4%{transform:scale(0.557,1)}12.42%,12.65%{transform:scale(0.571,1)}12.67%,12.89%{transform:scale(0.586,1)}12.91%,13.14%{transform:scale(0.600,1)}13.16%,13.39%{transform:scale(0.614,1)}13.41%,13.64%{transform:scale(0.629,1)}13.66%,14.63%{transform:scale(0.643,1)}14.65%,14.88%{transform:scale(0.657,1)}14.9%,15.13%{transform:scale(0.671,1)}15.15%,15.37%{transform:scale(0.686,1)}15.39%,15.62%{transform:scale(0.700,1)}15.64%,15.87%{transform:scale(0.714,1)}15.89%,16.12%{transform:scale(0.729,1)}16.14%,16.86%{transform:scale(0.743,1)}16.88%,17.36%{transform:scale(0.757,1)}17.38%,19.1%{transform:scale(0.771,1)}19.12%,20.34%{transform:scale(0.786,1)}20.36%,22.07%{transform:scale(0.800,1)}22.09%,23.81%{transform:scale(0.814,1)}23.83%,25.05%{transform:scale(0.829,1)}25.07%,25.3%{transform:scale(0.843,1)}25.32%,25.55%{transform:scale(0.857,1)}25.57%,35.47%{transform:scale(0.871,1)}35.49%,36.96%{transform:scale(0.886,1)}36.98%,39.2%{transform:scale(0.900,1)}39.22%,41.68%{transform:scale(0.914,1)}41.7%,41.93%{transform:scale(0.929,1)}41.95%,42.42%{transform:scale(0.943,1)}42.44%,43.17%{transform:scale(0.957,1)}43.19%,44.66%{transform:scale(0.971,1)}44.68%,56.07%{transform:scale(0.986,1)}56.09%,100%{transform:scale(1.000,1)}}.u.u0{fill:var(--c1);animation-name:u0;transform-origin:0.0px 0}@keyframes u1{56.32%{transform:scale(0.000,1)}56.34%,100%{transform:scale(1.000,1)}}.u.u1{fill:var(--c2);animation-name:u1;transform-origin:631.5px 0}@keyframes u2{56.57%{transform:scale(0.000,1)}56.59%,100%{transform:scale(1.000,1)}}.u.u2{fill:var(--c1);animation-name:u2;transform-origin:640.5px 0}@keyframes u3{56.81%{transform:scale(0.000,1)}56.83%,57.31%{transform:scale(0.111,1)}57.33%,57.81%{transform:scale(0.222,1)}57.83%,58.05%{transform:scale(0.333,1)}58.07%,58.55%{transform:scale(0.444,1)}58.57%,60.04%{transform:scale(0.556,1)}60.06%,62.02%{transform:scale(0.667,1)}62.04%,69.72%{transform:scale(0.778,1)}69.74%,70.71%{transform:scale(0.889,1)}70.73%,100%{transform:scale(1.000,1)}}.u.u3{fill:var(--c2);animation-name:u3;transform-origin:649.5px 0}@keyframes u4{71.45%{transform:scale(0.000,1)}71.47%,72.69%{transform:scale(0.100,1)}72.71%,72.94%{transform:scale(0.200,1)}72.96%,80.39%{transform:scale(0.300,1)}80.41%,82.12%{transform:scale(0.400,1)}82.14%,82.62%{transform:scale(0.500,1)}82.64%,83.12%{transform:scale(0.600,1)}83.14%,83.86%{transform:scale(0.700,1)}83.88%,84.11%{transform:scale(0.800,1)}84.13%,85.1%{transform:scale(0.900,1)}85.12%,100%{transform:scale(1.000,1)}}.u.u4{fill:var(--c3);animation-name:u4;transform-origin:730.7px 0}@keyframes u5{85.35%{transform:scale(0.000,1)}85.37%,85.6%{transform:scale(0.333,1)}85.62%,86.84%{transform:scale(0.667,1)}86.86%,100%{transform:scale(1.000,1)}}.u.u5{fill:var(--c4);animation-name:u5;transform-origin:820.9px 0}.s{shape-rendering:geometricPrecision;fill:var(--cs);animation:none linear 40300ms infinite}@keyframes s0{0%,99.75%{transform:translate(0px,-16px)}0.25%{transform:translate(0px,0px)}1.99%,70.97%{transform:translate(112px,0px)}2.23%{transform:translate(112px,16px)}2.48%{transform:translate(128px,16px)}3.23%{transform:translate(128px,64px)}4.96%{transform:translate(240px,64px)}5.21%{transform:translate(240px,80px)}5.46%{transform:translate(224px,80px)}5.96%{transform:translate(224px,48px)}6.2%{transform:translate(208px,48px)}6.95%{transform:translate(208px,0px)}13.65%{transform:translate(640px,0px)}13.9%{transform:translate(640px,-16px)}14.39%{transform:translate(672px,-16px)}14.64%,61.79%{transform:translate(672px,0px)}16.13%{transform:translate(768px,0px)}16.38%{transform:translate(768px,16px)}16.63%{transform:translate(784px,16px)}16.87%,57.07%{transform:translate(784px,32px)}17.12%{transform:translate(800px,32px)}18.36%{transform:translate(800px,112px)}18.86%{transform:translate(768px,112px)}19.11%{transform:translate(768px,96px)}19.35%{transform:translate(752px,96px)}19.6%,58.31%{transform:translate(752px,80px)}20.1%{transform:translate(720px,80px)}20.35%{transform:translate(720px,96px)}20.6%{transform:translate(704px,96px)}21.59%{transform:translate(704px,32px)}22.08%{transform:translate(672px,32px)}22.33%{transform:translate(672px,48px)}23.08%{transform:translate(720px,48px)}23.57%{transform:translate(720px,16px)}25.06%{transform:translate(816px,16px)}25.31%{transform:translate(816px,0px)}25.56%{transform:translate(800px,0px)}25.81%{transform:translate(800px,-16px)}35.24%{transform:translate(192px,-16px)}36.97%{transform:translate(192px,96px)}37.22%{transform:translate(176px,96px)}38.21%{transform:translate(176px,32px)}38.46%,72.21%{transform:translate(160px,32px)}38.71%{transform:translate(160px,16px)}38.96%,70.22%{transform:translate(144px,16px)}39.45%{transform:translate(144px,-16px)}40.94%{transform:translate(48px,-16px)}41.94%,45.41%{transform:translate(48px,48px)}42.43%{transform:translate(16px,48px)}42.93%{transform:translate(16px,16px)}43.18%{transform:translate(0px,16px)}43.42%{transform:translate(0px,32px)}43.92%{transform:translate(32px,32px)}44.67%{transform:translate(32px,80px)}44.91%{transform:translate(48px,80px)}56.33%{transform:translate(752px,48px)}56.58%{transform:translate(752px,32px)}57.57%,59.06%{transform:translate(784px,64px)}58.06%{transform:translate(752px,64px)}58.56%{transform:translate(768px,80px)}58.81%{transform:translate(768px,64px)}60.05%{transform:translate(784px,0px)}62.03%{transform:translate(672px,16px)}70.47%,97.27%{transform:translate(144px,0px)}71.46%{transform:translate(112px,32px)}72.7%{transform:translate(160px,0px)}81.64%{transform:translate(736px,0px)}83.13%{transform:translate(736px,96px)}83.87%{transform:translate(784px,96px)}84.12%{transform:translate(784px,80px)}84.37%,85.86%{transform:translate(800px,80px)}84.86%,86.35%{transform:translate(800px,48px)}85.11%{transform:translate(816px,48px)}85.61%{transform:translate(816px,80px)}96.53%{transform:translate(144px,48px)}98.26%{transform:translate(80px,0px)}98.51%{transform:translate(80px,-16px)}}.s.s0{transform:translate(0px,-16px);animation-name:s0}@keyframes s1{0%,99.75%{transform:translate(16px,-16px)}0.25%{transform:translate(0px,-16px)}0.5%{transform:translate(0px,0px)}2.23%,71.22%{transform:translate(112px,0px)}2.48%{transform:translate(112px,16px)}2.73%{transform:translate(128px,16px)}3.47%{transform:translate(128px,64px)}5.21%{transform:translate(240px,64px)}5.46%{transform:translate(240px,80px)}5.71%{transform:translate(224px,80px)}6.2%{transform:translate(224px,48px)}6.45%{transform:translate(208px,48px)}7.2%{transform:translate(208px,0px)}13.9%{transform:translate(640px,0px)}14.14%{transform:translate(640px,-16px)}14.64%{transform:translate(672px,-16px)}14.89%,62.03%{transform:translate(672px,0px)}16.38%{transform:translate(768px,0px)}16.63%{transform:translate(768px,16px)}16.87%{transform:translate(784px,16px)}17.12%,57.32%{transform:translate(784px,32px)}17.37%{transform:translate(800px,32px)}18.61%{transform:translate(800px,112px)}19.11%{transform:translate(768px,112px)}19.35%{transform:translate(768px,96px)}19.6%{transform:translate(752px,96px)}19.85%,58.56%{transform:translate(752px,80px)}20.35%{transform:translate(720px,80px)}20.6%{transform:translate(720px,96px)}20.84%{transform:translate(704px,96px)}21.84%{transform:translate(704px,32px)}22.33%{transform:translate(672px,32px)}22.58%{transform:translate(672px,48px)}23.33%{transform:translate(720px,48px)}23.82%{transform:translate(720px,16px)}25.31%{transform:translate(816px,16px)}25.56%{transform:translate(816px,0px)}25.81%{transform:translate(800px,0px)}26.05%{transform:translate(800px,-16px)}35.48%{transform:translate(192px,-16px)}37.22%{transform:translate(192px,96px)}37.47%{transform:translate(176px,96px)}38.46%{transform:translate(176px,32px)}38.71%,72.46%{transform:translate(160px,32px)}38.96%{transform:translate(160px,16px)}39.21%,70.47%{transform:translate(144px,16px)}39.7%{transform:translate(144px,-16px)}41.19%{transform:translate(48px,-16px)}42.18%,45.66%{transform:translate(48px,48px)}42.68%{transform:translate(16px,48px)}43.18%{transform:translate(16px,16px)}43.42%{transform:translate(0px,16px)}43.67%{transform:translate(0px,32px)}44.17%{transform:translate(32px,32px)}44.91%{transform:translate(32px,80px)}45.16%{transform:translate(48px,80px)}56.58%{transform:translate(752px,48px)}56.82%{transform:translate(752px,32px)}57.82%,59.31%{transform:translate(784px,64px)}58.31%{transform:translate(752px,64px)}58.81%{transform:translate(768px,80px)}59.06%{transform:translate(768px,64px)}60.3%{transform:translate(784px,0px)}62.28%{transform:translate(672px,16px)}70.72%,97.52%{transform:translate(144px,0px)}71.71%{transform:translate(112px,32px)}72.95%{transform:translate(160px,0px)}81.89%{transform:translate(736px,0px)}83.37%{transform:translate(736px,96px)}84.12%{transform:translate(784px,96px)}84.37%{transform:translate(784px,80px)}84.62%,86.1%{transform:translate(800px,80px)}85.11%,86.6%{transform:translate(800px,48px)}85.36%{transform:translate(816px,48px)}85.86%{transform:translate(816px,80px)}96.77%{transform:translate(144px,48px)}98.51%{transform:translate(80px,0px)}98.76%{transform:translate(80px,-16px)}}.s.s1{transform:translate(16px,-16px);animation-name:s1}@keyframes s2{0%,99.75%{transform:translate(32px,-16px)}0.5%{transform:translate(0px,-16px)}0.74%{transform:translate(0px,0px)}2.48%,71.46%{transform:translate(112px,0px)}2.73%{transform:translate(112px,16px)}2.98%{transform:translate(128px,16px)}3.72%{transform:translate(128px,64px)}5.46%{transform:translate(240px,64px)}5.71%{transform:translate(240px,80px)}5.96%{transform:translate(224px,80px)}6.45%{transform:translate(224px,48px)}6.7%{transform:translate(208px,48px)}7.44%{transform:translate(208px,0px)}14.14%{transform:translate(640px,0px)}14.39%{transform:translate(640px,-16px)}14.89%{transform:translate(672px,-16px)}15.14%,62.28%{transform:translate(672px,0px)}16.63%{transform:translate(768px,0px)}16.87%{transform:translate(768px,16px)}17.12%{transform:translate(784px,16px)}17.37%,57.57%{transform:translate(784px,32px)}17.62%{transform:translate(800px,32px)}18.86%{transform:translate(800px,112px)}19.35%{transform:translate(768px,112px)}19.6%{transform:translate(768px,96px)}19.85%{transform:translate(752px,96px)}20.1%,58.81%{transform:translate(752px,80px)}20.6%{transform:translate(720px,80px)}20.84%{transform:translate(720px,96px)}21.09%{transform:translate(704px,96px)}22.08%{transform:translate(704px,32px)}22.58%{transform:translate(672px,32px)}22.83%{transform:translate(672px,48px)}23.57%{transform:translate(720px,48px)}24.07%{transform:translate(720px,16px)}25.56%{transform:translate(816px,16px)}25.81%{transform:translate(816px,0px)}26.05%{transform:translate(800px,0px)}26.3%{transform:translate(800px,-16px)}35.73%{transform:translate(192px,-16px)}37.47%{transform:translate(192px,96px)}37.72%{transform:translate(176px,96px)}38.71%{transform:translate(176px,32px)}38.96%,72.7%{transform:translate(160px,32px)}39.21%{transform:translate(160px,16px)}39.45%,70.72%{transform:translate(144px,16px)}39.95%{transform:translate(144px,-16px)}41.44%{transform:translate(48px,-16px)}42.43%,45.91%{transform:translate(48px,48px)}42.93%{transform:translate(16px,48px)}43.42%{transform:translate(16px,16px)}43.67%{transform:translate(0px,16px)}43.92%{transform:translate(0px,32px)}44.42%{transform:translate(32px,32px)}45.16%{transform:translate(32px,80px)}45.41%{transform:translate(48px,80px)}56.82%{transform:translate(752px,48px)}57.07%{transform:translate(752px,32px)}58.06%,59.55%{transform:translate(784px,64px)}58.56%{transform:translate(752px,64px)}59.06%{transform:translate(768px,80px)}59.31%{transform:translate(768px,64px)}60.55%{transform:translate(784px,0px)}62.53%{transform:translate(672px,16px)}70.97%,97.77%{transform:translate(144px,0px)}71.96%{transform:translate(112px,32px)}73.2%{transform:translate(160px,0px)}82.13%{transform:translate(736px,0px)}83.62%{transform:translate(736px,96px)}84.37%{transform:translate(784px,96px)}84.62%{transform:translate(784px,80px)}84.86%,86.35%{transform:translate(800px,80px)}85.36%,86.85%{transform:translate(800px,48px)}85.61%{transform:translate(816px,48px)}86.1%{transform:translate(816px,80px)}97.02%{transform:translate(144px,48px)}98.76%{transform:translate(80px,0px)}99.01%{transform:translate(80px,-16px)}}.s.s2{transform:translate(32px,-16px);animation-name:s2}@keyframes s3{0%,41.69%,99.75%{transform:translate(48px,-16px)}0.74%{transform:translate(0px,-16px)}0.99%{transform:translate(0px,0px)}2.73%,71.71%{transform:translate(112px,0px)}2.98%{transform:translate(112px,16px)}3.23%{transform:translate(128px,16px)}3.97%{transform:translate(128px,64px)}5.71%{transform:translate(240px,64px)}5.96%{transform:translate(240px,80px)}6.2%{transform:translate(224px,80px)}6.7%{transform:translate(224px,48px)}6.95%{transform:translate(208px,48px)}7.69%{transform:translate(208px,0px)}14.39%{transform:translate(640px,0px)}14.64%{transform:translate(640px,-16px)}15.14%{transform:translate(672px,-16px)}15.38%,62.53%{transform:translate(672px,0px)}16.87%{transform:translate(768px,0px)}17.12%{transform:translate(768px,16px)}17.37%{transform:translate(784px,16px)}17.62%,57.82%{transform:translate(784px,32px)}17.87%{transform:translate(800px,32px)}19.11%{transform:translate(800px,112px)}19.6%{transform:translate(768px,112px)}19.85%{transform:translate(768px,96px)}20.1%{transform:translate(752px,96px)}20.35%,59.06%{transform:translate(752px,80px)}20.84%{transform:translate(720px,80px)}21.09%{transform:translate(720px,96px)}21.34%{transform:translate(704px,96px)}22.33%{transform:translate(704px,32px)}22.83%{transform:translate(672px,32px)}23.08%{transform:translate(672px,48px)}23.82%{transform:translate(720px,48px)}24.32%{transform:translate(720px,16px)}25.81%{transform:translate(816px,16px)}26.05%{transform:translate(816px,0px)}26.3%{transform:translate(800px,0px)}26.55%{transform:translate(800px,-16px)}35.98%{transform:translate(192px,-16px)}37.72%{transform:translate(192px,96px)}37.97%{transform:translate(176px,96px)}38.96%{transform:translate(176px,32px)}39.21%,72.95%{transform:translate(160px,32px)}39.45%{transform:translate(160px,16px)}39.7%,70.97%{transform:translate(144px,16px)}40.2%{transform:translate(144px,-16px)}42.68%,46.15%{transform:translate(48px,48px)}43.18%{transform:translate(16px,48px)}43.67%{transform:translate(16px,16px)}43.92%{transform:translate(0px,16px)}44.17%{transform:translate(0px,32px)}44.67%{transform:translate(32px,32px)}45.41%{transform:translate(32px,80px)}45.66%{transform:translate(48px,80px)}57.07%{transform:translate(752px,48px)}57.32%{transform:translate(752px,32px)}58.31%,59.8%{transform:translate(784px,64px)}58.81%{transform:translate(752px,64px)}59.31%{transform:translate(768px,80px)}59.55%{transform:translate(768px,64px)}60.79%{transform:translate(784px,0px)}62.78%{transform:translate(672px,16px)}71.22%,98.01%{transform:translate(144px,0px)}72.21%{transform:translate(112px,32px)}73.45%{transform:translate(160px,0px)}82.38%{transform:translate(736px,0px)}83.87%{transform:translate(736px,96px)}84.62%{transform:translate(784px,96px)}84.86%{transform:translate(784px,80px)}85.11%,86.6%{transform:translate(800px,80px)}85.61%,87.1%{transform:translate(800px,48px)}85.86%{transform:translate(816px,48px)}86.35%{transform:translate(816px,80px)}97.27%{transform:translate(144px,48px)}99.01%{transform:translate(80px,0px)}99.26%{transform:translate(80px,-16px)}}.s.s3{transform:translate(48px,-16px);animation-name:s3}</style><rect class="c c0" x="2" y="2" rx="2" ry="2"/><rect class="c c1" x="2" y="18" rx="2" ry="2"/><rect class="c" x="2" y="34" rx="2" ry="2"/><rect class="c" x="2" y="50" rx="2" ry="2"/><rect class="c" x="2" y="66" rx="2" ry="2"/><rect class="c" x="2" y="82" rx="2" ry="2"/><rect class="c" x="2" y="98" rx="2" ry="2"/><rect class="c c2" x="18" y="2" rx="2" ry="2"/><rect class="c" x="18" y="18" rx="2" ry="2"/><rect class="c" x="18" y="34" rx="2" ry="2"/><rect class="c c3" x="18" y="50" rx="2" ry="2"/><rect class="c" x="18" y="66" rx="2" ry="2"/><rect class="c" x="18" y="82" rx="2" ry="2"/><rect class="c" x="18" y="98" rx="2" ry="2"/><rect class="c c4" x="34" y="2" rx="2" ry="2"/><rect class="c" x="34" y="18" rx="2" ry="2"/><rect class="c" x="34" y="34" rx="2" ry="2"/><rect class="c" x="34" y="50" rx="2" ry="2"/><rect class="c" x="34" y="66" rx="2" ry="2"/><rect class="c c5" x="34" y="82" rx="2" ry="2"/><rect class="c" x="34" y="98" rx="2" ry="2"/><rect class="c c6" x="50" y="2" rx="2" ry="2"/><rect class="c" x="50" y="18" rx="2" ry="2"/><rect class="c c7" x="50" y="34" rx="2" ry="2"/><rect class="c c8" x="50" y="50" rx="2" ry="2"/><rect class="c" x="50" y="66" rx="2" ry="2"/><rect class="c" x="50" y="82" rx="2" ry="2"/><rect class="c" x="50" y="98" rx="2" ry="2"/><rect class="c c9" x="66" y="2" rx="2" ry="2"/><rect class="c" x="66" y="18" rx="2" ry="2"/><rect class="c" x="66" y="34" rx="2" ry="2"/><rect class="c" x="66" y="50" rx="2" ry="2"/><rect class="c" x="66" y="66" rx="2" ry="2"/><rect class="c" x="66" y="82" rx="2" ry="2"/><rect class="c" x="66" y="98" rx="2" ry="2"/><rect class="c ca" x="82" y="2" rx="2" ry="2"/><rect class="c" x="82" y="18" rx="2" ry="2"/><rect class="c" x="82" y="34" rx="2" ry="2"/><rect class="c" x="82" y="50" rx="2" ry="2"/><rect class="c" x="82" y="66" rx="2" ry="2"/><rect class="c" x="82" y="82" rx="2" ry="2"/><rect class="c" x="82" y="98" rx="2" ry="2"/><rect class="c cb" x="98" y="2" rx="2" ry="2"/><rect class="c" x="98" y="18" rx="2" ry="2"/><rect class="c" x="98" y="34" rx="2" ry="2"/><rect class="c" x="98" y="50" rx="2" ry="2"/><rect class="c" x="98" y="66" rx="2" ry="2"/><rect class="c" x="98" y="82" rx="2" ry="2"/><rect class="c" x="98" y="98" rx="2" ry="2"/><rect class="c cc" x="114" y="2" rx="2" ry="2"/><rect class="c" x="114" y="18" rx="2" ry="2"/><rect class="c cd" x="114" y="34" rx="2" ry="2"/><rect class="c" x="114" y="50" rx="2" ry="2"/><rect class="c" x="114" y="66" rx="2" ry="2"/><rect class="c" x="114" y="82" rx="2" ry="2"/><rect class="c" x="114" y="98" rx="2" ry="2"/><rect class="c ce" x="130" y="2" rx="2" ry="2"/><rect class="c cf" x="130" y="18" rx="2" ry="2"/><rect class="c cg" x="130" y="34" rx="2" ry="2"/><rect class="c ch" x="130" y="50" rx="2" ry="2"/><rect class="c ci" x="130" y="66" rx="2" ry="2"/><rect class="c" x="130" y="82" rx="2" ry="2"/><rect class="c" x="130" y="98" rx="2" ry="2"/><rect class="c cj" x="146" y="2" rx="2" ry="2"/><rect class="c" x="146" y="18" rx="2" ry="2"/><rect class="c" x="146" y="34" rx="2" ry="2"/><rect class="c" x="146" y="50" rx="2" ry="2"/><rect class="c" x="146" y="66" rx="2" ry="2"/><rect class="c" x="146" y="82" rx="2" ry="2"/><rect class="c" x="146" y="98" rx="2" ry="2"/><rect class="c ck" x="162" y="2" rx="2" ry="2"/><rect class="c" x="162" y="18" rx="2" ry="2"/><rect class="c" x="162" y="34" rx="2" ry="2"/><rect class="c" x="162" y="50" rx="2" ry="2"/><rect class="c cl" x="162" y="66" rx="2" ry="2"/><rect class="c" x="162" y="82" rx="2" ry="2"/><rect class="c" x="162" y="98" rx="2" ry="2"/><rect class="c cm" x="178" y="2" rx="2" ry="2"/><rect class="c cn" x="178" y="18" rx="2" ry="2"/><rect class="c" x="178" y="34" rx="2" ry="2"/><rect class="c" x="178" y="50" rx="2" ry="2"/><rect class="c" x="178" y="66" rx="2" ry="2"/><rect class="c" x="178" y="82" rx="2" ry="2"/><rect class="c" x="178" y="98" rx="2" ry="2"/><rect class="c co" x="194" y="2" rx="2" ry="2"/><rect class="c" x="194" y="18" rx="2" ry="2"/><rect class="c" x="194" y="34" rx="2" ry="2"/><rect class="c" x="194" y="50" rx="2" ry="2"/><rect class="c" x="194" y="66" rx="2" ry="2"/><rect class="c" x="194" y="82" rx="2" ry="2"/><rect class="c cp" x="194" y="98" rx="2" ry="2"/><rect class="c cq" x="210" y="2" rx="2" ry="2"/><rect class="c" x="210" y="18" rx="2" ry="2"/><rect class="c" x="210" y="34" rx="2" ry="2"/><rect class="c cr" x="210" y="50" rx="2" ry="2"/><rect class="c cs" x="210" y="66" rx="2" ry="2"/><rect class="c" x="210" y="82" rx="2" ry="2"/><rect class="c" x="210" y="98" rx="2" ry="2"/><rect class="c ct" x="226" y="2" rx="2" ry="2"/><rect class="c" x="226" y="18" rx="2" ry="2"/><rect class="c" x="226" y="34" rx="2" ry="2"/><rect class="c" x="226" y="50" rx="2" ry="2"/><rect class="c cu" x="226" y="66" rx="2" ry="2"/><rect class="c" x="226" y="82" rx="2" ry="2"/><rect class="c" x="226" y="98" rx="2" ry="2"/><rect class="c cv" x="242" y="2" rx="2" ry="2"/><rect class="c" x="242" y="18" rx="2" ry="2"/><rect class="c" x="242" y="34" rx="2" ry="2"/><rect class="c" x="242" y="50" rx="2" ry="2"/><rect class="c" x="242" y="66" rx="2" ry="2"/><rect class="c cw" x="242" y="82" rx="2" ry="2"/><rect class="c" x="242" y="98" rx="2" ry="2"/><rect class="c cx" x="258" y="2" rx="2" ry="2"/><rect class="c" x="258" y="18" rx="2" ry="2"/><rect class="c" x="258" y="34" rx="2" ry="2"/><rect class="c" x="258" y="50" rx="2" ry="2"/><rect class="c" x="258" y="66" rx="2" ry="2"/><rect class="c" x="258" y="82" rx="2" ry="2"/><rect class="c" x="258" y="98" rx="2" ry="2"/><rect class="c cy" x="274" y="2" rx="2" ry="2"/><rect class="c" x="274" y="18" rx="2" ry="2"/><rect class="c" x="274" y="34" rx="2" ry="2"/><rect class="c" x="274" y="50" rx="2" ry="2"/><rect class="c" x="274" y="66" rx="2" ry="2"/><rect class="c" x="274" y="82" rx="2" ry="2"/><rect class="c" x="274" y="98" rx="2" ry="2"/><rect class="c cz" x="290" y="2" rx="2" ry="2"/><rect class="c" x="290" y="18" rx="2" ry="2"/><rect class="c" x="290" y="34" rx="2" ry="2"/><rect class="c" x="290" y="50" rx="2" ry="2"/><rect class="c" x="290" y="66" rx="2" ry="2"/><rect class="c" x="290" y="82" rx="2" ry="2"/><rect class="c" x="290" y="98" rx="2" ry="2"/><rect class="c c10" x="306" y="2" rx="2" ry="2"/><rect class="c" x="306" y="18" rx="2" ry="2"/><rect class="c" x="306" y="34" rx="2" ry="2"/><rect class="c" x="306" y="50" rx="2" ry="2"/><rect class="c" x="306" y="66" rx="2" ry="2"/><rect class="c" x="306" y="82" rx="2" ry="2"/><rect class="c" x="306" y="98" rx="2" ry="2"/><rect class="c c11" x="322" y="2" rx="2" ry="2"/><rect class="c" x="322" y="18" rx="2" ry="2"/><rect class="c" x="322" y="34" rx="2" ry="2"/><rect class="c" x="322" y="50" rx="2" ry="2"/><rect class="c" x="322" y="66" rx="2" ry="2"/><rect class="c" x="322" y="82" rx="2" ry="2"/><rect class="c" x="322" y="98" rx="2" ry="2"/><rect class="c c12" x="338" y="2" rx="2" ry="2"/><rect class="c" x="338" y="18" rx="2" ry="2"/><rect class="c" x="338" y="34" rx="2" ry="2"/><rect class="c" x="338" y="50" rx="2" ry="2"/><rect class="c" x="338" y="66" rx="2" ry="2"/><rect class="c" x="338" y="82" rx="2" ry="2"/><rect class="c" x="338" y="98" rx="2" ry="2"/><rect class="c c13" x="354" y="2" rx="2" ry="2"/><rect class="c" x="354" y="18" rx="2" ry="2"/><rect class="c" x="354" y="34" rx="2" ry="2"/><rect class="c" x="354" y="50" rx="2" ry="2"/><rect class="c" x="354" y="66" rx="2" ry="2"/><rect class="c" x="354" y="82" rx="2" ry="2"/><rect class="c" x="354" y="98" rx="2" ry="2"/><rect class="c c14" x="370" y="2" rx="2" ry="2"/><rect class="c" x="370" y="18" rx="2" ry="2"/><rect class="c" x="370" y="34" rx="2" ry="2"/><rect class="c" x="370" y="50" rx="2" ry="2"/><rect class="c" x="370" y="66" rx="2" ry="2"/><rect class="c" x="370" y="82" rx="2" ry="2"/><rect class="c" x="370" y="98" rx="2" ry="2"/><rect class="c c15" x="386" y="2" rx="2" ry="2"/><rect class="c" x="386" y="18" rx="2" ry="2"/><rect class="c" x="386" y="34" rx="2" ry="2"/><rect class="c" x="386" y="50" rx="2" ry="2"/><rect class="c" x="386" y="66" rx="2" ry="2"/><rect class="c" x="386" y="82" rx="2" ry="2"/><rect class="c" x="386" y="98" rx="2" ry="2"/><rect class="c c16" x="402" y="2" rx="2" ry="2"/><rect class="c" x="402" y="18" rx="2" ry="2"/><rect class="c" x="402" y="34" rx="2" ry="2"/><rect class="c" x="402" y="50" rx="2" ry="2"/><rect class="c" x="402" y="66" rx="2" ry="2"/><rect class="c" x="402" y="82" rx="2" ry="2"/><rect class="c" x="402" y="98" rx="2" ry="2"/><rect class="c c17" x="418" y="2" rx="2" ry="2"/><rect class="c" x="418" y="18" rx="2" ry="2"/><rect class="c" x="418" y="34" rx="2" ry="2"/><rect class="c" x="418" y="50" rx="2" ry="2"/><rect class="c" x="418" y="66" rx="2" ry="2"/><rect class="c" x="418" y="82" rx="2" ry="2"/><rect class="c" x="418" y="98" rx="2" ry="2"/><rect class="c c18" x="434" y="2" rx="2" ry="2"/><rect class="c" x="434" y="18" rx="2" ry="2"/><rect class="c" x="434" y="34" rx="2" ry="2"/><rect class="c" x="434" y="50" rx="2" ry="2"/><rect class="c" x="434" y="66" rx="2" ry="2"/><rect class="c" x="434" y="82" rx="2" ry="2"/><rect class="c" x="434" y="98" rx="2" ry="2"/><rect class="c c19" x="450" y="2" rx="2" ry="2"/><rect class="c" x="450" y="18" rx="2" ry="2"/><rect class="c" x="450" y="34" rx="2" ry="2"/><rect class="c" x="450" y="50" rx="2" ry="2"/><rect class="c" x="450" y="66" rx="2" ry="2"/><rect class="c" x="450" y="82" rx="2" ry="2"/><rect class="c" x="450" y="98" rx="2" ry="2"/><rect class="c c1a" x="466" y="2" rx="2" ry="2"/><rect class="c" x="466" y="18" rx="2" ry="2"/><rect class="c" x="466" y="34" rx="2" ry="2"/><rect class="c" x="466" y="50" rx="2" ry="2"/><rect class="c" x="466" y="66" rx="2" ry="2"/><rect class="c" x="466" y="82" rx="2" ry="2"/><rect class="c" x="466" y="98" rx="2" ry="2"/><rect class="c c1b" x="482" y="2" rx="2" ry="2"/><rect class="c" x="482" y="18" rx="2" ry="2"/><rect class="c" x="482" y="34" rx="2" ry="2"/><rect class="c" x="482" y="50" rx="2" ry="2"/><rect class="c" x="482" y="66" rx="2" ry="2"/><rect class="c" x="482" y="82" rx="2" ry="2"/><rect class="c" x="482" y="98" rx="2" ry="2"/><rect class="c c1c" x="498" y="2" rx="2" ry="2"/><rect class="c" x="498" y="18" rx="2" ry="2"/><rect class="c" x="498" y="34" rx="2" ry="2"/><rect class="c" x="498" y="50" rx="2" ry="2"/><rect class="c" x="498" y="66" rx="2" ry="2"/><rect class="c" x="498" y="82" rx="2" ry="2"/><rect class="c" x="498" y="98" rx="2" ry="2"/><rect class="c c1d" x="514" y="2" rx="2" ry="2"/><rect class="c" x="514" y="18" rx="2" ry="2"/><rect class="c" x="514" y="34" rx="2" ry="2"/><rect class="c" x="514" y="50" rx="2" ry="2"/><rect class="c" x="514" y="66" rx="2" ry="2"/><rect class="c" x="514" y="82" rx="2" ry="2"/><rect class="c" x="514" y="98" rx="2" ry="2"/><rect class="c c1e" x="530" y="2" rx="2" ry="2"/><rect class="c" x="530" y="18" rx="2" ry="2"/><rect class="c" x="530" y="34" rx="2" ry="2"/><rect class="c" x="530" y="50" rx="2" ry="2"/><rect class="c" x="530" y="66" rx="2" ry="2"/><rect class="c" x="530" y="82" rx="2" ry="2"/><rect class="c" x="530" y="98" rx="2" ry="2"/><rect class="c c1f" x="546" y="2" rx="2" ry="2"/><rect class="c" x="546" y="18" rx="2" ry="2"/><rect class="c" x="546" y="34" rx="2" ry="2"/><rect class="c" x="546" y="50" rx="2" ry="2"/><rect class="c" x="546" y="66" rx="2" ry="2"/><rect class="c" x="546" y="82" rx="2" ry="2"/><rect class="c" x="546" y="98" rx="2" ry="2"/><rect class="c c1g" x="562" y="2" rx="2" ry="2"/><rect class="c" x="562" y="18" rx="2" ry="2"/><rect class="c" x="562" y="34" rx="2" ry="2"/><rect class="c" x="562" y="50" rx="2" ry="2"/><rect class="c" x="562" y="66" rx="2" ry="2"/><rect class="c" x="562" y="82" rx="2" ry="2"/><rect class="c" x="562" y="98" rx="2" ry="2"/><rect class="c c1h" x="578" y="2" rx="2" ry="2"/><rect class="c" x="578" y="18" rx="2" ry="2"/><rect class="c" x="578" y="34" rx="2" ry="2"/><rect class="c" x="578" y="50" rx="2" ry="2"/><rect class="c" x="578" y="66" rx="2" ry="2"/><rect class="c" x="578" y="82" rx="2" ry="2"/><rect class="c" x="578" y="98" rx="2" ry="2"/><rect class="c c1i" x="594" y="2" rx="2" ry="2"/><rect class="c" x="594" y="18" rx="2" ry="2"/><rect class="c" x="594" y="34" rx="2" ry="2"/><rect class="c" x="594" y="50" rx="2" ry="2"/><rect class="c" x="594" y="66" rx="2" ry="2"/><rect class="c" x="594" y="82" rx="2" ry="2"/><rect class="c" x="594" y="98" rx="2" ry="2"/><rect class="c c1j" x="610" y="2" rx="2" ry="2"/><rect class="c" x="610" y="18" rx="2" ry="2"/><rect class="c" x="610" y="34" rx="2" ry="2"/><rect class="c" x="610" y="50" rx="2" ry="2"/><rect class="c" x="610" y="66" rx="2" ry="2"/><rect class="c" x="610" y="82" rx="2" ry="2"/><rect class="c" x="610" y="98" rx="2" ry="2"/><rect class="c c1k" x="626" y="2" rx="2" ry="2"/><rect class="c" x="626" y="18" rx="2" ry="2"/><rect class="c" x="626" y="34" rx="2" ry="2"/><rect class="c" x="626" y="50" rx="2" ry="2"/><rect class="c" x="626" y="66" rx="2" ry="2"/><rect class="c" x="626" y="82" rx="2" ry="2"/><rect class="c" x="626" y="98" rx="2" ry="2"/><rect class="c c1l" x="642" y="2" rx="2" ry="2"/><rect class="c" x="642" y="18" rx="2" ry="2"/><rect class="c" x="642" y="34" rx="2" ry="2"/><rect class="c" x="642" y="50" rx="2" ry="2"/><rect class="c" x="642" y="66" rx="2" ry="2"/><rect class="c" x="642" y="82" rx="2" ry="2"/><rect class="c" x="642" y="98" rx="2" ry="2"/><rect class="c c1m" x="658" y="2" rx="2" ry="2"/><rect class="c" x="658" y="18" rx="2" ry="2"/><rect class="c" x="658" y="34" rx="2" ry="2"/><rect class="c" x="658" y="50" rx="2" ry="2"/><rect class="c" x="658" y="66" rx="2" ry="2"/><rect class="c" x="658" y="82" rx="2" ry="2"/><rect class="c" x="658" y="98" rx="2" ry="2"/><rect class="c c1n" x="674" y="2" rx="2" ry="2"/><rect class="c c1o" x="674" y="18" rx="2" ry="2"/><rect class="c c1p" x="674" y="34" rx="2" ry="2"/><rect class="c" x="674" y="50" rx="2" ry="2"/><rect class="c" x="674" y="66" rx="2" ry="2"/><rect class="c" x="674" y="82" rx="2" ry="2"/><rect class="c" x="674" y="98" rx="2" ry="2"/><rect class="c c1q" x="690" y="2" rx="2" ry="2"/><rect class="c" x="690" y="18" rx="2" ry="2"/><rect class="c" x="690" y="34" rx="2" ry="2"/><rect class="c" x="690" y="50" rx="2" ry="2"/><rect class="c" x="690" y="66" rx="2" ry="2"/><rect class="c" x="690" y="82" rx="2" ry="2"/><rect class="c" x="690" y="98" rx="2" ry="2"/><rect class="c c1r" x="706" y="2" rx="2" ry="2"/><rect class="c" x="706" y="18" rx="2" ry="2"/><rect class="c" x="706" y="34" rx="2" ry="2"/><rect class="c" x="706" y="50" rx="2" ry="2"/><rect class="c" x="706" y="66" rx="2" ry="2"/><rect class="c" x="706" y="82" rx="2" ry="2"/><rect class="c" x="706" y="98" rx="2" ry="2"/><rect class="c c1s" x="722" y="2" rx="2" ry="2"/><rect class="c" x="722" y="18" rx="2" ry="2"/><rect class="c" x="722" y="34" rx="2" ry="2"/><rect class="c" x="722" y="50" rx="2" ry="2"/><rect class="c" x="722" y="66" rx="2" ry="2"/><rect class="c" x="722" y="82" rx="2" ry="2"/><rect class="c c1t" x="722" y="98" rx="2" ry="2"/><rect class="c c1u" x="738" y="2" rx="2" ry="2"/><rect class="c c1v" x="738" y="18" rx="2" ry="2"/><rect class="c c1w" x="738" y="34" rx="2" ry="2"/><rect class="c c1x" x="738" y="50" rx="2" ry="2"/><rect class="c c1y" x="738" y="66" rx="2" ry="2"/><rect class="c" x="738" y="82" rx="2" ry="2"/><rect class="c c1z" x="738" y="98" rx="2" ry="2"/><rect class="c c20" x="754" y="2" rx="2" ry="2"/><rect class="c" x="754" y="18" rx="2" ry="2"/><rect class="c c21" x="754" y="34" rx="2" ry="2"/><rect class="c c22" x="754" y="50" rx="2" ry="2"/><rect class="c c23" x="754" y="66" rx="2" ry="2"/><rect class="c" x="754" y="82" rx="2" ry="2"/><rect class="c" x="754" y="98" rx="2" ry="2"/><rect class="c c24" x="770" y="2" rx="2" ry="2"/><rect class="c" x="770" y="18" rx="2" ry="2"/><rect class="c c25" x="770" y="34" rx="2" ry="2"/><rect class="c c26" x="770" y="50" rx="2" ry="2"/><rect class="c c27" x="770" y="66" rx="2" ry="2"/><rect class="c c28" x="770" y="82" rx="2" ry="2"/><rect class="c c29" x="770" y="98" rx="2" ry="2"/><rect class="c c2a" x="786" y="2" rx="2" ry="2"/><rect class="c" x="786" y="18" rx="2" ry="2"/><rect class="c c2b" x="786" y="34" rx="2" ry="2"/><rect class="c c2c" x="786" y="50" rx="2" ry="2"/><rect class="c" x="786" y="66" rx="2" ry="2"/><rect class="c c2d" x="786" y="82" rx="2" ry="2"/><rect class="c c2e" x="786" y="98" rx="2" ry="2"/><rect class="c c2f" x="802" y="2" rx="2" ry="2"/><rect class="c" x="802" y="18" rx="2" ry="2"/><rect class="c" x="802" y="34" rx="2" ry="2"/><rect class="c c2g" x="802" y="50" rx="2" ry="2"/><rect class="c" x="802" y="66" rx="2" ry="2"/><rect class="c" x="802" y="82" rx="2" ry="2"/><rect class="c" x="802" y="98" rx="2" ry="2"/><rect class="c c2h" x="818" y="2" rx="2" ry="2"/><rect class="c c2i" x="818" y="18" rx="2" ry="2"/><rect class="c" x="818" y="34" rx="2" ry="2"/><rect class="c c2j" x="818" y="50" rx="2" ry="2"/><rect class="c c2k" x="818" y="66" rx="2" ry="2"/><rect class="c c2l" x="818" y="82" rx="2" ry="2"/><rect class="c" x="818" y="98" rx="2" ry="2"/><rect class="c" x="834" y="2" rx="2" ry="2"/><rect class="u u0" height="12" width="632.1" x="0.0" y="144"/><rect class="u u1" height="12" width="9.6" x="631.5" y="144"/><rect class="u u2" height="12" width="9.6" x="640.5" y="144"/><rect class="u u3" height="12" width="81.8" x="649.5" y="144"/><rect class="u u4" height="12" width="90.8" x="730.7" y="144"/><rect class="u u5" height="12" width="27.7" x="820.9" y="144"/><rect class="s s0" x="0.8" y="0.8" width="14.4" height="14.4" rx="4.5" ry="4.5"/><rect class="s s1" x="1.8" y="1.8" width="12.3" height="12.3" rx="4.1" ry="4.1"/><rect class="s s2" x="2.6" y="2.6" width="10.8" height="10.8" rx="3.6" ry="3.6"/><rect class="s s3" x="3.0" y="3.0" width="9.9" height="9.9" rx="3.3" ry="3.3"/></svg>