<svg viewBox="-16 -32 880 192" width="880" height="192" xmlns="http://www.w3.org/2000/svg"><desc>Generated with https://github.com/Platane/snk</desc><style>:root{--cb:#1b1f230a;--cs:orange;--ce:#bfd6f6;--c0:#bfd6f6;--c1:#8dbdff;--c2:#64a1f4;--c3:#4b91f1;--c4:#3c7dd9}.c{shape-rendering:geometricPrecision;fill:var(--ce);stroke-width:1px;stroke:var(--cb);animation:none 13100ms linear infinite;width:12px;height:12px}@keyframes c0{0.75%{fill:var(--c4)}0.77%,100%{fill:var(--ce)}}.c.c0{fill:var(--c4);animation-name:c0}@keyframes c1{1.52%{fill:var(--c4)}1.54%,100%{fill:var(--ce)}}.c.c1{fill:var(--c4);animation-name:c1}@keyframes c2{2.28%{fill:var(--c4)}2.3%,100%{fill:var(--ce)}}.c.c2{fill:var(--c4);animation-name:c2}@keyframes c3{90.83%{fill:var(--c4)}90.85%,100%{fill:var(--ce)}}.c.c3{fill:var(--c4);animation-name:c3}@keyframes c4{3.04%{fill:var(--c4)}3.06%,100%{fill:var(--ce)}}.c.c4{fill:var(--c4);animation-name:c4}@keyframes c5{3.81%{fill:var(--c4)}3.83%,100%{fill:var(--ce)}}.c.c5{fill:var(--c4);animation-name:c5}@keyframes c6{4.57%{fill:var(--c4)}4.59%,100%{fill:var(--ce)}}.c.c6{fill:var(--c4);animation-name:c6}@keyframes c7{5.33%{fill:var(--c4)}5.35%,100%{fill:var(--ce)}}.c.c7{fill:var(--c4);animation-name:c7}@keyframes c8{6.1%{fill:var(--c4)}6.12%,100%{fill:var(--ce)}}.c.c8{fill:var(--c4);animation-name:c8}@keyframes c9{6.86%{fill:var(--c4)}6.88%,100%{fill:var(--ce)}}.c.c9{fill:var(--c4);animation-name:c9}@keyframes ca{7.62%{fill:var(--c4)}7.64%,100%{fill:var(--ce)}}.c.ca{fill:var(--c4);animation-name:ca}@keyframes cb{8.39%{fill:var(--c4)}8.41%,100%{fill:var(--ce)}}.c.cb{fill:var(--c4);animation-name:cb}@keyframes cc{9.15%{fill:var(--c4)}9.17%,100%{fill:var(--ce)}}.c.cc{fill:var(--c4);animation-name:cc}@keyframes cd{9.91%{fill:var(--c4)}9.93%,100%{fill:var(--ce)}}.c.cd{fill:var(--c4);animation-name:cd}@keyframes ce{10.68%{fill:var(--c4)}10.7%,100%{fill:var(--ce)}}.c.ce{fill:var(--c4);animation-name:ce}@keyframes cf{11.44%{fill:var(--c4)}11.46%,100%{fill:var(--ce)}}.c.cf{fill:var(--c4);animation-name:cf}@keyframes cg{12.2%{fill:var(--c4)}12.22%,100%{fill:var(--ce)}}.c.cg{fill:var(--c4);animation-name:cg}@keyframes ch{12.97%{fill:var(--c4)}12.99%,100%{fill:var(--ce)}}.c.ch{fill:var(--c4);animation-name:ch}@keyframes ci{77.09%{fill:var(--c4)}77.11%,100%{fill:var(--ce)}}.c.ci{fill:var(--c4);animation-name:ci}@keyframes cj{79.38%{fill:var(--c4)}79.4%,100%{fill:var(--ce)}}.c.cj{fill:var(--c4);animation-name:cj}@keyframes ck{13.73%{fill:var(--c4)}13.75%,100%{fill:var(--ce)}}.c.ck{fill:var(--c4);animation-name:ck}@keyframes cl{14.49%{fill:var(--c4)}14.51%,100%{fill:var(--ce)}}.c.cl{fill:var(--c4);animation-name:cl}@keyframes cm{74.8%{fill:var(--c4)}74.82%,100%{fill:var(--ce)}}.c.cm{fill:var(--c4);animation-name:cm}@keyframes cn{15.26%{fill:var(--c4)}15.28%,100%{fill:var(--ce)}}.c.cn{fill:var(--c4);animation-name:cn}@keyframes co{16.02%{fill:var(--c4)}16.04%,100%{fill:var(--ce)}}.c.co{fill:var(--c4);animation-name:co}@keyframes cp{16.78%{fill:var(--c4)}16.8%,100%{fill:var(--ce)}}.c.cp{fill:var(--c4);animation-name:cp}@keyframes cq{17.55%{fill:var(--c4)}17.57%,100%{fill:var(--ce)}}.c.cq{fill:var(--c4);animation-name:cq}@keyframes cr{18.31%{fill:var(--c4)}18.33%,100%{fill:var(--ce)}}.c.cr{fill:var(--c4);animation-name:cr}@keyframes cs{19.07%{fill:var(--c4)}19.09%,100%{fill:var(--ce)}}.c.cs{fill:var(--c4);animation-name:cs}@keyframes ct{69.46%{fill:var(--c4)}69.48%,100%{fill:var(--ce)}}.c.ct{fill:var(--c4);animation-name:ct}@keyframes cu{19.84%{fill:var(--c4)}19.86%,100%{fill:var(--ce)}}.c.cu{fill:var(--c4);animation-name:cu}@keyframes cv{20.6%{fill:var(--c4)}20.62%,100%{fill:var(--ce)}}.c.cv{fill:var(--c4);animation-name:cv}@keyframes cw{21.36%{fill:var(--c4)}21.38%,100%{fill:var(--ce)}}.c.cw{fill:var(--c4);animation-name:cw}@keyframes cx{60.3%{fill:var(--c4)}60.32%,100%{fill:var(--ce)}}.c.cx{fill:var(--c4);animation-name:cx}@keyframes cy{22.13%{fill:var(--c4)}22.15%,100%{fill:var(--ce)}}.c.cy{fill:var(--c4);animation-name:cy}@keyframes cz{61.82%{fill:var(--c4)}61.84%,100%{fill:var(--ce)}}.c.cz{fill:var(--c4);animation-name:cz}@keyframes c10{22.89%{fill:var(--c4)}22.91%,100%{fill:var(--ce)}}.c.c10{fill:var(--c4);animation-name:c10}@keyframes c11{57.24%{fill:var(--c4)}57.26%,100%{fill:var(--ce)}}.c.c11{fill:var(--c4);animation-name:c11}@keyframes c12{63.35%{fill:var(--c4)}63.37%,100%{fill:var(--ce)}}.c.c12{fill:var(--c4);animation-name:c12}@keyframes c13{23.65%{fill:var(--c4)}23.67%,100%{fill:var(--ce)}}.c.c13{fill:var(--c4);animation-name:c13}@keyframes c14{24.42%{fill:var(--c4)}24.44%,100%{fill:var(--ce)}}.c.c14{fill:var(--c4);animation-name:c14}@keyframes c15{25.18%{fill:var(--c4)}25.2%,100%{fill:var(--ce)}}.c.c15{fill:var(--c4);animation-name:c15}@keyframes c16{25.94%{fill:var(--c4)}25.96%,100%{fill:var(--ce)}}.c.c16{fill:var(--c4);animation-name:c16}@keyframes c17{26.71%{fill:var(--c4)}26.73%,100%{fill:var(--ce)}}.c.c17{fill:var(--c4);animation-name:c17}@keyframes c18{27.47%{fill:var(--c4)}27.49%,100%{fill:var(--ce)}}.c.c18{fill:var(--c4);animation-name:c18}@keyframes c19{28.23%{fill:var(--c4)}28.25%,100%{fill:var(--ce)}}.c.c19{fill:var(--c4);animation-name:c19}@keyframes c1a{29%{fill:var(--c4)}29.02%,100%{fill:var(--ce)}}.c.c1a{fill:var(--c4);animation-name:c1a}@keyframes c1b{29.76%{fill:var(--c4)}29.78%,100%{fill:var(--ce)}}.c.c1b{fill:var(--c4);animation-name:c1b}@keyframes c1c{30.52%{fill:var(--c4)}30.54%,100%{fill:var(--ce)}}.c.c1c{fill:var(--c4);animation-name:c1c}@keyframes c1d{31.29%{fill:var(--c4)}31.31%,100%{fill:var(--ce)}}.c.c1d{fill:var(--c4);animation-name:c1d}@keyframes c1e{32.05%{fill:var(--c4)}32.07%,100%{fill:var(--ce)}}.c.c1e{fill:var(--c4);animation-name:c1e}@keyframes c1f{32.81%{fill:var(--c4)}32.83%,100%{fill:var(--ce)}}.c.c1f{fill:var(--c4);animation-name:c1f}@keyframes c1g{33.58%{fill:var(--c4)}33.6%,100%{fill:var(--ce)}}.c.c1g{fill:var(--c4);animation-name:c1g}@keyframes c1h{34.34%{fill:var(--c4)}34.36%,100%{fill:var(--ce)}}.c.c1h{fill:var(--c4);animation-name:c1h}@keyframes c1i{35.1%{fill:var(--c4)}35.12%,100%{fill:var(--ce)}}.c.c1i{fill:var(--c4);animation-name:c1i}@keyframes c1j{35.87%{fill:var(--c4)}35.89%,100%{fill:var(--ce)}}.c.c1j{fill:var(--c4);animation-name:c1j}@keyframes c1k{36.63%{fill:var(--c4)}36.65%,100%{fill:var(--ce)}}.c.c1k{fill:var(--c4);animation-name:c1k}@keyframes c1l{37.39%{fill:var(--c4)}37.41%,100%{fill:var(--ce)}}.c.c1l{fill:var(--c4);animation-name:c1l}@keyframes c1m{38.16%{fill:var(--c4)}38.18%,100%{fill:var(--ce)}}.c.c1m{fill:var(--c4);animation-name:c1m}@keyframes c1n{38.92%{fill:var(--c4)}38.94%,100%{fill:var(--ce)}}.c.c1n{fill:var(--c4);animation-name:c1n}@keyframes c1o{39.68%{fill:var(--c4)}39.7%,100%{fill:var(--ce)}}.c.c1o{fill:var(--c4);animation-name:c1o}.u{transform-origin:0 0;transform:scale(0,1);animation:none linear 13100ms infinite}@keyframes u0{0.75%{transform:scale(0.000,1)}0.77%,1.52%{transform:scale(0.016,1)}1.54%,2.28%{transform:scale(0.033,1)}2.3%,3.04%{transform:scale(0.049,1)}3.06%,3.81%{transform:scale(0.066,1)}3.83%,4.57%{transform:scale(0.082,1)}4.59%,5.33%{transform:scale(0.098,1)}5.35%,6.1%{transform:scale(0.115,1)}6.12%,6.86%{transform:scale(0.131,1)}6.88%,7.62%{transform:scale(0.148,1)}7.64%,8.39%{transform:scale(0.164,1)}8.41%,9.15%{transform:scale(0.180,1)}9.17%,9.91%{transform:scale(0.197,1)}9.93%,10.68%{transform:scale(0.213,1)}10.7%,11.44%{transform:scale(0.230,1)}11.46%,12.2%{transform:scale(0.246,1)}12.22%,12.97%{transform:scale(0.262,1)}12.99%,13.73%{transform:scale(0.279,1)}13.75%,14.49%{transform:scale(0.295,1)}14.51%,15.26%{transform:scale(0.311,1)}15.28%,16.02%{transform:scale(0.328,1)}16.04%,16.78%{transform:scale(0.344,1)}16.8%,17.55%{transform:scale(0.361,1)}17.57%,18.31%{transform:scale(0.377,1)}18.33%,19.07%{transform:scale(0.393,1)}19.09%,19.84%{transform:scale(0.410,1)}19.86%,20.6%{transform:scale(0.426,1)}20.62%,21.36%{transform:scale(0.443,1)}21.38%,22.13%{transform:scale(0.459,1)}22.15%,22.89%{transform:scale(0.475,1)}22.91%,23.65%{transform:scale(0.492,1)}23.67%,24.42%{transform:scale(0.508,1)}24.44%,25.18%{transform:scale(0.525,1)}25.2%,25.94%{transform:scale(0.541,1)}25.96%,26.71%{transform:scale(0.557,1)}26.73%,27.47%{transform:scale(0.574,1)}27.49%,28.23%{transform:scale(0.590,1)}28.25%,29%{transform:scale(0.607,1)}29.02%,29.76%{transform:scale(0.623,1)}29.78%,30.52%{transform:scale(0.639,1)}30.54%,31.29%{transform:scale(0.656,1)}31.31%,32.05%{transform:scale(0.672,1)}32.07%,32.81%{transform:scale(0.689,1)}32.83%,33.58%{transform:scale(0.705,1)}33.6%,34.34%{transform:scale(0.721,1)}34.36%,35.1%{transform:scale(0.738,1)}35.12%,35.87%{transform:scale(0.754,1)}35.89%,36.63%{transform:scale(0.770,1)}36.65%,37.39%{transform:scale(0.787,1)}37.41%,38.16%{transform:scale(0.803,1)}38.18%,38.92%{transform:scale(0.820,1)}38.94%,39.68%{transform:scale(0.836,1)}39.7%,57.24%{transform:scale(0.852,1)}57.26%,60.3%{transform:scale(0.869,1)}60.32%,61.82%{transform:scale(0.885,1)}61.84%,63.35%{transform:scale(0.902,1)}63.37%,69.46%{transform:scale(0.918,1)}69.48%,74.8%{transform:scale(0.934,1)}74.82%,77.09%{transform:scale(0.951,1)}77.11%,79.38%{transform:scale(0.967,1)}79.4%,90.83%{transform:scale(0.984,1)}90.85%,100%{transform:scale(1.000,1)}}.u.u0{fill:var(--c4);animation-name:u0;transform-origin:0.0px 0}.s{shape-rendering:geometricPrecision;fill:var(--cs);animation:none linear 13100ms infinite}@keyframes s0{0%,99.24%{transform:translate(0px,-16px)}0.76%{transform:translate(0px,0px)}39.69%{transform:translate(816px,0px)}40.46%{transform:translate(816px,16px)}58.78%{transform:translate(432px,16px)}60.31%{transform:translate(432px,48px)}61.07%{transform:translate(448px,48px)}61.83%{transform:translate(448px,64px)}62.6%{transform:translate(464px,64px)}63.36%{transform:translate(464px,80px)}64.12%{transform:translate(448px,80px)}66.41%{transform:translate(448px,32px)}74.05%{transform:translate(288px,32px)}74.81%{transform:translate(288px,48px)}75.57%{transform:translate(272px,48px)}76.34%{transform:translate(272px,32px)}77.1%{transform:translate(256px,32px)}79.39%{transform:translate(256px,80px)}90.08%{transform:translate(32px,80px)}90.84%{transform:translate(32px,96px)}91.6%{transform:translate(48px,96px)}96.95%{transform:translate(48px,-16px)}}.s.s0{transform:translate(0px,-16px);animation-name:s0}@keyframes s1{0%,99.24%{transform:translate(16px,-16px)}0.76%{transform:translate(0px,-16px)}1.53%{transform:translate(0px,0px)}40.46%{transform:translate(816px,0px)}41.22%{transform:translate(816px,16px)}59.54%{transform:translate(432px,16px)}61.07%{transform:translate(432px,48px)}61.83%{transform:translate(448px,48px)}62.6%{transform:translate(448px,64px)}63.36%{transform:translate(464px,64px)}64.12%{transform:translate(464px,80px)}64.89%{transform:translate(448px,80px)}67.18%{transform:translate(448px,32px)}74.81%{transform:translate(288px,32px)}75.57%{transform:translate(288px,48px)}76.34%{transform:translate(272px,48px)}77.1%{transform:translate(272px,32px)}77.86%{transform:translate(256px,32px)}80.15%{transform:translate(256px,80px)}90.84%{transform:translate(32px,80px)}91.6%{transform:translate(32px,96px)}92.37%{transform:translate(48px,96px)}97.71%{transform:translate(48px,-16px)}}.s.s1{transform:translate(16px,-16px);animation-name:s1}@keyframes s2{0%,99.24%{transform:translate(32px,-16px)}1.53%{transform:translate(0px,-16px)}2.29%{transform:translate(0px,0px)}41.22%{transform:translate(816px,0px)}41.98%{transform:translate(816px,16px)}60.31%{transform:translate(432px,16px)}61.83%{transform:translate(432px,48px)}62.6%{transform:translate(448px,48px)}63.36%{transform:translate(448px,64px)}64.12%{transform:translate(464px,64px)}64.89%{transform:translate(464px,80px)}65.65%{transform:translate(448px,80px)}67.94%{transform:translate(448px,32px)}75.57%{transform:translate(288px,32px)}76.34%{transform:translate(288px,48px)}77.1%{transform:translate(272px,48px)}77.86%{transform:translate(272px,32px)}78.63%{transform:translate(256px,32px)}80.92%{transform:translate(256px,80px)}91.6%{transform:translate(32px,80px)}92.37%{transform:translate(32px,96px)}93.13%{transform:translate(48px,96px)}98.47%{transform:translate(48px,-16px)}}.s.s2{transform:translate(32px,-16px);animation-name:s2}@keyframes s3{0%,99.24%{transform:translate(48px,-16px)}2.29%{transform:translate(0px,-16px)}3.05%{transform:translate(0px,0px)}41.98%{transform:translate(816px,0px)}42.75%{transform:translate(816px,16px)}61.07%{transform:translate(432px,16px)}62.6%{transform:translate(432px,48px)}63.36%{transform:translate(448px,48px)}64.12%{transform:translate(448px,64px)}64.89%{transform:translate(464px,64px)}65.65%{transform:translate(464px,80px)}66.41%{transform:translate(448px,80px)}68.7%{transform:translate(448px,32px)}76.34%{transform:translate(288px,32px)}77.1%{transform:translate(288px,48px)}77.86%{transform:translate(272px,48px)}78.63%{transform:translate(272px,32px)}79.39%{transform:translate(256px,32px)}81.68%{transform:translate(256px,80px)}92.37%{transform:translate(32px,80px)}93.13%{transform:translate(32px,96px)}93.89%{transform:translate(48px,96px)}}.s.s3{transform:translate(48px,-16px);animation-name:s3}</style><rect class="c c0" x="2" y="2" rx="2" ry="2"/><rect class="c" x="2" y="18" rx="2" ry="2"/><rect class="c" x="2" y="34" rx="2" ry="2"/><rect class="c" x="2" y="50" rx="2" ry="2"/><rect class="c" x="2" y="66" rx="2" ry="2"/><rect class="c" x="2" y="82" rx="2" ry="2"/><rect class="c" x="2" y="98" rx="2" ry="2"/><rect class="c c1" x="18" y="2" rx="2" ry="2"/><rect class="c" x="18" y="18" rx="2" ry="2"/><rect class="c" x="18" y="34" rx="2" ry="2"/><rect class="c" x="18" y="50" rx="2" ry="2"/><rect class="c" x="18" y="66" rx="2" ry="2"/><rect class="c" x="18" y="82" rx="2" ry="2"/><rect class="c" x="18" y="98" rx="2" ry="2"/><rect class="c c2" x="34" y="2" rx="2" ry="2"/><rect class="c" x="34" y="18" rx="2" ry="2"/><rect class="c" x="34" y="34" rx="2" ry="2"/><rect class="c" x="34" y="50" rx="2" ry="2"/><rect class="c" x="34" y="66" rx="2" ry="2"/><rect class="c" x="34" y="82" rx="2" ry="2"/><rect class="c c3" x="34" y="98" rx="2" ry="2"/><rect class="c c4" x="50" y="2" rx="2" ry="2"/><rect class="c" x="50" y="18" rx="2" ry="2"/><rect class="c" x="50" y="34" rx="2" ry="2"/><rect class="c" x="50" y="50" rx="2" ry="2"/><rect class="c" x="50" y="66" rx="2" ry="2"/><rect class="c" x="50" y="82" rx="2" ry="2"/><rect class="c" x="50" y="98" rx="2" ry="2"/><rect class="c c5" x="66" y="2" rx="2" ry="2"/><rect class="c" x="66" y="18" rx="2" ry="2"/><rect class="c" x="66" y="34" rx="2" ry="2"/><rect class="c" x="66" y="50" rx="2" ry="2"/><rect class="c" x="66" y="66" rx="2" ry="2"/><rect class="c" x="66" y="82" rx="2" ry="2"/><rect class="c" x="66" y="98" rx="2" ry="2"/><rect class="c c6" x="82" y="2" rx="2" ry="2"/><rect class="c" x="82" y="18" rx="2" ry="2"/><rect class="c" x="82" y="34" rx="2" ry="2"/><rect class="c" x="82" y="50" rx="2" ry="2"/><rect class="c" x="82" y="66" rx="2" ry="2"/><rect class="c" x="82" y="82" rx="2" ry="2"/><rect class="c" x="82" y="98" rx="2" ry="2"/><rect class="c c7" x="98" y="2" rx="2" ry="2"/><rect class="c" x="98" y="18" rx="2" ry="2"/><rect class="c" x="98" y="34" rx="2" ry="2"/><rect class="c" x="98" y="50" rx="2" ry="2"/><rect class="c" x="98" y="66" rx="2" ry="2"/><rect class="c" x="98" y="82" rx="2" ry="2"/><rect class="c" x="98" y="98" rx="2" ry="2"/><rect class="c c8" x="114" y="2" rx="2" ry="2"/><rect class="c" x="114" y="18" rx="2" ry="2"/><rect class="c" x="114" y="34" rx="2" ry="2"/><rect class="c" x="114" y="50" rx="2" ry="2"/><rect class="c" x="114" y="66" rx="2" ry="2"/><rect class="c" x="114" y="82" rx="2" ry="2"/><rect class="c" x="114" y="98" rx="2" ry="2"/><rect class="c c9" x="130" y="2" rx="2" ry="2"/><rect class="c" x="130" y="18" rx="2" ry="2"/><rect class="c" x="130" y="34" rx="2" ry="2"/><rect class="c" x="130" y="50" rx="2" ry="2"/><rect class="c" x="130" y="66" rx="2" ry="2"/><rect class="c" x="130" y="82" rx="2" ry="2"/><rect class="c" x="130" y="98" rx="2" ry="2"/><rect class="c ca" x="146" y="2" rx="2" ry="2"/><rect class="c" x="146" y="18" rx="2" ry="2"/><rect class="c" x="146" y="34" rx="2" ry="2"/><rect class="c" x="146" y="50" rx="2" ry="2"/><rect class="c" x="146" y="66" rx="2" ry="2"/><rect class="c" x="146" y="82" rx="2" ry="2"/><rect class="c" x="146" y="98" rx="2" ry="2"/><rect class="c cb" x="162" y="2" rx="2" ry="2"/><rect class="c" x="162" y="18" rx="2" ry="2"/><rect class="c" x="162" y="34" rx="2" ry="2"/><rect class="c" x="162" y="50" rx="2" ry="2"/><rect class="c" x="162" y="66" rx="2" ry="2"/><rect class="c" x="162" y="82" rx="2" ry="2"/><rect class="c" x="162" y="98" rx="2" ry="2"/><rect class="c cc" x="178" y="2" rx="2" ry="2"/><rect class="c" x="178" y="18" rx="2" ry="2"/><rect class="c" x="178" y="34" rx="2" ry="2"/><rect class="c" x="178" y="50" rx="2" ry="2"/><rect class="c" x="178" y="66" rx="2" ry="2"/><rect class="c" x="178" y="82" rx="2" ry="2"/><rect class="c" x="178" y="98" rx="2" ry="2"/><rect class="c cd" x="194" y="2" rx="2" ry="2"/><rect class="c" x="194" y="18" rx="2" ry="2"/><rect class="c" x="194" y="34" rx="2" ry="2"/><rect class="c" x="194" y="50" rx="2" ry="2"/><rect class="c" x="194" y="66" rx="2" ry="2"/><rect class="c" x="194" y="82" rx="2" ry="2"/><rect class="c" x="194" y="98" rx="2" ry="2"/><rect class="c ce" x="210" y="2" rx="2" ry="2"/><rect class="c" x="210" y="18" rx="2" ry="2"/><rect class="c" x="210" y="34" rx="2" ry="2"/><rect class="c" x="210" y="50" rx="2" ry="2"/><rect class="c" x="210" y="66" rx="2" ry="2"/><rect class="c" x="210" y="82" rx="2" ry="2"/><rect class="c" x="210" y="98" rx="2" ry="2"/><rect class="c cf" x="226" y="2" rx="2" ry="2"/><rect class="c" x="226" y="18" rx="2" ry="2"/><rect class="c" x="226" y="34" rx="2" ry="2"/><rect class="c" x="226" y="50" rx="2" ry="2"/><rect class="c" x="226" y="66" rx="2" ry="2"/><rect class="c" x="226" y="82" rx="2" ry="2"/><rect class="c" x="226" y="98" rx="2" ry="2"/><rect class="c cg" x="242" y="2" rx="2" ry="2"/><rect class="c" x="242" y="18" rx="2" ry="2"/><rect class="c" x="242" y="34" rx="2" ry="2"/><rect class="c" x="242" y="50" rx="2" ry="2"/><rect class="c" x="242" y="66" rx="2" ry="2"/><rect class="c" x="242" y="82" rx="2" ry="2"/><rect class="c" x="242" y="98" rx="2" ry="2"/><rect class="c ch" x="258" y="2" rx="2" ry="2"/><rect class="c" x="258" y="18" rx="2" ry="2"/><rect class="c ci" x="258" y="34" rx="2" ry="2"/><rect class="c" x="258" y="50" rx="2" ry="2"/><rect class="c" x="258" y="66" rx="2" ry="2"/><rect class="c cj" x="258" y="82" rx="2" ry="2"/><rect class="c" x="258" y="98" rx="2" ry="2"/><rect class="c ck" x="274" y="2" rx="2" ry="2"/><rect class="c" x="274" y="18" rx="2" ry="2"/><rect class="c" x="274" y="34" rx="2" ry="2"/><rect class="c" x="274" y="50" rx="2" ry="2"/><rect class="c" x="274" y="66" rx="2" ry="2"/><rect class="c" x="274" y="82" rx="2" ry="2"/><rect class="c" x="274" y="98" rx="2" ry="2"/><rect class="c cl" x="290" y="2" rx="2" ry="2"/><rect class="c" x="290" y="18" rx="2" ry="2"/><rect class="c" x="290" y="34" rx="2" ry="2"/><rect class="c cm" x="290" y="50" rx="2" ry="2"/><rect class="c" x="290" y="66" rx="2" ry="2"/><rect class="c" x="290" y="82" rx="2" ry="2"/><rect class="c" x="290" y="98" rx="2" ry="2"/><rect class="c cn" x="306" y="2" rx="2" ry="2"/><rect class="c" x="306" y="18" rx="2" ry="2"/><rect class="c" x="306" y="34" rx="2" ry="2"/><rect class="c" x="306" y="50" rx="2" ry="2"/><rect class="c" x="306" y="66" rx="2" ry="2"/><rect class="c" x="306" y="82" rx="2" ry="2"/><rect class="c" x="306" y="98" rx="2" ry="2"/><rect class="c co" x="322" y="2" rx="2" ry="2"/><rect class="c" x="322" y="18" rx="2" ry="2"/><rect class="c" x="322" y="34" rx="2" ry="2"/><rect class="c" x="322" y="50" rx="2" ry="2"/><rect class="c" x="322" y="66" rx="2" ry="2"/><rect class="c" x="322" y="82" rx="2" ry="2"/><rect class="c" x="322" y="98" rx="2" ry="2"/><rect class="c cp" x="338" y="2" rx="2" ry="2"/><rect class="c" x="338" y="18" rx="2" ry="2"/><rect class="c" x="338" y="34" rx="2" ry="2"/><rect class="c" x="338" y="50" rx="2" ry="2"/><rect class="c" x="338" y="66" rx="2" ry="2"/><rect class="c" x="338" y="82" rx="2" ry="2"/><rect class="c" x="338" y="98" rx="2" ry="2"/><rect class="c cq" x="354" y="2" rx="2" ry="2"/><rect class="c" x="354" y="18" rx="2" ry="2"/><rect class="c" x="354" y="34" rx="2" ry="2"/><rect class="c" x="354" y="50" rx="2" ry="2"/><rect class="c" x="354" y="66" rx="2" ry="2"/><rect class="c" x="354" y="82" rx="2" ry="2"/><rect class="c" x="354" y="98" rx="2" ry="2"/><rect class="c cr" x="370" y="2" rx="2" ry="2"/><rect class="c" x="370" y="18" rx="2" ry="2"/><rect class="c" x="370" y="34" rx="2" ry="2"/><rect class="c" x="370" y="50" rx="2" ry="2"/><rect class="c" x="370" y="66" rx="2" ry="2"/><rect class="c" x="370" y="82" rx="2" ry="2"/><rect class="c" x="370" y="98" rx="2" ry="2"/><rect class="c cs" x="386" y="2" rx="2" ry="2"/><rect class="c" x="386" y="18" rx="2" ry="2"/><rect class="c ct" x="386" y="34" rx="2" ry="2"/><rect class="c" x="386" y="50" rx="2" ry="2"/><rect class="c" x="386" y="66" rx="2" ry="2"/><rect class="c" x="386" y="82" rx="2" ry="2"/><rect class="c" x="386" y="98" rx="2" ry="2"/><rect class="c cu" x="402" y="2" rx="2" ry="2"/><rect class="c" x="402" y="18" rx="2" ry="2"/><rect class="c" x="402" y="34" rx="2" ry="2"/><rect class="c" x="402" y="50" rx="2" ry="2"/><rect class="c" x="402" y="66" rx="2" ry="2"/><rect class="c" x="402" y="82" rx="2" ry="2"/><rect class="c" x="402" y="98" rx="2" ry="2"/><rect class="c cv" x="418" y="2" rx="2" ry="2"/><rect class="c" x="418" y="18" rx="2" ry="2"/><rect class="c" x="418" y="34" rx="2" ry="2"/><rect class="c" x="418" y="50" rx="2" ry="2"/><rect class="c" x="418" y="66" rx="2" ry="2"/><rect class="c" x="418" y="82" rx="2" ry="2"/><rect class="c" x="418" y="98" rx="2" ry="2"/><rect class="c cw" x="434" y="2" rx="2" ry="2"/><rect class="c" x="434" y="18" rx="2" ry="2"/><rect class="c" x="434" y="34" rx="2" ry="2"/><rect class="c cx" x="434" y="50" rx="2" ry="2"/><rect class="c" x="434" y="66" rx="2" ry="2"/><rect class="c" x="434" y="82" rx="2" ry="2"/><rect class="c" x="434" y="98" rx="2" ry="2"/><rect class="c cy" x="450" y="2" rx="2" ry="2"/><rect class="c" x="450" y="18" rx="2" ry="2"/><rect class="c" x="450" y="34" rx="2" ry="2"/><rect class="c" x="450" y="50" rx="2" ry="2"/><rect class="c cz" x="450" y="66" rx="2" ry="2"/><rect class="c" x="450" y="82" rx="2" ry="2"/><rect class="c" x="450" y="98" rx="2" ry="2"/><rect class="c c10" x="466" y="2" rx="2" ry="2"/><rect class="c c11" x="466" y="18" rx="2" ry="2"/><rect class="c" x="466" y="34" rx="2" ry="2"/><rect class="c" x="466" y="50" rx="2" ry="2"/><rect class="c" x="466" y="66" rx="2" ry="2"/><rect class="c c12" x="466" y="82" rx="2" ry="2"/><rect class="c" x="466" y="98" rx="2" ry="2"/><rect class="c c13" x="482" y="2" rx="2" ry="2"/><rect class="c" x="482" y="18" rx="2" ry="2"/><rect class="c" x="482" y="34" rx="2" ry="2"/><rect class="c" x="482" y="50" rx="2" ry="2"/><rect class="c" x="482" y="66" rx="2" ry="2"/><rect class="c" x="482" y="82" rx="2" ry="2"/><rect class="c" x="482" y="98" rx="2" ry="2"/><rect class="c c14" x="498" y="2" rx="2" ry="2"/><rect class="c" x="498" y="18" rx="2" ry="2"/><rect class="c" x="498" y="34" rx="2" ry="2"/><rect class="c" x="498" y="50" rx="2" ry="2"/><rect class="c" x="498" y="66" rx="2" ry="2"/><rect class="c" x="498" y="82" rx="2" ry="2"/><rect class="c" x="498" y="98" rx="2" ry="2"/><rect class="c c15" x="514" y="2" rx="2" ry="2"/><rect class="c" x="514" y="18" rx="2" ry="2"/><rect class="c" x="514" y="34" rx="2" ry="2"/><rect class="c" x="514" y="50" rx="2" ry="2"/><rect class="c" x="514" y="66" rx="2" ry="2"/><rect class="c" x="514" y="82" rx="2" ry="2"/><rect class="c" x="514" y="98" rx="2" ry="2"/><rect class="c c16" x="530" y="2" rx="2" ry="2"/><rect class="c" x="530" y="18" rx="2" ry="2"/><rect class="c" x="530" y="34" rx="2" ry="2"/><rect class="c" x="530" y="50" rx="2" ry="2"/><rect class="c" x="530" y="66" rx="2" ry="2"/><rect class="c" x="530" y="82" rx="2" ry="2"/><rect class="c" x="530" y="98" rx="2" ry="2"/><rect class="c c17" x="546" y="2" rx="2" ry="2"/><rect class="c" x="546" y="18" rx="2" ry="2"/><rect class="c" x="546" y="34" rx="2" ry="2"/><rect class="c" x="546" y="50" rx="2" ry="2"/><rect class="c" x="546" y="66" rx="2" ry="2"/><rect class="c" x="546" y="82" rx="2" ry="2"/><rect class="c" x="546" y="98" rx="2" ry="2"/><rect class="c c18" x="562" y="2" rx="2" ry="2"/><rect class="c" x="562" y="18" rx="2" ry="2"/><rect class="c" x="562" y="34" rx="2" ry="2"/><rect class="c" x="562" y="50" rx="2" ry="2"/><rect class="c" x="562" y="66" rx="2" ry="2"/><rect class="c" x="562" y="82" rx="2" ry="2"/><rect class="c" x="562" y="98" rx="2" ry="2"/><rect class="c c19" x="578" y="2" rx="2" ry="2"/><rect class="c" x="578" y="18" rx="2" ry="2"/><rect class="c" x="578" y="34" rx="2" ry="2"/><rect class="c" x="578" y="50" rx="2" ry="2"/><rect class="c" x="578" y="66" rx="2" ry="2"/><rect class="c" x="578" y="82" rx="2" ry="2"/><rect class="c" x="578" y="98" rx="2" ry="2"/><rect class="c c1a" x="594" y="2" rx="2" ry="2"/><rect class="c" x="594" y="18" rx="2" ry="2"/><rect class="c" x="594" y="34" rx="2" ry="2"/><rect class="c" x="594" y="50" rx="2" ry="2"/><rect class="c" x="594" y="66" rx="2" ry="2"/><rect class="c" x="594" y="82" rx="2" ry="2"/><rect class="c" x="594" y="98" rx="2" ry="2"/><rect class="c c1b" x="610" y="2" rx="2" ry="2"/><rect class="c" x="610" y="18" rx="2" ry="2"/><rect class="c" x="610" y="34" rx="2" ry="2"/><rect class="c" x="610" y="50" rx="2" ry="2"/><rect class="c" x="610" y="66" rx="2" ry="2"/><rect class="c" x="610" y="82" rx="2" ry="2"/><rect class="c" x="610" y="98" rx="2" ry="2"/><rect class="c c1c" x="626" y="2" rx="2" ry="2"/><rect class="c" x="626" y="18" rx="2" ry="2"/><rect class="c" x="626" y="34" rx="2" ry="2"/><rect class="c" x="626" y="50" rx="2" ry="2"/><rect class="c" x="626" y="66" rx="2" ry="2"/><rect class="c" x="626" y="82" rx="2" ry="2"/><rect class="c" x="626" y="98" rx="2" ry="2"/><rect class="c c1d" x="642" y="2" rx="2" ry="2"/><rect class="c" x="642" y="18" rx="2" ry="2"/><rect class="c" x="642" y="34" rx="2" ry="2"/><rect class="c" x="642" y="50" rx="2" ry="2"/><rect class="c" x="642" y="66" rx="2" ry="2"/><rect class="c" x="642" y="82" rx="2" ry="2"/><rect class="c" x="642" y="98" rx="2" ry="2"/><rect class="c c1e" x="658" y="2" rx="2" ry="2"/><rect class="c" x="658" y="18" rx="2" ry="2"/><rect class="c" x="658" y="34" rx="2" ry="2"/><rect class="c" x="658" y="50" rx="2" ry="2"/><rect class="c" x="658" y="66" rx="2" ry="2"/><rect class="c" x="658" y="82" rx="2" ry="2"/><rect class="c" x="658" y="98" rx="2" ry="2"/><rect class="c c1f" x="674" y="2" rx="2" ry="2"/><rect class="c" x="674" y="18" rx="2" ry="2"/><rect class="c" x="674" y="34" rx="2" ry="2"/><rect class="c" x="674" y="50" rx="2" ry="2"/><rect class="c" x="674" y="66" rx="2" ry="2"/><rect class="c" x="674" y="82" rx="2" ry="2"/><rect class="c" x="674" y="98" rx="2" ry="2"/><rect class="c c1g" x="690" y="2" rx="2" ry="2"/><rect class="c" x="690" y="18" rx="2" ry="2"/><rect class="c" x="690" y="34" rx="2" ry="2"/><rect class="c" x="690" y="50" rx="2" ry="2"/><rect class="c" x="690" y="66" rx="2" ry="2"/><rect class="c" x="690" y="82" rx="2" ry="2"/><rect class="c" x="690" y="98" rx="2" ry="2"/><rect class="c c1h" x="706" y="2" rx="2" ry="2"/><rect class="c" x="706" y="18" rx="2" ry="2"/><rect class="c" x="706" y="34" rx="2" ry="2"/><rect class="c" x="706" y="50" rx="2" ry="2"/><rect class="c" x="706" y="66" rx="2" ry="2"/><rect class="c" x="706" y="82" rx="2" ry="2"/><rect class="c" x="706" y="98" rx="2" ry="2"/><rect class="c c1i" x="722" y="2" rx="2" ry="2"/><rect class="c" x="722" y="18" rx="2" ry="2"/><rect class="c" x="722" y="34" rx="2" ry="2"/><rect class="c" x="722" y="50" rx="2" ry="2"/><rect class="c" x="722" y="66" rx="2" ry="2"/><rect class="c" x="722" y="82" rx="2" ry="2"/><rect class="c" x="722" y="98" rx="2" ry="2"/><rect class="c c1j" x="738" y="2" rx="2" ry="2"/><rect class="c" x="738" y="18" rx="2" ry="2"/><rect class="c" x="738" y="34" rx="2" ry="2"/><rect class="c" x="738" y="50" rx="2" ry="2"/><rect class="c" x="738" y="66" rx="2" ry="2"/><rect class="c" x="738" y="82" rx="2" ry="2"/><rect class="c" x="738" y="98" rx="2" ry="2"/><rect class="c c1k" x="754" y="2" rx="2" ry="2"/><rect class="c" x="754" y="18" rx="2" ry="2"/><rect class="c" x="754" y="34" rx="2" ry="2"/><rect class="c" x="754" y="50" rx="2" ry="2"/><rect class="c" x="754" y="66" rx="2" ry="2"/><rect class="c" x="754" y="82" rx="2" ry="2"/><rect class="c" x="754" y="98" rx="2" ry="2"/><rect class="c c1l" x="770" y="2" rx="2" ry="2"/><rect class="c" x="770" y="18" rx="2" ry="2"/><rect class="c" x="770" y="34" rx="2" ry="2"/><rect class="c" x="770" y="50" rx="2" ry="2"/><rect class="c" x="770" y="66" rx="2" ry="2"/><rect class="c" x="770" y="82" rx="2" ry="2"/><rect class="c" x="770" y="98" rx="2" ry="2"/><rect class="c c1m" x="786" y="2" rx="2" ry="2"/><rect class="c" x="786" y="18" rx="2" ry="2"/><rect class="c" x="786" y="34" rx="2" ry="2"/><rect class="c" x="786" y="50" rx="2" ry="2"/><rect class="c" x="786" y="66" rx="2" ry="2"/><rect class="c" x="786" y="82" rx="2" ry="2"/><rect class="c" x="786" y="98" rx="2" ry="2"/><rect class="c c1n" x="802" y="2" rx="2" ry="2"/><rect class="c" x="802" y="18" rx="2" ry="2"/><rect class="c" x="802" y="34" rx="2" ry="2"/><rect class="c" x="802" y="50" rx="2" ry="2"/><rect class="c" x="802" y="66" rx="2" ry="2"/><rect class="c" x="802" y="82" rx="2" ry="2"/><rect class="c" x="802" y="98" rx="2" ry="2"/><rect class="c c1o" x="818" y="2" rx="2" ry="2"/><rect class="c" x="818" y="18" rx="2" ry="2"/><rect class="c" x="818" y="34" rx="2" ry="2"/><rect class="c" x="818" y="50" rx="2" ry="2"/><rect class="c" x="818" y="66" rx="2" ry="2"/><rect class="c" x="818" y="82" rx="2" ry="2"/><rect class="c" x="818" y="98" rx="2" ry="2"/><rect class="c" x="834" y="2" rx="2" ry="2"/><rect class="u u0" height="12" width="848.6" x="0.0" y="144"/><rect class="s s0" x="0.8" y="0.8" width="14.4" height="14.4" rx="4.5" ry="4.5"/><rect class="s s1" x="1.8" y="1.8" width="12.3" height="12.3" rx="4.1" ry="4.1"/><rect class="s s2" x="2.6" y="2.6" width="10.8" height="10.8" rx="3.6" ry="3.6"/><rect class="s s3" x="3.0" y="3.0" width="9.9" height="9.9" rx="3.3" ry="3.3"/></svg>