<svg viewBox="-16 -32 880 192" width="880" height="192" xmlns="http://www.w3.org/2000/svg"><desc>Generated with https://github.com/Platane/snk</desc><style>@keyframes c0{1.34%{fill:var(--c1)}1.36%,to{fill:var(--ce)}}@keyframes c1{2.35%{fill:var(--c1)}2.37%,to{fill:var(--ce)}}@keyframes c2{4.7%{fill:var(--c1)}4.72%,to{fill:var(--ce)}}@keyframes c3{95.28%{fill:var(--c4)}95.3%,to{fill:var(--ce)}}@keyframes c4{6.72%{fill:var(--c1)}6.74%,to{fill:var(--ce)}}@keyframes c5{11.1%{fill:var(--c1)}11.12%,to{fill:var(--ce)}}@keyframes c6{72.04%{fill:var(--c3)}72.06%,to{fill:var(--ce)}}@keyframes c7{72.38%{fill:var(--c3)}72.4%,to{fill:var(--ce)}}@keyframes c8{11.77%{fill:var(--c1)}11.79%,to{fill:var(--ce)}}@keyframes c9{71.03%{fill:var(--c3)}71.05%,to{fill:var(--ce)}}@keyframes ca{23.9%{fill:var(--c1)}23.92%,to{fill:var(--ce)}}@keyframes cb{70.02%{fill:var(--c3)}70.04%,to{fill:var(--ce)}}@keyframes cc{23.22%{fill:var(--c1)}23.24%,to{fill:var(--ce)}}@keyframes cd{59.25%{fill:var(--c2)}59.27%,to{fill:var(--ce)}}@keyframes ce{13.79%{fill:var(--c1)}13.81%,to{fill:var(--ce)}}@keyframes cf{60.6%{fill:var(--c2)}60.62%,to{fill:var(--ce)}}@keyframes cg{67.67%{fill:var(--c3)}67.69%,to{fill:var(--ce)}}@keyframes ch{57.9%{fill:var(--c2)}57.92%,to{fill:var(--ce)}}@keyframes ci{21.2%{fill:var(--c1)}21.22%,to{fill:var(--ce)}}@keyframes cj{67.33%{fill:var(--c3)}67.35%,to{fill:var(--ce)}}@keyframes ck{15.48%{fill:var(--c1)}15.5%,to{fill:var(--ce)}}@keyframes cl{15.14%{fill:var(--c1)}15.16%,to{fill:var(--ce)}}@keyframes cm{20.19%{fill:var(--c1)}20.21%,to{fill:var(--ce)}}@keyframes cn{16.49%{fill:var(--c1)}16.51%,to{fill:var(--ce)}}@keyframes co{56.56%{fill:var(--c2)}56.58%,to{fill:var(--ce)}}@keyframes cp{65.98%{fill:var(--c3)}66%,to{fill:var(--ce)}}@keyframes cq{76.42%{fill:var(--c4)}76.44%,to{fill:var(--ce)}}@keyframes cr{18.85%{fill:var(--c1)}18.87%,to{fill:var(--ce)}}@keyframes cs{64.3%{fill:var(--c2)}64.32%,to{fill:var(--ce)}}@keyframes ct{54.54%{fill:var(--c2)}54.56%,to{fill:var(--ce)}}@keyframes cu{29.62%{fill:var(--c1)}29.64%,to{fill:var(--ce)}}@keyframes cv{30.97%{fill:var(--c1)}30.99%,to{fill:var(--ce)}}@keyframes cw{29.96%{fill:var(--c1)}29.98%,to{fill:var(--ce)}}@keyframes cx{30.63%{fill:var(--c1)}30.65%,to{fill:var(--ce)}}@keyframes cy{42.08%{fill:var(--c1)}42.1%,to{fill:var(--ce)}}@keyframes cz{42.75%{fill:var(--c1)}42.77%,to{fill:var(--ce)}}@keyframes c10{32.65%{fill:var(--c1)}32.67%,to{fill:var(--ce)}}@keyframes c11{52.18%{fill:var(--c2)}52.2%,to{fill:var(--ce)}}@keyframes c12{43.09%{fill:var(--c1)}43.11%,to{fill:var(--ce)}}@keyframes c13{40.73%{fill:var(--c1)}40.75%,to{fill:var(--ce)}}@keyframes c14{51.84%{fill:var(--c2)}51.86%,to{fill:var(--ce)}}@keyframes c15{81.81%{fill:var(--c4)}81.83%,to{fill:var(--ce)}}@keyframes c16{43.76%{fill:var(--c1)}43.78%,to{fill:var(--ce)}}@keyframes c17{40.39%{fill:var(--c1)}40.41%,to{fill:var(--ce)}}@keyframes c18{40.06%{fill:var(--c1)}40.08%,to{fill:var(--ce)}}@keyframes c19{44.43%{fill:var(--c1)}44.45%,to{fill:var(--ce)}}@keyframes c1a{34%{fill:var(--c1)}34.02%,to{fill:var(--ce)}}@keyframes c1b{33.66%{fill:var(--c1)}33.68%,to{fill:var(--ce)}}@keyframes c1c{39.72%{fill:var(--c1)}39.74%,to{fill:var(--ce)}}@keyframes c1d{83.49%{fill:var(--c4)}83.51%,to{fill:var(--ce)}}@keyframes c1e{39.38%{fill:var(--c1)}39.4%,to{fill:var(--ce)}}@keyframes c1f{45.11%{fill:var(--c1)}45.13%,to{fill:var(--ce)}}@keyframes c1g{45.44%{fill:var(--c1)}45.46%,to{fill:var(--ce)}}@keyframes c1h{45.78%{fill:var(--c1)}45.8%,to{fill:var(--ce)}}@keyframes c1i{34.67%{fill:var(--c1)}34.69%,to{fill:var(--ce)}}@keyframes c1j{46.45%{fill:var(--c1)}46.47%,to{fill:var(--ce)}}@keyframes c1k{36.69%{fill:var(--c1)}36.71%,to{fill:var(--ce)}}@keyframes c1l{36.35%{fill:var(--c1)}36.37%,to{fill:var(--ce)}}@keyframes c1m{36.02%{fill:var(--c1)}36.04%,to{fill:var(--ce)}}@keyframes c1n{35.68%{fill:var(--c1)}35.7%,to{fill:var(--ce)}}@keyframes c1o{35.34%{fill:var(--c1)}35.36%,to{fill:var(--ce)}}@keyframes c1p{35.01%{fill:var(--c1)}35.03%,to{fill:var(--ce)}}@keyframes c1q{46.79%{fill:var(--c1)}46.81%,to{fill:var(--ce)}}@keyframes c1r{37.03%{fill:var(--c1)}37.05%,to{fill:var(--ce)}}@keyframes c1s{37.36%{fill:var(--c1)}37.38%,to{fill:var(--ce)}}@keyframes c1t{37.7%{fill:var(--c1)}37.72%,to{fill:var(--ce)}}@keyframes c1u{47.8%{fill:var(--c1)}47.82%,to{fill:var(--ce)}}@keyframes u0{1.34%{transform:scale(0,1)}1.36%,2.35%{transform:scale(.02,1)}2.37%,4.7%{transform:scale(.04,1)}4.72%,6.72%{transform:scale(.06,1)}11.1%,6.74%{transform:scale(.08,1)}11.12%,11.77%{transform:scale(.1,1)}11.79%,13.79%{transform:scale(.13,1)}13.81%,15.14%{transform:scale(.15,1)}15.16%,15.48%{transform:scale(.17,1)}15.5%,16.49%{transform:scale(.19,1)}16.51%,18.85%{transform:scale(.21,1)}18.87%,20.19%{transform:scale(.23,1)}20.21%,21.2%{transform:scale(.25,1)}21.22%,23.22%{transform:scale(.27,1)}23.24%,23.9%{transform:scale(.29,1)}23.92%,29.62%{transform:scale(.31,1)}29.64%,29.96%{transform:scale(.33,1)}29.98%,30.63%{transform:scale(.35,1)}30.65%,30.97%{transform:scale(.38,1)}30.99%,32.65%{transform:scale(.4,1)}32.67%,33.66%{transform:scale(.42,1)}33.68%,34%{transform:scale(.44,1)}34.02%,34.67%{transform:scale(.46,1)}34.69%,35.01%{transform:scale(.48,1)}35.03%,35.34%{transform:scale(.5,1)}35.36%,35.68%{transform:scale(.52,1)}35.7%,36.02%{transform:scale(.54,1)}36.04%,36.35%{transform:scale(.56,1)}36.37%,36.69%{transform:scale(.58,1)}36.71%,37.03%{transform:scale(.6,1)}37.05%,37.36%{transform:scale(.63,1)}37.38%,37.7%{transform:scale(.65,1)}37.72%,39.38%{transform:scale(.67,1)}39.4%,39.72%{transform:scale(.69,1)}39.74%,40.06%{transform:scale(.71,1)}40.08%,40.39%{transform:scale(.73,1)}40.41%,40.73%{transform:scale(.75,1)}40.75%,42.08%{transform:scale(.77,1)}42.1%,42.75%{transform:scale(.79,1)}42.77%,43.09%{transform:scale(.81,1)}43.11%,43.76%{transform:scale(.83,1)}43.78%,44.43%{transform:scale(.85,1)}44.45%,45.11%{transform:scale(.88,1)}45.13%,45.44%{transform:scale(.9,1)}45.46%,45.78%{transform:scale(.92,1)}45.8%,46.45%{transform:scale(.94,1)}46.47%,46.79%{transform:scale(.96,1)}46.81%,47.8%{transform:scale(.98,1)}47.82%,to{transform:scale(1,1)}}@keyframes u1{51.84%{transform:scale(0,1)}51.86%,52.18%{transform:scale(.13,1)}52.2%,54.54%{transform:scale(.25,1)}54.56%,56.56%{transform:scale(.38,1)}56.58%,57.9%{transform:scale(.5,1)}57.92%,59.25%{transform:scale(.63,1)}59.27%,60.6%{transform:scale(.75,1)}60.62%,64.3%{transform:scale(.88,1)}64.32%,to{transform:scale(1,1)}}@keyframes u2{65.98%{transform:scale(0,1)}66%,67.33%{transform:scale(.14,1)}67.35%,67.67%{transform:scale(.29,1)}67.69%,70.02%{transform:scale(.43,1)}70.04%,71.03%{transform:scale(.57,1)}71.05%,72.04%{transform:scale(.71,1)}72.06%,72.38%{transform:scale(.86,1)}72.4%,to{transform:scale(1,1)}}@keyframes u3{76.42%{transform:scale(0,1)}76.44%,81.81%{transform:scale(.25,1)}81.83%,83.49%{transform:scale(.5,1)}83.51%,95.28%{transform:scale(.75,1)}95.3%,to{transform:scale(1,1)}}@keyframes s0{0%,99.66%{transform:translate(0,-16px)}1.35%{transform:translate(0,48px)}2.02%{transform:translate(32px,48px)}2.36%{transform:translate(32px,64px)}4.38%{transform:translate(128px,64px)}4.71%{transform:translate(128px,48px)}6.06%{transform:translate(192px,48px)}6.73%{transform:translate(192px,16px)}9.76%{transform:translate(336px,16px)}11.11%{transform:translate(336px,80px)}13.13%{transform:translate(432px,80px)}13.8%{transform:translate(432px,48px)}15.15%{transform:translate(496px,48px)}16.16%,57.24%{transform:translate(496px,0)}16.84%{transform:translate(528px,0)}19.19%{transform:translate(528px,112px)}19.87%{transform:translate(496px,112px)}20.54%,61.62%{transform:translate(496px,80px)}21.21%,67%{transform:translate(464px,80px)}22.56%{transform:translate(464px,16px)}23.57%{transform:translate(416px,16px)}24.24%{transform:translate(416px,-16px)}28.28%{transform:translate(608px,-16px)}29.63%{transform:translate(608px,48px)}29.97%{transform:translate(624px,48px)}30.64%{transform:translate(624px,80px)}30.98%{transform:translate(608px,80px)}31.31%{transform:translate(608px,96px)}33.67%{transform:translate(720px,96px)}34.01%{transform:translate(720px,80px)}35.02%{transform:translate(768px,80px)}36.7%{transform:translate(768px,0)}37.71%{transform:translate(816px,0)}38.05%,49.49%{transform:translate(816px,16px)}40.07%{transform:translate(720px,16px)}40.4%{transform:translate(720px,0)}41.75%{transform:translate(656px,0)}42.09%{transform:translate(656px,16px)}42.42%{transform:translate(672px,16px)}42.76%{transform:translate(672px,32px)}43.1%{transform:translate(688px,32px)}43.43%{transform:translate(688px,48px)}44.11%{transform:translate(720px,48px)}44.44%{transform:translate(720px,32px)}45.12%,82.83%{transform:translate(752px,32px)}46.46%{transform:translate(752px,96px)}47.81%{transform:translate(816px,96px)}52.19%{transform:translate(688px,16px)}52.53%{transform:translate(688px,0)}56.23%{transform:translate(512px,0)}56.57%{transform:translate(512px,16px)}56.9%{transform:translate(496px,16px)}58.25%,69.7%{transform:translate(448px,0)}58.59%{transform:translate(448px,16px)}58.92%{transform:translate(432px,16px)}59.26%{transform:translate(432px,32px)}59.6%{transform:translate(448px,32px)}60.61%{transform:translate(448px,80px)}61.95%{transform:translate(496px,64px)}63.64%{transform:translate(576px,64px)}64.31%{transform:translate(576px,96px)}64.65%{transform:translate(560px,96px)}64.98%{transform:translate(560px,80px)}67.34%{transform:translate(464px,96px)}67.68%{transform:translate(448px,96px)}71.38%{transform:translate(368px,0)}72.39%{transform:translate(368px,48px)}75.42%{transform:translate(512px,48px)}76.43%{transform:translate(512px,96px)}80.47%{transform:translate(704px,96px)}81.82%{transform:translate(704px,32px)}83.5%{transform:translate(752px,0)}97.31%{transform:translate(96px,0)}97.64%{transform:translate(96px,-16px)}}@keyframes s1{0%,99.66%{transform:translate(16px,-16px)}.34%{transform:translate(0,-16px)}1.68%{transform:translate(0,48px)}2.36%{transform:translate(32px,48px)}2.69%{transform:translate(32px,64px)}4.71%{transform:translate(128px,64px)}5.05%{transform:translate(128px,48px)}6.4%{transform:translate(192px,48px)}7.07%{transform:translate(192px,16px)}10.1%{transform:translate(336px,16px)}11.45%{transform:translate(336px,80px)}13.47%{transform:translate(432px,80px)}14.14%{transform:translate(432px,48px)}15.49%{transform:translate(496px,48px)}16.5%,57.58%{transform:translate(496px,0)}17.17%{transform:translate(528px,0)}19.53%{transform:translate(528px,112px)}20.2%{transform:translate(496px,112px)}20.88%,61.95%{transform:translate(496px,80px)}21.55%,67.34%{transform:translate(464px,80px)}22.9%{transform:translate(464px,16px)}23.91%{transform:translate(416px,16px)}24.58%{transform:translate(416px,-16px)}28.62%{transform:translate(608px,-16px)}29.97%{transform:translate(608px,48px)}30.3%{transform:translate(624px,48px)}30.98%{transform:translate(624px,80px)}31.31%{transform:translate(608px,80px)}31.65%{transform:translate(608px,96px)}34.01%{transform:translate(720px,96px)}34.34%{transform:translate(720px,80px)}35.35%{transform:translate(768px,80px)}37.04%{transform:translate(768px,0)}38.05%{transform:translate(816px,0)}38.38%,49.83%{transform:translate(816px,16px)}40.4%{transform:translate(720px,16px)}40.74%{transform:translate(720px,0)}42.09%{transform:translate(656px,0)}42.42%{transform:translate(656px,16px)}42.76%{transform:translate(672px,16px)}43.1%{transform:translate(672px,32px)}43.43%{transform:translate(688px,32px)}43.77%{transform:translate(688px,48px)}44.44%{transform:translate(720px,48px)}44.78%{transform:translate(720px,32px)}45.45%,83.16%{transform:translate(752px,32px)}46.8%{transform:translate(752px,96px)}48.15%{transform:translate(816px,96px)}52.53%{transform:translate(688px,16px)}52.86%{transform:translate(688px,0)}56.57%{transform:translate(512px,0)}56.9%{transform:translate(512px,16px)}57.24%{transform:translate(496px,16px)}58.59%,70.03%{transform:translate(448px,0)}58.92%{transform:translate(448px,16px)}59.26%{transform:translate(432px,16px)}59.6%{transform:translate(432px,32px)}59.93%{transform:translate(448px,32px)}60.94%{transform:translate(448px,80px)}62.29%{transform:translate(496px,64px)}63.97%{transform:translate(576px,64px)}64.65%{transform:translate(576px,96px)}64.98%{transform:translate(560px,96px)}65.32%{transform:translate(560px,80px)}67.68%{transform:translate(464px,96px)}68.01%{transform:translate(448px,96px)}71.72%{transform:translate(368px,0)}72.73%{transform:translate(368px,48px)}75.76%{transform:translate(512px,48px)}76.77%{transform:translate(512px,96px)}80.81%{transform:translate(704px,96px)}82.15%{transform:translate(704px,32px)}83.84%{transform:translate(752px,0)}97.64%{transform:translate(96px,0)}97.98%{transform:translate(96px,-16px)}}@keyframes s2{0%,99.66%{transform:translate(32px,-16px)}.67%{transform:translate(0,-16px)}2.02%{transform:translate(0,48px)}2.69%{transform:translate(32px,48px)}3.03%{transform:translate(32px,64px)}5.05%{transform:translate(128px,64px)}5.39%{transform:translate(128px,48px)}6.73%{transform:translate(192px,48px)}7.41%{transform:translate(192px,16px)}10.44%{transform:translate(336px,16px)}11.78%{transform:translate(336px,80px)}13.8%{transform:translate(432px,80px)}14.48%{transform:translate(432px,48px)}15.82%{transform:translate(496px,48px)}16.84%,57.91%{transform:translate(496px,0)}17.51%{transform:translate(528px,0)}19.87%{transform:translate(528px,112px)}20.54%{transform:translate(496px,112px)}21.21%,62.29%{transform:translate(496px,80px)}21.89%,67.68%{transform:translate(464px,80px)}23.23%{transform:translate(464px,16px)}24.24%{transform:translate(416px,16px)}24.92%{transform:translate(416px,-16px)}28.96%{transform:translate(608px,-16px)}30.3%{transform:translate(608px,48px)}30.64%{transform:translate(624px,48px)}31.31%{transform:translate(624px,80px)}31.65%{transform:translate(608px,80px)}31.99%{transform:translate(608px,96px)}34.34%{transform:translate(720px,96px)}34.68%{transform:translate(720px,80px)}35.69%{transform:translate(768px,80px)}37.37%{transform:translate(768px,0)}38.38%{transform:translate(816px,0)}38.72%,50.17%{transform:translate(816px,16px)}40.74%{transform:translate(720px,16px)}41.08%{transform:translate(720px,0)}42.42%{transform:translate(656px,0)}42.76%{transform:translate(656px,16px)}43.1%{transform:translate(672px,16px)}43.43%{transform:translate(672px,32px)}43.77%{transform:translate(688px,32px)}44.11%{transform:translate(688px,48px)}44.78%{transform:translate(720px,48px)}45.12%{transform:translate(720px,32px)}45.79%,83.5%{transform:translate(752px,32px)}47.14%{transform:translate(752px,96px)}48.48%{transform:translate(816px,96px)}52.86%{transform:translate(688px,16px)}53.2%{transform:translate(688px,0)}56.9%{transform:translate(512px,0)}57.24%{transform:translate(512px,16px)}57.58%{transform:translate(496px,16px)}58.92%,70.37%{transform:translate(448px,0)}59.26%{transform:translate(448px,16px)}59.6%{transform:translate(432px,16px)}59.93%{transform:translate(432px,32px)}60.27%{transform:translate(448px,32px)}61.28%{transform:translate(448px,80px)}62.63%{transform:translate(496px,64px)}64.31%{transform:translate(576px,64px)}64.98%{transform:translate(576px,96px)}65.32%{transform:translate(560px,96px)}65.66%{transform:translate(560px,80px)}68.01%{transform:translate(464px,96px)}68.35%{transform:translate(448px,96px)}72.05%{transform:translate(368px,0)}73.06%{transform:translate(368px,48px)}76.09%{transform:translate(512px,48px)}77.1%{transform:translate(512px,96px)}81.14%{transform:translate(704px,96px)}82.49%{transform:translate(704px,32px)}84.18%{transform:translate(752px,0)}97.98%{transform:translate(96px,0)}98.32%{transform:translate(96px,-16px)}}@keyframes s3{0%,99.66%{transform:translate(48px,-16px)}1.01%{transform:translate(0,-16px)}2.36%{transform:translate(0,48px)}3.03%{transform:translate(32px,48px)}3.37%{transform:translate(32px,64px)}5.39%{transform:translate(128px,64px)}5.72%{transform:translate(128px,48px)}7.07%{transform:translate(192px,48px)}7.74%{transform:translate(192px,16px)}10.77%{transform:translate(336px,16px)}12.12%{transform:translate(336px,80px)}14.14%{transform:translate(432px,80px)}14.81%{transform:translate(432px,48px)}16.16%{transform:translate(496px,48px)}17.17%,58.25%{transform:translate(496px,0)}17.85%{transform:translate(528px,0)}20.2%{transform:translate(528px,112px)}20.88%{transform:translate(496px,112px)}21.55%,62.63%{transform:translate(496px,80px)}22.22%,68.01%{transform:translate(464px,80px)}23.57%{transform:translate(464px,16px)}24.58%{transform:translate(416px,16px)}25.25%{transform:translate(416px,-16px)}29.29%{transform:translate(608px,-16px)}30.64%{transform:translate(608px,48px)}30.98%{transform:translate(624px,48px)}31.65%{transform:translate(624px,80px)}31.99%{transform:translate(608px,80px)}32.32%{transform:translate(608px,96px)}34.68%{transform:translate(720px,96px)}35.02%{transform:translate(720px,80px)}36.03%{transform:translate(768px,80px)}37.71%{transform:translate(768px,0)}38.72%{transform:translate(816px,0)}39.06%,50.51%{transform:translate(816px,16px)}41.08%{transform:translate(720px,16px)}41.41%{transform:translate(720px,0)}42.76%{transform:translate(656px,0)}43.1%{transform:translate(656px,16px)}43.43%{transform:translate(672px,16px)}43.77%{transform:translate(672px,32px)}44.11%{transform:translate(688px,32px)}44.44%{transform:translate(688px,48px)}45.12%{transform:translate(720px,48px)}45.45%{transform:translate(720px,32px)}46.13%,83.84%{transform:translate(752px,32px)}47.47%{transform:translate(752px,96px)}48.82%{transform:translate(816px,96px)}53.2%{transform:translate(688px,16px)}53.54%{transform:translate(688px,0)}57.24%{transform:translate(512px,0)}57.58%{transform:translate(512px,16px)}57.91%{transform:translate(496px,16px)}59.26%,70.71%{transform:translate(448px,0)}59.6%{transform:translate(448px,16px)}59.93%{transform:translate(432px,16px)}60.27%{transform:translate(432px,32px)}60.61%{transform:translate(448px,32px)}61.62%{transform:translate(448px,80px)}62.96%{transform:translate(496px,64px)}64.65%{transform:translate(576px,64px)}65.32%{transform:translate(576px,96px)}65.66%{transform:translate(560px,96px)}65.99%{transform:translate(560px,80px)}68.35%{transform:translate(464px,96px)}68.69%{transform:translate(448px,96px)}72.39%{transform:translate(368px,0)}73.4%{transform:translate(368px,48px)}76.43%{transform:translate(512px,48px)}77.44%{transform:translate(512px,96px)}81.48%{transform:translate(704px,96px)}82.83%{transform:translate(704px,32px)}84.51%{transform:translate(752px,0)}98.32%{transform:translate(96px,0)}98.65%{transform:translate(96px,-16px)}}:root{--cb:#1b1f230a;--cs:orange;--ce:#bfd6f6;--c0:#bfd6f6;--c1:#8dbdff;--c2:#64a1f4;--c3:#4b91f1;--c4:#3c7dd9}.c{shape-rendering:geometricPrecision;fill:var(--ce);stroke-width:1px;stroke:var(--cb);animation:none 29700ms linear infinite}.c.c0,.c.c1,.c.c2{fill:var(--c1);animation-name:c0}.c.c1,.c.c2{animation-name:c1}.c.c2{animation-name:c2}.c.c3{fill:var(--c4);animation-name:c3}.c.c4,.c.c5{fill:var(--c1);animation-name:c4}.c.c5{animation-name:c5}.c.c6,.c.c7{fill:var(--c3);animation-name:c6}.c.c7{animation-name:c7}.c.c8{fill:var(--c1);animation-name:c8}.c.c9{fill:var(--c3);animation-name:c9}.c.ca{fill:var(--c1);animation-name:ca}.c.cb{fill:var(--c3);animation-name:cb}.c.cc{fill:var(--c1);animation-name:cc}.c.cd{fill:var(--c2);animation-name:cd}.c.ce{fill:var(--c1);animation-name:ce}.c.cf{fill:var(--c2);animation-name:cf}.c.cg{fill:var(--c3);animation-name:cg}.c.ch{fill:var(--c2);animation-name:ch}.c.ci{fill:var(--c1);animation-name:ci}.c.cj{fill:var(--c3);animation-name:cj}.c.ck{fill:var(--c1);animation-name:ck}.c.cl,.c.cm,.c.cn{fill:var(--c1);animation-name:cl}.c.cm,.c.cn{animation-name:cm}.c.cn{animation-name:cn}.c.co{fill:var(--c2);animation-name:co}.c.cp{fill:var(--c3);animation-name:cp}.c.cq{fill:var(--c4);animation-name:cq}.c.cr{fill:var(--c1);animation-name:cr}.c.cs,.c.ct{fill:var(--c2);animation-name:cs}.c.ct{animation-name:ct}.c.cu{fill:var(--c1);animation-name:cu}.c.cv,.c.cw,.c.cx{fill:var(--c1);animation-name:cv}.c.cw,.c.cx{animation-name:cw}.c.cx{animation-name:cx}.c.c10,.c.cy,.c.cz{fill:var(--c1);animation-name:cy}.c.c10,.c.cz{animation-name:cz}.c.c10{animation-name:c10}.c.c11{fill:var(--c2);animation-name:c11}.c.c12,.c.c13{fill:var(--c1);animation-name:c12}.c.c13{animation-name:c13}.c.c14{fill:var(--c2);animation-name:c14}.c.c15{fill:var(--c4);animation-name:c15}.c.c16{fill:var(--c1);animation-name:c16}.c.c17,.c.c18,.c.c19{fill:var(--c1);animation-name:c17}.c.c18,.c.c19{animation-name:c18}.c.c19{animation-name:c19}.c.c1a,.c.c1b,.c.c1c{fill:var(--c1);animation-name:c1a}.c.c1b,.c.c1c{animation-name:c1b}.c.c1c{animation-name:c1c}.c.c1d{fill:var(--c4);animation-name:c1d}.c.c1e,.c.c1f{fill:var(--c1);animation-name:c1e}.c.c1f{animation-name:c1f}.c.c1g,.c.c1h,.c.c1i{fill:var(--c1);animation-name:c1g}.c.c1h,.c.c1i{animation-name:c1h}.c.c1i{animation-name:c1i}.c.c1j,.c.c1k,.c.c1l{fill:var(--c1);animation-name:c1j}.c.c1k,.c.c1l{animation-name:c1k}.c.c1l{animation-name:c1l}.c.c1m,.c.c1n,.c.c1o{fill:var(--c1);animation-name:c1m}.c.c1n,.c.c1o{animation-name:c1n}.c.c1o{animation-name:c1o}.c.c1p,.c.c1q,.c.c1r{fill:var(--c1);animation-name:c1p}.c.c1q,.c.c1r{animation-name:c1q}.c.c1r{animation-name:c1r}.c.c1s,.c.c1t,.c.c1u{fill:var(--c1);animation-name:c1s}.c.c1t,.c.c1u{animation-name:c1t}.c.c1u{animation-name:c1u}.s,.u{animation:none linear 29700ms infinite}.u,.u.u0{transform-origin:0 0}.u{transform:scale(0,1)}.u.u0{fill:var(--c1);animation-name:u0}.u.u1{fill:var(--c2);animation-name:u1;transform-origin:607.5px 0}.u.u2{fill:var(--c3);animation-name:u2;transform-origin:708.8px 0}.u.u3{fill:var(--c4);animation-name:u3;transform-origin:797.4px 0}.s{shape-rendering:geometricPrecision;fill:var(--cs)}.s.s0{transform:translate(0,-16px);animation-name:s0}.s.s1{transform:translate(16px,-16px);animation-name:s1}.s.s2{transform:translate(32px,-16px);animation-name:s2}.s.s3{transform:translate(48px,-16px);animation-name:s3}</style><rect class="c" x="2" y="2" rx="2" ry="2" width="12" height="12"/><rect class="c" x="2" y="18" rx="2" ry="2" width="12" height="12"/><rect class="c" x="2" y="34" rx="2" ry="2" width="12" height="12"/><rect class="c c0" x="2" y="50" rx="2" ry="2" width="12" height="12"/><rect class="c" x="2" y="66" rx="2" ry="2" width="12" height="12"/><rect class="c" x="2" y="82" rx="2" ry="2" width="12" height="12"/><rect class="c" x="2" y="98" rx="2" ry="2" width="12" height="12"/><rect class="c" x="18" y="2" rx="2" ry="2" width="12" height="12"/><rect class="c" x="18" y="18" rx="2" ry="2" width="12" height="12"/><rect class="c" x="18" y="34" rx="2" ry="2" width="12" height="12"/><rect class="c" x="18" y="50" rx="2" ry="2" width="12" height="12"/><rect class="c" x="18" y="66" rx="2" ry="2" width="12" height="12"/><rect class="c" x="18" y="82" rx="2" ry="2" width="12" height="12"/><rect class="c" x="18" y="98" rx="2" ry="2" width="12" height="12"/><rect class="c" x="34" y="2" rx="2" ry="2" width="12" height="12"/><rect class="c" x="34" y="18" rx="2" ry="2" width="12" height="12"/><rect class="c" x="34" y="34" rx="2" ry="2" width="12" height="12"/><rect class="c" x="34" y="50" rx="2" ry="2" width="12" height="12"/><rect class="c c1" x="34" y="66" rx="2" ry="2" width="12" height="12"/><rect class="c" x="34" y="82" rx="2" ry="2" width="12" height="12"/><rect class="c" x="34" y="98" rx="2" ry="2" width="12" height="12"/><rect class="c" x="50" y="2" rx="2" ry="2" width="12" height="12"/><rect class="c" x="50" y="18" rx="2" ry="2" width="12" height="12"/><rect class="c" x="50" y="34" rx="2" ry="2" width="12" height="12"/><rect class="c" x="50" y="50" rx="2" ry="2" width="12" height="12"/><rect class="c" x="50" y="66" rx="2" ry="2" width="12" height="12"/><rect class="c" x="50" y="82" rx="2" ry="2" width="12" height="12"/><rect class="c" x="50" y="98" rx="2" ry="2" width="12" height="12"/><rect class="c" x="66" y="2" rx="2" ry="2" width="12" height="12"/><rect class="c" x="66" y="18" rx="2" ry="2" width="12" height="12"/><rect class="c" x="66" y="34" rx="2" ry="2" width="12" height="12"/><rect class="c" x="66" y="50" rx="2" ry="2" width="12" height="12"/><rect class="c" x="66" y="66" rx="2" ry="2" width="12" height="12"/><rect class="c" x="66" y="82" rx="2" ry="2" width="12" height="12"/><rect class="c" x="66" y="98" rx="2" ry="2" width="12" height="12"/><rect class="c" x="82" y="2" rx="2" ry="2" width="12" height="12"/><rect class="c" x="82" y="18" rx="2" ry="2" width="12" height="12"/><rect class="c" x="82" y="34" rx="2" ry="2" width="12" height="12"/><rect class="c" x="82" y="50" rx="2" ry="2" width="12" height="12"/><rect class="c" x="82" y="66" rx="2" ry="2" width="12" height="12"/><rect class="c" x="82" y="82" rx="2" ry="2" width="12" height="12"/><rect class="c" x="82" y="98" rx="2" ry="2" width="12" height="12"/><rect class="c" x="98" y="2" rx="2" ry="2" width="12" height="12"/><rect class="c" x="98" y="18" rx="2" ry="2" width="12" height="12"/><rect class="c" x="98" y="34" rx="2" ry="2" width="12" height="12"/><rect class="c" x="98" y="50" rx="2" ry="2" width="12" height="12"/><rect class="c" x="98" y="66" rx="2" ry="2" width="12" height="12"/><rect class="c" x="98" y="82" rx="2" ry="2" width="12" height="12"/><rect class="c" x="98" y="98" rx="2" ry="2" width="12" height="12"/><rect class="c" x="114" y="2" rx="2" ry="2" width="12" height="12"/><rect class="c" x="114" y="18" rx="2" ry="2" width="12" height="12"/><rect class="c" x="114" y="34" rx="2" ry="2" width="12" height="12"/><rect class="c" x="114" y="50" rx="2" ry="2" width="12" height="12"/><rect class="c" x="114" y="66" rx="2" ry="2" width="12" height="12"/><rect class="c" x="114" y="82" rx="2" ry="2" width="12" height="12"/><rect class="c" x="114" y="98" rx="2" ry="2" width="12" height="12"/><rect class="c" x="130" y="2" rx="2" ry="2" width="12" height="12"/><rect class="c" x="130" y="18" rx="2" ry="2" width="12" height="12"/><rect class="c" x="130" y="34" rx="2" ry="2" width="12" height="12"/><rect class="c c2" x="130" y="50" rx="2" ry="2" width="12" height="12"/><rect class="c" x="130" y="66" rx="2" ry="2" width="12" height="12"/><rect class="c" x="130" y="82" rx="2" ry="2" width="12" height="12"/><rect class="c" x="130" y="98" rx="2" ry="2" width="12" height="12"/><rect class="c" x="146" y="2" rx="2" ry="2" width="12" height="12"/><rect class="c" x="146" y="18" rx="2" ry="2" width="12" height="12"/><rect class="c" x="146" y="34" rx="2" ry="2" width="12" height="12"/><rect class="c" x="146" y="50" rx="2" ry="2" width="12" height="12"/><rect class="c" x="146" y="66" rx="2" ry="2" width="12" height="12"/><rect class="c" x="146" y="82" rx="2" ry="2" width="12" height="12"/><rect class="c" x="146" y="98" rx="2" ry="2" width="12" height="12"/><rect class="c" x="162" y="2" rx="2" ry="2" width="12" height="12"/><rect class="c" x="162" y="18" rx="2" ry="2" width="12" height="12"/><rect class="c" x="162" y="34" rx="2" ry="2" width="12" height="12"/><rect class="c" x="162" y="50" rx="2" ry="2" width="12" height="12"/><rect class="c" x="162" y="66" rx="2" ry="2" width="12" height="12"/><rect class="c" x="162" y="82" rx="2" ry="2" width="12" height="12"/><rect class="c" x="162" y="98" rx="2" ry="2" width="12" height="12"/><rect class="c" x="178" y="2" rx="2" ry="2" width="12" height="12"/><rect class="c" x="178" y="18" rx="2" ry="2" width="12" height="12"/><rect class="c" x="178" y="34" rx="2" ry="2" width="12" height="12"/><rect class="c" x="178" y="50" rx="2" ry="2" width="12" height="12"/><rect class="c" x="178" y="66" rx="2" ry="2" width="12" height="12"/><rect class="c" x="178" y="82" rx="2" ry="2" width="12" height="12"/><rect class="c" x="178" y="98" rx="2" ry="2" width="12" height="12"/><rect class="c c3" x="194" y="2" rx="2" ry="2" width="12" height="12"/><rect class="c c4" x="194" y="18" rx="2" ry="2" width="12" height="12"/><rect class="c" x="194" y="34" rx="2" ry="2" width="12" height="12"/><rect class="c" x="194" y="50" rx="2" ry="2" width="12" height="12"/><rect class="c" x="194" y="66" rx="2" ry="2" width="12" height="12"/><rect class="c" x="194" y="82" rx="2" ry="2" width="12" height="12"/><rect class="c" x="194" y="98" rx="2" ry="2" width="12" height="12"/><rect class="c" x="210" y="2" rx="2" ry="2" width="12" height="12"/><rect class="c" x="210" y="18" rx="2" ry="2" width="12" height="12"/><rect class="c" x="210" y="34" rx="2" ry="2" width="12" height="12"/><rect class="c" x="210" y="50" rx="2" ry="2" width="12" height="12"/><rect class="c" x="210" y="66" rx="2" ry="2" width="12" height="12"/><rect class="c" x="210" y="82" rx="2" ry="2" width="12" height="12"/><rect class="c" x="210" y="98" rx="2" ry="2" width="12" height="12"/><rect class="c" x="226" y="2" rx="2" ry="2" width="12" height="12"/><rect class="c" x="226" y="18" rx="2" ry="2" width="12" height="12"/><rect class="c" x="226" y="34" rx="2" ry="2" width="12" height="12"/><rect class="c" x="226" y="50" rx="2" ry="2" width="12" height="12"/><rect class="c" x="226" y="66" rx="2" ry="2" width="12" height="12"/><rect class="c" x="226" y="82" rx="2" ry="2" width="12" height="12"/><rect class="c" x="226" y="98" rx="2" ry="2" width="12" height="12"/><rect class="c" x="242" y="2" rx="2" ry="2" width="12" height="12"/><rect class="c" x="242" y="18" rx="2" ry="2" width="12" height="12"/><rect class="c" x="242" y="34" rx="2" ry="2" width="12" height="12"/><rect class="c" x="242" y="50" rx="2" ry="2" width="12" height="12"/><rect class="c" x="242" y="66" rx="2" ry="2" width="12" height="12"/><rect class="c" x="242" y="82" rx="2" ry="2" width="12" height="12"/><rect class="c" x="242" y="98" rx="2" ry="2" width="12" height="12"/><rect class="c" x="258" y="2" rx="2" ry="2" width="12" height="12"/><rect class="c" x="258" y="18" rx="2" ry="2" width="12" height="12"/><rect class="c" x="258" y="34" rx="2" ry="2" width="12" height="12"/><rect class="c" x="258" y="50" rx="2" ry="2" width="12" height="12"/><rect class="c" x="258" y="66" rx="2" ry="2" width="12" height="12"/><rect class="c" x="258" y="82" rx="2" ry="2" width="12" height="12"/><rect class="c" x="258" y="98" rx="2" ry="2" width="12" height="12"/><rect class="c" x="274" y="2" rx="2" ry="2" width="12" height="12"/><rect class="c" x="274" y="18" rx="2" ry="2" width="12" height="12"/><rect class="c" x="274" y="34" rx="2" ry="2" width="12" height="12"/><rect class="c" x="274" y="50" rx="2" ry="2" width="12" height="12"/><rect class="c" x="274" y="66" rx="2" ry="2" width="12" height="12"/><rect class="c" x="274" y="82" rx="2" ry="2" width="12" height="12"/><rect class="c" x="274" y="98" rx="2" ry="2" width="12" height="12"/><rect class="c" x="290" y="2" rx="2" ry="2" width="12" height="12"/><rect class="c" x="290" y="18" rx="2" ry="2" width="12" height="12"/><rect class="c" x="290" y="34" rx="2" ry="2" width="12" height="12"/><rect class="c" x="290" y="50" rx="2" ry="2" width="12" height="12"/><rect class="c" x="290" y="66" rx="2" ry="2" width="12" height="12"/><rect class="c" x="290" y="82" rx="2" ry="2" width="12" height="12"/><rect class="c" x="290" y="98" rx="2" ry="2" width="12" height="12"/><rect class="c" x="306" y="2" rx="2" ry="2" width="12" height="12"/><rect class="c" x="306" y="18" rx="2" ry="2" width="12" height="12"/><rect class="c" x="306" y="34" rx="2" ry="2" width="12" height="12"/><rect class="c" x="306" y="50" rx="2" ry="2" width="12" height="12"/><rect class="c" x="306" y="66" rx="2" ry="2" width="12" height="12"/><rect class="c" x="306" y="82" rx="2" ry="2" width="12" height="12"/><rect class="c" x="306" y="98" rx="2" ry="2" width="12" height="12"/><rect class="c" x="322" y="2" rx="2" ry="2" width="12" height="12"/><rect class="c" x="322" y="18" rx="2" ry="2" width="12" height="12"/><rect class="c" x="322" y="34" rx="2" ry="2" width="12" height="12"/><rect class="c" x="322" y="50" rx="2" ry="2" width="12" height="12"/><rect class="c" x="322" y="66" rx="2" ry="2" width="12" height="12"/><rect class="c" x="322" y="82" rx="2" ry="2" width="12" height="12"/><rect class="c" x="322" y="98" rx="2" ry="2" width="12" height="12"/><rect class="c" x="338" y="2" rx="2" ry="2" width="12" height="12"/><rect class="c" x="338" y="18" rx="2" ry="2" width="12" height="12"/><rect class="c" x="338" y="34" rx="2" ry="2" width="12" height="12"/><rect class="c" x="338" y="50" rx="2" ry="2" width="12" height="12"/><rect class="c" x="338" y="66" rx="2" ry="2" width="12" height="12"/><rect class="c c5" x="338" y="82" rx="2" ry="2" width="12" height="12"/><rect class="c" x="338" y="98" rx="2" ry="2" width="12" height="12"/><rect class="c" x="354" y="2" rx="2" ry="2" width="12" height="12"/><rect class="c" x="354" y="18" rx="2" ry="2" width="12" height="12"/><rect class="c" x="354" y="34" rx="2" ry="2" width="12" height="12"/><rect class="c" x="354" y="50" rx="2" ry="2" width="12" height="12"/><rect class="c" x="354" y="66" rx="2" ry="2" width="12" height="12"/><rect class="c" x="354" y="82" rx="2" ry="2" width="12" height="12"/><rect class="c" x="354" y="98" rx="2" ry="2" width="12" height="12"/><rect class="c" x="370" y="2" rx="2" ry="2" width="12" height="12"/><rect class="c" x="370" y="18" rx="2" ry="2" width="12" height="12"/><rect class="c c6" x="370" y="34" rx="2" ry="2" width="12" height="12"/><rect class="c c7" x="370" y="50" rx="2" ry="2" width="12" height="12"/><rect class="c" x="370" y="66" rx="2" ry="2" width="12" height="12"/><rect class="c c8" x="370" y="82" rx="2" ry="2" width="12" height="12"/><rect class="c" x="370" y="98" rx="2" ry="2" width="12" height="12"/><rect class="c c9" x="386" y="2" rx="2" ry="2" width="12" height="12"/><rect class="c" x="386" y="18" rx="2" ry="2" width="12" height="12"/><rect class="c" x="386" y="34" rx="2" ry="2" width="12" height="12"/><rect class="c" x="386" y="50" rx="2" ry="2" width="12" height="12"/><rect class="c" x="386" y="66" rx="2" ry="2" width="12" height="12"/><rect class="c" x="386" y="82" rx="2" ry="2" width="12" height="12"/><rect class="c" x="386" y="98" rx="2" ry="2" width="12" height="12"/><rect class="c" x="402" y="2" rx="2" ry="2" width="12" height="12"/><rect class="c" x="402" y="18" rx="2" ry="2" width="12" height="12"/><rect class="c" x="402" y="34" rx="2" ry="2" width="12" height="12"/><rect class="c" x="402" y="50" rx="2" ry="2" width="12" height="12"/><rect class="c" x="402" y="66" rx="2" ry="2" width="12" height="12"/><rect class="c" x="402" y="82" rx="2" ry="2" width="12" height="12"/><rect class="c" x="402" y="98" rx="2" ry="2" width="12" height="12"/><rect class="c ca" x="418" y="2" rx="2" ry="2" width="12" height="12"/><rect class="c" x="418" y="18" rx="2" ry="2" width="12" height="12"/><rect class="c" x="418" y="34" rx="2" ry="2" width="12" height="12"/><rect class="c" x="418" y="50" rx="2" ry="2" width="12" height="12"/><rect class="c" x="418" y="66" rx="2" ry="2" width="12" height="12"/><rect class="c" x="418" y="82" rx="2" ry="2" width="12" height="12"/><rect class="c" x="418" y="98" rx="2" ry="2" width="12" height="12"/><rect class="c cb" x="434" y="2" rx="2" ry="2" width="12" height="12"/><rect class="c cc" x="434" y="18" rx="2" ry="2" width="12" height="12"/><rect class="c cd" x="434" y="34" rx="2" ry="2" width="12" height="12"/><rect class="c ce" x="434" y="50" rx="2" ry="2" width="12" height="12"/><rect class="c" x="434" y="66" rx="2" ry="2" width="12" height="12"/><rect class="c" x="434" y="82" rx="2" ry="2" width="12" height="12"/><rect class="c" x="434" y="98" rx="2" ry="2" width="12" height="12"/><rect class="c" x="450" y="2" rx="2" ry="2" width="12" height="12"/><rect class="c" x="450" y="18" rx="2" ry="2" width="12" height="12"/><rect class="c" x="450" y="34" rx="2" ry="2" width="12" height="12"/><rect class="c" x="450" y="50" rx="2" ry="2" width="12" height="12"/><rect class="c" x="450" y="66" rx="2" ry="2" width="12" height="12"/><rect class="c cf" x="450" y="82" rx="2" ry="2" width="12" height="12"/><rect class="c cg" x="450" y="98" rx="2" ry="2" width="12" height="12"/><rect class="c ch" x="466" y="2" rx="2" ry="2" width="12" height="12"/><rect class="c" x="466" y="18" rx="2" ry="2" width="12" height="12"/><rect class="c" x="466" y="34" rx="2" ry="2" width="12" height="12"/><rect class="c" x="466" y="50" rx="2" ry="2" width="12" height="12"/><rect class="c" x="466" y="66" rx="2" ry="2" width="12" height="12"/><rect class="c ci" x="466" y="82" rx="2" ry="2" width="12" height="12"/><rect class="c cj" x="466" y="98" rx="2" ry="2" width="12" height="12"/><rect class="c" x="482" y="2" rx="2" ry="2" width="12" height="12"/><rect class="c" x="482" y="18" rx="2" ry="2" width="12" height="12"/><rect class="c" x="482" y="34" rx="2" ry="2" width="12" height="12"/><rect class="c" x="482" y="50" rx="2" ry="2" width="12" height="12"/><rect class="c" x="482" y="66" rx="2" ry="2" width="12" height="12"/><rect class="c" x="482" y="82" rx="2" ry="2" width="12" height="12"/><rect class="c" x="482" y="98" rx="2" ry="2" width="12" height="12"/><rect class="c" x="498" y="2" rx="2" ry="2" width="12" height="12"/><rect class="c" x="498" y="18" rx="2" ry="2" width="12" height="12"/><rect class="c ck" x="498" y="34" rx="2" ry="2" width="12" height="12"/><rect class="c cl" x="498" y="50" rx="2" ry="2" width="12" height="12"/><rect class="c" x="498" y="66" rx="2" ry="2" width="12" height="12"/><rect class="c" x="498" y="82" rx="2" ry="2" width="12" height="12"/><rect class="c cm" x="498" y="98" rx="2" ry="2" width="12" height="12"/><rect class="c cn" x="514" y="2" rx="2" ry="2" width="12" height="12"/><rect class="c co" x="514" y="18" rx="2" ry="2" width="12" height="12"/><rect class="c" x="514" y="34" rx="2" ry="2" width="12" height="12"/><rect class="c" x="514" y="50" rx="2" ry="2" width="12" height="12"/><rect class="c" x="514" y="66" rx="2" ry="2" width="12" height="12"/><rect class="c cp" x="514" y="82" rx="2" ry="2" width="12" height="12"/><rect class="c cq" x="514" y="98" rx="2" ry="2" width="12" height="12"/><rect class="c" x="530" y="2" rx="2" ry="2" width="12" height="12"/><rect class="c" x="530" y="18" rx="2" ry="2" width="12" height="12"/><rect class="c" x="530" y="34" rx="2" ry="2" width="12" height="12"/><rect class="c" x="530" y="50" rx="2" ry="2" width="12" height="12"/><rect class="c" x="530" y="66" rx="2" ry="2" width="12" height="12"/><rect class="c" x="530" y="82" rx="2" ry="2" width="12" height="12"/><rect class="c cr" x="530" y="98" rx="2" ry="2" width="12" height="12"/><rect class="c" x="546" y="2" rx="2" ry="2" width="12" height="12"/><rect class="c" x="546" y="18" rx="2" ry="2" width="12" height="12"/><rect class="c" x="546" y="34" rx="2" ry="2" width="12" height="12"/><rect class="c" x="546" y="50" rx="2" ry="2" width="12" height="12"/><rect class="c" x="546" y="66" rx="2" ry="2" width="12" height="12"/><rect class="c" x="546" y="82" rx="2" ry="2" width="12" height="12"/><rect class="c" x="546" y="98" rx="2" ry="2" width="12" height="12"/><rect class="c" x="562" y="2" rx="2" ry="2" width="12" height="12"/><rect class="c" x="562" y="18" rx="2" ry="2" width="12" height="12"/><rect class="c" x="562" y="34" rx="2" ry="2" width="12" height="12"/><rect class="c" x="562" y="50" rx="2" ry="2" width="12" height="12"/><rect class="c" x="562" y="66" rx="2" ry="2" width="12" height="12"/><rect class="c" x="562" y="82" rx="2" ry="2" width="12" height="12"/><rect class="c" x="562" y="98" rx="2" ry="2" width="12" height="12"/><rect class="c" x="578" y="2" rx="2" ry="2" width="12" height="12"/><rect class="c" x="578" y="18" rx="2" ry="2" width="12" height="12"/><rect class="c" x="578" y="34" rx="2" ry="2" width="12" height="12"/><rect class="c" x="578" y="50" rx="2" ry="2" width="12" height="12"/><rect class="c" x="578" y="66" rx="2" ry="2" width="12" height="12"/><rect class="c" x="578" y="82" rx="2" ry="2" width="12" height="12"/><rect class="c cs" x="578" y="98" rx="2" ry="2" width="12" height="12"/><rect class="c ct" x="594" y="2" rx="2" ry="2" width="12" height="12"/><rect class="c" x="594" y="18" rx="2" ry="2" width="12" height="12"/><rect class="c" x="594" y="34" rx="2" ry="2" width="12" height="12"/><rect class="c" x="594" y="50" rx="2" ry="2" width="12" height="12"/><rect class="c" x="594" y="66" rx="2" ry="2" width="12" height="12"/><rect class="c" x="594" y="82" rx="2" ry="2" width="12" height="12"/><rect class="c" x="594" y="98" rx="2" ry="2" width="12" height="12"/><rect class="c" x="610" y="2" rx="2" ry="2" width="12" height="12"/><rect class="c" x="610" y="18" rx="2" ry="2" width="12" height="12"/><rect class="c" x="610" y="34" rx="2" ry="2" width="12" height="12"/><rect class="c cu" x="610" y="50" rx="2" ry="2" width="12" height="12"/><rect class="c" x="610" y="66" rx="2" ry="2" width="12" height="12"/><rect class="c cv" x="610" y="82" rx="2" ry="2" width="12" height="12"/><rect class="c" x="610" y="98" rx="2" ry="2" width="12" height="12"/><rect class="c" x="626" y="2" rx="2" ry="2" width="12" height="12"/><rect class="c" x="626" y="18" rx="2" ry="2" width="12" height="12"/><rect class="c" x="626" y="34" rx="2" ry="2" width="12" height="12"/><rect class="c cw" x="626" y="50" rx="2" ry="2" width="12" height="12"/><rect class="c" x="626" y="66" rx="2" ry="2" width="12" height="12"/><rect class="c cx" x="626" y="82" rx="2" ry="2" width="12" height="12"/><rect class="c" x="626" y="98" rx="2" ry="2" width="12" height="12"/><rect class="c" x="642" y="2" rx="2" ry="2" width="12" height="12"/><rect class="c" x="642" y="18" rx="2" ry="2" width="12" height="12"/><rect class="c" x="642" y="34" rx="2" ry="2" width="12" height="12"/><rect class="c" x="642" y="50" rx="2" ry="2" width="12" height="12"/><rect class="c" x="642" y="66" rx="2" ry="2" width="12" height="12"/><rect class="c" x="642" y="82" rx="2" ry="2" width="12" height="12"/><rect class="c" x="642" y="98" rx="2" ry="2" width="12" height="12"/><rect class="c" x="658" y="2" rx="2" ry="2" width="12" height="12"/><rect class="c cy" x="658" y="18" rx="2" ry="2" width="12" height="12"/><rect class="c" x="658" y="34" rx="2" ry="2" width="12" height="12"/><rect class="c" x="658" y="50" rx="2" ry="2" width="12" height="12"/><rect class="c" x="658" y="66" rx="2" ry="2" width="12" height="12"/><rect class="c" x="658" y="82" rx="2" ry="2" width="12" height="12"/><rect class="c" x="658" y="98" rx="2" ry="2" width="12" height="12"/><rect class="c" x="674" y="2" rx="2" ry="2" width="12" height="12"/><rect class="c" x="674" y="18" rx="2" ry="2" width="12" height="12"/><rect class="c cz" x="674" y="34" rx="2" ry="2" width="12" height="12"/><rect class="c" x="674" y="50" rx="2" ry="2" width="12" height="12"/><rect class="c" x="674" y="66" rx="2" ry="2" width="12" height="12"/><rect class="c" x="674" y="82" rx="2" ry="2" width="12" height="12"/><rect class="c c10" x="674" y="98" rx="2" ry="2" width="12" height="12"/><rect class="c" x="690" y="2" rx="2" ry="2" width="12" height="12"/><rect class="c c11" x="690" y="18" rx="2" ry="2" width="12" height="12"/><rect class="c c12" x="690" y="34" rx="2" ry="2" width="12" height="12"/><rect class="c" x="690" y="50" rx="2" ry="2" width="12" height="12"/><rect class="c" x="690" y="66" rx="2" ry="2" width="12" height="12"/><rect class="c" x="690" y="82" rx="2" ry="2" width="12" height="12"/><rect class="c" x="690" y="98" rx="2" ry="2" width="12" height="12"/><rect class="c c13" x="706" y="2" rx="2" ry="2" width="12" height="12"/><rect class="c c14" x="706" y="18" rx="2" ry="2" width="12" height="12"/><rect class="c c15" x="706" y="34" rx="2" ry="2" width="12" height="12"/><rect class="c c16" x="706" y="50" rx="2" ry="2" width="12" height="12"/><rect class="c" x="706" y="66" rx="2" ry="2" width="12" height="12"/><rect class="c" x="706" y="82" rx="2" ry="2" width="12" height="12"/><rect class="c" x="706" y="98" rx="2" ry="2" width="12" height="12"/><rect class="c c17" x="722" y="2" rx="2" ry="2" width="12" height="12"/><rect class="c c18" x="722" y="18" rx="2" ry="2" width="12" height="12"/><rect class="c c19" x="722" y="34" rx="2" ry="2" width="12" height="12"/><rect class="c" x="722" y="50" rx="2" ry="2" width="12" height="12"/><rect class="c" x="722" y="66" rx="2" ry="2" width="12" height="12"/><rect class="c c1a" x="722" y="82" rx="2" ry="2" width="12" height="12"/><rect class="c c1b" x="722" y="98" rx="2" ry="2" width="12" height="12"/><rect class="c" x="738" y="2" rx="2" ry="2" width="12" height="12"/><rect class="c c1c" x="738" y="18" rx="2" ry="2" width="12" height="12"/><rect class="c" x="738" y="34" rx="2" ry="2" width="12" height="12"/><rect class="c" x="738" y="50" rx="2" ry="2" width="12" height="12"/><rect class="c" x="738" y="66" rx="2" ry="2" width="12" height="12"/><rect class="c" x="738" y="82" rx="2" ry="2" width="12" height="12"/><rect class="c" x="738" y="98" rx="2" ry="2" width="12" height="12"/><rect class="c c1d" x="754" y="2" rx="2" ry="2" width="12" height="12"/><rect class="c c1e" x="754" y="18" rx="2" ry="2" width="12" height="12"/><rect class="c c1f" x="754" y="34" rx="2" ry="2" width="12" height="12"/><rect class="c c1g" x="754" y="50" rx="2" ry="2" width="12" height="12"/><rect class="c c1h" x="754" y="66" rx="2" ry="2" width="12" height="12"/><rect class="c c1i" x="754" y="82" rx="2" ry="2" width="12" height="12"/><rect class="c c1j" x="754" y="98" rx="2" ry="2" width="12" height="12"/><rect class="c c1k" x="770" y="2" rx="2" ry="2" width="12" height="12"/><rect class="c c1l" x="770" y="18" rx="2" ry="2" width="12" height="12"/><rect class="c c1m" x="770" y="34" rx="2" ry="2" width="12" height="12"/><rect class="c c1n" x="770" y="50" rx="2" ry="2" width="12" height="12"/><rect class="c c1o" x="770" y="66" rx="2" ry="2" width="12" height="12"/><rect class="c c1p" x="770" y="82" rx="2" ry="2" width="12" height="12"/><rect class="c c1q" x="770" y="98" rx="2" ry="2" width="12" height="12"/><rect class="c c1r" x="786" y="2" rx="2" ry="2" width="12" height="12"/><rect class="c" x="786" y="18" rx="2" ry="2" width="12" height="12"/><rect class="c" x="786" y="34" rx="2" ry="2" width="12" height="12"/><rect class="c" x="786" y="50" rx="2" ry="2" width="12" height="12"/><rect class="c" x="786" y="66" rx="2" ry="2" width="12" height="12"/><rect class="c" x="786" y="82" rx="2" ry="2" width="12" height="12"/><rect class="c" x="786" y="98" rx="2" ry="2" width="12" height="12"/><rect class="c c1s" x="802" y="2" rx="2" ry="2" width="12" height="12"/><rect class="c" x="802" y="18" rx="2" ry="2" width="12" height="12"/><rect class="c" x="802" y="34" rx="2" ry="2" width="12" height="12"/><rect class="c" x="802" y="50" rx="2" ry="2" width="12" height="12"/><rect class="c" x="802" y="66" rx="2" ry="2" width="12" height="12"/><rect class="c" x="802" y="82" rx="2" ry="2" width="12" height="12"/><rect class="c" x="802" y="98" rx="2" ry="2" width="12" height="12"/><rect class="c c1t" x="818" y="2" rx="2" ry="2" width="12" height="12"/><rect class="c" x="818" y="18" rx="2" ry="2" width="12" height="12"/><rect class="c" x="818" y="34" rx="2" ry="2" width="12" height="12"/><rect class="c" x="818" y="50" rx="2" ry="2" width="12" height="12"/><rect class="c" x="818" y="66" rx="2" ry="2" width="12" height="12"/><rect class="c" x="818" y="82" rx="2" ry="2" width="12" height="12"/><rect class="c c1u" x="818" y="98" rx="2" ry="2" width="12" height="12"/><rect class="c" x="834" y="2" rx="2" ry="2" width="12" height="12"/><rect class="u u0" height="12" width="608.1" x="0.0" y="144"/><rect class="u u1" height="12" width="101.9" x="607.5" y="144"/><rect class="u u2" height="12" width="89.2" x="708.8" y="144"/><rect class="u u3" height="12" width="51.2" x="797.4" y="144"/><rect class="s s0" x="0.8" y="0.8" width="14.4" height="14.4" rx="4.5" ry="4.5"/><rect class="s s1" x="1.8" y="1.8" width="12.3" height="12.3" rx="4.1" ry="4.1"/><rect class="s s2" x="2.6" y="2.6" width="10.8" height="10.8" rx="3.6" ry="3.6"/><rect class="s s3" x="3.0" y="3.0" width="9.9" height="9.9" rx="3.3" ry="3.3"/></svg>