<svg viewBox="-16 -32 880 192" width="880" height="192" xmlns="http://www.w3.org/2000/svg"><desc>Generated with https://github.com/Platane/snk</desc><style>@keyframes c0{.26%{fill:var(--c1)}.28%,to{fill:var(--ce)}}@keyframes c1{52.85%{fill:var(--c2)}52.87%,to{fill:var(--ce)}}@keyframes c2{6.26%{fill:var(--c1)}6.28%,to{fill:var(--ce)}}@keyframes c3{50.94%{fill:var(--c2)}50.96%,to{fill:var(--ce)}}@keyframes c4{.81%{fill:var(--c1)}.83%,to{fill:var(--ce)}}@keyframes c5{1.08%{fill:var(--c1)}1.1%,to{fill:var(--ce)}}@keyframes c6{52.03%{fill:var(--c2)}52.05%,to{fill:var(--ce)}}@keyframes c7{51.76%{fill:var(--c2)}51.78%,to{fill:var(--ce)}}@keyframes c8{4.62%{fill:var(--c1)}4.64%,to{fill:var(--ce)}}@keyframes c9{1.62%{fill:var(--c1)}1.64%,to{fill:var(--ce)}}@keyframes ca{2.17%{fill:var(--c1)}2.19%,to{fill:var(--ce)}}@keyframes cb{2.99%{fill:var(--c1)}3.01%,to{fill:var(--ce)}}@keyframes cc{10.34%{fill:var(--c1)}10.36%,to{fill:var(--ce)}}@keyframes cd{75.47%{fill:var(--c4)}75.49%,to{fill:var(--ce)}}@keyframes ce{11.98%{fill:var(--c1)}12%,to{fill:var(--ce)}}@keyframes cf{15.52%{fill:var(--c1)}15.54%,to{fill:var(--ce)}}@keyframes cg{71.38%{fill:var(--c4)}71.4%,to{fill:var(--ce)}}@keyframes ch{71.65%{fill:var(--c4)}71.67%,to{fill:var(--ce)}}@keyframes ci{43.86%{fill:var(--c2)}43.88%,to{fill:var(--ce)}}@keyframes cj{70.56%{fill:var(--c4)}70.58%,to{fill:var(--ce)}}@keyframes ck{18.25%{fill:var(--c1)}18.27%,to{fill:var(--ce)}}@keyframes cl{69.74%{fill:var(--c4)}69.76%,to{fill:var(--ce)}}@keyframes cm{36.77%{fill:var(--c2)}36.79%,to{fill:var(--ce)}}@keyframes cn{37.05%{fill:var(--c2)}37.07%,to{fill:var(--ce)}}@keyframes co{37.32%{fill:var(--c2)}37.34%,to{fill:var(--ce)}}@keyframes cp{62.66%{fill:var(--c3)}62.68%,to{fill:var(--ce)}}@keyframes cq{67.84%{fill:var(--c4)}67.86%,to{fill:var(--ce)}}@keyframes cr{35.96%{fill:var(--c2)}35.98%,to{fill:var(--ce)}}@keyframes cs{38.41%{fill:var(--c2)}38.43%,to{fill:var(--ce)}}@keyframes ct{67.56%{fill:var(--c4)}67.58%,to{fill:var(--ce)}}@keyframes cu{33.78%{fill:var(--c2)}33.8%,to{fill:var(--ce)}}@keyframes cv{20.97%{fill:var(--c1)}20.99%,to{fill:var(--ce)}}@keyframes cw{39.23%{fill:var(--c2)}39.25%,to{fill:var(--ce)}}@keyframes cx{34.59%{fill:var(--c2)}34.61%,to{fill:var(--ce)}}@keyframes cy{64.84%{fill:var(--c3)}64.86%,to{fill:var(--ce)}}@keyframes cz{66.48%{fill:var(--c4)}66.5%,to{fill:var(--ce)}}@keyframes c10{66.75%{fill:var(--c4)}66.77%,to{fill:var(--ce)}}@keyframes c11{40.32%{fill:var(--c2)}40.34%,to{fill:var(--ce)}}@keyframes c12{23.42%{fill:var(--c1)}23.44%,to{fill:var(--ce)}}@keyframes c13{30.24%{fill:var(--c1)}30.26%,to{fill:var(--ce)}}@keyframes c14{25.6%{fill:var(--c1)}25.62%,to{fill:var(--ce)}}@keyframes c15{29.42%{fill:var(--c1)}29.44%,to{fill:var(--ce)}}@keyframes c16{85.55%{fill:var(--c4)}85.57%,to{fill:var(--ce)}}@keyframes c17{27.51%{fill:var(--c1)}27.53%,to{fill:var(--ce)}}@keyframes c18{27.24%{fill:var(--c1)}27.26%,to{fill:var(--ce)}}@keyframes c19{26.97%{fill:var(--c1)}26.99%,to{fill:var(--ce)}}@keyframes c1a{26.69%{fill:var(--c1)}26.71%,to{fill:var(--ce)}}@keyframes c1b{26.42%{fill:var(--c1)}26.44%,to{fill:var(--ce)}}@keyframes c1c{26.15%{fill:var(--c1)}26.17%,to{fill:var(--ce)}}@keyframes c1d{28.06%{fill:var(--c1)}28.08%,to{fill:var(--ce)}}@keyframes c1e{27.78%{fill:var(--c1)}27.8%,to{fill:var(--ce)}}@keyframes u0{.26%{transform:scale(0,1)}.28%,.81%{transform:scale(.04,1)}.83%,1.08%{transform:scale(.08,1)}1.1%,1.62%{transform:scale(.12,1)}1.64%,2.17%{transform:scale(.16,1)}2.19%,2.99%{transform:scale(.2,1)}3.01%,4.62%{transform:scale(.24,1)}4.64%,6.26%{transform:scale(.28,1)}10.34%,6.28%{transform:scale(.32,1)}10.36%,11.98%{transform:scale(.36,1)}12%,15.52%{transform:scale(.4,1)}15.54%,18.25%{transform:scale(.44,1)}18.27%,20.97%{transform:scale(.48,1)}20.99%,23.42%{transform:scale(.52,1)}23.44%,25.6%{transform:scale(.56,1)}25.62%,26.15%{transform:scale(.6,1)}26.17%,26.42%{transform:scale(.64,1)}26.44%,26.69%{transform:scale(.68,1)}26.71%,26.97%{transform:scale(.72,1)}26.99%,27.24%{transform:scale(.76,1)}27.26%,27.51%{transform:scale(.8,1)}27.53%,27.78%{transform:scale(.84,1)}27.8%,28.06%{transform:scale(.88,1)}28.08%,29.42%{transform:scale(.92,1)}29.44%,30.24%{transform:scale(.96,1)}30.26%,to{transform:scale(1,1)}}@keyframes u1{33.78%{transform:scale(0,1)}33.8%,34.59%{transform:scale(.07,1)}34.61%,35.96%{transform:scale(.14,1)}35.98%,36.77%{transform:scale(.21,1)}36.79%,37.05%{transform:scale(.29,1)}37.07%,37.32%{transform:scale(.36,1)}37.34%,38.41%{transform:scale(.43,1)}38.43%,39.23%{transform:scale(.5,1)}39.25%,40.32%{transform:scale(.57,1)}40.34%,43.86%{transform:scale(.64,1)}43.88%,50.94%{transform:scale(.71,1)}50.96%,51.76%{transform:scale(.79,1)}51.78%,52.03%{transform:scale(.86,1)}52.05%,52.85%{transform:scale(.93,1)}52.87%,to{transform:scale(1,1)}}@keyframes u2{62.66%{transform:scale(0,1)}62.68%,64.84%{transform:scale(.5,1)}64.86%,to{transform:scale(1,1)}}@keyframes u3{66.48%{transform:scale(0,1)}66.5%,66.75%{transform:scale(.1,1)}66.77%,67.56%{transform:scale(.2,1)}67.58%,67.84%{transform:scale(.3,1)}67.86%,69.74%{transform:scale(.4,1)}69.76%,70.56%{transform:scale(.5,1)}70.58%,71.38%{transform:scale(.6,1)}71.4%,71.65%{transform:scale(.7,1)}71.67%,75.47%{transform:scale(.8,1)}75.49%,85.55%{transform:scale(.9,1)}85.57%,to{transform:scale(1,1)}}@keyframes s0{0%,99.73%{transform:translate(0,-16px)}.27%{transform:translate(0,0)}.82%{transform:translate(32px,0)}1.09%,52.32%{transform:translate(32px,16px)}1.36%{transform:translate(48px,16px)}1.63%{transform:translate(48px,32px)}1.91%{transform:translate(64px,32px)}2.18%{transform:translate(64px,48px)}2.72%{transform:translate(96px,48px)}3%{transform:translate(96px,64px)}4.09%,51.5%{transform:translate(32px,64px)}4.63%{transform:translate(32px,96px)}5.18%{transform:translate(0,96px)}53.13%,6.27%{transform:translate(0,32px)}6.54%{transform:translate(16px,32px)}6.81%{transform:translate(16px,16px)}9.81%{transform:translate(192px,16px)}10.35%{transform:translate(192px,48px)}11.44%{transform:translate(256px,48px)}11.99%{transform:translate(256px,16px)}14.44%{transform:translate(400px,16px)}15.53%{transform:translate(400px,80px)}15.8%{transform:translate(416px,80px)}16.08%,60.76%{transform:translate(416px,64px)}17.17%{transform:translate(480px,64px)}18.53%{transform:translate(480px,-16px)}19.62%{transform:translate(544px,-16px)}20.71%{transform:translate(544px,48px)}22.89%{transform:translate(672px,48px)}23.43%{transform:translate(672px,80px)}25.34%{transform:translate(784px,80px)}25.61%{transform:translate(784px,96px)}26.16%{transform:translate(816px,96px)}27.52%{transform:translate(816px,16px)}27.79%{transform:translate(832px,16px)}28.07%{transform:translate(832px,0)}28.34%{transform:translate(848px,0)}28.61%{transform:translate(848px,16px)}29.97%{transform:translate(768px,16px)}30.25%{transform:translate(768px,32px)}33.79%{transform:translate(560px,32px)}34.33%{transform:translate(560px,0)}34.6%{transform:translate(576px,0)}34.88%{transform:translate(576px,-16px)}35.69%{transform:translate(528px,-16px)}35.97%{transform:translate(528px,0)}36.24%,69.48%{transform:translate(512px,0)}36.51%{transform:translate(512px,16px)}36.78%{transform:translate(496px,16px)}37.33%{transform:translate(496px,48px)}37.87%{transform:translate(528px,48px)}38.42%{transform:translate(528px,80px)}38.96%,63.49%{transform:translate(560px,80px)}39.51%{transform:translate(560px,112px)}40.05%{transform:translate(592px,112px)}40.87%{transform:translate(592px,64px)}43.6%{transform:translate(432px,64px)}43.87%{transform:translate(432px,80px)}50.95%{transform:translate(16px,80px)}51.23%{transform:translate(16px,64px)}52.86%{transform:translate(0,16px)}60.22%{transform:translate(416px,32px)}62.4%{transform:translate(512px,64px)}62.67%{transform:translate(512px,80px)}63.76%{transform:translate(560px,64px)}64.03%{transform:translate(576px,64px)}64.85%{transform:translate(576px,16px)}65.12%{transform:translate(592px,16px)}65.4%{transform:translate(592px,32px)}65.67%{transform:translate(576px,32px)}66.76%{transform:translate(576px,96px)}67.85%{transform:translate(512px,96px)}70.84%{transform:translate(432px,0)}71.66%{transform:translate(432px,48px)}71.93%{transform:translate(416px,48px)}72.75%{transform:translate(416px,0)}75.48%{transform:translate(256px,0)}75.75%{transform:translate(256px,-16px)}85.29%{transform:translate(816px,-16px)}85.56%{transform:translate(816px,0)}97.82%{transform:translate(96px,0)}98.09%{transform:translate(96px,-16px)}}@keyframes s1{0%,99.73%{transform:translate(16px,-16px)}.27%{transform:translate(0,-16px)}.54%{transform:translate(0,0)}1.09%{transform:translate(32px,0)}1.36%,52.59%{transform:translate(32px,16px)}1.63%{transform:translate(48px,16px)}1.91%{transform:translate(48px,32px)}2.18%{transform:translate(64px,32px)}2.45%{transform:translate(64px,48px)}3%{transform:translate(96px,48px)}3.27%{transform:translate(96px,64px)}4.36%,51.77%{transform:translate(32px,64px)}4.9%{transform:translate(32px,96px)}5.45%{transform:translate(0,96px)}53.41%,6.54%{transform:translate(0,32px)}6.81%{transform:translate(16px,32px)}7.08%{transform:translate(16px,16px)}10.08%{transform:translate(192px,16px)}10.63%{transform:translate(192px,48px)}11.72%{transform:translate(256px,48px)}12.26%{transform:translate(256px,16px)}14.71%{transform:translate(400px,16px)}15.8%{transform:translate(400px,80px)}16.08%{transform:translate(416px,80px)}16.35%,61.04%{transform:translate(416px,64px)}17.44%{transform:translate(480px,64px)}18.8%{transform:translate(480px,-16px)}19.89%{transform:translate(544px,-16px)}20.98%{transform:translate(544px,48px)}23.16%{transform:translate(672px,48px)}23.71%{transform:translate(672px,80px)}25.61%{transform:translate(784px,80px)}25.89%{transform:translate(784px,96px)}26.43%{transform:translate(816px,96px)}27.79%{transform:translate(816px,16px)}28.07%{transform:translate(832px,16px)}28.34%{transform:translate(832px,0)}28.61%{transform:translate(848px,0)}28.88%{transform:translate(848px,16px)}30.25%{transform:translate(768px,16px)}30.52%{transform:translate(768px,32px)}34.06%{transform:translate(560px,32px)}34.6%{transform:translate(560px,0)}34.88%{transform:translate(576px,0)}35.15%{transform:translate(576px,-16px)}35.97%{transform:translate(528px,-16px)}36.24%{transform:translate(528px,0)}36.51%,69.75%{transform:translate(512px,0)}36.78%{transform:translate(512px,16px)}37.06%{transform:translate(496px,16px)}37.6%{transform:translate(496px,48px)}38.15%{transform:translate(528px,48px)}38.69%{transform:translate(528px,80px)}39.24%,63.76%{transform:translate(560px,80px)}39.78%{transform:translate(560px,112px)}40.33%{transform:translate(592px,112px)}41.14%{transform:translate(592px,64px)}43.87%{transform:translate(432px,64px)}44.14%{transform:translate(432px,80px)}51.23%{transform:translate(16px,80px)}51.5%{transform:translate(16px,64px)}53.13%{transform:translate(0,16px)}60.49%{transform:translate(416px,32px)}62.67%{transform:translate(512px,64px)}62.94%{transform:translate(512px,80px)}64.03%{transform:translate(560px,64px)}64.31%{transform:translate(576px,64px)}65.12%{transform:translate(576px,16px)}65.4%{transform:translate(592px,16px)}65.67%{transform:translate(592px,32px)}65.94%{transform:translate(576px,32px)}67.03%{transform:translate(576px,96px)}68.12%{transform:translate(512px,96px)}71.12%{transform:translate(432px,0)}71.93%{transform:translate(432px,48px)}72.21%{transform:translate(416px,48px)}73.02%{transform:translate(416px,0)}75.75%{transform:translate(256px,0)}76.02%{transform:translate(256px,-16px)}85.56%{transform:translate(816px,-16px)}85.83%{transform:translate(816px,0)}98.09%{transform:translate(96px,0)}98.37%{transform:translate(96px,-16px)}}@keyframes s2{0%,99.73%{transform:translate(32px,-16px)}.54%{transform:translate(0,-16px)}.82%{transform:translate(0,0)}1.36%{transform:translate(32px,0)}1.63%,52.86%{transform:translate(32px,16px)}1.91%{transform:translate(48px,16px)}2.18%{transform:translate(48px,32px)}2.45%{transform:translate(64px,32px)}2.72%{transform:translate(64px,48px)}3.27%{transform:translate(96px,48px)}3.54%{transform:translate(96px,64px)}4.63%,52.04%{transform:translate(32px,64px)}5.18%{transform:translate(32px,96px)}5.72%{transform:translate(0,96px)}53.68%,6.81%{transform:translate(0,32px)}7.08%{transform:translate(16px,32px)}7.36%{transform:translate(16px,16px)}10.35%{transform:translate(192px,16px)}10.9%{transform:translate(192px,48px)}11.99%{transform:translate(256px,48px)}12.53%{transform:translate(256px,16px)}14.99%{transform:translate(400px,16px)}16.08%{transform:translate(400px,80px)}16.35%{transform:translate(416px,80px)}16.62%,61.31%{transform:translate(416px,64px)}17.71%{transform:translate(480px,64px)}19.07%{transform:translate(480px,-16px)}20.16%{transform:translate(544px,-16px)}21.25%{transform:translate(544px,48px)}23.43%{transform:translate(672px,48px)}23.98%{transform:translate(672px,80px)}25.89%{transform:translate(784px,80px)}26.16%{transform:translate(784px,96px)}26.7%{transform:translate(816px,96px)}28.07%{transform:translate(816px,16px)}28.34%{transform:translate(832px,16px)}28.61%{transform:translate(832px,0)}28.88%{transform:translate(848px,0)}29.16%{transform:translate(848px,16px)}30.52%{transform:translate(768px,16px)}30.79%{transform:translate(768px,32px)}34.33%{transform:translate(560px,32px)}34.88%{transform:translate(560px,0)}35.15%{transform:translate(576px,0)}35.42%{transform:translate(576px,-16px)}36.24%{transform:translate(528px,-16px)}36.51%{transform:translate(528px,0)}36.78%,70.03%{transform:translate(512px,0)}37.06%{transform:translate(512px,16px)}37.33%{transform:translate(496px,16px)}37.87%{transform:translate(496px,48px)}38.42%{transform:translate(528px,48px)}38.96%{transform:translate(528px,80px)}39.51%,64.03%{transform:translate(560px,80px)}40.05%{transform:translate(560px,112px)}40.6%{transform:translate(592px,112px)}41.42%{transform:translate(592px,64px)}44.14%{transform:translate(432px,64px)}44.41%{transform:translate(432px,80px)}51.5%{transform:translate(16px,80px)}51.77%{transform:translate(16px,64px)}53.41%{transform:translate(0,16px)}60.76%{transform:translate(416px,32px)}62.94%{transform:translate(512px,64px)}63.22%{transform:translate(512px,80px)}64.31%{transform:translate(560px,64px)}64.58%{transform:translate(576px,64px)}65.4%{transform:translate(576px,16px)}65.67%{transform:translate(592px,16px)}65.94%{transform:translate(592px,32px)}66.21%{transform:translate(576px,32px)}67.3%{transform:translate(576px,96px)}68.39%{transform:translate(512px,96px)}71.39%{transform:translate(432px,0)}72.21%{transform:translate(432px,48px)}72.48%{transform:translate(416px,48px)}73.3%{transform:translate(416px,0)}76.02%{transform:translate(256px,0)}76.29%{transform:translate(256px,-16px)}85.83%{transform:translate(816px,-16px)}86.1%{transform:translate(816px,0)}98.37%{transform:translate(96px,0)}98.64%{transform:translate(96px,-16px)}}@keyframes s3{0%,99.73%{transform:translate(48px,-16px)}.82%{transform:translate(0,-16px)}1.09%{transform:translate(0,0)}1.63%{transform:translate(32px,0)}1.91%,53.13%{transform:translate(32px,16px)}2.18%{transform:translate(48px,16px)}2.45%{transform:translate(48px,32px)}2.72%{transform:translate(64px,32px)}3%{transform:translate(64px,48px)}3.54%{transform:translate(96px,48px)}3.81%{transform:translate(96px,64px)}4.9%,52.32%{transform:translate(32px,64px)}5.45%{transform:translate(32px,96px)}5.99%{transform:translate(0,96px)}53.95%,7.08%{transform:translate(0,32px)}7.36%{transform:translate(16px,32px)}7.63%{transform:translate(16px,16px)}10.63%{transform:translate(192px,16px)}11.17%{transform:translate(192px,48px)}12.26%{transform:translate(256px,48px)}12.81%{transform:translate(256px,16px)}15.26%{transform:translate(400px,16px)}16.35%{transform:translate(400px,80px)}16.62%{transform:translate(416px,80px)}16.89%,61.58%{transform:translate(416px,64px)}17.98%{transform:translate(480px,64px)}19.35%{transform:translate(480px,-16px)}20.44%{transform:translate(544px,-16px)}21.53%{transform:translate(544px,48px)}23.71%{transform:translate(672px,48px)}24.25%{transform:translate(672px,80px)}26.16%{transform:translate(784px,80px)}26.43%{transform:translate(784px,96px)}26.98%{transform:translate(816px,96px)}28.34%{transform:translate(816px,16px)}28.61%{transform:translate(832px,16px)}28.88%{transform:translate(832px,0)}29.16%{transform:translate(848px,0)}29.43%{transform:translate(848px,16px)}30.79%{transform:translate(768px,16px)}31.06%{transform:translate(768px,32px)}34.6%{transform:translate(560px,32px)}35.15%{transform:translate(560px,0)}35.42%{transform:translate(576px,0)}35.69%{transform:translate(576px,-16px)}36.51%{transform:translate(528px,-16px)}36.78%{transform:translate(528px,0)}37.06%,70.3%{transform:translate(512px,0)}37.33%{transform:translate(512px,16px)}37.6%{transform:translate(496px,16px)}38.15%{transform:translate(496px,48px)}38.69%{transform:translate(528px,48px)}39.24%{transform:translate(528px,80px)}39.78%,64.31%{transform:translate(560px,80px)}40.33%{transform:translate(560px,112px)}40.87%{transform:translate(592px,112px)}41.69%{transform:translate(592px,64px)}44.41%{transform:translate(432px,64px)}44.69%{transform:translate(432px,80px)}51.77%{transform:translate(16px,80px)}52.04%{transform:translate(16px,64px)}53.68%{transform:translate(0,16px)}61.04%{transform:translate(416px,32px)}63.22%{transform:translate(512px,64px)}63.49%{transform:translate(512px,80px)}64.58%{transform:translate(560px,64px)}64.85%{transform:translate(576px,64px)}65.67%{transform:translate(576px,16px)}65.94%{transform:translate(592px,16px)}66.21%{transform:translate(592px,32px)}66.49%{transform:translate(576px,32px)}67.57%{transform:translate(576px,96px)}68.66%{transform:translate(512px,96px)}71.66%{transform:translate(432px,0)}72.48%{transform:translate(432px,48px)}72.75%{transform:translate(416px,48px)}73.57%{transform:translate(416px,0)}76.29%{transform:translate(256px,0)}76.57%{transform:translate(256px,-16px)}86.1%{transform:translate(816px,-16px)}86.38%{transform:translate(816px,0)}98.64%{transform:translate(96px,0)}98.91%{transform:translate(96px,-16px)}}:root{--cb:#1b1f230a;--cs:orange;--ce:#bfd6f6;--c0:#bfd6f6;--c1:#8dbdff;--c2:#64a1f4;--c3:#4b91f1;--c4:#3c7dd9}.c{shape-rendering:geometricPrecision;fill:var(--ce);stroke-width:1px;stroke:var(--cb);animation:none 36700ms linear infinite}.c.c0{fill:var(--c1);animation-name:c0}.c.c1{fill:var(--c2);animation-name:c1}.c.c2{fill:var(--c1);animation-name:c2}.c.c3{fill:var(--c2);animation-name:c3}.c.c4,.c.c5{fill:var(--c1);animation-name:c4}.c.c5{animation-name:c5}.c.c6,.c.c7{fill:var(--c2);animation-name:c6}.c.c7{animation-name:c7}.c.c8,.c.c9{fill:var(--c1);animation-name:c8}.c.c9{animation-name:c9}.c.ca,.c.cb,.c.cc{fill:var(--c1);animation-name:ca}.c.cb,.c.cc{animation-name:cb}.c.cc{animation-name:cc}.c.cd{fill:var(--c4);animation-name:cd}.c.ce,.c.cf{fill:var(--c1);animation-name:ce}.c.cf{animation-name:cf}.c.cg,.c.ch{fill:var(--c4);animation-name:cg}.c.ch{animation-name:ch}.c.ci{fill:var(--c2);animation-name:ci}.c.cj{fill:var(--c4);animation-name:cj}.c.ck{fill:var(--c1);animation-name:ck}.c.cl{fill:var(--c4);animation-name:cl}.c.cm,.c.cn,.c.co{fill:var(--c2);animation-name:cm}.c.cn,.c.co{animation-name:cn}.c.co{animation-name:co}.c.cp{fill:var(--c3);animation-name:cp}.c.cq{fill:var(--c4);animation-name:cq}.c.cr,.c.cs{fill:var(--c2);animation-name:cr}.c.cs{animation-name:cs}.c.ct{fill:var(--c4);animation-name:ct}.c.cu{fill:var(--c2);animation-name:cu}.c.cv{fill:var(--c1);animation-name:cv}.c.cw,.c.cx{fill:var(--c2);animation-name:cw}.c.cx{animation-name:cx}.c.cy{fill:var(--c3);animation-name:cy}.c.c10,.c.cz{fill:var(--c4);animation-name:cz}.c.c10{animation-name:c10}.c.c11{fill:var(--c2);animation-name:c11}.c.c12{fill:var(--c1);animation-name:c12}.c.c13,.c.c14,.c.c15{fill:var(--c1);animation-name:c13}.c.c14,.c.c15{animation-name:c14}.c.c15{animation-name:c15}.c.c16{fill:var(--c4);animation-name:c16}.c.c17,.c.c18{fill:var(--c1);animation-name:c17}.c.c18{animation-name:c18}.c.c19,.c.c1a,.c.c1b{fill:var(--c1);animation-name:c19}.c.c1a,.c.c1b{animation-name:c1a}.c.c1b{animation-name:c1b}.c.c1c,.c.c1d,.c.c1e{fill:var(--c1);animation-name:c1c}.c.c1d,.c.c1e{animation-name:c1d}.c.c1e{animation-name:c1e}.s,.u{animation:none linear 36700ms infinite}.u,.u.u0{transform-origin:0 0}.u{transform:scale(0,1)}.u.u0{fill:var(--c1);animation-name:u0}.u.u1{fill:var(--c2);animation-name:u1;transform-origin:415.7px 0}.u.u2{fill:var(--c3);animation-name:u2;transform-origin:648.5px 0}.u.u3{fill:var(--c4);animation-name:u3;transform-origin:681.7px 0}.s{shape-rendering:geometricPrecision;fill:var(--cs)}.s.s0{transform:translate(0,-16px);animation-name:s0}.s.s1{transform:translate(16px,-16px);animation-name:s1}.s.s2{transform:translate(32px,-16px);animation-name:s2}.s.s3{transform:translate(48px,-16px);animation-name:s3}</style><rect class="c c0" x="2" y="2" rx="2" ry="2" width="12" height="12"/><rect class="c c1" x="2" y="18" rx="2" ry="2" width="12" height="12"/><rect class="c c2" x="2" y="34" rx="2" ry="2" width="12" height="12"/><rect class="c" x="2" y="50" rx="2" ry="2" width="12" height="12"/><rect class="c" x="2" y="66" rx="2" ry="2" width="12" height="12"/><rect class="c" x="2" y="82" rx="2" ry="2" width="12" height="12"/><rect class="c" x="2" y="98" rx="2" ry="2" width="12" height="12"/><rect class="c" x="18" y="2" rx="2" ry="2" width="12" height="12"/><rect class="c" x="18" y="18" rx="2" ry="2" width="12" height="12"/><rect class="c" x="18" y="34" rx="2" ry="2" width="12" height="12"/><rect class="c" x="18" y="50" rx="2" ry="2" width="12" height="12"/><rect class="c" x="18" y="66" rx="2" ry="2" width="12" height="12"/><rect class="c c3" x="18" y="82" rx="2" ry="2" width="12" height="12"/><rect class="c" x="18" y="98" rx="2" ry="2" width="12" height="12"/><rect class="c c4" x="34" y="2" rx="2" ry="2" width="12" height="12"/><rect class="c c5" x="34" y="18" rx="2" ry="2" width="12" height="12"/><rect class="c c6" x="34" y="34" rx="2" ry="2" width="12" height="12"/><rect class="c c7" x="34" y="50" rx="2" ry="2" width="12" height="12"/><rect class="c" x="34" y="66" rx="2" ry="2" width="12" height="12"/><rect class="c" x="34" y="82" rx="2" ry="2" width="12" height="12"/><rect class="c c8" x="34" y="98" rx="2" ry="2" width="12" height="12"/><rect class="c" x="50" y="2" rx="2" ry="2" width="12" height="12"/><rect class="c" x="50" y="18" rx="2" ry="2" width="12" height="12"/><rect class="c c9" x="50" y="34" rx="2" ry="2" width="12" height="12"/><rect class="c" x="50" y="50" rx="2" ry="2" width="12" height="12"/><rect class="c" x="50" y="66" rx="2" ry="2" width="12" height="12"/><rect class="c" x="50" y="82" rx="2" ry="2" width="12" height="12"/><rect class="c" x="50" y="98" rx="2" ry="2" width="12" height="12"/><rect class="c" x="66" y="2" rx="2" ry="2" width="12" height="12"/><rect class="c" x="66" y="18" rx="2" ry="2" width="12" height="12"/><rect class="c" x="66" y="34" rx="2" ry="2" width="12" height="12"/><rect class="c ca" x="66" y="50" rx="2" ry="2" width="12" height="12"/><rect class="c" x="66" y="66" rx="2" ry="2" width="12" height="12"/><rect class="c" x="66" y="82" rx="2" ry="2" width="12" height="12"/><rect class="c" x="66" y="98" rx="2" ry="2" width="12" height="12"/><rect class="c" x="82" y="2" rx="2" ry="2" width="12" height="12"/><rect class="c" x="82" y="18" rx="2" ry="2" width="12" height="12"/><rect class="c" x="82" y="34" rx="2" ry="2" width="12" height="12"/><rect class="c" x="82" y="50" rx="2" ry="2" width="12" height="12"/><rect class="c" x="82" y="66" rx="2" ry="2" width="12" height="12"/><rect class="c" x="82" y="82" rx="2" ry="2" width="12" height="12"/><rect class="c" x="82" y="98" rx="2" ry="2" width="12" height="12"/><rect class="c" x="98" y="2" rx="2" ry="2" width="12" height="12"/><rect class="c" x="98" y="18" rx="2" ry="2" width="12" height="12"/><rect class="c" x="98" y="34" rx="2" ry="2" width="12" height="12"/><rect class="c" x="98" y="50" rx="2" ry="2" width="12" height="12"/><rect class="c cb" x="98" y="66" rx="2" ry="2" width="12" height="12"/><rect class="c" x="98" y="82" rx="2" ry="2" width="12" height="12"/><rect class="c" x="98" y="98" rx="2" ry="2" width="12" height="12"/><rect class="c" x="114" y="2" rx="2" ry="2" width="12" height="12"/><rect class="c" x="114" y="18" rx="2" ry="2" width="12" height="12"/><rect class="c" x="114" y="34" rx="2" ry="2" width="12" height="12"/><rect class="c" x="114" y="50" rx="2" ry="2" width="12" height="12"/><rect class="c" x="114" y="66" rx="2" ry="2" width="12" height="12"/><rect class="c" x="114" y="82" rx="2" ry="2" width="12" height="12"/><rect class="c" x="114" y="98" rx="2" ry="2" width="12" height="12"/><rect class="c" x="130" y="2" rx="2" ry="2" width="12" height="12"/><rect class="c" x="130" y="18" rx="2" ry="2" width="12" height="12"/><rect class="c" x="130" y="34" rx="2" ry="2" width="12" height="12"/><rect class="c" x="130" y="50" rx="2" ry="2" width="12" height="12"/><rect class="c" x="130" y="66" rx="2" ry="2" width="12" height="12"/><rect class="c" x="130" y="82" rx="2" ry="2" width="12" height="12"/><rect class="c" x="130" y="98" rx="2" ry="2" width="12" height="12"/><rect class="c" x="146" y="2" rx="2" ry="2" width="12" height="12"/><rect class="c" x="146" y="18" rx="2" ry="2" width="12" height="12"/><rect class="c" x="146" y="34" rx="2" ry="2" width="12" height="12"/><rect class="c" x="146" y="50" rx="2" ry="2" width="12" height="12"/><rect class="c" x="146" y="66" rx="2" ry="2" width="12" height="12"/><rect class="c" x="146" y="82" rx="2" ry="2" width="12" height="12"/><rect class="c" x="146" y="98" rx="2" ry="2" width="12" height="12"/><rect class="c" x="162" y="2" rx="2" ry="2" width="12" height="12"/><rect class="c" x="162" y="18" rx="2" ry="2" width="12" height="12"/><rect class="c" x="162" y="34" rx="2" ry="2" width="12" height="12"/><rect class="c" x="162" y="50" rx="2" ry="2" width="12" height="12"/><rect class="c" x="162" y="66" rx="2" ry="2" width="12" height="12"/><rect class="c" x="162" y="82" rx="2" ry="2" width="12" height="12"/><rect class="c" x="162" y="98" rx="2" ry="2" width="12" height="12"/><rect class="c" x="178" y="2" rx="2" ry="2" width="12" height="12"/><rect class="c" x="178" y="18" rx="2" ry="2" width="12" height="12"/><rect class="c" x="178" y="34" rx="2" ry="2" width="12" height="12"/><rect class="c" x="178" y="50" rx="2" ry="2" width="12" height="12"/><rect class="c" x="178" y="66" rx="2" ry="2" width="12" height="12"/><rect class="c" x="178" y="82" rx="2" ry="2" width="12" height="12"/><rect class="c" x="178" y="98" rx="2" ry="2" width="12" height="12"/><rect class="c" x="194" y="2" rx="2" ry="2" width="12" height="12"/><rect class="c" x="194" y="18" rx="2" ry="2" width="12" height="12"/><rect class="c" x="194" y="34" rx="2" ry="2" width="12" height="12"/><rect class="c cc" x="194" y="50" rx="2" ry="2" width="12" height="12"/><rect class="c" x="194" y="66" rx="2" ry="2" width="12" height="12"/><rect class="c" x="194" y="82" rx="2" ry="2" width="12" height="12"/><rect class="c" x="194" y="98" rx="2" ry="2" width="12" height="12"/><rect class="c" x="210" y="2" rx="2" ry="2" width="12" height="12"/><rect class="c" x="210" y="18" rx="2" ry="2" width="12" height="12"/><rect class="c" x="210" y="34" rx="2" ry="2" width="12" height="12"/><rect class="c" x="210" y="50" rx="2" ry="2" width="12" height="12"/><rect class="c" x="210" y="66" rx="2" ry="2" width="12" height="12"/><rect class="c" x="210" y="82" rx="2" ry="2" width="12" height="12"/><rect class="c" x="210" y="98" rx="2" ry="2" width="12" height="12"/><rect class="c" x="226" y="2" rx="2" ry="2" width="12" height="12"/><rect class="c" x="226" y="18" rx="2" ry="2" width="12" height="12"/><rect class="c" x="226" y="34" rx="2" ry="2" width="12" height="12"/><rect class="c" x="226" y="50" rx="2" ry="2" width="12" height="12"/><rect class="c" x="226" y="66" rx="2" ry="2" width="12" height="12"/><rect class="c" x="226" y="82" rx="2" ry="2" width="12" height="12"/><rect class="c" x="226" y="98" rx="2" ry="2" width="12" height="12"/><rect class="c" x="242" y="2" rx="2" ry="2" width="12" height="12"/><rect class="c" x="242" y="18" rx="2" ry="2" width="12" height="12"/><rect class="c" x="242" y="34" rx="2" ry="2" width="12" height="12"/><rect class="c" x="242" y="50" rx="2" ry="2" width="12" height="12"/><rect class="c" x="242" y="66" rx="2" ry="2" width="12" height="12"/><rect class="c" x="242" y="82" rx="2" ry="2" width="12" height="12"/><rect class="c" x="242" y="98" rx="2" ry="2" width="12" height="12"/><rect class="c cd" x="258" y="2" rx="2" ry="2" width="12" height="12"/><rect class="c ce" x="258" y="18" rx="2" ry="2" width="12" height="12"/><rect class="c" x="258" y="34" rx="2" ry="2" width="12" height="12"/><rect class="c" x="258" y="50" rx="2" ry="2" width="12" height="12"/><rect class="c" x="258" y="66" rx="2" ry="2" width="12" height="12"/><rect class="c" x="258" y="82" rx="2" ry="2" width="12" height="12"/><rect class="c" x="258" y="98" rx="2" ry="2" width="12" height="12"/><rect class="c" x="274" y="2" rx="2" ry="2" width="12" height="12"/><rect class="c" x="274" y="18" rx="2" ry="2" width="12" height="12"/><rect class="c" x="274" y="34" rx="2" ry="2" width="12" height="12"/><rect class="c" x="274" y="50" rx="2" ry="2" width="12" height="12"/><rect class="c" x="274" y="66" rx="2" ry="2" width="12" height="12"/><rect class="c" x="274" y="82" rx="2" ry="2" width="12" height="12"/><rect class="c" x="274" y="98" rx="2" ry="2" width="12" height="12"/><rect class="c" x="290" y="2" rx="2" ry="2" width="12" height="12"/><rect class="c" x="290" y="18" rx="2" ry="2" width="12" height="12"/><rect class="c" x="290" y="34" rx="2" ry="2" width="12" height="12"/><rect class="c" x="290" y="50" rx="2" ry="2" width="12" height="12"/><rect class="c" x="290" y="66" rx="2" ry="2" width="12" height="12"/><rect class="c" x="290" y="82" rx="2" ry="2" width="12" height="12"/><rect class="c" x="290" y="98" rx="2" ry="2" width="12" height="12"/><rect class="c" x="306" y="2" rx="2" ry="2" width="12" height="12"/><rect class="c" x="306" y="18" rx="2" ry="2" width="12" height="12"/><rect class="c" x="306" y="34" rx="2" ry="2" width="12" height="12"/><rect class="c" x="306" y="50" rx="2" ry="2" width="12" height="12"/><rect class="c" x="306" y="66" rx="2" ry="2" width="12" height="12"/><rect class="c" x="306" y="82" rx="2" ry="2" width="12" height="12"/><rect class="c" x="306" y="98" rx="2" ry="2" width="12" height="12"/><rect class="c" x="322" y="2" rx="2" ry="2" width="12" height="12"/><rect class="c" x="322" y="18" rx="2" ry="2" width="12" height="12"/><rect class="c" x="322" y="34" rx="2" ry="2" width="12" height="12"/><rect class="c" x="322" y="50" rx="2" ry="2" width="12" height="12"/><rect class="c" x="322" y="66" rx="2" ry="2" width="12" height="12"/><rect class="c" x="322" y="82" rx="2" ry="2" width="12" height="12"/><rect class="c" x="322" y="98" rx="2" ry="2" width="12" height="12"/><rect class="c" x="338" y="2" rx="2" ry="2" width="12" height="12"/><rect class="c" x="338" y="18" rx="2" ry="2" width="12" height="12"/><rect class="c" x="338" y="34" rx="2" ry="2" width="12" height="12"/><rect class="c" x="338" y="50" rx="2" ry="2" width="12" height="12"/><rect class="c" x="338" y="66" rx="2" ry="2" width="12" height="12"/><rect class="c" x="338" y="82" rx="2" ry="2" width="12" height="12"/><rect class="c" x="338" y="98" rx="2" ry="2" width="12" height="12"/><rect class="c" x="354" y="2" rx="2" ry="2" width="12" height="12"/><rect class="c" x="354" y="18" rx="2" ry="2" width="12" height="12"/><rect class="c" x="354" y="34" rx="2" ry="2" width="12" height="12"/><rect class="c" x="354" y="50" rx="2" ry="2" width="12" height="12"/><rect class="c" x="354" y="66" rx="2" ry="2" width="12" height="12"/><rect class="c" x="354" y="82" rx="2" ry="2" width="12" height="12"/><rect class="c" x="354" y="98" rx="2" ry="2" width="12" height="12"/><rect class="c" x="370" y="2" rx="2" ry="2" width="12" height="12"/><rect class="c" x="370" y="18" rx="2" ry="2" width="12" height="12"/><rect class="c" x="370" y="34" rx="2" ry="2" width="12" height="12"/><rect class="c" x="370" y="50" rx="2" ry="2" width="12" height="12"/><rect class="c" x="370" y="66" rx="2" ry="2" width="12" height="12"/><rect class="c" x="370" y="82" rx="2" ry="2" width="12" height="12"/><rect class="c" x="370" y="98" rx="2" ry="2" width="12" height="12"/><rect class="c" x="386" y="2" rx="2" ry="2" width="12" height="12"/><rect class="c" x="386" y="18" rx="2" ry="2" width="12" height="12"/><rect class="c" x="386" y="34" rx="2" ry="2" width="12" height="12"/><rect class="c" x="386" y="50" rx="2" ry="2" width="12" height="12"/><rect class="c" x="386" y="66" rx="2" ry="2" width="12" height="12"/><rect class="c" x="386" y="82" rx="2" ry="2" width="12" height="12"/><rect class="c" x="386" y="98" rx="2" ry="2" width="12" height="12"/><rect class="c" x="402" y="2" rx="2" ry="2" width="12" height="12"/><rect class="c" x="402" y="18" rx="2" ry="2" width="12" height="12"/><rect class="c" x="402" y="34" rx="2" ry="2" width="12" height="12"/><rect class="c" x="402" y="50" rx="2" ry="2" width="12" height="12"/><rect class="c" x="402" y="66" rx="2" ry="2" width="12" height="12"/><rect class="c cf" x="402" y="82" rx="2" ry="2" width="12" height="12"/><rect class="c" x="402" y="98" rx="2" ry="2" width="12" height="12"/><rect class="c" x="418" y="2" rx="2" ry="2" width="12" height="12"/><rect class="c" x="418" y="18" rx="2" ry="2" width="12" height="12"/><rect class="c" x="418" y="34" rx="2" ry="2" width="12" height="12"/><rect class="c" x="418" y="50" rx="2" ry="2" width="12" height="12"/><rect class="c" x="418" y="66" rx="2" ry="2" width="12" height="12"/><rect class="c" x="418" y="82" rx="2" ry="2" width="12" height="12"/><rect class="c" x="418" y="98" rx="2" ry="2" width="12" height="12"/><rect class="c" x="434" y="2" rx="2" ry="2" width="12" height="12"/><rect class="c" x="434" y="18" rx="2" ry="2" width="12" height="12"/><rect class="c cg" x="434" y="34" rx="2" ry="2" width="12" height="12"/><rect class="c ch" x="434" y="50" rx="2" ry="2" width="12" height="12"/><rect class="c" x="434" y="66" rx="2" ry="2" width="12" height="12"/><rect class="c ci" x="434" y="82" rx="2" ry="2" width="12" height="12"/><rect class="c" x="434" y="98" rx="2" ry="2" width="12" height="12"/><rect class="c cj" x="450" y="2" rx="2" ry="2" width="12" height="12"/><rect class="c" x="450" y="18" rx="2" ry="2" width="12" height="12"/><rect class="c" x="450" y="34" rx="2" ry="2" width="12" height="12"/><rect class="c" x="450" y="50" rx="2" ry="2" width="12" height="12"/><rect class="c" x="450" y="66" rx="2" ry="2" width="12" height="12"/><rect class="c" x="450" y="82" rx="2" ry="2" width="12" height="12"/><rect class="c" x="450" y="98" rx="2" ry="2" width="12" height="12"/><rect class="c" x="466" y="2" rx="2" ry="2" width="12" height="12"/><rect class="c" x="466" y="18" rx="2" ry="2" width="12" height="12"/><rect class="c" x="466" y="34" rx="2" ry="2" width="12" height="12"/><rect class="c" x="466" y="50" rx="2" ry="2" width="12" height="12"/><rect class="c" x="466" y="66" rx="2" ry="2" width="12" height="12"/><rect class="c" x="466" y="82" rx="2" ry="2" width="12" height="12"/><rect class="c" x="466" y="98" rx="2" ry="2" width="12" height="12"/><rect class="c ck" x="482" y="2" rx="2" ry="2" width="12" height="12"/><rect class="c" x="482" y="18" rx="2" ry="2" width="12" height="12"/><rect class="c" x="482" y="34" rx="2" ry="2" width="12" height="12"/><rect class="c" x="482" y="50" rx="2" ry="2" width="12" height="12"/><rect class="c" x="482" y="66" rx="2" ry="2" width="12" height="12"/><rect class="c" x="482" y="82" rx="2" ry="2" width="12" height="12"/><rect class="c" x="482" y="98" rx="2" ry="2" width="12" height="12"/><rect class="c cl" x="498" y="2" rx="2" ry="2" width="12" height="12"/><rect class="c cm" x="498" y="18" rx="2" ry="2" width="12" height="12"/><rect class="c cn" x="498" y="34" rx="2" ry="2" width="12" height="12"/><rect class="c co" x="498" y="50" rx="2" ry="2" width="12" height="12"/><rect class="c" x="498" y="66" rx="2" ry="2" width="12" height="12"/><rect class="c" x="498" y="82" rx="2" ry="2" width="12" height="12"/><rect class="c" x="498" y="98" rx="2" ry="2" width="12" height="12"/><rect class="c" x="514" y="2" rx="2" ry="2" width="12" height="12"/><rect class="c" x="514" y="18" rx="2" ry="2" width="12" height="12"/><rect class="c" x="514" y="34" rx="2" ry="2" width="12" height="12"/><rect class="c" x="514" y="50" rx="2" ry="2" width="12" height="12"/><rect class="c" x="514" y="66" rx="2" ry="2" width="12" height="12"/><rect class="c cp" x="514" y="82" rx="2" ry="2" width="12" height="12"/><rect class="c cq" x="514" y="98" rx="2" ry="2" width="12" height="12"/><rect class="c cr" x="530" y="2" rx="2" ry="2" width="12" height="12"/><rect class="c" x="530" y="18" rx="2" ry="2" width="12" height="12"/><rect class="c" x="530" y="34" rx="2" ry="2" width="12" height="12"/><rect class="c" x="530" y="50" rx="2" ry="2" width="12" height="12"/><rect class="c" x="530" y="66" rx="2" ry="2" width="12" height="12"/><rect class="c cs" x="530" y="82" rx="2" ry="2" width="12" height="12"/><rect class="c ct" x="530" y="98" rx="2" ry="2" width="12" height="12"/><rect class="c" x="546" y="2" rx="2" ry="2" width="12" height="12"/><rect class="c" x="546" y="18" rx="2" ry="2" width="12" height="12"/><rect class="c" x="546" y="34" rx="2" ry="2" width="12" height="12"/><rect class="c" x="546" y="50" rx="2" ry="2" width="12" height="12"/><rect class="c" x="546" y="66" rx="2" ry="2" width="12" height="12"/><rect class="c" x="546" y="82" rx="2" ry="2" width="12" height="12"/><rect class="c" x="546" y="98" rx="2" ry="2" width="12" height="12"/><rect class="c" x="562" y="2" rx="2" ry="2" width="12" height="12"/><rect class="c" x="562" y="18" rx="2" ry="2" width="12" height="12"/><rect class="c cu" x="562" y="34" rx="2" ry="2" width="12" height="12"/><rect class="c cv" x="562" y="50" rx="2" ry="2" width="12" height="12"/><rect class="c" x="562" y="66" rx="2" ry="2" width="12" height="12"/><rect class="c" x="562" y="82" rx="2" ry="2" width="12" height="12"/><rect class="c cw" x="562" y="98" rx="2" ry="2" width="12" height="12"/><rect class="c cx" x="578" y="2" rx="2" ry="2" width="12" height="12"/><rect class="c cy" x="578" y="18" rx="2" ry="2" width="12" height="12"/><rect class="c" x="578" y="34" rx="2" ry="2" width="12" height="12"/><rect class="c" x="578" y="50" rx="2" ry="2" width="12" height="12"/><rect class="c" x="578" y="66" rx="2" ry="2" width="12" height="12"/><rect class="c cz" x="578" y="82" rx="2" ry="2" width="12" height="12"/><rect class="c c10" x="578" y="98" rx="2" ry="2" width="12" height="12"/><rect class="c" x="594" y="2" rx="2" ry="2" width="12" height="12"/><rect class="c" x="594" y="18" rx="2" ry="2" width="12" height="12"/><rect class="c" x="594" y="34" rx="2" ry="2" width="12" height="12"/><rect class="c" x="594" y="50" rx="2" ry="2" width="12" height="12"/><rect class="c" x="594" y="66" rx="2" ry="2" width="12" height="12"/><rect class="c" x="594" y="82" rx="2" ry="2" width="12" height="12"/><rect class="c c11" x="594" y="98" rx="2" ry="2" width="12" height="12"/><rect class="c" x="610" y="2" rx="2" ry="2" width="12" height="12"/><rect class="c" x="610" y="18" rx="2" ry="2" width="12" height="12"/><rect class="c" x="610" y="34" rx="2" ry="2" width="12" height="12"/><rect class="c" x="610" y="50" rx="2" ry="2" width="12" height="12"/><rect class="c" x="610" y="66" rx="2" ry="2" width="12" height="12"/><rect class="c" x="610" y="82" rx="2" ry="2" width="12" height="12"/><rect class="c" x="610" y="98" rx="2" ry="2" width="12" height="12"/><rect class="c" x="626" y="2" rx="2" ry="2" width="12" height="12"/><rect class="c" x="626" y="18" rx="2" ry="2" width="12" height="12"/><rect class="c" x="626" y="34" rx="2" ry="2" width="12" height="12"/><rect class="c" x="626" y="50" rx="2" ry="2" width="12" height="12"/><rect class="c" x="626" y="66" rx="2" ry="2" width="12" height="12"/><rect class="c" x="626" y="82" rx="2" ry="2" width="12" height="12"/><rect class="c" x="626" y="98" rx="2" ry="2" width="12" height="12"/><rect class="c" x="642" y="2" rx="2" ry="2" width="12" height="12"/><rect class="c" x="642" y="18" rx="2" ry="2" width="12" height="12"/><rect class="c" x="642" y="34" rx="2" ry="2" width="12" height="12"/><rect class="c" x="642" y="50" rx="2" ry="2" width="12" height="12"/><rect class="c" x="642" y="66" rx="2" ry="2" width="12" height="12"/><rect class="c" x="642" y="82" rx="2" ry="2" width="12" height="12"/><rect class="c" x="642" y="98" rx="2" ry="2" width="12" height="12"/><rect class="c" x="658" y="2" rx="2" ry="2" width="12" height="12"/><rect class="c" x="658" y="18" rx="2" ry="2" width="12" height="12"/><rect class="c" x="658" y="34" rx="2" ry="2" width="12" height="12"/><rect class="c" x="658" y="50" rx="2" ry="2" width="12" height="12"/><rect class="c" x="658" y="66" rx="2" ry="2" width="12" height="12"/><rect class="c" x="658" y="82" rx="2" ry="2" width="12" height="12"/><rect class="c" x="658" y="98" rx="2" ry="2" width="12" height="12"/><rect class="c" x="674" y="2" rx="2" ry="2" width="12" height="12"/><rect class="c" x="674" y="18" rx="2" ry="2" width="12" height="12"/><rect class="c" x="674" y="34" rx="2" ry="2" width="12" height="12"/><rect class="c" x="674" y="50" rx="2" ry="2" width="12" height="12"/><rect class="c" x="674" y="66" rx="2" ry="2" width="12" height="12"/><rect class="c c12" x="674" y="82" rx="2" ry="2" width="12" height="12"/><rect class="c" x="674" y="98" rx="2" ry="2" width="12" height="12"/><rect class="c" x="690" y="2" rx="2" ry="2" width="12" height="12"/><rect class="c" x="690" y="18" rx="2" ry="2" width="12" height="12"/><rect class="c" x="690" y="34" rx="2" ry="2" width="12" height="12"/><rect class="c" x="690" y="50" rx="2" ry="2" width="12" height="12"/><rect class="c" x="690" y="66" rx="2" ry="2" width="12" height="12"/><rect class="c" x="690" y="82" rx="2" ry="2" width="12" height="12"/><rect class="c" x="690" y="98" rx="2" ry="2" width="12" height="12"/><rect class="c" x="706" y="2" rx="2" ry="2" width="12" height="12"/><rect class="c" x="706" y="18" rx="2" ry="2" width="12" height="12"/><rect class="c" x="706" y="34" rx="2" ry="2" width="12" height="12"/><rect class="c" x="706" y="50" rx="2" ry="2" width="12" height="12"/><rect class="c" x="706" y="66" rx="2" ry="2" width="12" height="12"/><rect class="c" x="706" y="82" rx="2" ry="2" width="12" height="12"/><rect class="c" x="706" y="98" rx="2" ry="2" width="12" height="12"/><rect class="c" x="722" y="2" rx="2" ry="2" width="12" height="12"/><rect class="c" x="722" y="18" rx="2" ry="2" width="12" height="12"/><rect class="c" x="722" y="34" rx="2" ry="2" width="12" height="12"/><rect class="c" x="722" y="50" rx="2" ry="2" width="12" height="12"/><rect class="c" x="722" y="66" rx="2" ry="2" width="12" height="12"/><rect class="c" x="722" y="82" rx="2" ry="2" width="12" height="12"/><rect class="c" x="722" y="98" rx="2" ry="2" width="12" height="12"/><rect class="c" x="738" y="2" rx="2" ry="2" width="12" height="12"/><rect class="c" x="738" y="18" rx="2" ry="2" width="12" height="12"/><rect class="c" x="738" y="34" rx="2" ry="2" width="12" height="12"/><rect class="c" x="738" y="50" rx="2" ry="2" width="12" height="12"/><rect class="c" x="738" y="66" rx="2" ry="2" width="12" height="12"/><rect class="c" x="738" y="82" rx="2" ry="2" width="12" height="12"/><rect class="c" x="738" y="98" rx="2" ry="2" width="12" height="12"/><rect class="c" x="754" y="2" rx="2" ry="2" width="12" height="12"/><rect class="c" x="754" y="18" rx="2" ry="2" width="12" height="12"/><rect class="c" x="754" y="34" rx="2" ry="2" width="12" height="12"/><rect class="c" x="754" y="50" rx="2" ry="2" width="12" height="12"/><rect class="c" x="754" y="66" rx="2" ry="2" width="12" height="12"/><rect class="c" x="754" y="82" rx="2" ry="2" width="12" height="12"/><rect class="c" x="754" y="98" rx="2" ry="2" width="12" height="12"/><rect class="c" x="770" y="2" rx="2" ry="2" width="12" height="12"/><rect class="c" x="770" y="18" rx="2" ry="2" width="12" height="12"/><rect class="c c13" x="770" y="34" rx="2" ry="2" width="12" height="12"/><rect class="c" x="770" y="50" rx="2" ry="2" width="12" height="12"/><rect class="c" x="770" y="66" rx="2" ry="2" width="12" height="12"/><rect class="c" x="770" y="82" rx="2" ry="2" width="12" height="12"/><rect class="c" x="770" y="98" rx="2" ry="2" width="12" height="12"/><rect class="c" x="786" y="2" rx="2" ry="2" width="12" height="12"/><rect class="c" x="786" y="18" rx="2" ry="2" width="12" height="12"/><rect class="c" x="786" y="34" rx="2" ry="2" width="12" height="12"/><rect class="c" x="786" y="50" rx="2" ry="2" width="12" height="12"/><rect class="c" x="786" y="66" rx="2" ry="2" width="12" height="12"/><rect class="c" x="786" y="82" rx="2" ry="2" width="12" height="12"/><rect class="c c14" x="786" y="98" rx="2" ry="2" width="12" height="12"/><rect class="c" x="802" y="2" rx="2" ry="2" width="12" height="12"/><rect class="c c15" x="802" y="18" rx="2" ry="2" width="12" height="12"/><rect class="c" x="802" y="34" rx="2" ry="2" width="12" height="12"/><rect class="c" x="802" y="50" rx="2" ry="2" width="12" height="12"/><rect class="c" x="802" y="66" rx="2" ry="2" width="12" height="12"/><rect class="c" x="802" y="82" rx="2" ry="2" width="12" height="12"/><rect class="c" x="802" y="98" rx="2" ry="2" width="12" height="12"/><rect class="c c16" x="818" y="2" rx="2" ry="2" width="12" height="12"/><rect class="c c17" x="818" y="18" rx="2" ry="2" width="12" height="12"/><rect class="c c18" x="818" y="34" rx="2" ry="2" width="12" height="12"/><rect class="c c19" x="818" y="50" rx="2" ry="2" width="12" height="12"/><rect class="c c1a" x="818" y="66" rx="2" ry="2" width="12" height="12"/><rect class="c c1b" x="818" y="82" rx="2" ry="2" width="12" height="12"/><rect class="c c1c" x="818" y="98" rx="2" ry="2" width="12" height="12"/><rect class="c c1d" x="834" y="2" rx="2" ry="2" width="12" height="12"/><rect class="c c1e" x="834" y="18" rx="2" ry="2" width="12" height="12"/><rect class="c" x="834" y="34" rx="2" ry="2" width="12" height="12"/><rect class="u u0" height="12" width="416.3" x="0.0" y="144"/><rect class="u u1" height="12" width="233.4" x="415.7" y="144"/><rect class="u u2" height="12" width="33.9" x="648.5" y="144"/><rect class="u u3" height="12" width="166.9" x="681.7" y="144"/><rect class="s s0" x="0.8" y="0.8" width="14.4" height="14.4" rx="4.5" ry="4.5"/><rect class="s s1" x="1.8" y="1.8" width="12.3" height="12.3" rx="4.1" ry="4.1"/><rect class="s s2" x="2.6" y="2.6" width="10.8" height="10.8" rx="3.6" ry="3.6"/><rect class="s s3" x="3.0" y="3.0" width="9.9" height="9.9" rx="3.3" ry="3.3"/></svg>