<svg viewBox="-16 -32 880 192" width="880" height="192" xmlns="http://www.w3.org/2000/svg"><desc>Generated with https://github.com/Platane/snk</desc><style>:root{--cb:#1b1f230a;--cs:orange;--ce:#bfd6f6;--c0:#bfd6f6;--c1:#8dbdff;--c2:#64a1f4;--c3:#4b91f1;--c4:#3c7dd9}.c{shape-rendering:geometricPrecision;fill:var(--ce);stroke-width:1px;stroke:var(--cb);animation:none 29900ms linear infinite;width:12px;height:12px}@keyframes c0{77.92%{fill:var(--c4)}77.94%,100%{fill:var(--ce)}}.c.c0{fill:var(--c4);animation-name:c0}@keyframes c1{41.8%{fill:var(--c2)}41.82%,100%{fill:var(--ce)}}.c.c1{fill:var(--c2);animation-name:c1}@keyframes c2{77.58%{fill:var(--c4)}77.6%,100%{fill:var(--ce)}}.c.c2{fill:var(--c4);animation-name:c2}@keyframes c3{77.25%{fill:var(--c3)}77.27%,100%{fill:var(--ce)}}.c.c3{fill:var(--c3);animation-name:c3}@keyframes c4{1.66%{fill:var(--c1)}1.68%,100%{fill:var(--ce)}}.c.c4{fill:var(--c1);animation-name:c4}@keyframes c5{39.79%{fill:var(--c1)}39.81%,100%{fill:var(--ce)}}.c.c5{fill:var(--c1);animation-name:c5}@keyframes c6{2%{fill:var(--c1)}2.02%,100%{fill:var(--ce)}}.c.c6{fill:var(--c1);animation-name:c6}@keyframes c7{38.45%{fill:var(--c1)}38.47%,100%{fill:var(--ce)}}.c.c7{fill:var(--c1);animation-name:c7}@keyframes c8{40.79%{fill:var(--c2)}40.81%,100%{fill:var(--ce)}}.c.c8{fill:var(--c2);animation-name:c8}@keyframes c9{2.33%{fill:var(--c1)}2.35%,100%{fill:var(--ce)}}.c.c9{fill:var(--c1);animation-name:c9}@keyframes ca{37.78%{fill:var(--c1)}37.8%,100%{fill:var(--ce)}}.c.ca{fill:var(--c1);animation-name:ca}@keyframes cb{2.67%{fill:var(--c1)}2.69%,100%{fill:var(--ce)}}.c.cb{fill:var(--c1);animation-name:cb}@keyframes cc{37.11%{fill:var(--c1)}37.13%,100%{fill:var(--ce)}}.c.cc{fill:var(--c1);animation-name:cc}@keyframes cd{3%{fill:var(--c1)}3.02%,100%{fill:var(--ce)}}.c.cd{fill:var(--c1);animation-name:cd}@keyframes ce{3.33%{fill:var(--c1)}3.35%,100%{fill:var(--ce)}}.c.ce{fill:var(--c1);animation-name:ce}@keyframes cf{3.67%{fill:var(--c1)}3.69%,100%{fill:var(--ce)}}.c.cf{fill:var(--c1);animation-name:cf}@keyframes cg{4%{fill:var(--c1)}4.02%,100%{fill:var(--ce)}}.c.cg{fill:var(--c1);animation-name:cg}@keyframes ch{4.34%{fill:var(--c1)}4.36%,100%{fill:var(--ce)}}.c.ch{fill:var(--c1);animation-name:ch}@keyframes ci{4.67%{fill:var(--c1)}4.69%,100%{fill:var(--ce)}}.c.ci{fill:var(--c1);animation-name:ci}@keyframes cj{5.01%{fill:var(--c1)}5.03%,100%{fill:var(--ce)}}.c.cj{fill:var(--c1);animation-name:cj}@keyframes ck{5.34%{fill:var(--c1)}5.36%,100%{fill:var(--ce)}}.c.ck{fill:var(--c1);animation-name:ck}@keyframes cl{5.68%{fill:var(--c1)}5.7%,100%{fill:var(--ce)}}.c.cl{fill:var(--c1);animation-name:cl}@keyframes cm{6.01%{fill:var(--c1)}6.03%,100%{fill:var(--ce)}}.c.cm{fill:var(--c1);animation-name:cm}@keyframes cn{6.34%{fill:var(--c1)}6.36%,100%{fill:var(--ce)}}.c.cn{fill:var(--c1);animation-name:cn}@keyframes co{6.68%{fill:var(--c1)}6.7%,100%{fill:var(--ce)}}.c.co{fill:var(--c1);animation-name:co}@keyframes cp{7.01%{fill:var(--c1)}7.03%,100%{fill:var(--ce)}}.c.cp{fill:var(--c1);animation-name:cp}@keyframes cq{7.35%{fill:var(--c1)}7.37%,100%{fill:var(--ce)}}.c.cq{fill:var(--c1);animation-name:cq}@keyframes cr{7.68%{fill:var(--c1)}7.7%,100%{fill:var(--ce)}}.c.cr{fill:var(--c1);animation-name:cr}@keyframes cs{8.02%{fill:var(--c1)}8.04%,100%{fill:var(--ce)}}.c.cs{fill:var(--c1);animation-name:cs}@keyframes ct{8.35%{fill:var(--c1)}8.37%,100%{fill:var(--ce)}}.c.ct{fill:var(--c1);animation-name:ct}@keyframes cu{8.69%{fill:var(--c1)}8.71%,100%{fill:var(--ce)}}.c.cu{fill:var(--c1);animation-name:cu}@keyframes cv{9.02%{fill:var(--c1)}9.04%,100%{fill:var(--ce)}}.c.cv{fill:var(--c1);animation-name:cv}@keyframes cw{9.35%{fill:var(--c1)}9.37%,100%{fill:var(--ce)}}.c.cw{fill:var(--c1);animation-name:cw}@keyframes cx{9.69%{fill:var(--c1)}9.71%,100%{fill:var(--ce)}}.c.cx{fill:var(--c1);animation-name:cx}@keyframes cy{10.02%{fill:var(--c1)}10.04%,100%{fill:var(--ce)}}.c.cy{fill:var(--c1);animation-name:cy}@keyframes cz{10.36%{fill:var(--c1)}10.38%,100%{fill:var(--ce)}}.c.cz{fill:var(--c1);animation-name:cz}@keyframes c10{10.69%{fill:var(--c1)}10.71%,100%{fill:var(--ce)}}.c.c10{fill:var(--c1);animation-name:c10}@keyframes c11{11.03%{fill:var(--c1)}11.05%,100%{fill:var(--ce)}}.c.c11{fill:var(--c1);animation-name:c11}@keyframes c12{88.95%{fill:var(--c4)}88.97%,100%{fill:var(--ce)}}.c.c12{fill:var(--c4);animation-name:c12}@keyframes c13{12.36%{fill:var(--c1)}12.38%,100%{fill:var(--ce)}}.c.c13{fill:var(--c1);animation-name:c13}@keyframes c14{66.88%{fill:var(--c3)}66.9%,100%{fill:var(--ce)}}.c.c14{fill:var(--c3);animation-name:c14}@keyframes c15{53.17%{fill:var(--c2)}53.19%,100%{fill:var(--ce)}}.c.c15{fill:var(--c2);animation-name:c15}@keyframes c16{12.7%{fill:var(--c1)}12.72%,100%{fill:var(--ce)}}.c.c16{fill:var(--c1);animation-name:c16}@keyframes c17{13.03%{fill:var(--c1)}13.05%,100%{fill:var(--ce)}}.c.c17{fill:var(--c1);animation-name:c17}@keyframes c18{13.37%{fill:var(--c1)}13.39%,100%{fill:var(--ce)}}.c.c18{fill:var(--c1);animation-name:c18}@keyframes c19{26.75%{fill:var(--c1)}26.77%,100%{fill:var(--ce)}}.c.c19{fill:var(--c1);animation-name:c19}@keyframes c1a{13.7%{fill:var(--c1)}13.72%,100%{fill:var(--ce)}}.c.c1a{fill:var(--c1);animation-name:c1a}@keyframes c1b{25.41%{fill:var(--c1)}25.43%,100%{fill:var(--ce)}}.c.c1b{fill:var(--c1);animation-name:c1b}@keyframes c1c{14.04%{fill:var(--c1)}14.06%,100%{fill:var(--ce)}}.c.c1c{fill:var(--c1);animation-name:c1c}@keyframes c1d{14.37%{fill:var(--c1)}14.39%,100%{fill:var(--ce)}}.c.c1d{fill:var(--c1);animation-name:c1d}@keyframes c1e{14.71%{fill:var(--c1)}14.73%,100%{fill:var(--ce)}}.c.c1e{fill:var(--c1);animation-name:c1e}@keyframes c1f{15.04%{fill:var(--c1)}15.06%,100%{fill:var(--ce)}}.c.c1f{fill:var(--c1);animation-name:c1f}@keyframes c1g{15.37%{fill:var(--c1)}15.39%,100%{fill:var(--ce)}}.c.c1g{fill:var(--c1);animation-name:c1g}@keyframes c1h{15.71%{fill:var(--c1)}15.73%,100%{fill:var(--ce)}}.c.c1h{fill:var(--c1);animation-name:c1h}@keyframes c1i{16.04%{fill:var(--c1)}16.06%,100%{fill:var(--ce)}}.c.c1i{fill:var(--c1);animation-name:c1i}@keyframes c1j{16.38%{fill:var(--c1)}16.4%,100%{fill:var(--ce)}}.c.c1j{fill:var(--c1);animation-name:c1j}@keyframes c1k{16.71%{fill:var(--c1)}16.73%,100%{fill:var(--ce)}}.c.c1k{fill:var(--c1);animation-name:c1k}@keyframes c1l{17.05%{fill:var(--c1)}17.07%,100%{fill:var(--ce)}}.c.c1l{fill:var(--c1);animation-name:c1l}@keyframes c1m{17.38%{fill:var(--c1)}17.4%,100%{fill:var(--ce)}}.c.c1m{fill:var(--c1);animation-name:c1m}@keyframes c1n{17.72%{fill:var(--c1)}17.74%,100%{fill:var(--ce)}}.c.c1n{fill:var(--c1);animation-name:c1n}@keyframes c1o{18.05%{fill:var(--c1)}18.07%,100%{fill:var(--ce)}}.c.c1o{fill:var(--c1);animation-name:c1o}@keyframes c1p{20.73%{fill:var(--c1)}20.75%,100%{fill:var(--ce)}}.c.c1p{fill:var(--c1);animation-name:c1p}@keyframes c1q{59.86%{fill:var(--c2)}59.88%,100%{fill:var(--ce)}}.c.c1q{fill:var(--c2);animation-name:c1q}@keyframes c1r{18.38%{fill:var(--c1)}18.4%,100%{fill:var(--ce)}}.c.c1r{fill:var(--c1);animation-name:c1r}@keyframes c1s{18.72%{fill:var(--c1)}18.74%,100%{fill:var(--ce)}}.c.c1s{fill:var(--c1);animation-name:c1s}@keyframes c1t{19.72%{fill:var(--c1)}19.74%,100%{fill:var(--ce)}}.c.c1t{fill:var(--c1);animation-name:c1t}.u{transform-origin:0 0;transform:scale(0,1);animation:none linear 29900ms infinite}@keyframes u0{1.66%{transform:scale(0.000,1)}1.68%,2%{transform:scale(0.018,1)}2.02%,2.33%{transform:scale(0.035,1)}2.35%,2.67%{transform:scale(0.053,1)}2.69%,3%{transform:scale(0.070,1)}3.02%,3.33%{transform:scale(0.088,1)}3.35%,3.67%{transform:scale(0.105,1)}3.69%,4%{transform:scale(0.123,1)}4.02%,4.34%{transform:scale(0.140,1)}4.36%,4.67%{transform:scale(0.158,1)}4.69%,5.01%{transform:scale(0.175,1)}5.03%,5.34%{transform:scale(0.193,1)}5.36%,5.68%{transform:scale(0.211,1)}5.7%,6.01%{transform:scale(0.228,1)}6.03%,6.34%{transform:scale(0.246,1)}6.36%,6.68%{transform:scale(0.263,1)}6.7%,7.01%{transform:scale(0.281,1)}7.03%,7.35%{transform:scale(0.298,1)}7.37%,7.68%{transform:scale(0.316,1)}7.7%,8.02%{transform:scale(0.333,1)}8.04%,8.35%{transform:scale(0.351,1)}8.37%,8.69%{transform:scale(0.368,1)}8.71%,9.02%{transform:scale(0.386,1)}9.04%,9.35%{transform:scale(0.404,1)}9.37%,9.69%{transform:scale(0.421,1)}9.71%,10.02%{transform:scale(0.439,1)}10.04%,10.36%{transform:scale(0.456,1)}10.38%,10.69%{transform:scale(0.474,1)}10.71%,11.03%{transform:scale(0.491,1)}11.05%,12.36%{transform:scale(0.509,1)}12.38%,12.7%{transform:scale(0.526,1)}12.72%,13.03%{transform:scale(0.544,1)}13.05%,13.37%{transform:scale(0.561,1)}13.39%,13.7%{transform:scale(0.579,1)}13.72%,14.04%{transform:scale(0.596,1)}14.06%,14.37%{transform:scale(0.614,1)}14.39%,14.71%{transform:scale(0.632,1)}14.73%,15.04%{transform:scale(0.649,1)}15.06%,15.37%{transform:scale(0.667,1)}15.39%,15.71%{transform:scale(0.684,1)}15.73%,16.04%{transform:scale(0.702,1)}16.06%,16.38%{transform:scale(0.719,1)}16.4%,16.71%{transform:scale(0.737,1)}16.73%,17.05%{transform:scale(0.754,1)}17.07%,17.38%{transform:scale(0.772,1)}17.4%,17.72%{transform:scale(0.789,1)}17.74%,18.05%{transform:scale(0.807,1)}18.07%,18.38%{transform:scale(0.825,1)}18.4%,18.72%{transform:scale(0.842,1)}18.74%,19.72%{transform:scale(0.860,1)}19.74%,20.73%{transform:scale(0.877,1)}20.75%,25.41%{transform:scale(0.895,1)}25.43%,26.75%{transform:scale(0.912,1)}26.77%,37.11%{transform:scale(0.930,1)}37.13%,37.78%{transform:scale(0.947,1)}37.8%,38.45%{transform:scale(0.965,1)}38.47%,39.79%{transform:scale(0.982,1)}39.81%,100%{transform:scale(1.000,1)}}.u.u0{fill:var(--c1);animation-name:u0;transform-origin:0.0px 0}@keyframes u1{40.79%{transform:scale(0.000,1)}40.81%,41.8%{transform:scale(0.250,1)}41.82%,53.17%{transform:scale(0.500,1)}53.19%,59.86%{transform:scale(0.750,1)}59.88%,100%{transform:scale(1.000,1)}}.u.u1{fill:var(--c2);animation-name:u1;transform-origin:732.4px 0}@keyframes u2{66.88%{transform:scale(0.000,1)}66.9%,77.25%{transform:scale(0.500,1)}77.27%,100%{transform:scale(1.000,1)}}.u.u2{fill:var(--c3);animation-name:u2;transform-origin:783.8px 0}@keyframes u3{77.58%{transform:scale(0.000,1)}77.6%,77.92%{transform:scale(0.333,1)}77.94%,88.95%{transform:scale(0.667,1)}88.97%,100%{transform:scale(1.000,1)}}.u.u3{fill:var(--c4);animation-name:u3;transform-origin:809.5px 0}.s{shape-rendering:geometricPrecision;fill:var(--cs);animation:none linear 29900ms infinite}@keyframes s0{0%,78.26%,99.67%{transform:translate(0px,-16px)}0.33%{transform:translate(0px,-32px)}1%{transform:translate(32px,-32px)}1.67%{transform:translate(32px,0px)}11.04%{transform:translate(480px,0px)}11.37%{transform:translate(480px,-16px)}12.04%{transform:translate(512px,-16px)}12.37%{transform:translate(512px,0px)}18.73%{transform:translate(816px,0px)}19.73%{transform:translate(816px,48px)}20.07%{transform:translate(800px,48px)}20.4%{transform:translate(800px,32px)}25.08%{transform:translate(576px,32px)}25.42%{transform:translate(576px,48px)}25.75%{transform:translate(560px,48px)}26.76%{transform:translate(560px,96px)}27.09%{transform:translate(544px,96px)}27.42%{transform:translate(544px,80px)}37.12%{transform:translate(80px,80px)}37.46%{transform:translate(80px,64px)}37.79%{transform:translate(64px,64px)}38.13%{transform:translate(64px,48px)}38.8%{transform:translate(32px,48px)}39.8%{transform:translate(32px,96px)}40.13%{transform:translate(48px,96px)}40.8%{transform:translate(48px,64px)}41.81%{transform:translate(0px,64px)}42.14%{transform:translate(0px,48px)}52.84%{transform:translate(512px,48px)}53.18%{transform:translate(512px,32px)}58.86%{transform:translate(784px,32px)}59.87%{transform:translate(784px,80px)}60.2%{transform:translate(768px,80px)}61.54%{transform:translate(768px,16px)}77.26%{transform:translate(16px,16px)}77.59%{transform:translate(16px,0px)}77.93%{transform:translate(0px,0px)}88.63%{transform:translate(496px,-16px)}88.96%{transform:translate(496px,0px)}95.99%{transform:translate(160px,0px)}96.32%{transform:translate(160px,-16px)}}.s.s0{transform:translate(0px,-16px);animation-name:s0}@keyframes s1{0%,99.67%{transform:translate(16px,-16px)}0.33%,78.6%{transform:translate(0px,-16px)}0.67%{transform:translate(0px,-32px)}1.34%{transform:translate(32px,-32px)}2.01%{transform:translate(32px,0px)}11.37%{transform:translate(480px,0px)}11.71%{transform:translate(480px,-16px)}12.37%{transform:translate(512px,-16px)}12.71%{transform:translate(512px,0px)}19.06%{transform:translate(816px,0px)}20.07%{transform:translate(816px,48px)}20.4%{transform:translate(800px,48px)}20.74%{transform:translate(800px,32px)}25.42%{transform:translate(576px,32px)}25.75%{transform:translate(576px,48px)}26.09%{transform:translate(560px,48px)}27.09%{transform:translate(560px,96px)}27.42%{transform:translate(544px,96px)}27.76%{transform:translate(544px,80px)}37.46%{transform:translate(80px,80px)}37.79%{transform:translate(80px,64px)}38.13%{transform:translate(64px,64px)}38.46%{transform:translate(64px,48px)}39.13%{transform:translate(32px,48px)}40.13%{transform:translate(32px,96px)}40.47%{transform:translate(48px,96px)}41.14%{transform:translate(48px,64px)}42.14%{transform:translate(0px,64px)}42.47%{transform:translate(0px,48px)}53.18%{transform:translate(512px,48px)}53.51%{transform:translate(512px,32px)}59.2%{transform:translate(784px,32px)}60.2%{transform:translate(784px,80px)}60.54%{transform:translate(768px,80px)}61.87%{transform:translate(768px,16px)}77.59%{transform:translate(16px,16px)}77.93%{transform:translate(16px,0px)}78.26%{transform:translate(0px,0px)}88.96%{transform:translate(496px,-16px)}89.3%{transform:translate(496px,0px)}96.32%{transform:translate(160px,0px)}96.66%{transform:translate(160px,-16px)}}.s.s1{transform:translate(16px,-16px);animation-name:s1}@keyframes s2{0%,99.67%{transform:translate(32px,-16px)}0.67%,78.93%{transform:translate(0px,-16px)}1%{transform:translate(0px,-32px)}1.67%{transform:translate(32px,-32px)}2.34%{transform:translate(32px,0px)}11.71%{transform:translate(480px,0px)}12.04%{transform:translate(480px,-16px)}12.71%{transform:translate(512px,-16px)}13.04%{transform:translate(512px,0px)}19.4%{transform:translate(816px,0px)}20.4%{transform:translate(816px,48px)}20.74%{transform:translate(800px,48px)}21.07%{transform:translate(800px,32px)}25.75%{transform:translate(576px,32px)}26.09%{transform:translate(576px,48px)}26.42%{transform:translate(560px,48px)}27.42%{transform:translate(560px,96px)}27.76%{transform:translate(544px,96px)}28.09%{transform:translate(544px,80px)}37.79%{transform:translate(80px,80px)}38.13%{transform:translate(80px,64px)}38.46%{transform:translate(64px,64px)}38.8%{transform:translate(64px,48px)}39.46%{transform:translate(32px,48px)}40.47%{transform:translate(32px,96px)}40.8%{transform:translate(48px,96px)}41.47%{transform:translate(48px,64px)}42.47%{transform:translate(0px,64px)}42.81%{transform:translate(0px,48px)}53.51%{transform:translate(512px,48px)}53.85%{transform:translate(512px,32px)}59.53%{transform:translate(784px,32px)}60.54%{transform:translate(784px,80px)}60.87%{transform:translate(768px,80px)}62.21%{transform:translate(768px,16px)}77.93%{transform:translate(16px,16px)}78.26%{transform:translate(16px,0px)}78.6%{transform:translate(0px,0px)}89.3%{transform:translate(496px,-16px)}89.63%{transform:translate(496px,0px)}96.66%{transform:translate(160px,0px)}96.99%{transform:translate(160px,-16px)}}.s.s2{transform:translate(32px,-16px);animation-name:s2}@keyframes s3{0%,99.67%{transform:translate(48px,-16px)}1%,79.26%{transform:translate(0px,-16px)}1.34%{transform:translate(0px,-32px)}2.01%{transform:translate(32px,-32px)}2.68%{transform:translate(32px,0px)}12.04%{transform:translate(480px,0px)}12.37%{transform:translate(480px,-16px)}13.04%{transform:translate(512px,-16px)}13.38%{transform:translate(512px,0px)}19.73%{transform:translate(816px,0px)}20.74%{transform:translate(816px,48px)}21.07%{transform:translate(800px,48px)}21.4%{transform:translate(800px,32px)}26.09%{transform:translate(576px,32px)}26.42%{transform:translate(576px,48px)}26.76%{transform:translate(560px,48px)}27.76%{transform:translate(560px,96px)}28.09%{transform:translate(544px,96px)}28.43%{transform:translate(544px,80px)}38.13%{transform:translate(80px,80px)}38.46%{transform:translate(80px,64px)}38.8%{transform:translate(64px,64px)}39.13%{transform:translate(64px,48px)}39.8%{transform:translate(32px,48px)}40.8%{transform:translate(32px,96px)}41.14%{transform:translate(48px,96px)}41.81%{transform:translate(48px,64px)}42.81%{transform:translate(0px,64px)}43.14%{transform:translate(0px,48px)}53.85%{transform:translate(512px,48px)}54.18%{transform:translate(512px,32px)}59.87%{transform:translate(784px,32px)}60.87%{transform:translate(784px,80px)}61.2%{transform:translate(768px,80px)}62.54%{transform:translate(768px,16px)}78.26%{transform:translate(16px,16px)}78.6%{transform:translate(16px,0px)}78.93%{transform:translate(0px,0px)}89.63%{transform:translate(496px,-16px)}89.97%{transform:translate(496px,0px)}96.99%{transform:translate(160px,0px)}97.32%{transform:translate(160px,-16px)}}.s.s3{transform:translate(48px,-16px);animation-name:s3}</style><rect class="c c0" x="2" y="2" rx="2" ry="2"/><rect class="c" x="2" y="18" rx="2" ry="2"/><rect class="c" x="2" y="34" rx="2" ry="2"/><rect class="c" x="2" y="50" rx="2" ry="2"/><rect class="c c1" x="2" y="66" rx="2" ry="2"/><rect class="c" x="2" y="82" rx="2" ry="2"/><rect class="c" x="2" y="98" rx="2" ry="2"/><rect class="c c2" x="18" y="2" rx="2" ry="2"/><rect class="c c3" x="18" y="18" rx="2" ry="2"/><rect class="c" x="18" y="34" rx="2" ry="2"/><rect class="c" x="18" y="50" rx="2" ry="2"/><rect class="c" x="18" y="66" rx="2" ry="2"/><rect class="c" x="18" y="82" rx="2" ry="2"/><rect class="c" x="18" y="98" rx="2" ry="2"/><rect class="c c4" x="34" y="2" rx="2" ry="2"/><rect class="c" x="34" y="18" rx="2" ry="2"/><rect class="c" x="34" y="34" rx="2" ry="2"/><rect class="c" x="34" y="50" rx="2" ry="2"/><rect class="c" x="34" y="66" rx="2" ry="2"/><rect class="c" x="34" y="82" rx="2" ry="2"/><rect class="c c5" x="34" y="98" rx="2" ry="2"/><rect class="c c6" x="50" y="2" rx="2" ry="2"/><rect class="c" x="50" y="18" rx="2" ry="2"/><rect class="c" x="50" y="34" rx="2" ry="2"/><rect class="c c7" x="50" y="50" rx="2" ry="2"/><rect class="c c8" x="50" y="66" rx="2" ry="2"/><rect class="c" x="50" y="82" rx="2" ry="2"/><rect class="c" x="50" y="98" rx="2" ry="2"/><rect class="c c9" x="66" y="2" rx="2" ry="2"/><rect class="c" x="66" y="18" rx="2" ry="2"/><rect class="c" x="66" y="34" rx="2" ry="2"/><rect class="c" x="66" y="50" rx="2" ry="2"/><rect class="c ca" x="66" y="66" rx="2" ry="2"/><rect class="c" x="66" y="82" rx="2" ry="2"/><rect class="c" x="66" y="98" rx="2" ry="2"/><rect class="c cb" x="82" y="2" rx="2" ry="2"/><rect class="c" x="82" y="18" rx="2" ry="2"/><rect class="c" x="82" y="34" rx="2" ry="2"/><rect class="c" x="82" y="50" rx="2" ry="2"/><rect class="c" x="82" y="66" rx="2" ry="2"/><rect class="c cc" x="82" y="82" rx="2" ry="2"/><rect class="c" x="82" y="98" rx="2" ry="2"/><rect class="c cd" x="98" y="2" rx="2" ry="2"/><rect class="c" x="98" y="18" rx="2" ry="2"/><rect class="c" x="98" y="34" rx="2" ry="2"/><rect class="c" x="98" y="50" rx="2" ry="2"/><rect class="c" x="98" y="66" rx="2" ry="2"/><rect class="c" x="98" y="82" rx="2" ry="2"/><rect class="c" x="98" y="98" rx="2" ry="2"/><rect class="c ce" x="114" y="2" rx="2" ry="2"/><rect class="c" x="114" y="18" rx="2" ry="2"/><rect class="c" x="114" y="34" rx="2" ry="2"/><rect class="c" x="114" y="50" rx="2" ry="2"/><rect class="c" x="114" y="66" rx="2" ry="2"/><rect class="c" x="114" y="82" rx="2" ry="2"/><rect class="c" x="114" y="98" rx="2" ry="2"/><rect class="c cf" x="130" y="2" rx="2" ry="2"/><rect class="c" x="130" y="18" rx="2" ry="2"/><rect class="c" x="130" y="34" rx="2" ry="2"/><rect class="c" x="130" y="50" rx="2" ry="2"/><rect class="c" x="130" y="66" rx="2" ry="2"/><rect class="c" x="130" y="82" rx="2" ry="2"/><rect class="c" x="130" y="98" rx="2" ry="2"/><rect class="c cg" x="146" y="2" rx="2" ry="2"/><rect class="c" x="146" y="18" rx="2" ry="2"/><rect class="c" x="146" y="34" rx="2" ry="2"/><rect class="c" x="146" y="50" rx="2" ry="2"/><rect class="c" x="146" y="66" rx="2" ry="2"/><rect class="c" x="146" y="82" rx="2" ry="2"/><rect class="c" x="146" y="98" rx="2" ry="2"/><rect class="c ch" x="162" y="2" rx="2" ry="2"/><rect class="c" x="162" y="18" rx="2" ry="2"/><rect class="c" x="162" y="34" rx="2" ry="2"/><rect class="c" x="162" y="50" rx="2" ry="2"/><rect class="c" x="162" y="66" rx="2" ry="2"/><rect class="c" x="162" y="82" rx="2" ry="2"/><rect class="c" x="162" y="98" rx="2" ry="2"/><rect class="c ci" x="178" y="2" rx="2" ry="2"/><rect class="c" x="178" y="18" rx="2" ry="2"/><rect class="c" x="178" y="34" rx="2" ry="2"/><rect class="c" x="178" y="50" rx="2" ry="2"/><rect class="c" x="178" y="66" rx="2" ry="2"/><rect class="c" x="178" y="82" rx="2" ry="2"/><rect class="c" x="178" y="98" rx="2" ry="2"/><rect class="c cj" x="194" y="2" rx="2" ry="2"/><rect class="c" x="194" y="18" rx="2" ry="2"/><rect class="c" x="194" y="34" rx="2" ry="2"/><rect class="c" x="194" y="50" rx="2" ry="2"/><rect class="c" x="194" y="66" rx="2" ry="2"/><rect class="c" x="194" y="82" rx="2" ry="2"/><rect class="c" x="194" y="98" rx="2" ry="2"/><rect class="c ck" x="210" y="2" rx="2" ry="2"/><rect class="c" x="210" y="18" rx="2" ry="2"/><rect class="c" x="210" y="34" rx="2" ry="2"/><rect class="c" x="210" y="50" rx="2" ry="2"/><rect class="c" x="210" y="66" rx="2" ry="2"/><rect class="c" x="210" y="82" rx="2" ry="2"/><rect class="c" x="210" y="98" rx="2" ry="2"/><rect class="c cl" x="226" y="2" rx="2" ry="2"/><rect class="c" x="226" y="18" rx="2" ry="2"/><rect class="c" x="226" y="34" rx="2" ry="2"/><rect class="c" x="226" y="50" rx="2" ry="2"/><rect class="c" x="226" y="66" rx="2" ry="2"/><rect class="c" x="226" y="82" rx="2" ry="2"/><rect class="c" x="226" y="98" rx="2" ry="2"/><rect class="c cm" x="242" y="2" rx="2" ry="2"/><rect class="c" x="242" y="18" rx="2" ry="2"/><rect class="c" x="242" y="34" rx="2" ry="2"/><rect class="c" x="242" y="50" rx="2" ry="2"/><rect class="c" x="242" y="66" rx="2" ry="2"/><rect class="c" x="242" y="82" rx="2" ry="2"/><rect class="c" x="242" y="98" rx="2" ry="2"/><rect class="c cn" x="258" y="2" rx="2" ry="2"/><rect class="c" x="258" y="18" rx="2" ry="2"/><rect class="c" x="258" y="34" rx="2" ry="2"/><rect class="c" x="258" y="50" rx="2" ry="2"/><rect class="c" x="258" y="66" rx="2" ry="2"/><rect class="c" x="258" y="82" rx="2" ry="2"/><rect class="c" x="258" y="98" rx="2" ry="2"/><rect class="c co" x="274" y="2" rx="2" ry="2"/><rect class="c" x="274" y="18" rx="2" ry="2"/><rect class="c" x="274" y="34" rx="2" ry="2"/><rect class="c" x="274" y="50" rx="2" ry="2"/><rect class="c" x="274" y="66" rx="2" ry="2"/><rect class="c" x="274" y="82" rx="2" ry="2"/><rect class="c" x="274" y="98" rx="2" ry="2"/><rect class="c cp" x="290" y="2" rx="2" ry="2"/><rect class="c" x="290" y="18" rx="2" ry="2"/><rect class="c" x="290" y="34" rx="2" ry="2"/><rect class="c" x="290" y="50" rx="2" ry="2"/><rect class="c" x="290" y="66" rx="2" ry="2"/><rect class="c" x="290" y="82" rx="2" ry="2"/><rect class="c" x="290" y="98" rx="2" ry="2"/><rect class="c cq" x="306" y="2" rx="2" ry="2"/><rect class="c" x="306" y="18" rx="2" ry="2"/><rect class="c" x="306" y="34" rx="2" ry="2"/><rect class="c" x="306" y="50" rx="2" ry="2"/><rect class="c" x="306" y="66" rx="2" ry="2"/><rect class="c" x="306" y="82" rx="2" ry="2"/><rect class="c" x="306" y="98" rx="2" ry="2"/><rect class="c cr" x="322" y="2" rx="2" ry="2"/><rect class="c" x="322" y="18" rx="2" ry="2"/><rect class="c" x="322" y="34" rx="2" ry="2"/><rect class="c" x="322" y="50" rx="2" ry="2"/><rect class="c" x="322" y="66" rx="2" ry="2"/><rect class="c" x="322" y="82" rx="2" ry="2"/><rect class="c" x="322" y="98" rx="2" ry="2"/><rect class="c cs" x="338" y="2" rx="2" ry="2"/><rect class="c" x="338" y="18" rx="2" ry="2"/><rect class="c" x="338" y="34" rx="2" ry="2"/><rect class="c" x="338" y="50" rx="2" ry="2"/><rect class="c" x="338" y="66" rx="2" ry="2"/><rect class="c" x="338" y="82" rx="2" ry="2"/><rect class="c" x="338" y="98" rx="2" ry="2"/><rect class="c ct" x="354" y="2" rx="2" ry="2"/><rect class="c" x="354" y="18" rx="2" ry="2"/><rect class="c" x="354" y="34" rx="2" ry="2"/><rect class="c" x="354" y="50" rx="2" ry="2"/><rect class="c" x="354" y="66" rx="2" ry="2"/><rect class="c" x="354" y="82" rx="2" ry="2"/><rect class="c" x="354" y="98" rx="2" ry="2"/><rect class="c cu" x="370" y="2" rx="2" ry="2"/><rect class="c" x="370" y="18" rx="2" ry="2"/><rect class="c" x="370" y="34" rx="2" ry="2"/><rect class="c" x="370" y="50" rx="2" ry="2"/><rect class="c" x="370" y="66" rx="2" ry="2"/><rect class="c" x="370" y="82" rx="2" ry="2"/><rect class="c" x="370" y="98" rx="2" ry="2"/><rect class="c cv" x="386" y="2" rx="2" ry="2"/><rect class="c" x="386" y="18" rx="2" ry="2"/><rect class="c" x="386" y="34" rx="2" ry="2"/><rect class="c" x="386" y="50" rx="2" ry="2"/><rect class="c" x="386" y="66" rx="2" ry="2"/><rect class="c" x="386" y="82" rx="2" ry="2"/><rect class="c" x="386" y="98" rx="2" ry="2"/><rect class="c cw" x="402" y="2" rx="2" ry="2"/><rect class="c" x="402" y="18" rx="2" ry="2"/><rect class="c" x="402" y="34" rx="2" ry="2"/><rect class="c" x="402" y="50" rx="2" ry="2"/><rect class="c" x="402" y="66" rx="2" ry="2"/><rect class="c" x="402" y="82" rx="2" ry="2"/><rect class="c" x="402" y="98" rx="2" ry="2"/><rect class="c cx" x="418" y="2" rx="2" ry="2"/><rect class="c" x="418" y="18" rx="2" ry="2"/><rect class="c" x="418" y="34" rx="2" ry="2"/><rect class="c" x="418" y="50" rx="2" ry="2"/><rect class="c" x="418" y="66" rx="2" ry="2"/><rect class="c" x="418" y="82" rx="2" ry="2"/><rect class="c" x="418" y="98" rx="2" ry="2"/><rect class="c cy" x="434" y="2" rx="2" ry="2"/><rect class="c" x="434" y="18" rx="2" ry="2"/><rect class="c" x="434" y="34" rx="2" ry="2"/><rect class="c" x="434" y="50" rx="2" ry="2"/><rect class="c" x="434" y="66" rx="2" ry="2"/><rect class="c" x="434" y="82" rx="2" ry="2"/><rect class="c" x="434" y="98" rx="2" ry="2"/><rect class="c cz" x="450" y="2" rx="2" ry="2"/><rect class="c" x="450" y="18" rx="2" ry="2"/><rect class="c" x="450" y="34" rx="2" ry="2"/><rect class="c" x="450" y="50" rx="2" ry="2"/><rect class="c" x="450" y="66" rx="2" ry="2"/><rect class="c" x="450" y="82" rx="2" ry="2"/><rect class="c" x="450" y="98" rx="2" ry="2"/><rect class="c c10" x="466" y="2" rx="2" ry="2"/><rect class="c" x="466" y="18" rx="2" ry="2"/><rect class="c" x="466" y="34" rx="2" ry="2"/><rect class="c" x="466" y="50" rx="2" ry="2"/><rect class="c" x="466" y="66" rx="2" ry="2"/><rect class="c" x="466" y="82" rx="2" ry="2"/><rect class="c" x="466" y="98" rx="2" ry="2"/><rect class="c c11" x="482" y="2" rx="2" ry="2"/><rect class="c" x="482" y="18" rx="2" ry="2"/><rect class="c" x="482" y="34" rx="2" ry="2"/><rect class="c" x="482" y="50" rx="2" ry="2"/><rect class="c" x="482" y="66" rx="2" ry="2"/><rect class="c" x="482" y="82" rx="2" ry="2"/><rect class="c" x="482" y="98" rx="2" ry="2"/><rect class="c c12" x="498" y="2" rx="2" ry="2"/><rect class="c" x="498" y="18" rx="2" ry="2"/><rect class="c" x="498" y="34" rx="2" ry="2"/><rect class="c" x="498" y="50" rx="2" ry="2"/><rect class="c" x="498" y="66" rx="2" ry="2"/><rect class="c" x="498" y="82" rx="2" ry="2"/><rect class="c" x="498" y="98" rx="2" ry="2"/><rect class="c c13" x="514" y="2" rx="2" ry="2"/><rect class="c c14" x="514" y="18" rx="2" ry="2"/><rect class="c c15" x="514" y="34" rx="2" ry="2"/><rect class="c" x="514" y="50" rx="2" ry="2"/><rect class="c" x="514" y="66" rx="2" ry="2"/><rect class="c" x="514" y="82" rx="2" ry="2"/><rect class="c" x="514" y="98" rx="2" ry="2"/><rect class="c c16" x="530" y="2" rx="2" ry="2"/><rect class="c" x="530" y="18" rx="2" ry="2"/><rect class="c" x="530" y="34" rx="2" ry="2"/><rect class="c" x="530" y="50" rx="2" ry="2"/><rect class="c" x="530" y="66" rx="2" ry="2"/><rect class="c" x="530" y="82" rx="2" ry="2"/><rect class="c" x="530" y="98" rx="2" ry="2"/><rect class="c c17" x="546" y="2" rx="2" ry="2"/><rect class="c" x="546" y="18" rx="2" ry="2"/><rect class="c" x="546" y="34" rx="2" ry="2"/><rect class="c" x="546" y="50" rx="2" ry="2"/><rect class="c" x="546" y="66" rx="2" ry="2"/><rect class="c" x="546" y="82" rx="2" ry="2"/><rect class="c" x="546" y="98" rx="2" ry="2"/><rect class="c c18" x="562" y="2" rx="2" ry="2"/><rect class="c" x="562" y="18" rx="2" ry="2"/><rect class="c" x="562" y="34" rx="2" ry="2"/><rect class="c" x="562" y="50" rx="2" ry="2"/><rect class="c" x="562" y="66" rx="2" ry="2"/><rect class="c" x="562" y="82" rx="2" ry="2"/><rect class="c c19" x="562" y="98" rx="2" ry="2"/><rect class="c c1a" x="578" y="2" rx="2" ry="2"/><rect class="c" x="578" y="18" rx="2" ry="2"/><rect class="c" x="578" y="34" rx="2" ry="2"/><rect class="c c1b" x="578" y="50" rx="2" ry="2"/><rect class="c" x="578" y="66" rx="2" ry="2"/><rect class="c" x="578" y="82" rx="2" ry="2"/><rect class="c" x="578" y="98" rx="2" ry="2"/><rect class="c c1c" x="594" y="2" rx="2" ry="2"/><rect class="c" x="594" y="18" rx="2" ry="2"/><rect class="c" x="594" y="34" rx="2" ry="2"/><rect class="c" x="594" y="50" rx="2" ry="2"/><rect class="c" x="594" y="66" rx="2" ry="2"/><rect class="c" x="594" y="82" rx="2" ry="2"/><rect class="c" x="594" y="98" rx="2" ry="2"/><rect class="c c1d" x="610" y="2" rx="2" ry="2"/><rect class="c" x="610" y="18" rx="2" ry="2"/><rect class="c" x="610" y="34" rx="2" ry="2"/><rect class="c" x="610" y="50" rx="2" ry="2"/><rect class="c" x="610" y="66" rx="2" ry="2"/><rect class="c" x="610" y="82" rx="2" ry="2"/><rect class="c" x="610" y="98" rx="2" ry="2"/><rect class="c c1e" x="626" y="2" rx="2" ry="2"/><rect class="c" x="626" y="18" rx="2" ry="2"/><rect class="c" x="626" y="34" rx="2" ry="2"/><rect class="c" x="626" y="50" rx="2" ry="2"/><rect class="c" x="626" y="66" rx="2" ry="2"/><rect class="c" x="626" y="82" rx="2" ry="2"/><rect class="c" x="626" y="98" rx="2" ry="2"/><rect class="c c1f" x="642" y="2" rx="2" ry="2"/><rect class="c" x="642" y="18" rx="2" ry="2"/><rect class="c" x="642" y="34" rx="2" ry="2"/><rect class="c" x="642" y="50" rx="2" ry="2"/><rect class="c" x="642" y="66" rx="2" ry="2"/><rect class="c" x="642" y="82" rx="2" ry="2"/><rect class="c" x="642" y="98" rx="2" ry="2"/><rect class="c c1g" x="658" y="2" rx="2" ry="2"/><rect class="c" x="658" y="18" rx="2" ry="2"/><rect class="c" x="658" y="34" rx="2" ry="2"/><rect class="c" x="658" y="50" rx="2" ry="2"/><rect class="c" x="658" y="66" rx="2" ry="2"/><rect class="c" x="658" y="82" rx="2" ry="2"/><rect class="c" x="658" y="98" rx="2" ry="2"/><rect class="c c1h" x="674" y="2" rx="2" ry="2"/><rect class="c" x="674" y="18" rx="2" ry="2"/><rect class="c" x="674" y="34" rx="2" ry="2"/><rect class="c" x="674" y="50" rx="2" ry="2"/><rect class="c" x="674" y="66" rx="2" ry="2"/><rect class="c" x="674" y="82" rx="2" ry="2"/><rect class="c" x="674" y="98" rx="2" ry="2"/><rect class="c c1i" x="690" y="2" rx="2" ry="2"/><rect class="c" x="690" y="18" rx="2" ry="2"/><rect class="c" x="690" y="34" rx="2" ry="2"/><rect class="c" x="690" y="50" rx="2" ry="2"/><rect class="c" x="690" y="66" rx="2" ry="2"/><rect class="c" x="690" y="82" rx="2" ry="2"/><rect class="c" x="690" y="98" rx="2" ry="2"/><rect class="c c1j" x="706" y="2" rx="2" ry="2"/><rect class="c" x="706" y="18" rx="2" ry="2"/><rect class="c" x="706" y="34" rx="2" ry="2"/><rect class="c" x="706" y="50" rx="2" ry="2"/><rect class="c" x="706" y="66" rx="2" ry="2"/><rect class="c" x="706" y="82" rx="2" ry="2"/><rect class="c" x="706" y="98" rx="2" ry="2"/><rect class="c c1k" x="722" y="2" rx="2" ry="2"/><rect class="c" x="722" y="18" rx="2" ry="2"/><rect class="c" x="722" y="34" rx="2" ry="2"/><rect class="c" x="722" y="50" rx="2" ry="2"/><rect class="c" x="722" y="66" rx="2" ry="2"/><rect class="c" x="722" y="82" rx="2" ry="2"/><rect class="c" x="722" y="98" rx="2" ry="2"/><rect class="c c1l" x="738" y="2" rx="2" ry="2"/><rect class="c" x="738" y="18" rx="2" ry="2"/><rect class="c" x="738" y="34" rx="2" ry="2"/><rect class="c" x="738" y="50" rx="2" ry="2"/><rect class="c" x="738" y="66" rx="2" ry="2"/><rect class="c" x="738" y="82" rx="2" ry="2"/><rect class="c" x="738" y="98" rx="2" ry="2"/><rect class="c c1m" x="754" y="2" rx="2" ry="2"/><rect class="c" x="754" y="18" rx="2" ry="2"/><rect class="c" x="754" y="34" rx="2" ry="2"/><rect class="c" x="754" y="50" rx="2" ry="2"/><rect class="c" x="754" y="66" rx="2" ry="2"/><rect class="c" x="754" y="82" rx="2" ry="2"/><rect class="c" x="754" y="98" rx="2" ry="2"/><rect class="c c1n" x="770" y="2" rx="2" ry="2"/><rect class="c" x="770" y="18" rx="2" ry="2"/><rect class="c" x="770" y="34" rx="2" ry="2"/><rect class="c" x="770" y="50" rx="2" ry="2"/><rect class="c" x="770" y="66" rx="2" ry="2"/><rect class="c" x="770" y="82" rx="2" ry="2"/><rect class="c" x="770" y="98" rx="2" ry="2"/><rect class="c c1o" x="786" y="2" rx="2" ry="2"/><rect class="c" x="786" y="18" rx="2" ry="2"/><rect class="c c1p" x="786" y="34" rx="2" ry="2"/><rect class="c" x="786" y="50" rx="2" ry="2"/><rect class="c" x="786" y="66" rx="2" ry="2"/><rect class="c c1q" x="786" y="82" rx="2" ry="2"/><rect class="c" x="786" y="98" rx="2" ry="2"/><rect class="c c1r" x="802" y="2" rx="2" ry="2"/><rect class="c" x="802" y="18" rx="2" ry="2"/><rect class="c" x="802" y="34" rx="2" ry="2"/><rect class="c" x="802" y="50" rx="2" ry="2"/><rect class="c" x="802" y="66" rx="2" ry="2"/><rect class="c" x="802" y="82" rx="2" ry="2"/><rect class="c" x="802" y="98" rx="2" ry="2"/><rect class="c c1s" x="818" y="2" rx="2" ry="2"/><rect class="c" x="818" y="18" rx="2" ry="2"/><rect class="c" x="818" y="34" rx="2" ry="2"/><rect class="c c1t" x="818" y="50" rx="2" ry="2"/><rect class="c" x="818" y="66" rx="2" ry="2"/><rect class="c" x="818" y="82" rx="2" ry="2"/><rect class="c" x="818" y="98" rx="2" ry="2"/><rect class="c" x="834" y="2" rx="2" ry="2"/><rect class="u u0" height="12" width="733.0" x="0.0" y="144"/><rect class="u u1" height="12" width="52.0" x="732.4" y="144"/><rect class="u u2" height="12" width="26.3" x="783.8" y="144"/><rect class="u u3" height="12" width="39.1" x="809.5" y="144"/><rect class="s s0" x="0.8" y="0.8" width="14.4" height="14.4" rx="4.5" ry="4.5"/><rect class="s s1" x="1.8" y="1.8" width="12.3" height="12.3" rx="4.1" ry="4.1"/><rect class="s s2" x="2.6" y="2.6" width="10.8" height="10.8" rx="3.6" ry="3.6"/><rect class="s s3" x="3.0" y="3.0" width="9.9" height="9.9" rx="3.3" ry="3.3"/></svg>